<svg xmlns="http://www.w3.org/2000/svg" xmlns:xlink="http://www.w3.org/1999/xlink" xmlns:serif="http://www.serif.com/" width="100%" height="100%" viewBox="0 0 785 423" xml:space="preserve" style="fill-rule:evenodd;clip-rule:evenodd;stroke-linejoin:round;stroke-miterlimit:2;"><g><path d="M408.635,358.056c-1.719,-0.312 -7.187,-1.406 -12.031,-2.5c-5,-0.937 -9.688,-2.5 -10.625,-3.594c-1.094,-1.406 -0.938,-5.156 0.625,-12.343c1.094,-5.782 2.5,-10.782 2.812,-11.094c0.313,-0.313 3.594,0.469 7.5,1.719c15.313,5.312 36.407,4.687 38.282,-1.094c1.562,-4.844 -1.719,-7.5 -20.313,-16.25c-23.125,-10.938 -27.344,-15.938 -27.344,-32.656c0,-12.032 5,-20.469 15.625,-26.563c8.125,-4.531 9.375,-4.844 25.782,-4.844c9.843,0 20.312,0.938 24.531,2.188c7.031,2.031 7.344,2.187 6.406,7.031c-2.5,12.813 -4.531,17.344 -7.656,16.875c-1.563,-0.312 -7.969,-1.25 -13.906,-2.187c-14.063,-2.188 -20.313,-0 -20.313,7.343c0,4.063 0.938,5.157 8.438,8.594c32.656,15 36.406,18.281 38.281,32.813c2.187,16.093 -5.156,28.281 -20.469,33.437c-7.344,2.5 -29.844,4.531 -35.625,3.125Z" style="fill:#fff;fill-rule:nonzero;"></path><path d="M253.948,356.025c-8.125,-2.031 -16.407,-6.719 -19.532,-11.094c-5.312,-7.5 -6.25,-16.719 -6.25,-71.25l0,-53.437l12.657,-1.875c7.031,-0.938 13.593,-2.188 14.687,-2.657c1.719,-0.625 2.188,9.063 2.656,54.219l0.469,55l4.375,3.75c2.344,2.031 6.094,3.75 8.281,3.75c2.969,0 3.75,0.625 3.125,2.813c-0.312,1.406 -1.093,5.781 -1.718,9.687c-1.719,12.188 -2.032,12.5 -8.282,12.344c-3.125,-0.156 -7.812,-0.625 -10.468,-1.25Z" style="fill:#fff;fill-rule:nonzero;"></path><path d="M307.698,355.4c-7.5,-2.813 -14.532,-7.969 -18.438,-13.438c-6.406,-8.906 -7.969,-20.468 -7.969,-56.718l0,-34.063l29.375,0l0.625,34.844c0.625,37.031 1.407,41.406 8.594,44.687c2.031,0.938 7.969,1.719 12.969,1.719l9.375,0l0.312,-40.781l0.469,-40.781l14.531,-0.313l14.375,-0.156l0,101.875l-8.125,2.031c-12.187,2.969 -49.062,3.75 -56.093,1.094Z" style="fill:#fff;fill-rule:nonzero;"></path><path d="M110.979,355.869l-0,-137.188l10.625,-1.406c5.781,-0.625 19.687,-1.25 30.781,-1.25c33.594,0.156 51.719,7.812 59.688,25.312c7.343,15.782 4.687,39.688 -5.469,50.938c-8.75,9.844 -30,16.719 -51.406,16.719l-12.969,-0l-0,46.875l-31.25,-0Zm64.375,-77.657c7.187,-4.062 10.312,-13.281 7.656,-22.187c-2.656,-9.063 -10.156,-12.656 -27.187,-13.125l-12.813,-0.313l-0.937,40.313l14.062,-0.781c9.844,-0.625 15.625,-1.719 19.219,-3.907Z" style="fill:#fff;fill-rule:nonzero;"></path><path d="M645.51,154.15c-26.25,-2.969 -41.406,-17.344 -45.625,-43.281c-4.219,-25.782 6.563,-50 27.344,-60.938c7.031,-3.75 9.687,-4.219 22.812,-4.219c12.344,0 15.938,0.625 21.25,3.438c10.313,5.469 15.782,10.937 20.313,20.312c3.906,7.813 4.375,10.625 4.531,24.219l0,15.469l-32.344,-0c-18.906,-0 -32.656,0.469 -33.281,1.406c-1.562,2.5 3.75,10.938 9.063,14.063c2.656,1.718 8.125,3.593 12.031,4.062c6.406,1.094 24.062,-0.781 32.187,-3.281c3.125,-0.938 3.594,-0.156 5.157,8.906c0.937,5.625 1.718,11.094 1.718,12.5c0,2.656 -7.5,5.156 -19.531,6.719c-4.219,0.469 -9.219,1.094 -10.937,1.406c-1.719,0.313 -8.282,-0.156 -14.688,-0.781Zm22.656,-65.938c1.875,-1.718 -3.75,-12.812 -7.968,-15.468c-5.938,-3.75 -20.157,-2.969 -23.594,1.406c-3.125,3.906 -7.188,12.812 -6.25,14.219c0.625,1.093 36.719,0.937 37.812,-0.157Z" style="fill:#fff;fill-rule:nonzero;"></path><path d="M727.854,154.306c-5,-0.625 -12.188,-2.031 -16.094,-3.125c-7.969,-2.187 -8.281,-3.125 -4.844,-17.187c2.188,-9.532 1.563,-9.219 15.782,-5.625c18.125,4.531 32.031,2.656 32.031,-4.375c-0,-4.844 -3.438,-7.188 -18.906,-13.438c-22.188,-8.906 -31.407,-21.406 -28.594,-38.125c3.281,-19.844 18.906,-28.75 46.719,-27.031c14.375,0.937 25.781,3.594 25.781,6.094c-0,0.781 -1.094,5.937 -2.5,11.562c-1.719,6.875 -3.281,10 -4.531,9.375c-1.094,-0.312 -6.25,-1.562 -11.407,-2.656c-15.625,-2.969 -26.718,0.625 -24.843,8.281c0.781,2.969 3.906,5.156 14.687,9.844c24.531,10.781 29.688,15.156 32.031,26.875c4.532,24.219 -8.125,37.656 -37.812,39.844c-4.688,0.468 -12.656,0.156 -17.5,-0.313Z" style="fill:#fff;fill-rule:nonzero;"></path><path d="M16.916,152.587c-7.5,-0.625 -14.375,-1.562 -15.312,-2.187c-2.031,-1.25 -2.188,-132.969 -0.156,-134.219c3.906,-2.5 41.25,-4.219 55.468,-2.656c23.282,2.656 35.625,9.375 41.719,22.656c6.094,13.438 2.813,29.219 -7.656,37.813l-3.906,3.281l6.875,4.531c10,6.719 14.375,15.625 14.218,28.75c-0.156,34.688 -28.437,47.656 -91.25,42.031Zm49.844,-27.812c7.5,-3.438 9.844,-7.031 9.844,-15c-0,-12.969 -6.719,-16.875 -29.688,-17.031l-16.406,-0.157l-0.469,17.657l-0.468,17.5l15.312,-0c11.563,-0 16.875,-0.782 21.875,-2.969Zm-7.031,-57.969c11.25,-3.125 15.625,-14.687 8.75,-22.5c-4.063,-4.531 -16.25,-6.875 -30.469,-5.937l-8.281,0.625l-0,29.375l12.187,-0c6.563,-0 14.688,-0.782 17.813,-1.563Z" style="fill:#fff;fill-rule:nonzero;"></path><path d="M145.354,152.9c-15.313,-3.281 -23.906,-11.406 -26.875,-25.469c-3.438,-16.094 3.437,-29.062 19.062,-36.25c5.782,-2.656 10.157,-3.281 24.532,-3.281c19.375,-0 19.531,-0.156 15.156,-9.375c-3.438,-7.344 -9.063,-9.219 -25.313,-8.125c-7.5,0.469 -15.156,1.406 -17.031,1.875c-4.062,1.25 -5,-1.406 -5.625,-14.844l-0.312,-8.437l10.156,-2.032c14.062,-2.656 33.75,-2.5 43.437,0.313c11.25,3.437 19.532,11.719 22.813,22.5c2.031,6.719 2.5,15.937 2.5,44.062l-0,35.469l-9.688,1.875c-12.187,2.188 -45.468,3.438 -52.812,1.719Zm34.062,-33.281l-0.468,-11.407l-8.594,-0.468c-11.719,-0.782 -20,1.875 -21.875,6.875c-2.344,5.937 -1.875,8.281 2.344,12.343c3.437,3.438 5,3.907 16.406,3.907l12.656,-0l-0.469,-11.25Z" style="fill:#fff;fill-rule:nonzero;"></path><path d="M242.541,151.806c-3.75,-1.406 -9.218,-4.844 -12.031,-7.812c-9.375,-9.219 -10.156,-15 -10.156,-72.032l-0,-50.468l3.594,-0.782c3.906,-0.781 23.125,-3.906 25,-3.906c0.625,0 1.093,7.031 1.093,15.625l0,15.625l36.094,0l-0.625,12.031l-0.625,12.188l-34.844,-0l0,22.031c0,26.406 1.25,30.938 8.907,33.594c5.156,1.719 18.75,1.094 24.375,-1.094c1.562,-0.625 2.5,0.938 3.125,5.938c0.468,3.75 1.406,8.906 1.875,11.562c0.937,4.063 0.468,5 -3.438,6.719c-6.875,3.281 -34.219,3.75 -42.344,0.781Z" style="fill:#fff;fill-rule:nonzero;"></path><path d="M319.729,151.962c-14.219,-5 -20.625,-14.843 -22.969,-34.843c-1.094,-9.219 -1.875,-95.625 -0.781,-95.625c-0,-0 6.094,-1.094 13.437,-2.344c7.344,-1.25 14.219,-2.344 15.313,-2.344c1.406,0 1.875,4.219 1.875,15.625l-0,15.625l34.531,0l-0.469,12.031l-0.468,12.188l-16.719,-0.156l-16.875,-0.157l-0,22.188c-0,26.875 1.25,31.406 9.375,33.75c5,1.562 15.781,1.25 24.219,-0.625c1.406,-0.313 2.187,2.5 4.531,16.406l1.094,5.781l-8.125,2.5c-10.157,2.969 -29.844,2.969 -37.969,0Z" style="fill:#fff;fill-rule:nonzero;"></path><path d="M401.291,151.65c-23.593,-8.125 -36.406,-32.188 -32.343,-60.781c1.875,-13.438 5.781,-22.032 13.75,-30.782c9.687,-10.468 19.687,-14.375 36.875,-14.375c12.187,0 15.156,0.625 22.031,4.219c16.562,8.75 23.281,21.563 23.281,44.688l0,14.531l-32.344,0.312c-17.656,0.157 -32.656,0.782 -33.281,1.407c-1.875,1.718 3.906,10.625 9.063,13.75c7.031,4.375 17.343,5.468 30.781,3.437c6.406,-1.094 13.125,-2.031 14.687,-2.187c1.875,-0.313 3.125,0.625 3.282,2.656c0.312,1.719 0.937,7.031 1.562,11.719l1.094,8.75l-5.938,2.031c-9.843,3.281 -43.75,3.75 -52.5,0.625Zm35.313,-67.188c-2.344,-10 -8.281,-14.531 -19.219,-14.531c-7.656,0 -15.156,5.938 -17.187,13.75l-1.563,5l38.906,0l-0.937,-4.219Z" style="fill:#fff;fill-rule:nonzero;"></path><path d="M479.26,151.806c-0.625,-0.625 -1.094,-22.812 -1.094,-49.062c0,-36.719 0.469,-48.438 2.032,-49.688c2.656,-2.187 20.312,-6.25 32.5,-7.344c10.468,-1.093 30.468,1.094 32.968,3.594c1.407,1.406 -0.781,15.313 -3.437,21.875c-1.25,2.969 -2.031,3.281 -4.688,1.875c-3.437,-1.875 -26.25,-2.5 -27.968,-0.781c-0.469,0.625 -0.938,18.75 -0.938,40.312l0,39.375l-14.219,0.469c-7.656,0.156 -14.531,0 -15.156,-0.625Z" style="fill:#fff;fill-rule:nonzero;"></path><path d="M557.854,152.9l-0,-104.844l29.687,0l-0.312,52.031l-0.469,51.875l-14.375,0.469l-14.531,0.469Z" style="fill:#fff;fill-rule:nonzero;"></path><path d="M564.729,33.369c-6.719,-2.969 -10,-8.282 -10,-15.938c-0,-8.281 4.375,-14.062 12.5,-16.406c5.312,-1.563 7.187,-1.406 12.656,0.937c7.5,3.438 9.219,6.25 9.219,15.313c-0,8.594 -4.219,14.531 -12.188,16.719c-7.031,1.875 -6.25,1.875 -12.187,-0.625Z" style="fill:#fff;fill-rule:nonzero;"></path></g><g><path d="M532.073,421.65c-17.344,-2.813 -34.063,-9.531 -47.813,-19.219l-3.75,-2.656l13.594,-13.281c7.5,-7.344 14.062,-12.657 14.531,-11.719c1.563,2.344 13.438,7.969 21.875,10.156c4.375,1.25 14.219,2.188 21.875,2.188c25.156,-0 40.781,-6.094 58.594,-22.813c12.344,-11.719 22.031,-27.656 24.844,-40.937c2.187,-10.313 2.187,-30 -0,-39.375c-2.657,-11.719 -12.032,-29.375 -20,-37.344c-17.657,-18.125 -34.844,-26.563 -57.188,-27.813c-15.937,-0.937 -27.031,1.25 -43.594,8.75l-10.156,4.532l-11.406,-11.563c-6.25,-6.25 -11.406,-12.344 -11.406,-13.281c-0,-0.938 5,-4.531 10.937,-7.969c35.625,-20.469 77.188,-21.719 113.125,-3.594c23.906,11.875 43.75,31.719 55.625,55.469c16.094,31.875 14.688,83.125 -2.969,108.594c-2.968,4.375 -7.031,10.625 -8.906,13.906c-1.875,3.438 -8.594,11.25 -15,17.344c-12.812,12.344 -32.656,23.594 -49.687,28.125c-10.782,2.812 -41.563,4.219 -53.125,2.5Z" style="fill:#fff;fill-rule:nonzero;"></path></g><g><path d="M544.416,361.65c-4.531,-3.906 -4.531,-4.063 -5,-24.219l-0.625,-20.312l-20.156,-0.625c-25,-0.625 -27.344,-2.188 -26.562,-17.969c0.312,-6.875 6.093,-8.594 27.5,-8.438l19.531,0.313l-0,-18.75c-0,-22.031 1.25,-26.094 8.594,-29.063c4.843,-2.031 5.937,-2.031 10.781,0.157c2.969,1.406 6.094,4.375 7.031,6.406c0.938,2.031 1.719,12.187 1.719,22.344l-0,18.75l20.156,-0c21.25,-0 22.813,0.468 26.719,7.968c2.656,4.688 -0.625,14.532 -5.469,16.719c-2.344,1.094 -11.875,1.875 -22.656,1.875l-18.438,0l-0.625,20.313c-0.468,22.812 -1.875,25.781 -12.343,27.5c-4.532,0.781 -6.407,0.156 -10.157,-2.969Z" style="fill:#fff;fill-rule:nonzero;"></path></g></svg>