<svg xmlns="http://www.w3.org/2000/svg" xmlns:xlink="http://www.w3.org/1999/xlink" xmlns:serif="http://www.serif.com/" width="100%" height="100%" viewBox="0 0 12701 1793" xml:space="preserve" style="fill-rule:evenodd;clip-rule:evenodd;stroke-linejoin:round;stroke-miterlimit:2;"><g><path d="M11728.4,1791.5c-219.166,-8.75 -397.916,-65.834 -545.833,-174.584c-35,-25.833 -119.167,-107.083 -136.25,-131.25l-8.75,-12.5l133.333,-112.5c72.917,-62.083 137.5,-116.25 143.334,-120.416l10.833,-7.917l31.667,31.25c136.25,133.333 278.333,195 448.75,195c32.5,0 70,-2.083 83.75,-4.583c94.166,-16.667 165.833,-65.834 185,-127.5c21.666,-70.834 0.833,-124.584 -68.334,-173.75c-30,-21.667 -114.166,-64.167 -179.583,-91.25c-166.667,-68.75 -250.417,-114.167 -322.083,-175c-64.584,-54.584 -115,-130 -134.584,-202.917c-12.5,-45.417 -15.416,-147.917 -5.833,-200.833c12.917,-72.084 31.25,-121.667 66.25,-179.167c100.833,-165.417 281.667,-270.417 515,-299.583c52.5,-6.25 187.083,-5 248.75,2.5c64.583,7.916 136.25,23.75 184.167,40.416c100.416,34.584 218.333,107.084 293.75,180.417l28.75,27.917l-130.834,130.833c-113.333,113.333 -131.666,130 -137.5,125.417c-3.75,-2.5 -20.833,-16.667 -37.5,-31.25c-92.916,-79.167 -186.25,-125.417 -284.166,-140.834c-52.084,-8.333 -155.417,-6.25 -192.5,4.167c-79.584,21.667 -147.917,90 -155,154.583c-2.917,25.417 5.833,61.25 20,82.917c27.083,40.417 74.583,68.333 235,138.75c198.75,87.5 273.333,129.583 339.166,191.25c43.75,40.833 67.5,72.917 92.084,124.583c24.166,49.167 31.666,76.667 37.083,133.334c10.417,111.25 -15.417,226.666 -71.25,318.333c-60,97.917 -143.333,172.5 -251.25,225.417c-128.333,62.5 -256.25,85.416 -435.417,78.75Z" style="fill:#fff;fill-rule:nonzero;"></path><path d="M0.019,1765.25c0.833,-3.334 106.25,-397.084 234.583,-875l233.334,-869.167l327.083,0c348.75,0 457.917,3.333 531.25,16.667c174.167,30.833 296.667,106.666 363.75,225.416c53.75,95 61.25,240.417 17.5,352.5c-19.583,51.25 -40.833,83.334 -83.333,126.667c-42.917,43.75 -79.584,69.583 -138.75,97.5c-35,16.667 -103.75,39.583 -117.917,39.583c-12.083,0 -5,7.084 15.833,17.084c35.417,16.25 78.334,46.25 112.917,78.75c78.75,73.75 108.75,145.416 108.333,260.416c0,32.084 -2.083,70.417 -5,85.417c-27.083,147.083 -115.416,264.583 -256.666,342.917c-79.584,44.166 -185,76.666 -297.917,92.5c-83.333,11.666 -207.5,14.166 -632.5,14.583c-354.167,0 -413.75,-0.833 -412.5,-5.833Zm1021.25,-340.417c100.833,-20.417 166.667,-67.917 195.417,-140.833c7.083,-18.75 9.166,-32.084 9.166,-67.5c0,-41.667 -0.833,-45.834 -13.333,-71.667c-22.083,-44.583 -64.583,-73.75 -128.75,-89.167c-24.167,-5.833 -65.833,-7.083 -275,-8.333c-235.417,-1.667 -246.25,-1.667 -248.75,5.833c-8.75,30 -98.333,372.084 -98.333,375.834c-0,3.333 70,4.583 258.75,4.583c245,0 260.833,-0.417 300.833,-8.75Zm124.583,-703.75c69.584,-11.667 108.334,-26.667 144.167,-55c41.667,-32.917 63.75,-83.333 63.75,-145.833c0.417,-31.667 -1.25,-39.167 -12.5,-62.917c-21.25,-44.167 -56.25,-70.417 -119.167,-89.167c-22.083,-6.25 -50.416,-7.5 -250,-8.75l-225.416,-1.25l-47.5,180.417c-25.834,99.167 -47.917,182.917 -49.167,185.833c-1.25,3.75 45,5 223.333,5c204.167,0 229.167,-0.833 272.5,-8.333Z" style="fill:#fff;fill-rule:nonzero;"></path><path d="M1790.85,1770.25c0.417,-0.834 105.834,-394.167 235,-874.167l234.584,-872.917l357.916,0c365.417,0.417 404.167,1.667 495.417,17.084c252.5,43.75 413.333,179.583 458.75,389.166c11.25,50.417 11.25,194.584 0.417,245.834c-18.334,85.416 -54.167,167.916 -100,230c-66.667,90 -190,177.083 -320,225.416c-40,15 -108.75,36.25 -117.917,36.25c-17.5,0.417 -15.417,7.5 22.917,83.75c20.833,42.084 87.5,176.667 147.916,298.75l109.167,221.667l-431.25,0l-135,-280l-135.417,-280.417l-145.416,-1.25l-145.834,-0.833l-75,280l-75,280.417l-190.416,1.25c-105,0.416 -190.834,0.416 -190.834,-0Zm1115.83,-910.834c162.5,-36.666 253.75,-113.75 274.166,-232.083c18.75,-107.5 -27.916,-195 -123.333,-232.083c-62.917,-24.584 -104.583,-28.334 -323.75,-28.334l-184.167,0l-4.166,15.834c-2.5,8.333 -32.5,120.416 -67.084,248.75c-34.166,128.333 -62.5,234.583 -62.5,236.666c0,2.084 101.667,2.917 226.25,1.667c210.834,-1.25 228.334,-2.083 264.584,-10.417Z" style="fill:#fff;fill-rule:nonzero;"></path><path d="M3464.6,1730.25c15.417,-22.5 290.834,-418.75 611.25,-881.25l582.917,-840.417l182.917,0c100.416,0 182.5,1.25 182.916,3.333c0,1.667 62.5,397.5 138.334,880l138.333,877.084l-193.333,1.25c-117.5,0.416 -194.584,-0.417 -196.25,-2.917c-1.25,-2.083 -14.167,-90 -28.75,-195c-14.584,-105 -27.084,-192.083 -28.334,-193.75c-0.833,-2.083 -168.333,-3.333 -371.666,-3.333l-369.584,-0l-133.333,197.916l-132.917,197.5l-205.416,0.417l-205.417,0l28.333,-40.833Zm1345.42,-699.584c-1.25,-6.666 -19.167,-135.416 -40,-286.666c-20.833,-151.25 -38.333,-277.917 -38.75,-281.25c-0.833,-4.584 -358.333,524.583 -387.917,574.166c-2.5,3.75 45.417,5 232.917,5l236.25,0l-2.5,-11.25Z" style="fill:#fff;fill-rule:nonzero;"></path><path d="M5528.35,1743.17c4.167,-15.833 107.5,-399.583 229.167,-853.333c121.667,-453.75 224.167,-835 227.5,-847.083l6.25,-21.667l175.417,0.833l175.416,1.25l254.584,555c140,305.417 255.833,555.417 257.083,555.417c1.25,0 69.583,-250.417 152.083,-556.25l149.584,-556.25l188.333,0c149.167,0 187.917,1.25 186.667,5c-1.25,2.917 -106.25,393.333 -233.334,867.917c-127.5,474.583 -232.5,865.833 -233.75,870c-2.083,6.666 -13.333,7.083 -163.333,7.083l-161.25,0l-264.167,-571.667c-145,-314.583 -265,-573.333 -266.666,-575.416c-1.667,-1.667 -45.834,156.666 -98.334,352.083c-52.5,195.417 -121.666,453.75 -153.75,574.167l-58.75,218.75l-188.333,1.25l-188.333,0.833l7.916,-27.917Z" style="fill:#fff;fill-rule:nonzero;"></path><path d="M7487.52,1765.67c0.417,-3.333 106.25,-397.5 234.583,-875.416l233.334,-869.167l239.583,0c405.833,0.417 512.5,8.75 645.833,50.833c265.417,84.167 427.917,257.084 478.75,509.584c24.167,120.416 21.25,275 -7.916,400.416c-64.167,276.25 -254.584,514.584 -516.667,647.084c-145.417,73.75 -283.75,112.083 -479.167,132.083c-52.083,5.417 -138.333,7.083 -447.083,8.75c-342.083,2.083 -382.917,1.667 -381.25,-4.167Zm834.583,-350c56.25,-8.75 111.25,-21.25 152.917,-34.166c269.583,-84.167 436.25,-280.834 461.667,-545c22.083,-223.75 -66.25,-370.834 -262.084,-436.25c-79.166,-26.667 -152.916,-34.167 -312.5,-32.5l-118.333,1.25l-140.833,522.5c-77.917,287.5 -141.25,525.416 -141.25,528.75c-0,8.75 298.75,4.583 360.416,-4.584Z" style="fill:#fff;fill-rule:nonzero;"></path><path d="M9428.35,1770.25c0.417,-0.834 105.834,-394.167 235,-874.167l234.584,-872.917l650.416,-1.25c357.917,-0.416 650.834,0.417 650.834,2.084c0.416,2.083 -20,78.75 -44.584,170.833l-45,167.917l-925.416,-0l-46.667,176.25c-25.833,96.666 -46.667,177.083 -46.667,179.166c0,1.667 182.084,2.917 404.167,2.917c320.417,0 404.167,1.25 404.167,5.417c-0,2.5 -20.417,78.333 -45,167.5l-44.584,162.5l-406.666,1.25l-406.667,0.833l-48.333,180.417c-26.667,99.166 -48.75,182.5 -48.75,185.416c-0,3.75 106.25,5 469.166,5c397.5,0 468.75,0.834 467.084,5.834c-1.25,2.916 -20.417,72.916 -42.5,155c-22.084,82.5 -42.084,156.666 -44.584,165.416l-4.583,15.417l-657.917,0c-361.666,0 -657.5,-0.417 -657.5,-0.833Z" style="fill:#fff;fill-rule:nonzero;"></path></g></svg>