<svg xmlns="http://www.w3.org/2000/svg" xmlns:xlink="http://www.w3.org/1999/xlink" xmlns:serif="http://www.serif.com/" width="100%" height="100%" viewBox="0 0 9625 6867" xml:space="preserve" style="fill-rule:evenodd;clip-rule:evenodd;stroke-linejoin:round;stroke-miterlimit:2;"><g><path d="M1791.67,6866.67l-0,-75l6041.67,-0l0,75l-6041.67,-0Z" style="fill:#fff;fill-rule:nonzero;"></path><path d="M6046.25,6277.08c-51.667,-14.583 -81.25,-48.333 -96.667,-110.416c-8.333,-32.5 -8.333,-521.25 -0.416,-564.584c14.166,-74.583 50.416,-114.583 115.416,-126.666c35.417,-6.667 60.417,-5.834 89.167,3.333c41.25,12.917 73.333,41.667 89.167,79.583l9.166,22.917l0,277.083c0,250.417 -0.833,280 -7.5,308.334c-17.916,77.083 -59.583,110.833 -140.416,115c-23.75,1.25 -42.5,-0.417 -57.917,-4.584Zm83.333,-44.583c23.334,-6.667 47.5,-29.167 60.834,-56.667l11.666,-23.75l0,-558.333l-10,-18.75c-19.583,-37.5 -44.166,-54.167 -85.833,-57.083c-50,-4.167 -85,16.25 -102.917,60.416c-9.583,23.75 -9.583,24.167 -10.833,280c-1.25,271.667 -0.417,288.75 17.917,325c23.333,45.417 69.166,64.584 119.166,49.167Z" style="fill:#fff;fill-rule:nonzero;"></path><path d="M7547.08,6275.83c-70.833,-25.416 -101.25,-92.916 -101.25,-226.666l0,-36.667l49.167,0l2.083,63.75c2.5,80 9.167,105 35.834,132.5c22.083,22.5 39.166,28.75 79.583,28.75c43.75,-0.417 74.167,-19.167 90,-56.25c10.833,-25 12.917,-96.667 3.75,-130.833c-14.583,-55.834 -32.083,-82.084 -119.167,-177.917c-69.583,-76.667 -87.916,-103.333 -105.416,-151.667c-28.75,-78.75 -12.084,-181.666 35.833,-222.916c22.5,-18.75 50.417,-27.084 92.917,-27.084c103.75,0 143.75,52.5 143.75,188.75l-0,44.584l-49.167,-0l-1.667,-63.334c-2.083,-71.666 -6.25,-85.833 -30,-106.666c-16.666,-14.584 -35.416,-19.584 -69.166,-19.167c-49.167,0.833 -75.417,30 -83.334,91.667c-7.083,54.166 5.834,106.666 37.084,154.166c8.75,13.75 46.25,57.084 82.916,97.084c36.667,40 73.75,84.166 81.667,97.916c44.167,74.167 52.5,185.834 19.583,255.417c-14.583,30 -28.75,43.333 -60.833,57.917c-33.333,15.416 -100.417,18.75 -134.167,6.666Z" style="fill:#fff;fill-rule:nonzero;"></path><path d="M1862.5,6270.83l0,-791.666l270.833,-0l0,45.833l-220.833,0l0,308.333l183.333,0l0,45.834l-183.333,-0l0,350l220.833,-0l0,41.666l-270.833,0Z" style="fill:#fff;fill-rule:nonzero;"></path><path d="M2525,6268.33c0,-1.25 30.833,-99.583 68.75,-217.916c37.917,-118.75 68.75,-218.75 68.75,-222.5c0,-9.167 -47.5,-173.334 -77.083,-265.417c-12.5,-40 -24.167,-76.25 -25.417,-80c-2.083,-6.667 0.833,-7.5 24.167,-7.5l26.666,0l7.5,32.5c4.167,17.5 17.5,66.667 29.584,109.167c12.5,42.5 25.416,89.166 29.166,104.166c12.917,52.084 15,59.167 17.084,57.5c0.833,-1.25 9.166,-29.166 18.333,-62.5c18.75,-69.166 37.917,-131.25 60.417,-195.833l15.416,-45l26.667,-0c14.583,-0 26.667,0.833 26.667,1.667c-0,0.833 -5,14.583 -10.834,30c-5.833,15.833 -32.916,95.833 -60,177.916l-49.166,149.584l64.166,214.166c35.417,117.5 64.167,215.834 64.167,218.334c0,2.5 -10.417,4.166 -24.583,4.166l-24.167,0l-11.667,-48.75c-6.25,-27.083 -24.583,-89.583 -40.416,-138.75c-15.417,-49.166 -34.167,-111.25 -41.25,-137.5c-6.667,-26.25 -13.75,-50.833 -14.584,-54.166c-1.25,-3.334 -7.5,14.583 -14.166,39.583c-6.25,25.417 -28.334,96.667 -49.167,158.333c-20.833,62.084 -40.833,127.917 -45.417,147.084l-7.5,34.166l-25.833,0c-14.583,0 -26.25,-1.25 -26.25,-2.5Z" style="fill:#fff;fill-rule:nonzero;"></path><path d="M3970.83,6270.83l0,-791.666l270.834,-0l-0,45.833l-220.834,0l0,308.333l183.334,0l-0,45.834l-183.334,-0l0,350l220.834,-0l-0,41.666l-270.834,0Z" style="fill:#fff;fill-rule:nonzero;"></path><path d="M4946.25,6261.67c-2.083,-5.417 -31.667,-89.167 -66.25,-186.667c-34.583,-97.5 -64.167,-180.417 -65.417,-184.167c-2.5,-6.666 -9.166,-7.5 -48.333,-7.5l-45.417,0l0,383.334l-50,-0l0,-138.75c0,-76.667 1.25,-254.584 2.917,-395.834l2.5,-257.083l78.333,0c131.667,0 175,14.583 201.667,66.667c13.75,27.083 18.75,62.083 18.75,131.25c-0,120.416 -18.75,163.75 -83.333,195l-28.334,13.333l60,166.667c32.917,91.666 64.584,179.166 70.417,195l10.417,27.916l-27.084,0c-24.583,0 -27.5,-0.833 -30.833,-9.166Zm-87.083,-428.334c20.416,-5.833 38.75,-21.666 50.416,-43.333c8.334,-15.833 9.167,-23.75 10.417,-99.167c1.667,-92.916 -2.083,-121.666 -19.167,-141.666c-20.416,-24.167 -40.833,-29.584 -114.166,-31.667l-65.834,-1.667l0,321.667l61.667,-0c33.75,-0 68.333,-2.083 76.667,-4.167Z" style="fill:#fff;fill-rule:nonzero;"></path><path d="M5440.42,6267.92c-1.667,-1.25 -2.917,-180.417 -2.917,-397.917l0,-395l50,0l0,795.833l-22.083,0c-12.5,0 -23.75,-1.25 -25,-2.916Z" style="fill:#fff;fill-rule:nonzero;"></path><path d="M6990,6253.33c-3.75,-10 -34.583,-96.666 -68.75,-192.916l-61.667,-175l-44.583,-1.25l-44.167,-1.25l0,383.75l-50,-0l0,-791.667l78.334,0c117.916,0 157.083,9.167 188.333,44.583c26.25,30 30,46.667 32.5,135.417c2.083,86.667 -2.083,122.083 -17.917,153.333c-12.5,24.584 -38.333,47.917 -68.75,62.084l-23.75,10.833l51.25,141.667c28.334,77.916 59.584,165.416 70,195l18.75,52.916l-52.916,0l-6.667,-17.5Zm-84.583,-420.416c23.333,-6.25 47.083,-29.584 55,-53.75c5.833,-17.084 6.666,-35.834 5.416,-111.25c-1.25,-90 -1.25,-90.834 -12.5,-110c-18.75,-31.667 -49.583,-41.25 -132.916,-41.25l-49.584,-0l0,320.833l59.584,-0c32.5,-0 66.25,-2.083 75,-4.583Z" style="fill:#fff;fill-rule:nonzero;"></path><path d="M3362.5,6266.67l0,-741.667l-133.333,0l-0,-50l325,0l-0,50l-141.667,0l0,741.667l-50,-0Z" style="fill:#fff;fill-rule:nonzero;"></path><path d="M5127.08,5024.17c-56.25,-6.25 -98.75,-18.334 -210,-60.417c-99.166,-37.5 -108.75,-40.417 -137.916,-40.417c-27.084,-0.416 -34.167,1.25 -53.75,12.084c-24.167,13.333 -40.417,30.833 -55.417,59.166c-9.167,16.667 -10.833,17.917 -27.083,17.917l-17.917,0l0,-291.25c0,-261.667 0.833,-291.25 6.667,-293.75c16.666,-6.25 21.666,-2.917 24.583,17.5c1.667,10.833 9.167,44.167 16.667,74.167c70.416,275.416 247.083,446.666 478.333,463.75c181.667,13.333 317.917,-51.667 383.75,-182.5c27.917,-54.584 33.333,-82.917 32.917,-173.334c-0,-73.75 -0.834,-81.666 -10.834,-115.833c-29.166,-94.583 -69.583,-140.417 -167.5,-189.167c-56.25,-28.333 -96.666,-43.75 -229.166,-87.916c-164.167,-54.584 -261.667,-95.834 -325,-137.084c-127.084,-82.916 -186.667,-195.833 -185.834,-352.916c0.417,-138.334 46.25,-242.084 152.084,-342.917c98.75,-94.167 214.166,-143.75 358.75,-153.333c47.916,-2.917 117.916,2.916 167.083,14.583c18.75,4.167 67.083,19.167 107.083,32.917c73.75,25 141.25,42.083 166.25,42.083c37.5,-0 72.084,-23.333 85,-56.667c6.667,-17.916 7.5,-18.333 25,-18.333l18.334,-0l-0,256.25c-0,202.083 -1.25,256.25 -5,256.25c-2.917,-0 -9.167,1.25 -14.167,2.5c-7.917,2.083 -10,-1.667 -22.083,-48.75c-27.5,-102.917 -58.334,-177.083 -100.834,-239.583c-58.75,-87.5 -152.916,-157.084 -252.083,-187.5c-34.167,-10.834 -42.5,-11.667 -112.083,-11.667c-85.417,-0.417 -106.667,3.75 -162.5,30.417c-102.084,48.75 -172.084,141.666 -191.667,253.333c-25.833,147.5 32.083,264.167 163.75,330c47.5,23.75 130,55 256.667,97.083c146.666,48.75 183.333,62.5 250.416,95c194.167,94.167 276.667,225.834 267.5,426.25c-7.916,176.25 -101.25,325.834 -262.083,421.25c-116.667,68.75 -267.083,97.917 -417.917,80.834Z" style="fill:#fff;fill-rule:nonzero;"></path><path d="M6482.08,5024.58c-59.166,-6.666 -99.583,-17.916 -190.416,-52.5c-138.75,-52.916 -155.417,-56.666 -195.417,-44.583c-26.667,7.917 -55,32.5 -72.083,62.917c-11.667,20.416 -13.75,22.083 -28.334,22.083l-15.416,-0l-3.334,-290c-2.5,-242.083 -2.083,-290.833 2.5,-293.75c6.25,-3.75 24.584,-5 24.584,-1.667c-0,1.25 5,25 10.833,52.917c62.083,296.25 245.833,485.417 487.917,502.917c91.25,6.25 168.333,-5.834 233.75,-37.084c67.5,-32.083 119.166,-82.083 148.75,-143.75c29.583,-61.25 33.333,-79.583 33.333,-172.916c-0,-72.5 -0.833,-85 -9.583,-114.584c-15.834,-54.166 -36.667,-92.083 -69.584,-125.416c-52.083,-52.917 -120.833,-85.834 -313.333,-150c-130.833,-43.334 -202.5,-71.25 -267.917,-102.917c-139.166,-67.917 -214.583,-153.333 -246.666,-280.417c-7.917,-31.666 -9.584,-47.5 -9.167,-112.083c-0,-67.083 1.25,-79.167 11.25,-115.417c12.5,-47.916 36.25,-100 64.167,-141.666c25.833,-39.167 98.333,-111.667 139.583,-140c78.333,-53.334 172.083,-86.667 272.083,-96.667c93.75,-9.167 169.584,2.083 291.667,43.75c89.167,30.417 157.083,45.833 184.167,42.083c36.666,-5 66.666,-29.583 74.166,-61.666c2.917,-10.417 4.584,-11.667 21.25,-11.667l18.334,-0l-0,511.667l-12.917,2.916c-7.083,1.667 -13.333,2.084 -13.75,1.25c-0.417,-0.416 -6.25,-21.666 -12.917,-47.083c-37.5,-147.083 -88.333,-243.75 -168.333,-319.167c-66.667,-63.333 -141.667,-103.75 -220,-118.75c-41.667,-7.916 -122.5,-7.5 -162.5,0.834c-102.083,20.833 -190.833,90.416 -239.583,187.083c-27.084,52.917 -40.417,133.75 -32.917,195.417c10.833,88.333 52.083,154.166 127.917,204.583c46.666,30.833 167.5,78.75 324.583,129.167c317.917,100.833 443.333,202.083 482.083,389.583c7.084,33.333 7.917,50.833 6.25,112.5c-1.666,61.667 -3.75,79.167 -12.916,114.583c-14.167,53.334 -48.334,124.167 -80.417,166.667c-47.5,63.75 -130.417,133.333 -200.833,168.75c-105.417,52.5 -253.75,77.083 -380.834,62.083Z" style="fill:#fff;fill-rule:nonzero;"></path><path d="M704.167,5010c-131.25,-17.5 -247.5,-62.917 -354.167,-138.333c-46.667,-32.917 -137.917,-122.084 -174.167,-170.417c-117.5,-155.417 -175.833,-341.25 -175.833,-557.5c0,-192.5 48.333,-362.5 145.417,-511.667c39.166,-59.583 67.916,-95.416 121.25,-150.416c185,-190.417 405.416,-266.25 666.666,-229.167c74.167,10.833 144.167,30.833 243.75,70.417c20.834,7.916 48.75,16.666 62.917,19.583c21.667,3.75 27.083,3.333 40.833,-2.917c16.25,-7.916 37.084,-38.333 42.5,-61.25c2.084,-10 4.584,-11.666 16.25,-11.666c13.334,-0 14.167,0.833 16.25,17.916c1.25,9.584 10,129.167 19.167,265.417c9.167,136.25 17.5,253.75 18.333,261.25c1.667,11.25 0.417,13.333 -9.166,15.833c-6.25,1.25 -14.167,3.334 -17.917,4.584c-5,1.25 -8.333,-4.584 -14.167,-26.25c-15,-56.25 -48.75,-149.584 -71.25,-196.667c-44.166,-93.333 -116.666,-186.667 -184.583,-238.333c-34.167,-25.834 -100.833,-59.167 -142.083,-70.417c-50,-13.75 -120.417,-19.167 -173.75,-13.333c-117.084,12.5 -200.417,53.333 -283.334,140c-160,166.25 -237.5,437.5 -221.666,776.666c7.916,172.5 37.916,306.25 95.833,425.834c87.083,180 211.667,284.583 384.167,321.666c52.083,10.834 168.75,13.334 219.583,3.75c100.833,-18.333 188.333,-63.75 260.417,-135.833c82.083,-82.083 136.25,-187.083 166.25,-323.333c5.833,-26.667 10.833,-53.334 10.833,-59.167c-0,-13.75 3.333,-15.833 22.5,-12.5c15,2.5 15,2.917 12.5,17.5c-16.667,102.917 -40.833,182.083 -76.25,252.083c-91.667,180.834 -254.167,294.167 -456.667,318.75c-50.416,6.25 -156.666,5 -210.416,-2.083Z" style="fill:#fff;fill-rule:nonzero;"></path><path d="M8895.83,5012.5c-192.5,-23.333 -356.25,-105.417 -485.416,-242.083c-122.917,-131.25 -196.667,-286.667 -225.417,-476.667c-10.833,-70 -10.833,-230 -0.417,-297.917c30.834,-195.416 112.5,-362.083 247.5,-504.583c99.584,-104.583 207.917,-175 329.584,-213.75c74.166,-23.75 132.083,-32.5 219.583,-32.917c126.667,-0.833 203.75,14.584 348.75,69.584c81.667,30.416 107.917,35.833 127.5,25.833c15.417,-7.917 28.333,-25.833 38.333,-51.667c6.667,-17.916 8.75,-19.583 21.25,-19.583l14.167,0l17.083,247.917c9.584,136.25 18.334,261.25 20,277.5l2.5,30l-11.666,2.5c-6.25,1.666 -14.167,3.75 -17.917,5c-4.583,1.25 -7.5,-3.75 -11.667,-20c-12.916,-52.917 -48.75,-151.667 -73.75,-202.917c-107.083,-223.333 -272.5,-335.417 -476.666,-324.167c-126.25,7.084 -221.25,51.667 -310,145c-108.75,114.167 -180.417,285 -209.584,499.584c-10.833,80 -10.833,315.416 0,391.666c31.25,217.084 100.417,376.667 212.917,490c76.25,76.25 150.833,117.084 257.917,140c56.666,12.084 173.333,13.334 229.583,2.084c132.5,-26.667 241.667,-100.834 319.583,-216.667c54.584,-81.25 82.084,-157.5 110.417,-306.25c1.667,-8.333 3.333,-9.167 17.5,-6.667c8.333,1.667 16.25,3.334 17.083,4.167c0.834,0.833 -3.333,27.917 -9.583,60c-53.75,280.417 -223.75,465 -477.083,517.083c-46.25,9.584 -189.167,14.167 -242.084,7.917Z" style="fill:#fff;fill-rule:nonzero;"></path><path d="M1562.5,4995.83l0,-32.5l28.333,-2.916c67.084,-6.667 108.334,-22.5 142.917,-55c35,-32.5 50.833,-69.167 65,-147.917c7.083,-40.417 7.5,-82.083 7.5,-667.917c0,-579.583 -0.417,-627.083 -7.083,-650.833c-14.584,-53.333 -38.75,-85 -78.75,-105c-21.25,-10.833 -37.917,-15.417 -98.334,-27.917c-8.333,-1.666 -9.583,-4.583 -9.583,-20.416l0,-18.75l666.667,-0l-0,18.75c-0,15.833 -1.25,18.75 -9.167,20.416c-88.333,15.834 -130.833,32.084 -161.667,61.667c-30.416,29.167 -45.416,75.417 -54.166,167.917c-5.834,62.083 -5.834,1102.92 0.416,1170.83c5.417,63.333 14.167,106.667 26.667,131.25c28.75,57.083 101.667,95 207.5,108.333c52.5,6.667 166.25,5 211.667,-2.5c135,-22.5 240.416,-91.666 316.666,-207.5c36.667,-55.833 80,-146.25 102.5,-215l20,-60.416l27.5,2.5l-2.5,19.583c-6.25,52.5 -43.333,477.5 -42.083,479.167c3.75,3.333 62.917,-16.667 87.083,-29.167c55,-29.583 112.084,-110.417 170.417,-242.5c9.167,-20.833 135.417,-343.333 280.833,-716.667c145.417,-372.916 266.25,-682.083 268.75,-686.25c5.417,-10.416 19.167,-17.083 28.75,-14.166c4.167,1.25 10.417,10 13.75,20c13.75,40 551.667,1367.5 573.75,1416.25c45.417,100 99.584,180 140,207.916c28.334,19.167 70,35.834 105,42.084l30,5l0,31.666l-712.5,0l0,-16.666c0,-15.834 0.417,-16.25 15.834,-18.75c103.333,-15.834 151.666,-36.667 174.166,-75.834c10.417,-17.5 11.667,-23.75 11.25,-51.25c-1.25,-62.5 -22.916,-130.416 -115,-358.333l-60,-147.917l-275.416,-1.25l-275,-0.833l-42.5,107.083c-112.084,282.917 -129.167,335.834 -129.167,395.417c-0,36.667 7.083,55.833 28.333,77.917c30,31.25 81.25,49.166 156.25,55.416l36.25,2.917l0,32.083l-1870.83,0Zm2358.33,-724.166c0,-7.917 -253.75,-636.25 -257.083,-635.834c-2.5,0.834 -255.417,632.084 -255.417,637.917c0,0.833 115.417,1.25 256.25,1.25c140.834,-0 256.25,-1.25 256.25,-3.333Z" style="fill:#fff;fill-rule:nonzero;"></path><path d="M7312.5,4995.83l0,-32.5l30,-2.916c130,-13.334 190,-81.667 207.083,-237.084c5.834,-52.083 6.25,-1144.17 0.417,-1208.75c-4.583,-51.25 -11.25,-76.25 -27.917,-106.666c-26.25,-48.75 -84.166,-80 -158.333,-85.834l-34.583,-2.5l-0,-36.25l695.833,0l0,18.75c0,20.834 3.333,19.167 -46.667,27.084c-60.416,9.583 -113.75,34.583 -141.25,65.833c-22.916,25.833 -39.166,72.917 -50,144.583c-6.25,41.667 -10,1009.17 -4.166,1119.58c6.25,117.5 19.583,175.416 51.666,223.333c18.334,27.5 70.834,52.083 146.667,69.583l41.667,9.167l1.25,17.5l1.25,17.083l-712.917,0Z" style="fill:#fff;fill-rule:nonzero;"></path><path d="M2011.67,2875c-80.834,-14.583 -150.834,-67.5 -189.167,-142.917c-30,-59.166 -28.75,-35.416 -28.75,-473.75c0,-437.083 -1.25,-414.583 27.917,-473.75c28.75,-58.75 93.333,-115.833 152.083,-135c39.167,-12.5 122.5,-15.833 172.083,-6.25c112.917,21.25 178.75,101.25 193.334,235l2.916,25.834l-124.583,-0l-2.917,-19.584c-3.75,-26.666 -20.416,-62.5 -36.666,-79.583c-24.167,-25.417 -41.25,-31.667 -92.5,-33.333c-45.417,-1.667 -46.25,-1.25 -72.5,12.5c-18.334,9.166 -32.917,20.833 -44.584,35.416c-32.083,39.167 -30.833,21.25 -30.833,423.334c0,312.5 0.833,361.25 6.667,383.333c12.083,47.917 33.75,78.75 66.25,95.833c23.333,12.084 95,11.25 121.666,-1.666c22.084,-10.417 57.084,-48.334 76.25,-82.084l14.584,-25.833l118.75,-0l-2.5,24.167c-4.584,40.416 -17.5,84.583 -35,120c-27.5,55.833 -75.417,94.583 -139.584,111.666c-29.166,7.917 -123.75,12.084 -152.916,6.667Z" style="fill:#fff;fill-rule:nonzero;"></path><path d="M2756.25,2872.5c-80.833,-17.917 -149.583,-73.333 -185.833,-149.583c-29.584,-62.5 -29.167,-53.75 -27.5,-485.417c1.25,-425.833 -0.417,-399.167 28.333,-458.333c20.417,-40.834 70.417,-89.584 116.25,-111.667c47.5,-23.333 75.833,-30.417 133.75,-32.917c37.083,-1.666 55.833,-0.833 79.167,4.584c74.166,17.083 141.666,71.25 179.583,145c29.583,56.666 28.75,42.5 27.5,486.666l-1.25,397.917l-11.25,31.25c-30.417,82.917 -103.75,146.25 -196.25,168.75c-41.25,10 -107.083,11.667 -142.5,3.75Zm114.583,-157.5c29.167,-15.417 49.167,-35.417 63.334,-64.167l13.75,-27.916l-0,-737.5l-9.167,-19.584c-12.5,-27.5 -40,-55.416 -67.5,-68.75c-31.667,-15.416 -75.417,-15.833 -106.667,-1.25c-29.166,14.167 -57.916,44.584 -68.333,73.334c-8.75,22.916 -8.75,26.25 -7.917,392.5l1.25,369.583l11.25,21.25c13.75,25.833 47.5,57.083 71.25,65.833c23.75,8.75 78.75,6.667 98.75,-3.333Z" style="fill:#fff;fill-rule:nonzero;"></path><path d="M3325,2879.17l0,-1241.67l158.333,0l0,1108.33l391.667,0l0,133.334l-550,-0Z" style="fill:#fff;fill-rule:nonzero;"></path><path d="M4254.17,2872.5c-47.084,-10 -92.917,-35.833 -131.25,-74.167c-38.75,-38.75 -60,-75.416 -72.917,-125.833c-7.917,-30.833 -8.333,-47.5 -8.333,-420.417c-0,-372.916 0.416,-389.583 8.333,-420.416c25,-97.917 104.583,-169.584 213.333,-191.667c40.834,-8.333 106.667,-8.75 138.75,-0.417c85.417,21.667 162.917,95 192.5,182.5l11.667,34.167l-0,800l-9.583,31.25c-32.084,102.917 -117.917,170.833 -235.417,187.083c-42.083,5.834 -73.333,5.417 -107.083,-2.083Zm122.083,-154.167c25,-8.333 56.25,-36.666 71.667,-65l12.5,-22.083l1.25,-369.583c0.833,-366.667 0.833,-369.584 -7.917,-392.5c-10.417,-28.334 -39.583,-59.167 -68.75,-73.334c-28.75,-13.333 -74.583,-13.75 -104.583,-0.416c-25.834,11.25 -56.25,42.5 -69.167,70.416c-9.167,19.584 -9.167,19.584 -10.417,379.584c-1.25,397.5 -2.083,383.333 25,423.75c14.584,21.25 45.417,45 67.5,51.25c20.834,6.25 62.084,5 82.917,-2.084Z" style="fill:#fff;fill-rule:nonzero;"></path><path d="M4854.17,2879.17l-0,-1241.67l166.25,0c128.333,0 173.75,1.25 197.916,6.25c92.917,17.5 159.167,84.583 185.417,187.5c17.5,67.917 22.5,169.583 10.833,224.167c-19.166,91.25 -88.75,163.75 -177.083,184.166c-15,3.334 -32.5,7.5 -39.583,9.167c-10.417,2.083 -7.5,3.333 16.25,5.833c101.666,11.25 167.916,47.5 195.416,107.084c9.167,19.166 9.167,22.916 10.417,268.75l1.25,248.75l-141.667,-0l-1.25,-224.167l-1.25,-223.75l-13.75,-27.917c-16.25,-33.333 -46.25,-62.083 -74.583,-71.666c-15,-5 -36.667,-6.667 -95.833,-6.667l-76.25,0l-0,554.167l-162.5,-0Zm348.333,-717.5c27.917,-14.584 57.5,-47.917 67.083,-75.417c6.25,-18.333 7.5,-35.417 7.5,-117.5c0,-94.583 0,-96.25 -10.833,-118.75c-15,-32.5 -33.333,-51.667 -62.917,-66.667l-25.416,-12.5l-161.25,0l-0,405l82.5,-1.666c80,-1.25 82.5,-1.667 103.333,-12.5Z" style="fill:#fff;fill-rule:nonzero;"></path><path d="M5667.5,2370l1.667,-509.583l9.166,-30.834c12.084,-38.75 20.834,-55.833 46.667,-90c11.25,-15 20.833,-29.166 20.833,-31.25c0,-12.083 65.834,-49.166 108.75,-60.833c36.667,-10.417 128.334,-10.417 166.25,-0.417c102.917,27.084 175,105.834 194.167,211.25c4.583,25 5.417,127.917 5.833,526.25l0,494.584l-145.833,-0l0,-554.167l-262.5,0l0,554.167l-146.25,-0l1.25,-509.167Zm406.667,-337.5l-1.25,-159.583l-11.667,-23.75c-24.167,-49.167 -65.417,-72.084 -125,-69.167c-52.5,2.5 -88.333,25 -110,69.167l-11.667,23.75l-1.25,159.583l-1.25,159.167l263.334,-0l-1.25,-159.167Z" style="fill:#fff;fill-rule:nonzero;"></path><path d="M6466.67,2879.58l-0,-1242.5l176.25,1.25l175.833,1.25l30.417,11.25c87.5,31.667 158.333,111.25 177.916,200c5.834,27.084 6.25,74.167 5.417,420l-1.25,389.584l-9.167,27.083c-28.75,84.167 -100,154.167 -184.583,181.667c-20,6.666 -43.75,7.5 -196.667,9.166l-174.166,1.25Zm331.25,-163.75c27.916,-14.583 49.166,-37.5 63.333,-67.916l11.667,-25l1.25,-356.25c1.25,-368.75 0.416,-393.334 -15.834,-424.584c-11.666,-22.916 -39.583,-50 -63.75,-61.25c-20.416,-9.583 -25.833,-10 -101.666,-10l-80.417,0l0,959.167l82.5,-1.667c79.583,-1.25 82.5,-1.666 102.917,-12.5Z" style="fill:#fff;fill-rule:nonzero;"></path><path d="M7479.17,2872.92c-33.75,-7.5 -87.5,-33.75 -113.334,-55.417c-45,-37.5 -77.5,-88.333 -93.75,-146.667c-7.083,-25.416 -7.5,-52.916 -7.5,-416.666c0,-356.25 0.417,-392.084 7.084,-417.5c23.75,-91.25 93.75,-161.667 188.75,-190c45.416,-13.75 121.25,-17.084 162.083,-7.5c79.583,18.75 147.5,76.25 183.75,154.583c25.833,56.25 25,38.75 25,464.583c0,435.417 1.667,410.417 -30,475c-30.417,62.084 -98.333,113.75 -175,133.75c-43.75,10.834 -112.083,13.75 -147.083,5.834Zm133.75,-161.25c17.5,-9.167 32.083,-21.25 44.166,-35.834c32.084,-39.583 30.834,-20.416 29.584,-430.416l-1.25,-364.167l-11.25,-20.833c-5.834,-11.25 -19.167,-28.75 -29.167,-38.334c-64.167,-62.083 -167.5,-42.5 -207.917,39.584l-10,19.583l0,372.917c0,372.083 0,372.916 8.75,392.083c23.334,50.417 65.834,77.917 121.25,78.333c25.834,0.417 33.334,-1.25 55.834,-12.916Z" style="fill:#fff;fill-rule:nonzero;"></path><path d="M1791.67,1291.67l-0,-75l893.75,-0l-75,75l-818.75,-0Z" style="fill:#fff;fill-rule:nonzero;"></path><path d="M2916.67,1290.83c-0,-1.25 139.166,-138.75 309.583,-305.833c170,-166.667 351.667,-345.417 404.167,-397.083l94.583,-93.75l62.083,61.666l62.084,62.084l377.5,-308.75l377.5,-309.167l285.416,245c157.084,134.583 287.917,245 290.834,245.833c2.5,0.417 25.416,-13.75 50.833,-32.083l45.833,-32.917l24.584,19.584c13.333,10.416 158.75,126.25 322.916,257.5l298.334,238.333l211.25,0.417l210.833,-0l182.5,174.166c122.083,116.667 180,174.167 175,175c-3.75,0.834 -16.667,-0.416 -28.75,-3.333c-27.5,-5.833 -710.417,-212.083 -721.667,-217.917c-4.583,-2.5 -141.25,-108.333 -304.166,-235.416c-162.5,-127.084 -298.334,-233.334 -301.667,-235.834c-22.917,-17.5 30,37.917 276.25,289.584c153.333,156.666 295.417,303.333 315.417,325.416c40,43.75 44.166,54.584 27.916,70c-8.75,7.917 -13.75,8.334 -144.583,8.334c-126.667,-0 -136.667,-0.417 -148.333,-7.917c-6.667,-4.583 -129.584,-101.667 -272.917,-216.25c-143.333,-114.583 -260.833,-205.833 -261.667,-203.333c-0.416,2.916 12.917,89.583 30.417,193.333c17.083,103.333 31.25,194.583 31.25,202.5c0,30.417 -43.333,43.75 -65.833,20.417c-6.25,-6.667 -54.584,-82.5 -107.084,-168.75c-52.916,-86.25 -97.083,-155.834 -98.333,-154.167c-1.25,1.667 -20.417,72.5 -42.5,157.083c-37.5,142.5 -41.25,155 -52.917,165.834l-12.5,11.25l-87.5,-0c-58.75,-0 -90.833,-1.667 -97.916,-5c-24.167,-10.834 -22.917,15.833 -22.917,-534.584c0,-278.333 -0.833,-506.25 -2.083,-506.25c-1.25,0 -218.334,154.584 -482.084,343.75c-263.75,189.167 -480.416,343.334 -480.833,342.5c-0.833,-0.416 13.75,-58.75 32.083,-129.583c18.334,-70.833 32.5,-129.583 31.667,-130c-0.833,-0.833 -155,131.667 -342.917,294.583c-372.916,323.75 -365.833,318.75 -422.083,323.334c-16.25,1.25 -29.583,1.666 -29.583,0.416Z" style="fill:#fff;fill-rule:nonzero;"></path><path d="M7014.58,1291.67l-75,-75l893.75,-0l0,75l-818.75,-0Z" style="fill:#fff;fill-rule:nonzero;"></path></g></svg>