<svg xmlns="http://www.w3.org/2000/svg" xmlns:xlink="http://www.w3.org/1999/xlink" xmlns:serif="http://www.serif.com/" width="100%" height="100%" viewBox="0 0 6558 6455" xml:space="preserve" style="fill-rule:evenodd;clip-rule:evenodd;stroke-linejoin:round;stroke-miterlimit:2;"><g><path d="M1340.42,6451.25c-1.667,-1.25 -2.917,-139.167 -2.917,-305.833c0,-272.5 0.833,-302.917 6.667,-305.417c8.333,-3.333 138.333,-3.333 150.416,0c6.667,1.667 11.667,10.417 20,32.083c88.334,239.167 141.667,377.917 145.417,377.917c2.5,0 37.5,-89.583 77.083,-198.75c44.167,-120.833 75.834,-202.083 80.834,-206.25c7.083,-6.667 17.5,-7.5 80,-7.5c60,0 73.333,1.25 78.75,6.667c5.833,5.833 6.666,38.75 6.666,300c0,194.583 -1.25,296.666 -4.166,302.083c-4.167,7.083 -9.167,7.917 -60,7.917c-47.084,-0 -56.25,-0.834 -58.334,-6.667c-1.25,-3.75 -2.5,-106.25 -2.5,-227.917c0,-128.333 -1.666,-219.583 -3.75,-217.083c-2.083,2.083 -37.916,98.333 -79.583,214.167c-41.667,115.833 -78.333,216.666 -81.667,224.166l-5.416,13.334l-39.167,-0c-26.667,-0 -40.833,-1.667 -43.75,-5c-2.083,-2.917 -39.167,-102.917 -82.083,-222.084c-42.917,-119.166 -80,-218.333 -81.667,-220.833c-2.083,-2.083 -3.75,91.25 -3.75,215.417c0,120.833 -1.25,222.083 -2.5,225.833c-2.083,5.417 -10.417,6.667 -47.083,6.667c-24.584,-0 -46.25,-1.25 -47.5,-2.917Z" style="fill:#fff;fill-rule:nonzero;"></path><path d="M2411.25,6451.25c-1.667,-1.25 -2.917,-139.167 -2.917,-305.833c0,-272.5 0.834,-302.917 6.667,-305.417c3.75,-1.25 97.083,-2.5 207.5,-2.5c150.833,0 202.083,1.25 205.833,5c7.084,7.083 6.667,75.833 -0.416,82.083c-3.75,2.917 -52.5,5 -151.25,5.417l-145.417,1.25l-1.25,84.167l-0.833,84.583l105,0.833l105.416,1.25l1.25,42.5l1.25,42.917l-105.416,0.833l-105.417,1.25l-1.25,88.75l-0.833,88.334l312.916,-0l-1.25,42.916l-1.25,42.5l-212.916,1.25c-117.084,0.417 -214.167,-0.416 -215.417,-2.083Z" style="fill:#fff;fill-rule:nonzero;"></path><path d="M3240.83,6451.67c-2.083,-1.667 -3.333,-139.584 -3.333,-306.25l0,-303.334l8.75,-2.5c14.167,-4.583 210.417,2.084 251.667,8.334c100.416,15.833 174.583,64.166 210.416,137.083c24.167,48.75 29.584,75 32.084,144.583c1.666,47.5 0.833,68.75 -5,95.834c-22.917,114.166 -90,185.416 -204.167,216.666c-30,8.334 -45.833,9.584 -160.417,11.25c-70,0.834 -128.333,0 -130,-1.666Zm237.084,-91.667c55.833,-14.583 90.833,-39.583 111.666,-80.417c15.834,-31.666 22.917,-64.166 25.417,-117.083c6.667,-135 -40.417,-209.583 -144.167,-229.167c-10.416,-2.083 -40,-5 -65.833,-6.666l-46.667,-2.917l0,220.833c0,121.25 1.25,222.084 3.334,223.75c4.583,5 88.75,-1.25 116.25,-8.333Z" style="fill:#fff;fill-rule:nonzero;"></path><path d="M4148.75,6451.25c-1.667,-1.25 -2.917,-139.167 -2.917,-305.833c0,-272.5 0.834,-302.917 6.667,-305.417c12.5,-5 103.75,-2.917 109.167,2.5c3.75,3.75 5,76.667 5,301.667c-0,163.333 -1.25,299.583 -2.5,303.333c-2.084,5.833 -11.25,6.667 -57.5,6.667c-30.417,-0 -56.667,-1.25 -57.917,-2.917Z" style="fill:#fff;fill-rule:nonzero;"></path><path d="M4658.33,6445.83c0,-15 212.084,-597.5 219.584,-602.916c4.583,-3.75 24.583,-5.417 62.083,-5.417c46.25,0 56.25,1.25 63.75,7.5c11.25,8.75 223.75,600 217.917,605.833c-2.084,2.084 -29.584,2.917 -61.667,2.5l-57.917,-1.25l-54.166,-150l-114.167,-1.25c-62.917,-0.416 -115.833,0.417 -117.917,2.5c-2.083,2.084 -15.416,36.25 -30,76.25l-26.666,72.5l-50.417,1.25c-48.333,1.25 -50.417,0.834 -50.417,-7.5Zm358.334,-246.25c-0,-15.833 -80.417,-232.916 -86.25,-232.916c-2.917,-0 -5.417,0.833 -5.417,1.666c0,0.834 -18.75,52.5 -41.667,115c-22.916,62.917 -41.666,116.25 -41.666,119.584c-0,4.166 17.5,5.416 87.5,5.416c85.833,0 87.5,0 87.5,-8.75Z" style="fill:#fff;fill-rule:nonzero;"></path><path d="M1032.5,5327.08c-85,-21.25 -136.667,-86.25 -136.667,-170c0.417,-58.333 14.167,-92.916 53.75,-132.083c59.584,-59.167 139.584,-84.583 307.5,-97.083c48.334,-3.75 73.75,-7.5 78.334,-11.25c11.25,-9.584 7.083,-86.25 -6.667,-114.584c-27.917,-58.75 -96.667,-89.583 -174.167,-77.5c-50.416,7.917 -80,24.167 -122.5,67.917l-37.083,37.917l-37.5,-12.084c-20.833,-6.666 -38.75,-14.166 -39.583,-17.5c-2.917,-7.083 22.083,-44.166 45,-67.083c34.166,-33.75 75,-57.083 127.5,-72.083c43.333,-12.5 150.833,-13.75 192.083,-2.5c41.25,11.666 71.667,27.916 97.5,52.5c26.667,25.416 40,45.833 51.667,80c7.5,21.666 7.916,38.75 7.916,275l0,252.083l-41.25,1.25c-26.666,0.833 -42.916,-0.417 -46.666,-3.75c-3.75,-3.333 -5.834,-13.75 -5.834,-32.5c0,-33.333 -3.333,-46.25 -11.25,-46.25c-3.333,-0 -15.833,8.75 -28.333,19.583c-31.667,27.917 -69.583,49.584 -108.333,62.5c-27.5,8.75 -42.917,11.25 -87.5,12.084c-37.5,0.833 -61.667,-0.417 -77.917,-4.584Zm185.833,-82.916c52.5,-20 96.25,-57.917 115,-98.75c7.084,-15.834 8.334,-27.5 8.334,-85.834c-0,-60.833 -0.834,-67.916 -7.5,-71.666c-7.917,-4.167 -114.167,4.166 -163.334,12.5c-89.166,15.833 -147.083,50.833 -167.083,101.666c-2.5,7.084 -4.583,25 -5,40.417c-0,52.917 30,92.083 84.167,109.583c30.833,10 99.166,5.834 135.416,-7.916Z" style="fill:#fff;fill-rule:nonzero;"></path><path d="M2262.92,5329.17c-104.167,-22.084 -187.917,-92.084 -225.417,-188.334c-20.417,-52.5 -26.25,-92.5 -23.75,-161.25c2.5,-70.416 11.25,-109.583 36.25,-159.166c40.417,-81.25 107.083,-137.5 189.583,-160c39.167,-10.417 110.417,-12.917 152.5,-4.584c95.834,18.75 168.75,80.417 206.667,174.167c16.667,40.417 26.667,98.333 25.417,142.083l-1.25,38.334l-247.5,1.25c-187.084,0.833 -249.167,2.083 -253.75,5.833c-7.917,6.667 -4.167,52.5 7.916,87.917c30.834,92.916 112.084,150.833 212.084,150.416c80,-0.416 130,-26.25 190.833,-98.75l9.167,-11.25l33.333,16.667c18.333,9.167 33.333,18.333 33.333,20.417c0,7.083 -42.083,58.333 -65.416,79.166c-26.667,24.167 -77.5,50.834 -115.834,61.25c-29.166,7.917 -136.25,11.667 -164.166,5.834Zm260,-391.667c1.666,-4.583 1.25,-19.167 -0.417,-32.5c-12.083,-99.167 -71.667,-165.417 -162.083,-180c-107.084,-17.083 -207.917,51.25 -233.334,158.75c-3.333,14.583 -6.25,34.583 -6.25,44.583l0,17.5l199.584,0c196.666,0 200,0 202.5,-8.333Z" style="fill:#fff;fill-rule:nonzero;"></path><path d="M5406.25,5327.08c-107.5,-23.75 -186.667,-96.25 -222.5,-204.166c-50,-151.667 -4.583,-326.25 107.083,-410.834c60,-45.416 106.667,-60 192.5,-59.583c54.167,0 63.75,1.25 93.75,11.25c47.084,15.833 82.5,37.917 118.75,73.75c57.917,57.917 86.667,123.75 95.417,217.917c4.167,44.583 0.417,103.333 -9.583,141.25c-30.834,115.833 -115.834,202.5 -223.75,228.333c-41.25,9.583 -112.5,10.833 -151.667,2.083Zm119.167,-72.916c73.333,-13.75 128.333,-72.084 152.083,-160.417c11.25,-40.833 11.25,-162.5 0,-202.083c-29.583,-107.917 -99.583,-166.667 -198.333,-166.667c-95,0 -163.75,54.583 -195.834,156.25c-13.333,40.833 -16.666,143.75 -6.666,194.167c26.25,130.833 125,201.666 248.75,178.75Z" style="fill:#fff;fill-rule:nonzero;"></path><path d="M5.417,5316.25c-4.167,-4.167 -5.417,-101.667 -5.417,-458.333c0,-403.334 0.833,-453.334 6.25,-457.917c5.417,-4.583 34.583,-5 140.833,-2.917c190.834,4.167 257.917,15.417 347.084,59.167c110.416,53.75 175,150 198.333,295.833c7.5,47.917 6.25,170.417 -2.083,217.084c-34.584,192.5 -139.584,298.333 -336.25,340c-34.167,7.5 -59.584,8.75 -191.667,10.416c-120,1.667 -153.333,0.834 -157.083,-3.333Zm275.833,-87.5c97.083,-11.667 156.25,-36.667 206.667,-87.083c61.666,-61.25 87.083,-144.167 87.083,-285.417c0,-160 -36.25,-254.583 -117.917,-309.583c-57.5,-37.917 -128.75,-54.584 -253.75,-57.917l-82.5,-2.5l0,747.083l61.667,0c33.75,0 78.333,-2.083 98.75,-4.583Z" style="fill:#fff;fill-rule:nonzero;"></path><path d="M1689.17,5310c-1.667,-5.833 -2.084,-212.083 -0.834,-458.75c1.667,-383.75 2.5,-448.333 7.917,-451.667c7.083,-4.583 82.917,-5 90.417,-0.416c4.166,2.916 5,97.916 4.166,461.666l-1.25,457.917l-97.5,2.5l-2.916,-11.25Z" style="fill:#fff;fill-rule:nonzero;"></path><path d="M3198.75,5317.92c-1.667,-1.25 -2.917,-208.334 -2.917,-460c0,-412.917 0.834,-457.084 6.667,-459.584c10,-3.75 157.083,-2.916 237.083,1.667c157.917,8.75 262.5,45 335.417,116.667c78.75,76.666 116.667,187.5 116.667,337.916c-0,273.334 -127.5,426.667 -382.5,460c-48.334,6.25 -304.584,9.167 -310.417,3.334Zm324.167,-96.25c132.5,-28.75 203.75,-96.667 233.333,-222.5c3.333,-14.584 8.333,-52.084 11.25,-84.167c5.417,-68.333 0,-156.25 -13.333,-208.75c-20.834,-82.5 -65.834,-143.333 -129.167,-174.167c-60.833,-30 -157.083,-46.25 -258.333,-43.75l-52.084,1.25l-1.25,366.667c-0.416,201.667 0,369.167 1.25,372.5c3.334,8.75 158.75,3.75 208.334,-7.083Z" style="fill:#fff;fill-rule:nonzero;"></path><path d="M4135.83,5314.17c-1.25,-3.75 -2.5,-149.584 -2.5,-324.584c0,-266.666 0.834,-318.333 5.834,-322.5c3.75,-3.333 21.25,-4.583 50.833,-3.75l45.417,1.25l1.25,318.75c0.416,175.417 -0,322.917 -1.25,328.334c-2.084,8.75 -3.75,9.166 -49.584,9.166c-39.583,0 -47.916,-1.25 -50,-6.666Z" style="fill:#fff;fill-rule:nonzero;"></path><path d="M4435.42,5316.67c-4.167,-6.25 0.416,-12.5 122.916,-168.75c61.25,-77.917 113.334,-145.417 115.834,-150c2.916,-6.25 2.916,-10.834 -0,-16.667c-2.5,-4.583 -54.167,-75.417 -114.584,-157.5c-65.416,-88.75 -109.166,-151.667 -107.916,-155.417c2.916,-7.916 101.666,-8.333 111.666,-0.416c3.334,2.5 45,57.916 92.5,122.916c47.5,64.584 89.167,117.5 92.084,117.5c3.333,0 43.75,-52.916 90,-117.5c46.25,-65 87.083,-120.416 90.416,-122.916c9.584,-7.917 92.5,-7.5 92.5,-0c0,3.333 -49.583,72.083 -110.416,152.916c-60.834,80.834 -110.417,150 -110.417,153.75c-0,3.75 54.583,80 120.833,169.167c66.25,89.583 120.834,165.833 120.834,170c-0,6.25 -5.417,7.083 -55.417,7.083c-37.917,0 -57.5,-1.666 -62.083,-5c-3.75,-2.916 -47.5,-61.666 -97.084,-130.416c-49.583,-68.75 -92.5,-125.417 -95.416,-126.25c-2.5,-0.417 -47.917,55.833 -100,125c-52.5,69.583 -98.334,128.75 -101.667,131.666c-8.333,6.25 -90.833,7.084 -94.583,0.834Z" style="fill:#fff;fill-rule:nonzero;"></path><path d="M6015,5314.17c-3.75,-10 -2.917,-640.417 0.833,-646.667c2.5,-3.75 15.417,-5 49.167,-4.167l45.417,1.25l1.25,45c0.833,31.667 2.5,44.584 6.25,44.584c2.916,-0 20.833,-11.667 40.416,-25.417c49.167,-35 85,-55.833 116.667,-67.083c22.917,-7.917 35.833,-9.167 81.25,-9.584c47.083,0 57.917,1.25 82.083,10c52.084,18.75 90,57.084 107.917,108.334c9.583,27.5 10,28.333 11.25,277.5c0.833,167.916 0,253.75 -2.917,261.666l-4.583,11.667l-46.667,-1.25l-47.083,-1.25l-2.083,-250c-2.084,-250 -2.084,-250 -11.667,-270.833c-22.5,-49.167 -55.833,-67.084 -123.75,-66.25c-62.5,0.833 -95,14.583 -167.5,71.25l-34.583,26.666l-0,239.167c-0,131.25 -1.25,241.667 -2.5,245.417c-2.084,5.416 -10.417,6.666 -49.584,6.666c-39.166,0 -47.5,-1.25 -49.583,-6.666Z" style="fill:#fff;fill-rule:nonzero;"></path><path d="M4135,4531.67c-9.167,-14.584 -7.083,-125.834 2.5,-131.667c9.583,-5.833 92.917,-5.417 99.167,0.833c3.333,3.334 5,24.584 5,68.75c-0,75.834 2.916,72.084 -57.917,72.084c-40,-0 -42.083,-0.417 -48.75,-10Z" style="fill:#fff;fill-rule:nonzero;"></path><path d="M2679.17,3491.67l-0,-804.167l-804.167,0l0,-2687.5l580.417,0c608.333,0 632.083,0.833 727.916,18.75c330,62.5 577.917,254.583 731.25,566.667c33.334,67.916 67.084,152.5 83.334,210.416c4.166,15 7.916,27.5 8.333,27.917c0,0.417 25.417,7.5 56.25,15.417c323.75,82.916 565.833,307.916 701.667,651.666c136.666,345.417 141.25,836.667 11.25,1222.08c-96.667,287.5 -238.334,487.916 -435.834,617.083c-143.333,94.167 -306.666,144.583 -508.333,157.5c-34.583,2.083 -307.5,4.167 -607.083,4.167l-545,-0Zm1135.83,-317.084c161.667,-15.833 285.417,-70 392.5,-172.083c155.417,-148.75 245.417,-364.167 282.917,-677.5c14.583,-123.333 7.5,-342.5 -15.834,-483.333c-52.083,-315.417 -188.333,-541.25 -386.666,-641.667l-23.334,-11.667l-0.416,117.5c-0.417,121.25 -4.584,188.334 -18.75,287.917c-39.167,275.417 -133.75,520.833 -275,712.5c-40.417,54.583 -132.5,147.083 -185.417,186.25c-143.333,105.833 -302.917,165.833 -496.25,186.667l-47.083,5.416l-0,494.584l363.75,-0c226.666,-0 381.25,-1.667 409.583,-4.584Zm-1135.83,-795.416l-0,-1579.17l929.583,-0l-2.917,-9.167c-5.416,-18.333 -23.75,-60 -44.166,-101.25c-118.75,-237.083 -310.834,-355.833 -609.584,-377.083c-32.083,-2.083 -205.833,-4.167 -386.25,-4.167l-328.333,0l-0,2070.83l441.667,-0Zm420.416,-20.834c118.334,-24.166 217.084,-76.25 305.834,-162.083c157.5,-152.5 247.5,-372.083 282.916,-692.083c6.667,-62.917 6.667,-238.75 -0.416,-323.75l-5.834,-67.917l-640.416,0l-0,1254.17l8.75,-0c4.583,-0 27.083,-3.75 49.166,-8.334Z" style="fill:#fff;fill-rule:nonzero;"></path></g></svg>