<svg xmlns="http://www.w3.org/2000/svg" xmlns:xlink="http://www.w3.org/1999/xlink" xmlns:serif="http://www.serif.com/" width="100%" height="100%" viewBox="0 0 2502 752" xml:space="preserve" style="fill-rule:evenodd;clip-rule:evenodd;stroke-linejoin:round;stroke-miterlimit:2;"><g><path d="M1677.58,457.579c-7.083,0 -13.333,1.25 -18.333,3.334c-5,2.083 -9.167,5 -12.5,8.75c-3.333,3.75 -5.833,7.916 -7.083,12.5c-1.667,4.583 -2.5,9.166 -2.5,14.166c-0,5.834 0.833,10.834 2.5,15c1.666,4.167 4.166,7.5 7.5,10c3.333,2.5 7.083,4.584 11.25,5.834c4.583,1.25 9.166,2.083 15,2.083c6.666,0 12.5,-0.833 17.083,-2.5c4.583,-1.667 8.75,-4.167 11.667,-6.667c2.916,-2.5 5.416,-5.416 7.083,-8.75c1.667,-3.333 2.917,-6.25 3.75,-9.166c0.833,-2.917 1.25,-5.417 1.25,-7.5c-0,-2.084 0.417,-3.334 0.417,-4.167c-0,-10.417 -3.334,-18.75 -9.584,-24.167c-5.833,-5.833 -15,-8.75 -27.5,-8.75Z" style="fill:#fff;fill-rule:nonzero;"></path><path d="M709.246,205.496c3.333,2.5 7.083,4.583 11.25,5.833c4.583,1.25 9.167,2.084 14.583,2.084c6.667,-0 12.5,-0.834 17.084,-2.5c4.583,-1.667 8.75,-3.75 11.666,-6.667c2.917,-2.5 5.417,-5.417 7.084,-8.75c1.666,-3.333 2.916,-6.25 3.75,-9.167c0.833,-2.916 1.25,-5.416 1.25,-7.5c-0,-2.083 0.416,-3.333 0.416,-4.166c0,-10.417 -3.333,-18.334 -9.583,-24.167c-6.25,-5.833 -15.417,-8.333 -27.917,-8.333c-7.083,-0 -13.333,1.25 -18.333,3.333c-5,2.083 -9.167,5 -12.5,8.75c-3.333,3.75 -5.833,7.917 -7.083,12.5c-1.667,4.583 -2.5,9.583 -2.5,14.167c-0,5.833 0.833,10.833 2.5,15c2.916,3.75 5.416,7.083 8.333,9.583Z" style="fill:#fff;fill-rule:nonzero;"></path><path d="M2501.33,466.746c-0.416,-5 -2.5,-9.583 -5.416,-12.5c-2.917,-2.917 -7.084,-3.333 -12.5,0c-8.334,5.417 -14.167,13.75 -25.417,20.833c-3.75,2.5 -11.667,3.334 -15.417,-0.416c-7.083,-6.667 -5.833,-23.75 -5.833,-32.917c-0,-15.417 16.25,-131.25 17.083,-143.75c1.25,-20.417 0.417,-31.25 -10,-37.917c-6.25,-3.75 -17.916,-3.75 -25.833,-0.833c-27.5,9.583 -83.75,102.917 -92.083,120.833c-2.917,6.25 -8.75,7.5 -6.667,-1.25c6.25,-25.416 19.167,-76.25 20,-89.583c1.25,-19.167 -10,-30.833 -27.083,-32.5c-32.084,-2.5 -73.334,74.583 -99.167,122.5c-2.083,3.333 -3.75,-1.667 -3.75,-1.667c2.917,-15.416 16.667,-77.5 12.083,-108.75c-2.916,-21.25 -19.166,-38.333 -42.5,-27.916c-16.25,7.083 -27.083,22.916 -37.916,36.666c-10.834,13.334 -20.834,20 -35.417,22.084c-10.833,-20 -26.25,-37.5 -49.167,-41.25c-20,-3.334 -40,4.583 -56.25,12.083c-16.25,7.5 -28.75,19.167 -40,31.667c-11.25,12.916 -19.583,28.75 -25.416,46.25c-5.834,17.083 -9.167,37.916 -9.167,61.666c-0,3.75 -0,7.084 0.417,10.417c-0.417,0.417 -0.417,0.417 -0.834,0.833c-9.583,9.584 -19.583,18.75 -30.416,26.667c-10.417,8.333 -21.25,15 -31.667,20c-10.417,5.417 -20,7.917 -28.75,7.917c-8.75,-0 -16.25,-2.084 -21.667,-5.834c-5.416,-3.75 -10,-8.75 -13.75,-14.583c-3.333,-5.833 -5.833,-12.5 -7.083,-19.583c-1.25,-7.084 -1.667,-13.75 -1.667,-20.417c0,-4.167 0,-9.583 0.417,-16.25c0.417,-6.25 1.25,-13.333 2.917,-20.417c1.666,-7.083 4.166,-15.833 7.5,-26.25c3.333,-9.583 6.666,-17.083 10,-22.5c6.666,-12.916 21.25,-20.416 28.333,-21.25l1.667,0c11.25,-0.833 12.5,15.417 17.5,27.5c4.166,10.417 6.25,19.584 21.25,18.75c27.083,-2.083 25.833,-75.833 -12.917,-92.916c-9.167,-4.167 -19.583,-4.584 -30.417,-4.584c-12.083,0 -23.333,2.084 -33.333,6.667c-10,4.583 -19.583,10.417 -27.5,17.917c-8.333,7.5 -15.417,16.25 -21.667,26.25c-6.25,10 -11.666,20.416 -15.833,31.25c-4.167,10.833 -8.333,23.75 -11.667,38.333c-3.75,14.583 -5.416,27.083 -5.416,37.917c-0,14.583 2.083,28.75 6.666,42.5c4.584,13.75 10.834,25.416 19.584,35.833c8.75,10.417 19.166,18.333 31.666,24.583c12.5,6.25 27.5,10.834 44.167,10.834c23.333,-0 46.25,-13.334 55,-17.917c8.75,-4.583 16.667,-10.417 24.583,-16.25c7.917,-6.25 15,-12.5 21.667,-19.167c3.333,-3.333 6.667,-6.666 10,-10.416c2.917,8.75 7.083,16.666 11.667,24.166c7.083,11.25 15,20.834 26.25,27.5c11.25,7.084 26.666,11.667 42.5,11.667c11.25,0 25,-3.333 34.583,-7.083c9.583,-3.75 16.667,-9.167 25,-15.834c8.333,-6.666 13.75,-14.166 20,-22.916c6.25,-8.75 11.667,-18.334 16.25,-28.334c4.583,-10 7.917,-20.416 10,-31.666c2.5,-10.834 3.333,-21.667 3.333,-32.5c0,-14.584 -2.083,-27.5 -3.75,-39.584c-0.833,-5 -1.666,-10 -2.5,-14.583c12.5,-2.5 23.75,-7.917 34.584,-16.25c-7.084,52.917 -18.75,142.917 -19.584,148.333c-4.166,23.334 -3.333,58.334 26.25,60.417c26.25,1.667 32.917,-14.167 36.25,-21.25c12.5,-24.167 23.334,-44.583 30.417,-61.667c8.333,-20.416 42.917,-80 45.417,-83.333c4.583,-6.667 9.583,-1.667 9.166,0c-0.416,1.667 -8.333,40.833 -10.833,55c-4.583,30 -12.083,84.167 7.083,103.75c10.834,10.833 26.25,10.417 38.334,-11.25c-0,0 70,-137.5 71.25,-141.667c3.75,-9.166 8.75,-7.916 7.916,-1.666c-2.916,35.833 -10.416,77.5 -6.666,107.083c2.916,22.917 10.833,55 36.25,55.833c27.083,1.25 52.5,-18.75 67.916,-40c6.25,-4.583 10.834,-15.416 10,-23.333Zm-432.083,-57.5c-2.5,13.333 -6.25,25 -10.417,34.583c-4.166,9.584 -9.583,17.5 -15,23.75c-5.833,6.25 -11.666,9.167 -17.916,9.167c-7.084,0 -12.917,-1.667 -18.334,-4.583c-5,-2.917 -9.166,-7.084 -12.083,-12.084c-2.917,-5 -5.417,-10.833 -6.667,-17.5c-1.25,-6.666 -2.083,-13.75 -2.083,-21.25c-0,-15 1.25,-28.333 4.167,-40.416c2.916,-12.084 6.666,-22.917 12.083,-32.5c5,-10 10.833,-17.917 17.5,-24.167c6.667,-6.25 13.75,-9.583 21.25,-9.583c5.417,-0 10.417,1.666 14.167,4.583c4.166,2.917 7.083,7.083 9.583,12.5c2.5,5.417 4.583,11.25 5.833,18.75c1.25,7.083 2.084,15 2.084,23.333c-0.417,10 -1.667,22.084 -4.167,35.417Z" style="fill:#fff;fill-rule:nonzero;"></path><path d="M1612.16,537.996c6.25,-43.75 16.25,-102.5 19.166,-119.583c2.084,-11.25 4.584,-26.667 7.917,-45.417c3.333,-18.75 5.833,-33.333 7.5,-43.75c1.667,-10.417 3.333,-19.583 5,-27.917c1.25,-8.333 3.75,-18.333 4.583,-23.333c0.417,-2.083 0.834,-4.167 0.834,-5.833c-0,-5.417 -2.084,-9.167 -5.834,-11.667c-3.75,-2.5 -8.75,-3.75 -14.166,-3.75c-4.584,0 -9.584,0.833 -15,2.5c-5.417,1.667 -10.417,4.167 -15.417,7.5c-5,3.333 -9.167,7.5 -12.917,12.083c-3.75,5 -7.916,14.167 -9.166,20l-21.667,102.084c-0.833,5.833 -2.5,13.333 -4.583,22.083c-2.5,8.75 -5.834,17.083 -9.584,25.417c-4.166,8.333 -8.75,15.416 -14.166,21.25c-5.417,5.833 -11.667,8.75 -18.334,8.75c-4.166,-0 -7.5,-1.25 -10.416,-3.334c-2.917,-2.083 -5,-5 -6.667,-8.333c-1.667,-3.333 -2.917,-7.083 -3.333,-11.667c-0.834,-4.166 -0.834,-8.75 -0.834,-13.333c0,-8.75 1.25,-18.75 3.334,-30c2.083,-11.25 5,-26.667 8.75,-45.833c5,-26.25 11.25,-52.084 17.916,-77.917c1.667,-5.833 1.667,-10.417 0.834,-16.25c-1.25,-11.25 -12.084,-12.5 -31.667,-16.667c-20,-4.166 -55,-7.916 -54.583,5c0.416,11.667 2.5,15.834 16.25,21.25c-0,0 -16.25,60.417 -19.584,79.584c-2.916,18.333 -5.833,34.166 -7.916,47.083c-3.75,11.667 -24.584,67.083 -33.75,68.333c-30.417,4.584 -8.334,-125 -3.334,-147.916c3.334,-15.834 -13.75,-27.084 -32.5,-33.334c-11.666,-3.75 -19.166,-10.833 -35.416,-26.25c-2.917,-3.333 -5.834,-13.75 -9.167,-17.5c-11.667,-13.333 -28.75,-20 -45.833,-12.083c-20.834,10 -21.25,40.417 -10.417,57.083c-1.25,10.417 -1.667,20.417 -2.083,27.084c-1.667,25.416 -11.667,51.666 -21.25,75c-3.334,8.333 -7.084,16.25 -11.667,23.75c-7.5,12.5 -19.583,22.5 -31.25,30.833c-11.667,7.917 -25,15.833 -38.75,19.167c-5.833,1.666 -12.917,2.5 -19.167,1.666c-19.166,-2.916 -22.083,-9.166 -26.666,-15.833c84.583,-42.083 105.833,-97.5 102.916,-138.75c-2.916,-41.667 -36.666,-68.333 -75.833,-63.75c-30,3.75 -90.417,38.333 -102.917,124.167c-1.666,10.416 -3.75,25 -0.833,49.166c-7.5,2.917 -14.167,5 -19.167,5.834c-13.75,2.083 -35.833,-5 -43.333,-27.917c-1.25,-4.167 -1.667,-8.333 -1.667,-12.917c0,-4.166 0.417,-8.333 0.834,-12.083c0.833,-3.75 1.25,-7.5 2.5,-10.417c1.25,-3.333 2.083,-6.666 3.333,-10c1.25,-2.916 5.833,-14.583 13.75,-34.166c1.25,-2.5 4.167,-8.334 8.75,-17.5c2.083,-4.167 4.167,-9.167 5.417,-15c1.25,-4.584 2.083,-9.167 2.083,-14.584c-0,-6.666 -3.333,-12.083 -9.583,-16.666c-6.25,-4.167 -15,-6.25 -25.417,-6.25c-4.167,-0 -7.917,0.416 -11.25,1.666c-3.333,1.25 -6.667,2.5 -9.583,4.167c-2.917,1.667 -5.417,3.75 -7.084,6.25c-1.666,2.5 -2.916,5 -3.75,7.5l-74.583,181.667l-1.667,0.416l5,-180.833c0,-4.583 -1.666,-8.75 -4.166,-12.5c-2.5,-3.75 -7.084,-5.417 -15.834,-6.25c-8.75,-0.833 -55.416,-3.333 -57.916,-3.333c-8.334,-0 -17.917,-2.917 -17.917,13.333c-0,11.667 7.083,15.833 26.25,21.25c-0,0 -0.417,32.5 -0.417,44.583c0,7.084 0,14.167 0.417,21.25c-0,7.084 0.417,14.584 0.833,22.5c0.417,8.334 0.834,17.5 1.667,27.5c0.417,7.917 0.833,17.084 1.25,27.5c-20.833,17.5 -53.333,41.667 -75,40.834c-17.083,-0.417 -8.333,-50 -0,-82.084c8.75,-31.666 24.583,-91.25 26.667,-98.333c1.666,-7.5 2.916,-12.917 2.916,-17.083c0,-4.584 -1.25,-8.334 -4.166,-11.25c-2.084,-2.084 -5,-3.75 -12.917,-5c-24.583,-3.334 -27.083,-2.917 -53.333,-6.667c-12.5,-1.667 -25.417,-2.917 -23.75,14.167c0.833,9.583 -0.417,14.583 24.583,20.833c-3.75,13.75 -7.083,29.167 -10.833,41.667c-7.5,26.666 -12.5,43.75 -15,51.666c-1.667,3.75 -5,21.667 -10,53.334c-0.417,2.5 -0.834,4.583 -0.834,6.666c-17.5,13.75 -39.583,26.667 -61.666,27.084c-22.5,0.416 -8.334,-76.667 -7.5,-79.584c0.833,-2.916 1.25,-5.416 2.083,-7.5c6.667,-17.083 13.75,-30 22.5,-47.916c8.75,-17.917 17.083,-36.25 25.417,-54.584c8.333,-18.333 16.666,-37.083 24.166,-55.833c7.5,-18.75 14.167,-37.5 19.584,-55.833c5.416,-18.334 10.416,-36.667 12.083,-55c5.833,-53.75 -10.417,-112.084 -45.833,-113.334c-52.917,-2.5 -85.417,54.167 -110,145.834c-5,19.166 -12.5,42.916 -18.334,73.333c-5.416,30.417 -8.333,45.417 -8.333,45.417c-0,-0 -1.667,15 -4.583,45c-2.917,30 -2.917,51.25 -1.25,69.166c1.25,12.084 2.5,22.5 3.75,32.5c-47.084,37.917 -91.25,68.334 -122.084,63.75c-19.166,-2.916 -22.083,-9.166 -26.666,-15.833c84.583,-42.083 105.833,-97.5 102.916,-138.75c-2.916,-41.667 -36.666,-68.333 -75.833,-63.75c-30,3.75 -90.417,38.333 -102.917,124.167c-1.666,12.5 -4.583,29.583 0.834,62.083c-4.167,2.917 -8.75,6.25 -13.334,9.167c-4.583,2.916 -9.166,5.833 -13.75,7.916c-4.583,2.5 -8.75,4.167 -12.916,5.834c-1.667,0.416 -2.917,0.833 -4.584,1.25l-1.666,-0c-1.25,-0 -2.917,-1.25 -4.584,-3.334c-1.666,-2.083 -3.333,-5 -4.583,-8.333c-1.667,-3.75 -2.5,-7.5 -3.75,-12.083c-0,-0.417 -0,-0.834 -0.417,-1.25c-0.833,-13.334 0,-25 5,-43.334c0.417,-1.666 3.334,-10 4.167,-11.666c8.333,-16.667 18.75,-41.667 27.083,-59.584c8.334,-17.916 16.667,-36.666 24.584,-55c7.916,-18.75 15.833,-37.5 23.333,-56.25c7.5,-18.75 13.75,-37.5 18.75,-56.25c5,-18.75 8.75,-37.083 11.25,-55c4.167,-30.833 1.25,-104.583 -46.25,-104.583c-27.917,0 -58.333,12.5 -81.25,52.917c-32.917,57.5 -44.583,199.166 -46.25,237.083c-75.833,-43.333 -133.75,32.917 -153.333,114.583c-5.417,22.5 -12.5,123.75 49.583,126.667c8.333,0.417 16.667,-1.25 25.417,-4.167c8.75,-2.916 17.083,-6.666 25.833,-11.25c8.75,-4.583 17.5,-10 25.833,-16.666c8.334,-6.25 16.667,-12.917 24.167,-20c2.5,11.25 6.25,20.416 11.25,27.5c5,6.666 10,12.083 15.417,15.833c5.416,3.75 10.416,5.833 15.416,7.083c5,1.25 12.917,1.25 15.834,1.25c37.916,-0.416 67.916,-21.25 85.833,-35c7.917,10 18.333,19.584 31.667,24.584c13.333,5 27.5,8.75 44.583,9.583c55.417,1.667 106.25,-33.333 137.917,-60.833c1.666,5 3.333,9.583 5.416,14.166c6.25,14.167 17.917,44.584 49.167,47.084c6.25,0.416 13.333,-0.834 20.417,-2.5c7.083,-1.667 14.583,-3.75 22.5,-6.667c7.5,-2.917 15.416,-5.833 22.916,-9.583c5.417,-2.5 10.834,-5 16.25,-7.917c1.667,4.167 3.75,7.917 6.667,11.25c4.167,4.583 9.167,8.333 15.833,11.25c6.25,2.5 14.584,3.75 23.75,3.75c10.417,0 21.667,-2.083 33.334,-5.833c11.666,-3.75 23.333,-8.75 34.583,-14.167c11.25,-5.833 21.667,-12.083 31.667,-18.75c3.333,-2.083 6.25,-4.583 8.75,-6.667c1.25,7.084 2.916,13.75 5,20c2.916,8.334 6.25,12.084 12.083,17.5c6.25,5.417 16.667,7.917 27.917,7.917c5.833,0 15.833,-4.167 22.916,-10c7.084,-5.833 10.417,-9.167 17.5,-18.75c7.084,-9.167 14.167,-19.583 20.834,-31.25c6.666,-11.25 12.5,-22.5 17.916,-33.333c0,7.083 28.334,46.25 66.667,47.083c14.167,0.417 30.417,-4.583 46.25,-11.25c7.5,16.667 22.083,39.167 45.833,47.917c13.334,5 27.5,8.75 44.584,9.583c44.583,1.25 89.166,-22.917 117.916,-56.25c9.584,-11.25 18.75,-22.917 25,-36.25c15,-31.25 23.334,-65.417 29.584,-99.167c0.416,-2.5 5.416,-20 3.75,-21.25c9.166,8.75 15,15 31.25,25c-15.417,79.167 -31.667,190 44.166,188.334c18.75,-0.417 36.25,-20.834 48.75,-41.667c3.75,8.333 8.334,15.417 14.167,21.667c6.25,6.666 13.75,11.666 22.083,15.416c8.334,3.334 16.667,5.417 25.417,5.417c10,0 20.417,-2.5 30.833,-7.917c10.834,-5.416 20.834,-12.083 30.834,-20.833l-5.834,32.917c-32.5,7.916 -103.75,35.833 -112.916,124.166c-4.167,41.667 30.416,91.25 71.25,91.25c32.5,0 71.666,-7.083 87.916,-93.75c2.084,-10.416 4.167,-19.166 5.417,-27.083c0.833,-7.917 2.083,-16.25 3.333,-25c0.417,-2.917 2.084,-19.167 2.917,-24.583c22.917,-3.334 45.417,18.333 49.167,-10c2.5,-19.167 -37.084,-30.834 -43.75,-32.917Zm-1466.25,-119.167c-5.834,9.584 -11.667,17.917 -17.917,25.417c-2.5,3.333 -5.417,6.25 -8.75,9.583c-2.917,2.917 -6.25,5.834 -9.583,7.917c-3.334,2.5 -45.834,30 -45.834,-16.25c0,-71.25 46.25,-140.417 90,-95c0.417,4.167 -7.916,65.833 -7.916,68.333Zm65.416,-112.083c-0.416,-9.583 -0.833,-19.167 -0.833,-28.75c0.417,-10.833 1.25,-22.083 2.5,-34.167c2.5,-25 3.75,-37.5 3.75,-37.5c-0,0 2.917,-13.75 8.333,-40.833c5.417,-27.083 10.417,-46.667 15.417,-59.167c4.583,-12.083 9.583,-22.083 14.583,-29.583c5,-7.5 10,-11.25 15,-11.667c1.25,0 2.5,1.667 2.917,5.417c0.417,3.75 1.25,8.333 1.667,13.333c-0,16.667 -2.084,35 -6.25,55c-4.167,20 -9.584,39.584 -15.834,60c-6.25,20 -13.333,39.584 -20.833,58.75c-7.083,18.334 -13.75,34.584 -20.417,49.167Zm167.917,0c10.833,-2.083 25,3.333 24.167,26.25c-0.834,37.083 -58.75,71.25 -65,72.5c-0.417,-4.167 -4.584,-90 40.833,-98.75Zm181.25,9.167c-0.417,-18.75 0.833,-40.417 3.75,-65.417c2.917,-25 4.583,-37.5 4.583,-37.5c0,0 2.917,-13.333 8.75,-40.417c5.834,-27.083 11.25,-46.666 16.25,-58.75c5,-12.083 14.167,-46.25 32.084,-46.25c11.25,0 -0,59.584 -4.584,79.167c-4.583,19.583 -10,39.583 -16.666,59.583c-6.667,20 -13.75,39.584 -21.667,58.334c-7.917,19.166 -15.417,36.25 -22.5,51.25Zm575,-9.167c10.833,-2.083 25,3.333 24.167,26.25c-0.834,37.083 -58.75,71.25 -65,72.5c-0.417,-4.167 -4.584,-90 40.833,-98.75Zm371.667,399.167c-37.5,-2.5 -12.5,-117.084 40.833,-120.834c-7.5,56.667 -7.083,122.917 -40.833,120.834Z" style="fill:#fff;fill-rule:nonzero;"></path></g></svg>