<svg xmlns="http://www.w3.org/2000/svg" xmlns:xlink="http://www.w3.org/1999/xlink" xmlns:serif="http://www.serif.com/" width="100%" height="100%" viewBox="0 0 4942 1241" xml:space="preserve" style="fill-rule:evenodd;clip-rule:evenodd;stroke-linejoin:round;stroke-miterlimit:2;"><g><g><path d="M3714.58,1192.08l-7.5,-52.5l-32.5,-5c-132.5,-20.416 -240.833,-117.916 -275,-248.333c-6.25,-24.583 -8.75,-45.833 -8.75,-81.25c0,-57.5 9.584,-98.333 34.167,-147.917c50.417,-100.416 147.917,-168.75 261.667,-183.333c11.666,-1.667 21.666,-4.583 21.666,-6.667c0,-2.083 2.084,-3.75 4.167,-3.75c2.5,0 4.167,7.5 4.167,16.667c-0,12.083 -1.667,16.667 -6.25,16.667c-3.334,-0 -6.25,-2.917 -6.25,-6.667c-0,-5.417 -3.334,-6.25 -21.667,-3.75c-121.25,16.667 -220,95.833 -261.667,210c-25.416,69.167 -25.416,146.25 -0.833,216.667c17.5,48.75 35.833,77.083 77.917,119.166c28.75,29.167 45.416,41.667 70.833,55c37.917,19.584 77.083,32.5 110.833,36.667c22.084,2.917 23.334,2.5 25.834,-7.083c1.666,-5 2.916,-53.334 2.916,-106.25l0,-97.084l17.917,0c9.583,-0.416 24.167,-2.916 32.5,-5.833l14.583,-5l-13.75,91.667c-7.5,50.833 -15,101.25 -16.25,112.5l-2.916,20.416l24.583,-3.333c117.917,-14.583 224.167,-101.667 261.667,-214.583c41.25,-123.75 6.666,-256.25 -89.584,-342.917c-45,-40.833 -96.25,-65.833 -157.083,-77.083c-26.667,-4.584 -36.25,-5 -37.5,-1.667c-0.833,2.917 -4.167,5 -7.5,5c-3.75,-0 -5.833,-4.583 -5.833,-14.583c-0,-7.917 2.083,-14.584 4.166,-14.584c2.5,0 4.167,1.667 4.167,3.75c0,2.084 10,5 22.083,6.667c38.75,5 70.834,14.583 109.167,33.333c88.333,42.5 154.583,125.417 177.5,221.667c12.5,52.083 9.583,130 -6.25,178.333c-41.667,124.584 -149.167,212.917 -278.75,229.167l-22.917,2.917l-7.083,48.75c-3.75,26.666 -7.5,50 -7.917,52.5c-0.416,2.083 -4.583,-19.584 -8.75,-48.334Z" style="fill:#fff;fill-rule:nonzero;"></path><path d="M3604.17,920.417c-0,-0.834 6.25,-12.917 13.75,-27.084c13.75,-25.833 14.166,-25.833 21.666,-17.5c5.834,6.667 6.25,9.167 2.084,14.584c-4.584,5.416 -3.334,5.833 8.75,3.75c12.916,-2.084 11.666,-0.834 -10.834,12.5c-21.666,12.916 -35.416,18.333 -35.416,13.75Z" style="fill:#fff;fill-rule:nonzero;"></path><path d="M3810.42,910.417c-26.667,-13.334 -25.417,-12.084 -16.667,-22.084c6.25,-6.666 8.75,-7.5 13.75,-2.916c5.417,4.166 6.25,3.75 4.167,-4.167c-5,-19.583 3.75,-12.083 16.666,13.75c15,30 13.334,31.667 -17.916,15.417Z" style="fill:#fff;fill-rule:nonzero;"></path><path d="M2168.75,900.417c-37.917,-18.75 -57.5,-51.25 -57.5,-95c0,-61.667 42.083,-104.584 103.333,-104.584c35.417,0 75,20 66.667,33.334c-3.75,6.25 -8.333,5.416 -25.417,-6.25c-12.083,-8.334 -20.416,-10.417 -40,-10.417c-44.166,-0 -73.75,23.333 -82.916,65.417c-11.667,50.833 16.25,99.166 62.5,109.166c26.666,5.834 53.333,0 69.166,-14.583c12.084,-10.833 16.667,-12.083 20.834,-5.417c4.166,6.25 -10,20.417 -29.167,29.167c-22.917,10.833 -65.417,10.417 -87.5,-0.833Z" style="fill:#fff;fill-rule:nonzero;"></path><path d="M4805.42,898.333c-19.584,-11.25 -21.25,-14.583 -11.667,-22.5c5,-4.166 8.333,-2.916 18.75,5.834c30,25 75,13.75 81.667,-20.834c4.583,-25.833 -7.084,-36.25 -66.25,-57.916c-45.834,-16.667 -49.584,-73.75 -7.084,-95.834c15.834,-8.333 51.25,-7.916 69.167,0.417c17.5,8.333 20.417,12.917 14.167,20.417c-4.584,5.416 -6.667,5 -17.5,-2.917c-23.75,-16.667 -63.75,-10.417 -73.75,12.083c-12.917,27.917 -2.5,42.084 42.916,59.167c42.5,15.833 56.667,30 56.667,55c-0,37.083 -23.333,57.917 -64.583,57.917c-19.167,-0 -29.167,-2.5 -42.5,-10.834Z" style="fill:#fff;fill-rule:nonzero;"></path><path d="M25,905l0,-200l43.333,0c23.334,0 49.167,2.083 57.084,5c59.583,20 86.666,82.5 60.416,139.167c-18.75,40.416 -51.25,55.833 -117.5,55.833l-43.333,0Zm108.75,-26.25c40.417,-21.25 55,-76.667 31.25,-117.083c-16.25,-27.5 -43.75,-40 -88.75,-40l-34.583,-0l-0,166.666l36.666,0c30.834,0 40,-1.666 55.417,-9.583Z" style="fill:#fff;fill-rule:nonzero;"></path><path d="M608.333,805c0,-97.083 0.417,-100 8.334,-100c7.916,0 8.333,2.917 8.333,100c0,97.083 -0.417,100 -8.333,100c-7.917,0 -8.334,-2.917 -8.334,-100Z" style="fill:#fff;fill-rule:nonzero;"></path><path d="M1045.83,905l0,-200l41.667,0c61.25,0 82.5,11.667 86.25,46.667c2.083,22.916 -9.583,42.916 -31.25,52.083c-8.333,3.333 -16.25,7.083 -17.083,7.917c-0.834,0.416 10.416,20.416 25,44.166c14.166,23.75 26.666,44.167 27.5,46.25c0.833,1.667 -2.917,2.917 -8.75,2.917c-9.167,-0 -14.584,-6.667 -38.75,-47.917l-28.334,-47.916l-35.416,-0l-0,95.833l-20.834,-0Zm79.584,-112.5c20.416,-5.833 30.416,-17.917 30,-36.667c-0.417,-10.833 -3.75,-17.916 -11.667,-24.583c-9.167,-8.333 -15.417,-9.583 -44.167,-9.583l-32.916,-0l-0,75l22.083,-0c11.667,-0 28.333,-2.084 36.667,-4.167Z" style="fill:#fff;fill-rule:nonzero;"></path><path d="M1583.33,905l0,-200l62.5,0c59.584,0 62.5,0.417 62.5,8.333c0,7.917 -2.916,8.334 -52.083,8.334l-52.083,-0l-0,70.833l50,0c47.083,0 50,0.417 50,8.333c-0,7.917 -2.917,8.334 -50,8.334l-50,-0l-0,79.166l54.166,0c51.25,0 54.167,0.417 54.167,8.334c0,7.916 -2.917,8.333 -64.583,8.333l-64.584,0Z" style="fill:#fff;fill-rule:nonzero;"></path><path d="M2737.5,813.333l0,-91.666l-35.417,-0c-32.5,-0 -35.416,-0.834 -35.416,-8.334c-0,-7.916 2.916,-8.333 79.166,-8.333c76.25,0 79.167,0.417 79.167,8.333c0,7.5 -2.917,8.334 -35.417,8.334l-35.416,-0l-0,91.666c-0,88.75 -0.417,91.667 -8.334,91.667c-7.916,0 -8.333,-2.917 -8.333,-91.667Z" style="fill:#fff;fill-rule:nonzero;"></path><path d="M3191.67,905l-0,-200l20.833,0l0,200l-20.833,0Z" style="fill:#fff;fill-rule:nonzero;"></path><path d="M4241.67,905l-0,-200l12.083,0c11.667,0 17.083,6.667 69.167,83.333c30.833,45.417 58.333,84.167 60.416,85.417c2.5,1.667 4.167,-28.333 4.167,-82.917c-0,-82.916 0.417,-85.833 8.333,-85.833c7.917,0 8.334,2.917 8.334,100l-0,100l-11.667,0c-10.417,0 -17.5,-8.333 -69.583,-85.833l-58.334,-85.834l-1.25,85.834l-0.833,85.833l-20.833,-0Z" style="fill:#fff;fill-rule:nonzero;"></path><path d="M3700.83,892.917c-42.083,-10.834 -70.833,-51.667 -66.25,-95.417c3.334,-32.083 20,-57.917 46.25,-71.25c59.167,-30.417 126.25,7.5 130.834,73.75c3.75,59.583 -52.917,107.083 -110.834,92.917Z" style="fill:#fff;fill-rule:nonzero;"></path><path d="M3525.83,823.75c-73.75,-12.917 -84.166,-15.833 -78.75,-21.25c2.917,-2.917 169.584,-32.083 171.667,-30c0.417,0.833 0,8.333 -0.833,16.667l-2.084,15.416l-59.166,1.25l-58.75,1.25l59.166,10.417c36.25,6.25 60,12.083 61.25,15.417c2.917,7.5 -3.333,6.666 -92.5,-9.167Z" style="fill:#fff;fill-rule:nonzero;"></path><path d="M3826.67,831.667c1.25,-3.75 2.5,-11.25 2.5,-16.667l-0,-10l59.583,-0.417l59.167,-0.416l-58.334,-10.417c-32.083,-5.833 -59.583,-12.917 -61.25,-15.417c-1.666,-2.5 -1.666,-5 0,-5.416c6.25,-2.5 164.167,27.083 168.334,31.25c5.416,5.416 5.833,5.416 -88.334,21.666c-85,14.584 -85,14.584 -81.666,5.834Z" style="fill:#fff;fill-rule:nonzero;"></path><path d="M3617.5,717.083c-7.5,-14.166 -12.917,-26.666 -11.667,-27.916c1.25,-0.834 14.167,4.166 28.75,12.083c26.667,13.75 26.667,13.75 17.917,20.833c-5.417,4.584 -10.417,5.834 -12.5,3.334c-7.083,-6.667 -11.25,-4.167 -6.667,4.166c5,9.584 5.417,12.917 1.25,12.917c-2.083,0 -9.583,-11.667 -17.083,-25.417Z" style="fill:#fff;fill-rule:nonzero;"></path><path d="M3805.42,734.167c-2.917,-4.167 -4.167,-10.834 -2.917,-13.75c1.667,-4.584 -0.833,-5.417 -9.583,-4.167c-8.75,1.25 -5.417,-1.667 13.333,-12.917c13.75,-7.916 27.5,-15 30,-15c3.333,0 0.417,10 -7.917,27.084c-7.5,15 -14.583,27.083 -15.833,27.083c-1.25,0 -4.583,-3.75 -7.083,-8.333Z" style="fill:#fff;fill-rule:nonzero;"></path><path d="M0,609.167l0,-609.167l153.333,1.667c149.584,1.666 153.75,2.083 193.334,12.5c114.166,30.833 192.5,107.916 213.75,209.583c8.333,39.167 7.916,115.417 -0.417,153.333c-27.5,123.334 -129.167,206.25 -278.75,227.917c-15.833,2.083 -85.833,4.167 -155,4.167l-126.25,-0Zm288.75,-135c83.75,-22.917 127.917,-82.5 127.917,-173.75c-0,-72.917 -32.084,-128.75 -89.584,-155.417c-30.833,-14.583 -60,-19.583 -125.833,-22.083l-59.583,-2.5l-0,365l61.666,-2.5c34.584,-1.25 71.667,-5 85.417,-8.75Z" style="fill:#fff;fill-rule:nonzero;"></path><path d="M650,609.167l0,-608.334l408.333,0l0,120.834l-266.666,-0l-0,116.666l254.166,0l0,116.667l-254.166,0l-0,129.167l283.333,-0l-0,125l-425,-0Z" style="fill:#fff;fill-rule:nonzero;"></path><path d="M1158.33,609.167l0,-608.334l145.834,0l-0,479.167l237.5,0l-0,129.167l-383.334,-0Z" style="fill:#fff;fill-rule:nonzero;"></path><path d="M1595.83,609.167l0,-608.334l145.834,0l-0,608.334l-145.834,-0Z" style="fill:#fff;fill-rule:nonzero;"></path><path d="M1854.17,610l-0,-609.583l155.416,1.25c150.834,1.25 155.834,1.666 183.334,11.25c53.333,18.75 92.083,55.416 103.333,97.5c8.333,30.833 5.417,75.416 -5.833,100.416c-12.5,27.5 -38.75,53.75 -65.834,66.25c-11.25,5 -20.416,10 -20.416,11.25c-0,1.25 8.75,5 20,7.917c37.083,9.583 71.25,37.917 89.583,73.75c17.5,33.75 16.25,97.917 -2.917,136.25c-21.25,44.167 -62.5,75 -122.083,91.25c-30,8.333 -45,9.167 -183.333,10.833l-151.25,1.667Zm283.333,-128.75c33.333,-15 48.75,-42.5 43.333,-76.25c-3.75,-20.833 -12.083,-32.083 -32.083,-42.5c-15.417,-8.333 -25,-9.583 -87.083,-10.833l-70,-1.667l-0,143.333l63.75,-1.666c52.5,-1.667 66.666,-3.334 82.083,-10.417Zm-10.833,-249.167c25,-12.5 33.75,-27.5 33.75,-56.25c-0,-20 -1.667,-26.25 -10.417,-35.416c-17.917,-19.584 -34.583,-24.167 -98.75,-26.25l-59.583,-2.084l-0,130.834l59.583,-1.25c49.167,-0.834 62.083,-2.5 75.417,-9.584Z" style="fill:#fff;fill-rule:nonzero;"></path><path d="M2408.33,609.167l0,-608.334l412.5,0l0,120.834l-270.833,-0l0,116.666l254.167,0l-0,116.667l-254.167,0l0,129.167l283.333,-0l0,125l-425,-0Z" style="fill:#fff;fill-rule:nonzero;"></path><path d="M2908.33,609.167l0,-608.334l139.167,0c151.667,0 183.333,3.334 226.667,22.917c69.166,31.667 104.583,92.5 99.583,172.083c-3.75,62.5 -37.917,111.667 -97.083,139.167c-20.834,9.583 -26.667,14.167 -24.584,19.583c2.084,5.417 85.417,157.5 127.917,232.917l12.083,21.667l-169.583,-0l-117.5,-241.667l-55,-0l0,241.667l-141.667,-0Zm286.667,-361.667c24.583,-12.917 34.167,-30 34.167,-60.417c-0,-30 -7.917,-44.583 -30.834,-57.916c-15.416,-8.75 -22.916,-9.584 -82.5,-10.834l-65.833,-1.666l0,143.333l63.75,-1.667c56.25,-1.25 65.417,-2.5 81.25,-10.833Z" style="fill:#fff;fill-rule:nonzero;"></path><path d="M3400,606.667c0,-2.084 57.083,-138.75 126.25,-303.75l125.833,-300l144.584,-0l124.583,300c68.333,165 124.583,301.25 124.583,303.333c0,2.083 -7.916,-7.083 -17.916,-20.417c-45.834,-62.083 -112.5,-112.083 -180,-135l-20.834,-7.083l-33.75,-91.25c-18.333,-50 -41.666,-113.333 -51.25,-140c-10,-27.083 -19.166,-48.333 -20.833,-47.083c-1.667,0.833 -26.25,64.166 -54.167,140.833l-51.25,139.167l-17.083,5.416c-62.917,18.75 -134.583,71.667 -179.167,132.917c-10.833,14.583 -19.583,24.583 -19.583,22.917Z" style="fill:#fff;fill-rule:nonzero;"></path><path d="M4145.83,609.167l0,-487.5l-170.833,-0l0,-120.834l491.667,0l-0,120.834l-175,-0l-0,487.5l-145.834,-0Z" style="fill:#fff;fill-rule:nonzero;"></path><path d="M4516.67,609.167l-0,-608.334l408.333,0l0,120.834l-266.667,-0l0,116.666l254.167,0l0,116.667l-254.167,0l0,129.167l283.334,-0l-0,125l-425,-0Z" style="fill:#fff;fill-rule:nonzero;"></path></g><g><path d="M3746.25,701.25l-26.667,-6.667l2.917,-52.083c1.25,-28.75 2.5,-97.917 2.917,-154.167l0.416,-102.083l7.917,45.833c4.583,25.417 7.917,49.167 8.333,53.75c0,4.167 7.084,56.25 15.834,115.417c8.75,59.167 15.833,107.5 15.416,107.083c-0.416,0 -12.5,-3.333 -27.083,-7.083Z" style="fill:#fff;fill-rule:nonzero;"></path></g></g><g><g><path d="M3684.17,630.417c6.25,-42.5 14.583,-97.917 17.916,-123.334c3.75,-25 9.584,-67.5 13.75,-93.75l7.5,-47.916l5.417,31.25c7.083,40.833 10.417,164.583 6.667,240l-2.917,60l-11.25,-0c-6.667,-0 -20,2.5 -30,5.416l-18.75,5.834l11.667,-77.5Z" style="fill:#fff;fill-opacity:0.72;fill-rule:nonzero;"></path></g><g><path d="M3716.67,1210.42c-0,-4.167 -10,-75 -22.084,-157.917l-22.083,-150l15,5c7.917,2.917 18.75,5.417 24.167,5.833l9.166,0l0,152.084c0,83.75 -0.833,152.083 -2.083,152.083c-1.25,0 -2.083,-3.333 -2.083,-7.083Z" style="fill:#fff;fill-opacity:0.72;fill-rule:nonzero;"></path></g></g></svg>