<svg xmlns="http://www.w3.org/2000/svg" xmlns:xlink="http://www.w3.org/1999/xlink" xmlns:serif="http://www.serif.com/" width="100%" height="100%" viewBox="0 0 1303 409" xml:space="preserve" style="fill-rule:evenodd;clip-rule:evenodd;stroke-linejoin:round;stroke-miterlimit:2;"><g><path d="M580.682,405.947c-3.333,-3.333 -3.333,-25 0,-28.333c1.875,-1.875 71.667,-2.5 301.042,-2.5c292.917,-0 298.333,-0 300.625,3.958c1.042,2.292 2.083,8.333 2.083,13.542c0,17.291 29.792,15.833 -303.958,15.833c-228.333,-0 -297.917,-0.625 -299.792,-2.5Z" style="fill:#fff;fill-rule:nonzero;"></path><path d="M59.224,321.989c-23.75,-7.709 -46.042,-31.25 -54.375,-57.917c-6.25,-19.583 -6.458,-48.75 -0.625,-67.083c8.333,-26.042 28.542,-47.917 53.125,-57.709c16.042,-6.25 44.167,-6.25 60.417,0c6.25,2.5 11.666,4.584 12.083,4.584c0.208,-0 0.417,-31.459 0.417,-69.792c-0,-80.208 -1.875,-73.958 21.666,-73.958c9.375,-0 14.375,1.041 16.667,3.333c2.917,2.917 3.333,20 3.333,157.917c0,117.5 -0.625,155.208 -2.5,157.083c-3.333,3.333 -21.458,3.125 -24.375,-0.208c-1.25,-1.667 -2.916,-5.834 -3.541,-9.375c-1.667,-7.917 -4.167,-8.334 -11.042,-1.667c-3.125,2.917 -10.625,7.708 -16.875,10.833c-14.167,7.084 -38.958,8.959 -54.375,3.959Zm51.667,-41.875c5,-2.917 11.25,-8.542 14.166,-12.917c5,-7.5 5.209,-8.542 5.209,-45.833l-0,-38.125l-9.792,-4.167c-41.667,-18.125 -80.625,6.875 -80.417,51.667c0.209,19.583 8.125,37.291 22.084,48.333c12.083,9.583 33.333,10 48.75,1.042Z" style="fill:#fff;fill-rule:nonzero;"></path><path d="M276.932,320.322c-35.416,-13.542 -55.833,-43.125 -58.541,-84.792c-3.125,-50.208 27.083,-91.666 73.541,-100.208c45.417,-8.333 87.084,22.083 94.792,68.958c2.5,15.834 1.042,30.417 -3.542,32.084c-1.875,0.625 -30.833,1.25 -64.791,1.25l-61.459,-0l1.459,6.875c0.833,3.541 3.958,11.25 7.083,16.875c14.167,26.875 44.375,33.541 76.667,17.083l15,-7.5l4.166,4.583c2.5,2.5 6.875,8.125 10,12.5c6.667,9.792 5.625,12.292 -7.5,21.042c-14.583,10 -30.208,14.375 -53.333,15.208c-17.917,0.834 -22.5,0.209 -33.542,-3.958Zm69.375,-117.5c-1.875,-10.625 -11.25,-23.542 -21.25,-29.167c-24.166,-13.75 -57.708,2.709 -64.375,31.25l-1.25,5.625l88.125,0l-1.25,-7.708Z" style="fill:#fff;fill-rule:nonzero;"></path><path d="M979.224,322.197c-29.375,-9.375 -51.25,-31.25 -61.458,-61.875c-3.75,-11.25 -4.375,-16.875 -3.75,-35.208c0.625,-20.209 1.25,-23.125 8.541,-37.917c10.209,-21.042 24.375,-35.417 45,-45c13.959,-6.875 17.5,-7.5 33.334,-7.708c14.375,-0 20.625,1.041 31.041,5.208c26.25,10.208 47.917,34.375 56.042,62.5c6.875,23.958 2.5,58.125 -10.417,79.167c-6.458,10.416 -20,24.791 -28.958,30.416c-19.167,12.084 -49.583,16.667 -69.375,10.417Zm46.042,-41.875c30.625,-17.917 37.083,-63.542 12.708,-90c-20.833,-22.708 -47.708,-23.333 -69.375,-1.875c-16.25,16.458 -21.25,36.042 -14.375,58.958c10,33.959 43.125,49.167 71.042,32.917Z" style="fill:#fff;fill-rule:nonzero;"></path><path d="M1254.85,319.905c-9.375,-6.25 -15.417,-20.208 -13.333,-31.25c0.833,-3.958 4.166,-10.625 7.708,-14.583c16.042,-18.333 42.083,-12.917 51.042,10.625c3.125,8.125 3.125,10.417 0.833,17.708c-6.875,20.834 -28.958,29.167 -46.25,17.5Z" style="fill:#fff;fill-rule:nonzero;"></path><path d="M435.057,319.697c-2.083,-1.042 -2.708,-20.833 -2.708,-89.375c0,-85.208 0.208,-88.542 3.958,-90.625c5.209,-2.708 13.959,-2.708 19.167,-0c2.292,1.25 5,6.25 6.25,11.458l2.292,9.375l9.375,-8.541c16.875,-15.417 37.291,-21.25 59.583,-16.459c8.542,1.667 12.917,3.75 15.208,7.292c2.917,4.583 2.709,5.833 -4.375,19.792c-7.083,14.166 -7.916,15 -13.125,13.75c-17.291,-4.375 -26.25,-3.75 -37.708,2.291c-20.417,10.417 -19.792,8.334 -21.042,79.375l-1.041,61.875l-16.667,0.417c-9.167,0.208 -17.917,-0.208 -19.167,-0.625Z" style="fill:#fff;fill-rule:nonzero;"></path><path d="M585.057,319.489c-2.083,-0.834 -2.708,-20.625 -2.708,-89.167c0,-85.208 0.208,-88.542 3.958,-90.625c10.209,-5.417 25.209,0.625 25.209,10c0.208,9.167 3.541,9.583 12.708,1.875c13.542,-11.667 28.75,-16.875 49.792,-16.875c21.25,-0 35.833,5.625 49.166,19.375c7.292,7.5 8.959,8.333 11.459,6.042c6.25,-6.042 22.708,-16.25 32.916,-20.417c28.334,-11.042 60.417,-5.625 80.209,13.958c8.75,8.542 17.291,28.75 19.791,47.292c3.334,22.917 3.125,114.167 -0.208,117.5c-3.333,3.333 -33.333,3.333 -36.667,-0c-1.875,-1.875 -2.5,-17.292 -2.5,-57.083c0,-58.334 -1.25,-66.875 -11.041,-77.709c-14.375,-15.625 -43.75,-13.541 -65.417,4.792l-6.875,5.833l0,62.084c0,54.583 -0.417,62.291 -3.333,63.333c-6.25,2.292 -31.667,1.458 -33.542,-1.25c-0.833,-1.458 -2.083,-28.958 -2.708,-61.042c-0.834,-51.666 -1.459,-59.166 -5,-66.25c-5.417,-11.041 -18.125,-18.125 -32.709,-18.125c-14.583,0.209 -25.833,5.417 -36.666,17.292l-8.959,9.792l0,59.166c0,52.084 -0.416,59.375 -3.333,60.417c-3.75,1.458 -29.792,1.458 -33.542,-0.208Z" style="fill:#fff;fill-rule:nonzero;"></path><path d="M1138.6,316.989c-1.25,-2.709 -2.083,-34.375 -2.083,-88.542l-0,-84.375l4.583,-3.125c5.417,-3.75 26.875,-4.583 33.125,-1.25c3.75,2.083 3.958,5.417 3.958,90.417c0,78.541 -0.416,88.541 -3.333,89.583c-1.875,0.625 -10.208,1.25 -18.542,1.25c-13.125,-0 -15.833,-0.625 -17.708,-3.958Z" style="fill:#fff;fill-rule:nonzero;"></path><path d="M1261.52,192.822c-3.125,-3.75 -13.959,-105.833 -15.834,-150.417c-1.875,-42.083 -1.875,-42.291 24.375,-42.291c28.125,-0 26.875,-1.667 26.875,36.041c0,36.042 -11.041,152.292 -14.791,156.875c-3.125,3.959 -17.292,3.75 -20.625,-0.208Z" style="fill:#fff;fill-rule:nonzero;"></path><path d="M1147.14,59.905c-12.292,-6.25 -17.709,-22.708 -11.667,-35.625c4.375,-9.166 12.292,-13.75 24.167,-13.75c24.791,0 32.291,37.917 9.375,48.75c-8.542,3.959 -15,4.167 -21.875,0.625Z" style="fill:#fff;fill-rule:nonzero;"></path></g></svg>