<svg xmlns="http://www.w3.org/2000/svg" xmlns:xlink="http://www.w3.org/1999/xlink" xmlns:serif="http://www.serif.com/" width="100%" height="100%" viewBox="0 0 2364 270" xml:space="preserve" style="fill-rule:evenodd;clip-rule:evenodd;stroke-linejoin:round;stroke-miterlimit:2;"><g><path d="M326.042,269.007c-10.625,-2.708 -31.459,-9.792 -33.125,-11.458c-2.084,-1.875 8.75,-28.959 11.458,-28.959c1.042,0 7.083,2.084 13.75,4.584c9.167,3.541 16.667,4.583 30.833,4.791c20.625,0 27.917,-2.916 33.125,-13.333c3.125,-6.042 5.834,-23.958 4.167,-25.833c-0.625,-0.625 -7.292,1.666 -14.583,5.208c-12.292,5.833 -15,6.25 -29.584,5.417c-28.958,-1.667 -51.458,-16.459 -64.166,-42.5c-5.417,-11.042 -6.042,-14.375 -6.042,-32.084c-0,-17.708 0.625,-21.041 6.042,-32.083c7.708,-15.833 20,-28.125 35.833,-35.833c11.042,-5.417 14.375,-6.042 32.083,-5.834c16.25,0 21.459,0.834 28.75,4.792c9.167,4.583 12.917,4.375 12.917,-1.042c-0,-2.291 3.75,-2.916 18.958,-2.916l18.75,-0l-0.625,82.708l-0.625,82.917l-5.625,10.833c-11.666,21.875 -28.75,30.208 -64.166,31.042c-13.125,0.416 -25.834,0.208 -28.125,-0.417Zm48.541,-97.292c5,-2.5 9.584,-5.208 10.209,-6.25c0.833,-1.458 1.458,-42.916 0.625,-58.958c-0,-1.25 -4.584,-4.792 -10.209,-7.708c-20.625,-11.25 -46.458,-5.625 -59.583,12.916c-5.625,7.917 -6.25,10.625 -6.042,23.334c0,12.5 0.834,15.416 6.25,23.125c13.542,19.583 36.459,24.791 58.75,13.541Z" style="fill:#fff;fill-rule:nonzero;"></path><path d="M1780.62,266.715c-0.833,-0.625 -1.458,-45.625 -1.458,-100l-0,-98.541l10.416,-0c10.209,-0 10.417,0.208 10.417,6.25c0,7.5 0.625,7.5 8.333,2.083c15.834,-11.25 42.917,-13.75 63.959,-5.833c16.666,6.041 33.75,23.333 40,40.208c3.958,10.417 4.583,15.625 3.958,31.25c-0.625,16.458 -1.667,20.417 -7.917,31.875c-8.125,15.208 -17.291,23.958 -32.291,30.833c-20.834,9.584 -47.084,8.334 -66.25,-3.333c-3.75,-2.292 -7.292,-4.167 -8.125,-4.167c-1.042,0 -1.667,16.042 -1.667,35.417l0,35.417l-8.958,-0c-5,-0 -9.792,-0.625 -10.417,-1.459Zm83.333,-76.666c12.292,-5.209 20,-12.292 26.667,-24.167c5.208,-9.583 6.042,-13.542 6.042,-26.875c-0,-13.333 -0.834,-17.292 -6.042,-26.875c-10.833,-19.583 -32.292,-31.458 -52.292,-28.542c-12.291,1.667 -26.458,7.917 -33.125,14.584c-5.208,5.208 -5.208,5.625 -5.208,40.416l0,35l5.833,5.417c6.25,5.833 12.917,9.792 21.042,12.292c9.167,2.708 29.167,2.083 37.083,-1.25Z" style="fill:#fff;fill-rule:nonzero;"></path><path d="M743.333,209.007c-22.708,-6.042 -35,-21.25 -35,-43.125c0,-17.292 6.042,-26.25 23.542,-35c12.917,-6.458 15.833,-7.083 33.333,-7.292c10.625,-0.208 23.542,0.625 29.167,1.459l9.792,1.666l-0,-8.541c-0,-19.375 -12.084,-28.334 -35.417,-26.459c-7.5,0.625 -18.75,3.125 -25,5.417c-6.25,2.5 -12.708,4.375 -13.958,4.375c-3.334,-0 -16.042,-25 -13.75,-27.292c0.833,-0.833 9.166,-4.166 18.333,-7.5c14.792,-5 19.583,-5.625 43.75,-5.833c30.208,-0 37.292,2.292 50.417,16.042c12.291,12.708 12.916,16.458 13.333,76.875l0.208,55l-18.125,0.625c-16.666,0.625 -18.125,0.208 -19.166,-3.75c-1.25,-5 -3.334,-5.209 -9.584,-1.25c-5,3.333 -25.833,7.5 -35.625,7.291c-3.541,0 -10.833,-1.25 -16.25,-2.708Zm52.292,-29.583l8.542,-3.334l-0,-24.166l-10.417,-2.292c-23.542,-5 -42.083,-0.833 -47.5,10.833c-3.75,7.709 0.208,15.834 10,20.834c8.542,4.375 25.625,3.75 39.375,-1.875Z" style="fill:#fff;fill-rule:nonzero;"></path><path d="M1463.54,210.049c-10,-2.5 -15.417,-6.875 -19.792,-16.042c-3.75,-7.708 -4.167,-12.917 -4.167,-58.75l0,-50.417l-31.25,0l0,-16.458l15.209,-0.625l15,-0.625l1.25,-36.25l7.708,-2.292c4.167,-1.041 8.333,-2.083 9.167,-2.083c0.833,-0 1.875,9.167 2.083,20.417l0.625,20.208l21.458,0.625l21.25,0.625l0,16.25l-21.25,0.625l-21.458,0.625l-0,96.458l5.208,5.625c5,5.417 6.042,5.625 21.459,4.792l16.041,-1.042l0,7.917c0,4.375 -1.041,8.542 -2.291,9.375c-3.542,2.083 -29.167,2.917 -36.25,1.042Z" style="fill:#fff;fill-rule:nonzero;"></path><path d="M1567.29,209.007c-38.125,-12.5 -59.584,-50.625 -49.792,-88.542c6.25,-24.166 23.333,-43.541 45.208,-51.25c11.459,-4.166 32.084,-3.958 44.167,0.209c22.708,7.708 41.875,34.583 44.583,61.875l1.25,13.958l-117.291,-0l1.25,5.833c4.166,17.292 13.75,29.792 28.541,37.292c9.375,4.792 12.5,5.208 27.292,4.375c12.083,-0.833 19.792,-2.5 26.875,-6.042l10.208,-5l5,6.042c6.459,7.292 5,9.167 -12.083,16.875c-15.417,6.875 -41.25,8.958 -55.208,4.375Zm63.958,-82.917c0,-1.458 -2.292,-7.5 -5,-13.333c-8.958,-19.375 -30.417,-32.083 -48.75,-28.75c-20.417,3.75 -33.958,16.667 -40.833,40l-1.459,4.583l47.917,0c37.083,0 48.125,-0.625 48.125,-2.5Z" style="fill:#fff;fill-rule:nonzero;"></path><path d="M2125.21,208.799c-11.458,-3.334 -30,-12.5 -33.333,-16.459c-1.25,-1.458 0,-4.583 3.333,-8.333l5.209,-6.25l6.666,3.958c16.459,9.792 23.125,12.084 37.5,13.125c12.292,0.834 17.084,0 24.792,-3.333c21.25,-9.375 23.333,-31.875 3.958,-39.792c-3.125,-1.25 -16.041,-3.958 -28.958,-6.25c-35.833,-6.041 -47.292,-14.583 -49.792,-37.083c-1.458,-12.708 3.125,-22.083 15.417,-31.25c11.875,-9.167 22.917,-11.667 44.167,-10.625c17.291,1.042 33.75,6.25 44.375,14.583c3.75,2.917 3.75,3.125 -1.459,9.375l-5.208,6.25l-13.125,-6.458c-10,-5 -16.25,-6.667 -28.125,-7.292c-17.708,-0.833 -25.417,1.667 -32.917,10.625c-12.083,14.375 -3.125,28.542 20.834,32.709c53.541,9.375 64.166,15.625 66.875,38.958c2.083,17.708 -8.542,32.917 -29.167,41.458c-11.458,4.792 -37.5,5.834 -51.042,2.084Z" style="fill:#fff;fill-rule:nonzero;"></path><path d="M2275.62,207.549c-16.458,-5.209 -33.542,-20.209 -41.667,-36.875c-5.208,-10.625 -5.833,-14.167 -5.833,-32.709c0,-18.958 0.625,-21.875 6.042,-32.916c12.291,-23.959 32.083,-37.084 58.75,-38.542c15,-0.833 18.541,-0.208 28.333,4.167c15.833,7.291 25.625,16.666 32.917,31.666c6.041,12.084 11.666,37.292 9.166,41.25c-0.625,0.834 -26.875,1.667 -58.333,1.667c-44.167,-0 -57.083,0.625 -57.083,2.708c-0,14.167 16.875,36.25 32.291,42.084c12.917,5 36.25,3.541 49.584,-2.917l10.208,-5l6.25,6.458l6.25,6.25l-8.958,5.209c-20,11.875 -45.625,14.583 -67.917,7.5Zm65.208,-85.625c-2.291,-11.459 -12.083,-25 -22.708,-31.667c-13.333,-8.125 -32.083,-8.75 -43.958,-1.458c-13.959,8.75 -22.292,19.583 -25.209,33.125l-1.458,6.666l94.792,0l-1.459,-6.666Z" style="fill:#fff;fill-rule:nonzero;"></path><path d="M0,210.257l0,-201.042l47.5,1.25c36.042,0.834 50,1.875 58.75,4.584c39.792,12.291 67.5,43.333 73.333,82.083c6.875,46.458 -22.291,91.667 -68.958,106.667c-11.875,3.958 -20,4.583 -62.083,5.625l-48.542,0.833Zm79.375,-37.708c36.667,-3.959 58.333,-26.875 58.542,-61.875c-0,-13.542 -1.042,-17.709 -6.459,-28.959c-12.5,-25.208 -30.625,-34.375 -67.916,-34.375l-23.959,0l0,62.292c0,47.917 0.625,62.5 2.709,63.333c3.75,1.667 19.375,1.459 37.083,-0.416Z" style="fill:#fff;fill-rule:nonzero;"></path><path d="M208.333,209.007c-0.625,-0.417 -0.833,-33.75 -0.416,-73.958l0.625,-73.125l37.291,-0l-0.416,73.541l-0.625,73.334l-17.709,0.625c-9.791,0.208 -18.333,0.208 -18.75,-0.417Z" style="fill:#fff;fill-rule:nonzero;"></path><path d="M455.833,208.382c-0.416,-1.042 -0.416,-34.167 0,-73.958l0.625,-72.5l37.292,-0l0,147.916l-18.542,0c-10.416,0 -18.958,-0.625 -19.375,-1.458Z" style="fill:#fff;fill-rule:nonzero;"></path><path d="M587.708,205.257c-1.041,-2.708 -18.75,-46.458 -39.583,-97.5c-20.833,-51.042 -37.708,-93.958 -37.708,-95.208c-0,-2.084 5.208,-2.709 19.375,-2.709c10.416,0 20.208,0.834 21.458,1.667c1.875,1.042 48.542,119.167 60,151.25c0.833,2.5 2.083,3.333 3.333,2.083c1.042,-1.041 15.417,-36.041 31.875,-77.916l30,-76.042l18.334,-0.625c10.208,-0.417 19.583,-0.208 21.041,0.417c1.667,0.625 -10.833,32.916 -37.5,97.5c-21.875,53.125 -40.625,97.708 -41.458,99.166c-1.25,1.667 -8.542,2.5 -24.583,2.5c-21.667,0 -22.917,-0.208 -24.584,-4.583Z" style="fill:#fff;fill-rule:nonzero;"></path><path d="M858.333,209.007c0,-0.625 12.292,-17.083 27.084,-36.667c15,-19.583 27.083,-36.875 27.083,-38.125c-0.208,-1.458 -11.042,-16.458 -24.167,-33.75c-13.125,-17.083 -25,-32.916 -26.041,-34.791c-1.875,-3.542 -0.417,-3.75 19.583,-3.75l21.667,-0l16.25,22.083c8.958,12.083 16.875,21.25 17.708,20.208c0.833,-0.833 8.333,-10.833 16.458,-21.875l14.792,-20.416l20.833,-0c11.459,-0 20.834,0.416 20.834,1.041c-0,0.625 -11.667,16.459 -26.042,35.209c-14.375,18.958 -26.042,34.791 -26.042,35.416c0,1.875 51.667,69.584 54.167,71.042c5.833,3.75 0,5.208 -19.792,5.208l-21.875,0l-16.875,-22.916c-9.375,-12.5 -17.708,-22.917 -18.541,-22.917c-0.834,-0 -9.167,10.417 -18.542,22.917l-16.875,22.916l-20.833,0c-11.459,0 -20.834,-0.416 -20.834,-0.833Z" style="fill:#fff;fill-rule:nonzero;"></path><path d="M1100,209.84l0,-200l70.417,0.417l70.208,0.625l0.625,8.75l0.625,8.958l-60,0.417l-60,0.625l-0.625,34.792l-0.417,35l38.959,0.416l39.166,0.625l0.625,8.959l0.625,8.75l-79.375,-0l0,72.916l120.209,0l1.25,7.709c0.833,4.166 0.833,8.333 0.208,9.375c-0.625,0.833 -32.917,1.666 -71.875,1.666l-70.625,0Z" style="fill:#fff;fill-rule:nonzero;"></path><path d="M1270.83,210.049l0,-142.084l10,0.625c9.584,0.625 9.792,0.834 9.584,7.5c-0.209,3.542 -0.209,6.667 0.208,6.667c0.417,-0 5.417,-3.125 11.25,-7.083c13.75,-9.375 29.375,-12.709 45.208,-9.792c19.167,3.542 30.417,12.292 38.75,30.417c4.584,10 4.792,12.708 4.792,61.458l0,51.042l-19.583,1.25l-0.625,-49.584c-0.625,-46.458 -0.834,-50.208 -5.209,-58.125c-12.083,-22.708 -47.708,-26.25 -66.875,-6.458l-6.666,6.875l-0.417,52.917l-0.625,53.125l-9.792,0.625l-10,0.625Z" style="fill:#fff;fill-rule:nonzero;"></path><path d="M1681.25,139.424c0,-38.75 0.417,-71.042 0.833,-71.459c0.625,-0.416 5.209,-0.625 10.417,-0.208l9.583,0.833l0,8.125c0,9.584 1.042,10 6.667,2.917c5.833,-7.5 19.167,-13.75 31.667,-15c12.708,-1.25 16.458,1.667 15.416,12.292l-0.625,6.875l-10.416,-0.625c-12.709,-0.834 -20.834,2.083 -29.792,10.625c-12.708,12.083 -12.917,13.125 -12.917,67.083l0,48.958l-20.833,0l0,-70.416Z" style="fill:#fff;fill-rule:nonzero;"></path><path d="M1947.92,139.424c-0,-38.75 0.416,-71.042 0.833,-71.459c0.625,-0.416 5.208,-0.625 10.417,-0.208l9.583,0.833l0,8.125c0,9.584 1.042,10 6.667,2.917c5.833,-7.5 19.166,-13.75 31.666,-15c12.709,-1.25 16.459,1.667 15.417,12.292l-0.625,6.875l-10.417,-0.625c-12.708,-0.834 -20.833,2.083 -29.791,10.625c-12.709,12.083 -12.917,13.125 -12.917,67.083l0,48.958l-20.833,0l-0,-70.416Z" style="fill:#fff;fill-rule:nonzero;"></path><path d="M2047.92,210.049l-0,-142.084l10,0.625l9.791,0.625l0,139.584l-9.791,0.625l-10,0.625Z" style="fill:#fff;fill-rule:nonzero;"></path><path d="M216.875,40.465c-2.917,-1.25 -7.083,-5.625 -9.167,-9.375c-3.541,-6.041 -3.75,-8.125 -1.666,-15.208c5,-16.875 24.375,-21.25 36.25,-8.125c8.125,9.167 7.708,19.167 -1.459,28.333c-7.708,7.709 -15,8.959 -23.958,4.375Z" style="fill:#fff;fill-rule:nonzero;"></path><path d="M465.208,41.09c-5.416,-2.083 -13.125,-13.75 -13.125,-19.375c0,-6.666 6.042,-15.833 12.709,-19.375c8.958,-4.583 18.958,-2.291 25.625,5.625c7.916,9.375 7.291,19.167 -1.667,28.125c-7.292,7.292 -14.167,8.75 -23.542,5Z" style="fill:#fff;fill-rule:nonzero;"></path><path d="M2048.33,34.215c-5.625,-6.041 -5.833,-12.708 -0.416,-18.125c8.541,-8.541 22.916,-2.708 22.916,9.375c0,12.5 -13.958,17.917 -22.5,8.75Z" style="fill:#fff;fill-rule:nonzero;"></path></g></svg>