<svg xmlns="http://www.w3.org/2000/svg" xmlns:xlink="http://www.w3.org/1999/xlink" xmlns:serif="http://www.serif.com/" width="100%" height="100%" viewBox="0 0 4267 2017" xml:space="preserve" style="fill-rule:evenodd;clip-rule:evenodd;stroke-linejoin:round;stroke-miterlimit:2;"><path id="polygon28" d="M966.79,57.367l0,129.953l3242.82,0l-0,-129.953l-3242.82,0Zm0,313.831l0,133.111l3242.82,-0l-0,-133.111l-3242.82,0Zm0,316.989l0,129.953l3242.82,-0l-0,-129.953l-3242.82,-0Z" style="fill:#c1c1c1;"></path><path id="polygon34" d="M57.058,57.367l-0,129.953l779.779,0l0,-129.953l-779.779,0Zm-0,313.831l-0,133.111l779.779,-0l0,-133.111l-779.779,0Zm-0,316.989l-0,129.953l779.779,-0l0,-129.953l-779.779,-0Z" style="fill:#fff;"></path><path id="path40" d="M2863.64,1071.73c-138.541,-0 -227.154,92.029 -227.154,237.741c-0,145.713 88.613,237.742 227.154,237.742c138.542,-0 227.155,-92.029 227.155,-237.742c-0,-145.712 -88.613,-237.741 -227.155,-237.741Zm-2806.59,10.834l-0,453.814l323.241,0l0,-95.901l-192.793,-0l0,-88.844l177.811,0l0,-93.92l-177.811,-0l0,-79.247l188.46,-0l-0,-95.902l-318.908,0Zm385.277,0l146.669,453.814l153.542,0l146.669,-453.814l-140.416,0l-69.28,269.75l-3.776,15.354c-4.533,19.081 -7.232,33.093 -8.73,47.92l-2.476,0c-1.873,-18.533 -5.641,-35.793 -12.506,-63.274l-69.279,-269.75l-140.417,0Zm515.107,0l-0,453.814l323.303,0l0,-95.901l-192.855,-0l0,-88.844l177.872,0l0,-93.92l-177.872,-0l0,-79.247l188.46,-0l-0,-95.902l-318.908,0Zm416.543,0l-0,453.814l130.386,0l-0,-166.171l49.344,-0l72.374,166.171l139.797,0l-89.896,-185.983c49.925,-21.729 79.867,-66.471 79.867,-124.628c-0,-92.669 -59.861,-143.203 -170.32,-143.203l-211.552,0Zm400.879,0l146.05,299.097l-0,154.717l131.005,0l0,-154.717l146.05,-299.097l-136.639,0l-64.327,154.037c-4.368,10.865 -8.095,23.664 -9.968,37.085l-1.239,0c-1.873,-13.421 -5.599,-26.22 -9.968,-37.085l-64.326,-154.037l-136.638,0Zm457.59,0l0,104.817l122.957,0l-0,348.997l130.386,0l0,-348.997l122.957,0l0,-104.817l-376.3,0Zm892.274,0l105.497,453.814l142.893,0l47.424,-282.503c1.874,-12.143 2.473,-24.925 3.097,-39.624l2.539,0l0.805,16.778c0.495,8.022 1.17,15.56 2.292,22.846l47.425,282.503l142.892,0l105.498,-453.814l-131.686,0l-45.567,255.015c-2.495,15.338 -3.091,30.063 -3.715,44.762l-1.858,0c-0.497,-11.759 -1.407,-23.512 -3.343,-35.599l-48.477,-264.178l-131.068,0l-46.805,255.015c-3.119,15.338 -4.329,30.063 -4.953,44.762l-1.918,0c-0.624,-14.699 -1.22,-29.424 -3.714,-44.762l-45.567,-255.015l-131.691,0Zm677.996,0l0,453.814l120.419,0l-0,-277.365l1.299,0c2.809,7.35 6.806,16.099 11.33,25.446l14.24,28.851l124.814,223.068l134.783,0l-0,-453.814l-120.419,0l0,278.046l-1.3,0c-4.368,-11.929 -12.872,-30.433 -20.554,-46.186l-6.254,-12.63l-117.322,-219.23l-141.036,0Zm-2298.35,89.525l51.82,-0c42.436,-0 63.646,17.889 63.646,53.678c-0,37.706 -22.458,58.135 -63.646,58.135l-51.82,-0l-0,-111.813Zm1359.27,2.539c58.662,0 93.611,49.845 93.611,134.844c-0,84.999 -34.949,134.844 -93.611,134.844c-58.662,-0 -93.611,-49.845 -93.611,-134.844c0,-84.999 34.949,-134.844 93.611,-134.844Zm-1873.58,562.778c-68.834,0 -112.865,42.947 -112.865,110.946c-0,68 44.031,110.946 112.865,110.946c68.834,0 112.866,-42.946 112.866,-110.946c-0,-67.999 -44.032,-110.946 -112.866,-110.946Zm578.628,0c-68.834,0 -113.484,43.865 -113.484,111.566c-0,68.894 37.233,110.326 98.626,110.326c33.176,0 57.373,-11.93 69.155,-34.299l1.547,29.223l45.567,-0l0,-121.967l-107.912,0l-0,43.215l48.353,-0l-0,4.767c-0,17.298 -19.219,32.256 -41.233,32.256c-30.697,0 -47.425,-22.409 -47.425,-64.76c0,-41.157 17.349,-64.697 46.805,-64.697c20.155,-0 33.798,11.019 37.829,32.194l64.512,-12.197c-8.682,-41.754 -46.219,-65.627 -102.341,-65.627l0.001,0Zm818.475,0c-56.122,0 -90.887,24.436 -90.887,64.698c0,35.193 21.415,57.608 63.893,66.556l27.922,5.943c20.464,4.176 26.623,8.642 26.623,19.379c-0,11.034 -12.042,17.582 -31.576,17.582c-23.874,0 -44.675,-10.146 -59.868,-29.531l-43.71,38.509c21.084,24.754 58.313,38.756 101.102,38.756c59.222,0 95.468,-26.811 95.468,-70.95c0,-35.491 -18.32,-55.194 -60.178,-64.141l-31.575,-6.872c-22.635,-4.772 -29.78,-9.537 -29.78,-19.379c-0,-9.245 10.559,-14.92 27.613,-14.92c21.084,-0 43.994,9.836 59.188,25.94l36.899,-39.685c-22.015,-20.877 -54.237,-31.885 -91.134,-31.885Zm-1696.14,5.077l0,211.739l64.822,-0l-0,-81.724l88.038,0l0,-45.319l-88.038,-0l-0,-38.448l93.61,0l0,-46.248l-158.432,0Zm452.018,0l0,211.739l64.822,-0l-0,-77.514l24.455,0l35.971,77.514l69.465,-0l-44.638,-86.801c24.805,-10.14 39.685,-30.995 39.685,-58.135c0,-43.245 -29.752,-66.803 -84.633,-66.803l-105.127,0Zm571.199,0l-0,137.754c-0,48.912 37.234,79.061 98.006,79.061c60.773,0 97.945,-30.149 97.945,-79.061l-0,-137.754l-64.822,0l0,135.401c0,19.684 -12.658,31.885 -33.123,31.885c-20.464,0 -33.184,-12.201 -33.184,-31.885l-0,-135.401l-64.822,0Zm245.357,0l-0,211.739l59.868,-0l0,-129.458l0.618,0c2.79,6.86 8.042,16.437 12.692,25.384l62.036,104.074l66.989,-0l-0,-211.739l-59.869,0l-0,129.706l-0.618,-0c-2.79,-7.158 -8.97,-19.375 -13.311,-27.427l-58.321,-102.279l-70.084,0Zm612.184,0l-78.133,211.739l64.76,-0l13.992,-43.215l75.656,0l13.93,43.215l64.822,-0l-78.133,-211.739l-76.894,0Zm192.05,0l0,211.739l64.76,-0l0,-81.724l88.101,0l-0,-45.319l-88.101,-0l0,-38.448l93.673,0l-0,-46.248l-158.433,0Zm198.552,0l-0,211.739l160.599,-0l-0,-44.701l-95.778,0l0,-41.48l88.348,-0l0,-43.834l-88.348,-0l0,-37.024l93.611,0l0,-44.7l-158.432,0Zm189.883,0l0,48.911l61.045,-0l0,162.828l64.822,-0l-0,-162.828l61.107,-0l0,-48.911l-186.974,0Zm213.101,0l72.561,139.55l-0,72.189l65.131,-0l-0,-72.189l72.56,-139.55l-67.917,0l-31.946,71.88c-2.172,5.07 -4.024,11.01 -4.953,17.273l-0.618,0c-0.929,-6.263 -2.78,-12.203 -4.953,-17.273l-31.947,-71.88l-67.918,0Zm-2157.5,41.729l25.693,-0c21.085,-0 31.638,8.373 31.638,25.074c-0,17.597 -11.173,27.118 -31.638,27.118l-25.693,-0l-0,-52.192Zm-217.806,1.239c29.146,0 46.496,23.237 46.496,62.903c0,39.666 -17.35,62.902 -46.496,62.902c-29.146,0 -46.496,-23.236 -46.496,-62.902c0,-39.666 17.35,-62.903 46.496,-62.903Zm1619.86,0.254l0.619,-0c1.772,11.504 4.005,19.813 6.5,27.86l17.645,55.659l-48.972,-0l17.645,-55.659c2.495,-8.047 4.791,-16.356 6.563,-27.86Z" style="fill:#fff;fill-rule:nonzero;"></path></svg>