<svg xmlns="http://www.w3.org/2000/svg" xmlns:xlink="http://www.w3.org/1999/xlink" xmlns:serif="http://www.serif.com/" width="100%" height="100%" viewBox="0 0 1275 1198" xml:space="preserve" style="fill-rule:evenodd;clip-rule:evenodd;stroke-linejoin:round;stroke-miterlimit:2;">    <g id="_x31_">        <path d="M926.154,19.146C908.632,6.692 887.668,0 866.171,0L408.518,0C387.021,0 366.057,6.692 348.536,19.146L43.55,235.933C16.228,255.353 0,286.799 0,320.319L0,877.681C0,911.201 16.228,942.647 43.55,962.067L348.536,1178.85C366.058,1191.31 387.021,1198 408.518,1198L866.172,1198C887.669,1198 908.633,1191.31 926.154,1178.85L1231.14,962.067C1258.46,942.647 1274.69,911.201 1274.69,877.681L1274.69,320.319C1274.69,286.799 1258.46,255.353 1231.14,235.933L926.154,19.146ZM680.24,969.636C635.835,969.636 585.553,967.827 534.541,962.4C454.712,953.908 383.405,906.828 328.329,826.25C288.923,768.596 286.593,713.527 285.209,709.111L352.046,709.111C359.83,728.422 358.956,760.104 381.054,792.146C425.899,857.169 479.773,893.451 541.181,899.983C684.187,915.195 826.105,900.146 827.521,899.991L868.528,963.244C868.528,963.244 766.359,969.636 680.24,969.636ZM989.199,599.485L988.724,630.287L957.919,630.386C955.969,630.392 760.726,631.015 567.511,631.326C495.21,631.441 432.197,631.5 379.127,631.5C348.887,631.5 321.877,631.481 298.213,631.444C259.457,631.381 202.444,631.268 181.811,631.105C178.989,631.083 176.33,631.059 173.834,631.035L173.834,568.27C273.367,569.208 658.468,568.537 924.496,567.72C919.511,521.12 901.754,431.374 838.613,367.495C788.723,317.022 718.935,291.431 631.186,291.431C516.842,291.431 434.012,326.795 384.997,396.541C348.014,449.165 345.607,507.021 345.572,507.562L345.546,507.964L280.786,506.983C280.786,506.983 285.772,430.324 331.642,363.331C358.673,323.851 394.563,292.433 438.316,269.949C491.628,242.552 556.519,228.661 631.187,228.661C736.567,228.661 821.512,260.664 883.663,323.782C990.531,432.315 989.304,592.71 989.199,599.485Z" style="fill:url(#_Linear1);fill-rule:nonzero;"></path>    </g>    <defs>        <linearGradient id="_Linear1" x1="0" y1="0" x2="1" y2="0" gradientUnits="userSpaceOnUse" gradientTransform="matrix(1274.69,0,0,1274.69,0,599)"><stop offset="0" style="stop-color:white;stop-opacity:1"></stop><stop offset="1" style="stop-color:white;stop-opacity:0.3"></stop></linearGradient>    </defs></svg>