<svg xmlns="http://www.w3.org/2000/svg" xmlns:xlink="http://www.w3.org/1999/xlink" xmlns:serif="http://www.serif.com/" width="100%" height="100%" viewBox="0 0 471 201" xml:space="preserve" style="fill-rule:evenodd;clip-rule:evenodd;stroke-linejoin:round;stroke-miterlimit:2;"><g><clipPath id="_clip1"><rect x="0" y="0" width="470.833" height="200"></rect></clipPath><g clip-path="url(#_clip1)"><path d="M30.117,8.517c-12.742,-0 -19.934,7.208 -19.934,19.979c0,12.771 6.709,19.979 18.534,19.979c4.104,0 6.275,-0.387 9.125,-1.017l-0,-13.304l-11.488,0l0,-8.466l20.85,-0l0,27.579c-5.166,1.641 -10.329,3.579 -19.546,3.579c-16.221,-0.05 -27.658,-11.804 -27.658,-28.496c0,-16.642 12.258,-28.35 29.733,-28.35c5.5,0 10.909,1.404 15.3,3.483l0,9c-4.875,-2.129 -8.833,-3.966 -14.916,-3.966Zm24.812,26.462c0,-13.304 8.638,-21.671 20.563,-21.671c4.15,0 8.879,1.45 11.825,5.125l0.529,0l0.242,-4.354l8.591,0l0,41.946l-8.596,0l-0.291,-4.5l-0.479,0c-2.946,3.725 -7.725,5.275 -12.646,5.275c-11.054,0 -19.742,-8.417 -19.742,-21.821l0.004,0Zm21.238,13.934c6.804,-0 11.05,-5.321 11.05,-13.934c-0,-8.416 -4.246,-13.787 -11.05,-13.787c-6.854,-0 -11.292,5.321 -11.292,13.791c0,8.609 4.388,13.93 11.292,13.93Zm42.083,-34.83l11.875,0l0,7.5l-11.875,0l0,21.575c0,3.484 2.075,5.805 5.55,5.805c2.417,-0 5.263,-0.68 6.708,-1.163l0,7.258c-1.541,0.775 -4.729,1.692 -9.166,1.692c-11.2,0 -12.842,-7.35 -12.842,-13.542l-0,-21.625l-5.646,0l0,-7.5c5.308,0 7.479,-1.55 7.479,-9.966l7.917,-0l-0,9.966Zm16.508,20.996c0,-12.775 8.88,-21.771 20.221,-21.771c8.738,0 18.534,6.434 18.534,19.834l-0,4.162l-28.959,0c0.534,6.821 5.309,11.467 12.117,11.467c4.246,-0 10.425,-2.325 15.058,-6.342l0,8.225c-3.333,3.388 -9.366,6.192 -16.075,6.192c-12.304,-0.046 -20.896,-8.754 -20.896,-21.767Zm29.488,-4.596c-0.142,-4.645 -2.7,-9.679 -9.267,-9.679c-5.792,0 -9.892,5.129 -10.329,9.679l19.596,0Zm30.504,-9.825c-3.471,0 -5.692,1.55 -5.692,3.971c0,2.563 1.688,3.771 8.98,6.579c9.166,3.484 12.208,6.58 12.208,12.53c-0,7.208 -6.083,13.062 -15.688,13.062c-5.887,0 -11.437,-2.083 -14.766,-3.625l-0,-8.425c4.633,2.417 9.508,4.642 14.287,4.642c4.392,-0 7.042,-1.834 7.042,-4.5c-0,-3.384 -3.325,-4.4 -10.133,-6.963c-6.855,-2.566 -10.959,-5.904 -10.959,-12.096c0,-6.87 5.167,-12.529 14.917,-12.529c5.696,0 9.8,1.692 12.6,3.192l-0,8.271c-5.696,-3.334 -10.138,-4.113 -12.792,-4.113l-0.004,0.004Zm-192.575,52.204l17.667,0c11.725,0 20.075,6.675 20.075,17.321c-0,10.742 -8.35,18.042 -20.079,18.042l-7.771,-0l-0,19.887l-9.892,0l0,-55.25Zm16.604,27.192c7.092,0 11.1,-3.775 11.1,-9.775c0,-5.904 -4.008,-9.192 -11.1,-9.192l-6.708,0l-0,18.967l6.708,0Zm27.171,-29.996l9.75,0l0,13.254l-0.483,7.355l0.387,-0c2.7,-3.484 7.434,-5.275 11.967,-5.275c10.429,-0 16.458,6.725 16.458,16.354l0,26.417l-9.75,-0l0,-23.709c0,-7.45 -2.846,-11.079 -8.637,-11.079c-6.084,0 -9.942,5.517 -9.942,14.225l0,20.513l-9.75,-0l0,-58.055Zm58.3,5.03c0,3.775 -2.558,5.179 -5.404,5.179c-2.992,-0 -5.404,-1.404 -5.404,-5.179c-0,-3.771 2.412,-5.125 5.404,-5.125c2.846,0.045 5.404,1.354 5.404,5.125Zm-0.529,11.079l-0,41.946l-9.75,-0l-0,-41.946l9.75,-0Zm20.612,41.946l-9.75,-0l0,-58.055l9.75,0l0,58.055Zm7.334,-21.046c-0,-13.305 8.641,-21.675 20.562,-21.675c4.154,-0 8.884,1.45 11.825,5.125l0.534,-0l0.241,-4.35l8.592,-0l-0,41.941l-8.592,0l-0.291,-4.5l-0.484,0c-2.941,3.73 -7.721,5.275 -12.646,5.275c-11,0 -19.737,-8.416 -19.737,-21.816l-0.004,-0Zm21.237,13.933c6.809,0 11.054,-5.325 11.054,-13.933c0,-8.417 -4.25,-13.792 -11.054,-13.792c-6.85,0 -11.291,5.325 -11.291,13.792c-0,8.608 4.441,13.933 11.291,13.933Zm29.879,-34.833l8.592,-0l0.529,4.5l0.529,-0c2.709,-3.488 7.434,-5.275 11.971,-5.275c10.425,-0 16.459,6.725 16.459,16.35l-0,26.416l-9.75,0l-0,-23.708c-0,-7.45 -2.846,-11.075 -8.638,-11.075c-6.083,0 -9.942,5.513 -9.942,14.221l0,20.512l-9.75,0l0,-41.941Zm59.705,-0l11.875,-0l-0,7.5l-11.875,-0l-0,21.575c-0,3.483 2.075,5.804 5.55,5.804c2.412,-0 5.258,-0.679 6.708,-1.163l-0,7.259c-1.542,0.775 -4.729,1.691 -9.167,1.691c-11.2,0 -12.841,-7.354 -12.841,-13.541l-0,-21.679l-5.646,-0l-0,-7.5c5.308,-0 7.479,-1.542 7.479,-9.963l7.867,0l-0,10.013l0.05,-0.001l-0,0.005Zm18.537,-16.109l9.75,0l0,13.255l-0.483,7.354l0.387,-0c2.7,-3.484 7.429,-5.275 11.967,-5.275c10.425,-0 16.458,6.725 16.458,16.354l0,26.417l-9.75,-0l0,-23.709c0,-7.45 -2.846,-11.079 -8.637,-11.079c-6.084,0 -9.942,5.517 -9.942,14.225l0,20.513l-9.75,-0l0,-58.055Zm46.429,16.109l8.638,-0l0.533,4.741l0.675,0c2.221,-3.387 6.563,-5.516 11.729,-5.516c0.142,-0 0.771,-0 1.784,0.146l-0,9.579c-0.762,-0.169 -1.538,-0.266 -2.317,-0.292c-7.433,0 -11.292,5.125 -11.292,11.517l0,21.766l-9.75,0l0,-41.941Zm27.609,20.996c-0,-12.775 8.733,-21.771 21.137,-21.771c12.358,-0 21,9 21,21.771c0,12.77 -8.642,21.77 -21,21.77c-12.404,-0.05 -21.137,-9 -21.137,-21.77Zm21.187,13.833c6.804,-0 11.054,-5.321 11.054,-13.929c0,-8.417 -4.25,-13.792 -11.054,-13.792c-6.854,0 -11.196,5.325 -11.196,13.792c0,8.608 4.292,13.933 11.196,13.933l0,-0.004Zm28.375,-34.829l8.5,-0l0.288,4.4l0.483,-0c3.183,-3.625 8.25,-5.175 11.825,-5.175c11.971,-0 20.608,8.371 20.608,21.675c0,13.4 -8.733,21.816 -19.691,21.816c-4.921,0 -9.75,-1.545 -12.646,-5.27l-0.242,-0l0.625,6.045l0,17.03l-9.75,-0l0,-60.521Zm20.708,34.833c6.809,0 11.055,-5.325 11.055,-13.933c-0,-8.417 -4.25,-13.792 -11.055,-13.792c-6.804,0 -11.05,5.275 -11.05,13.692c0,8.612 4.246,14.033 11.05,14.033Zm23.271,-34.833l10.571,-0l8.35,23.704c1.158,3 1.833,5.95 2.171,8.804l0.287,0c0.388,-2.708 1.305,-5.804 2.317,-8.804l8.013,-23.708l10.525,-0l-17.859,47.508c-3.187,8.375 -8.641,13.017 -16.7,13.017c-2.558,-0 -4.491,-0.292 -5.791,-0.63l-0,-7.741c1.158,0.241 2.795,0.483 4.533,0.483c4.733,0 7.483,-3.192 9.029,-7.45l1.254,-3.387l-16.7,-41.8l0,0.004Zm-426.429,57.808l17.667,0c11.725,0 20.075,6.675 20.075,17.321c-0,10.742 -8.35,18.042 -20.08,18.042l-7.77,-0l-0,19.887l-9.892,0l-0,-55.25Zm16.604,27.192c7.092,-0 11.1,-3.775 11.1,-9.775c0,-5.9 -4.008,-9.192 -11.1,-9.192l-6.708,0l-0,18.967l6.708,-0Zm24.658,7.016c0,-13.304 8.642,-21.675 20.563,-21.675c4.15,0 8.879,1.455 11.825,5.13l0.529,-0l0.242,-4.355l8.591,0l0.001,41.946l-8.592,0l-0.292,-4.5l-0.479,0c-2.946,3.725 -7.721,5.275 -12.646,5.275c-11.004,0 -19.742,-8.416 -19.742,-21.821Zm21.238,13.934c6.804,-0 11.054,-5.321 11.054,-13.934c0,-8.416 -4.25,-13.791 -11.054,-13.791c-6.854,-0 -11.292,5.325 -11.292,13.791c0.046,8.613 4.438,13.934 11.292,13.934Zm29.929,-34.834l8.592,0l0.529,4.742l0.675,0c2.221,-3.387 6.562,-5.517 11.729,-5.517c0.146,0 0.771,0 1.788,0.146l-0,9.584c-0.762,-0.169 -1.537,-0.267 -2.317,-0.292c-7.433,-0 -11.296,5.125 -11.296,11.512l0,21.771l-9.7,0l0,-41.946Zm43.242,0l11.925,0l-0,7.5l-11.875,0l-0,21.575c-0,3.484 2.075,5.805 5.55,5.805c2.416,-0 5.262,-0.675 6.708,-1.159l0,7.254c-1.542,0.775 -4.729,1.696 -9.167,1.696c-11.2,0 -12.841,-7.354 -12.841,-13.546l-0,-21.675l-5.646,0l-0,-7.5c5.308,0 7.479,-1.545 7.479,-9.966l7.867,-0l-0,10.016Zm18.579,0l8.592,0l0.533,4.5l0.529,0c2.704,-3.483 7.434,-5.275 11.971,-5.275c10.425,0 16.458,6.725 16.458,16.355l0,26.416l-9.75,0l0,-23.708c0,-7.45 -2.846,-11.079 -8.637,-11.079c-6.084,-0 -9.946,5.516 -9.946,14.225l0,20.512l-9.75,0l0,-41.946Zm45.517,20.996c-0,-12.771 8.879,-21.771 20.225,-21.771c8.733,0 18.533,6.434 18.533,19.834l0,4.166l-28.958,0c0.529,6.817 5.308,11.463 12.112,11.463c4.25,-0 10.425,-2.321 15.059,-6.333l-0,8.22c-3.33,3.388 -9.363,6.192 -16.071,6.192c-12.359,-0.046 -20.9,-8.754 -20.9,-21.771Zm29.491,-4.596c-0.145,-4.641 -2.704,-9.675 -9.266,-9.675c-5.792,0 -9.896,5.125 -10.334,9.675l19.6,0Zm15.834,-16.4l8.637,0l0.534,4.742l0.675,0c2.22,-3.387 6.562,-5.517 11.729,-5.517c0.141,0 0.771,0 1.783,0.146l0,9.584c-0.762,-0.169 -1.537,-0.267 -2.317,-0.292c-7.433,-0 -11.291,5.125 -11.291,11.512l-0,21.771l-9.75,0l-0,-41.946Zm42.716,6.58c-3.475,-0 -5.695,1.55 -5.695,3.966c-0,2.567 1.687,3.775 8.979,6.584c9.166,3.479 12.208,6.575 12.208,12.529c0,7.208 -6.083,13.062 -15.683,13.062c-5.892,0 -11.442,-2.083 -14.771,-3.629l-0,-8.417c4.633,2.417 9.508,4.642 14.287,4.642c4.392,0 7.042,-1.837 7.042,-4.5c0,-3.387 -3.325,-4.4 -10.133,-6.967c-6.854,-2.562 -10.959,-5.9 -10.959,-12.095c0,-6.867 5.167,-12.53 14.917,-12.53c5.696,0 9.8,1.696 12.6,3.196l0,8.271c-5.696,-3.337 -10.187,-4.112 -12.792,-4.112Z" style="fill:#fff;fill-rule:nonzero;"></path></g></g></svg>