<svg xmlns="http://www.w3.org/2000/svg" xmlns:xlink="http://www.w3.org/1999/xlink" xmlns:serif="http://www.serif.com/" width="100%" height="100%" viewBox="0 0 2813 396" xml:space="preserve" style="fill-rule:evenodd;clip-rule:evenodd;stroke-linejoin:round;stroke-miterlimit:2;"><g><path d="M77.5,387.5c-23.333,-9.167 -49.583,-32.5 -60.833,-54.167c-12.917,-25.416 -16.667,-56.666 -16.667,-135.416c0,-108.334 7.083,-135.834 44.167,-168.334c22.916,-20.416 50.833,-29.583 87.5,-29.583c65.416,0 110,35.417 117.916,93.75c3.75,28.333 0.417,32.083 -29.166,30.417l-22.5,-1.25l-2.917,-17.5c-1.667,-9.584 -5.833,-22.084 -9.583,-27.917c-8.334,-12.5 -34.167,-23.333 -55.417,-23.333c-20.833,-0 -50.833,15.833 -60,31.666c-21.25,36.667 -20.833,187.5 0,224.584c11.25,19.166 39.583,32.083 66.667,30c40.833,-2.917 59.166,-26.667 59.166,-76.667l0,-30.417l-30.833,0c-24.167,0 -31.25,-1.25 -33.333,-6.666c-4.167,-11.25 -2.917,-37.084 2.5,-42.5c3.333,-3.334 22.5,-5 58.333,-5c50.417,-0 53.333,0.416 57.917,9.166c7.083,13.334 2.083,107.917 -7.084,134.584c-9.583,27.083 -39.166,56.666 -66.25,65.833c-27.5,9.583 -73.333,8.75 -99.583,-1.25Z" style="fill:#fefffe;fill-rule:nonzero;"></path><path d="M383.333,392.083c-31.666,-9.583 -60.833,-36.25 -75,-68.333c-20.416,-45.833 -20,-206.25 0,-252.083c18.75,-42.5 55.417,-67.5 102.5,-70.834c60.834,-3.75 105.834,23.334 127.084,76.667c9.166,23.333 9.583,29.583 9.583,120.417c0,90.833 -0.417,97.083 -9.583,120.833c-12.5,31.667 -41.25,60.417 -69.167,70.417c-20.833,6.666 -66.667,8.333 -85.417,2.916Zm72.5,-60c29.584,-16.666 33.75,-30.416 35,-123.333c1.667,-86.25 -1.25,-109.167 -16.666,-130c-18.334,-24.583 -65.417,-31.25 -90.417,-13.333c-5.833,4.583 -15.417,17.083 -20.833,27.916c-9.167,18.334 -10.417,27.084 -12.084,85.834c-2.083,77.5 2.917,116.25 18.75,137.083c20,25.833 56.667,32.917 86.25,15.833Z" style="fill:#fefffe;fill-rule:nonzero;"></path><path d="M1110.42,388.333c-26.667,-8.75 -65,-45.416 -72.084,-69.583c-13.333,-45.417 -17.5,-137.917 -8.75,-200.833c7.5,-57.5 34.584,-96.25 78.75,-111.667c22.917,-7.917 77.084,-7.917 100.417,-0c40,14.167 65.417,46.667 69.167,89.167c2.083,23.75 2.083,25 -7.917,27.5c-5.833,1.666 -17.5,2.083 -26.667,1.25c-14.583,-1.25 -16.25,-2.5 -19.166,-17.084c-7.917,-37.916 -26.667,-52.916 -67.084,-52.916c-24.583,-0 -43.333,9.583 -57.916,29.583c-11.667,15.833 -17.084,64.167 -14.584,137.5c1.667,58.75 2.917,67.083 11.667,83.333c13.333,23.75 32.917,35 62.083,35c43.75,-0.416 62.917,-22.5 65.834,-75.833l1.666,-30l-32.5,-1.25l-32.916,-1.25l-0,-50l116.666,0l1.25,55.833c1.25,73.75 -4.166,93.334 -34.166,123.334c-16.667,16.666 -27.917,23.75 -44.167,28.75c-28.333,8.333 -62.917,7.916 -89.583,-0.834Z" style="fill:#fefffe;fill-rule:nonzero;"></path><path d="M1323.33,385c-7.5,-7.5 -8.75,-27.5 -2.5,-39.583c4.167,-7.084 9.167,-7.917 45.834,-7.917l41.666,0l-0.833,-140.417l-1.25,-140.833l-79.167,-4.167l0,-45.833l107.5,-1.25l107.5,-0.833l-1.25,23.75l-1.25,24.166l-38.333,1.25l-38.75,1.25l0,282.917l38.75,-0c24.583,-0 40.417,1.667 43.75,5c2.917,2.917 5,12.5 5,22.083c0,9.584 -2.083,19.167 -5,22.084c-3.75,3.75 -33.75,5 -110,5c-90,-0 -106.25,-0.834 -111.667,-6.667Z" style="fill:#fefffe;fill-rule:nonzero;"></path><path d="M1696.67,386.667c-5,-6.667 -105,-361.667 -105,-373.75c-0,-7.917 2.5,-8.75 24.583,-8.75c14.583,-0 25.833,2.083 28.333,5.416c2.5,2.5 20.417,68.75 40.834,146.667c20,77.917 37.916,143.333 39.583,145.417c1.667,1.666 4.167,-0 5.417,-4.167c1.25,-4.583 18.333,-70.833 38.333,-147.5c20,-76.667 37.083,-140.833 38.333,-142.5c3.334,-5.833 51.25,-3.75 53.75,2.5c2.917,7.917 -101.25,374.167 -107.5,378.333c-8.75,5.417 -51.666,3.75 -56.666,-1.666Z" style="fill:#fefffe;fill-rule:nonzero;"></path><path d="M1917.08,385.833c-3.333,-3.75 -4.166,-57.916 -3.75,-192.5l1.25,-187.083l208.334,-0l-0,50l-154.167,4.167l0,104.166l150,4.167l1.25,21.25c0.833,14.167 -0.833,22.917 -4.583,25.833c-3.334,2.917 -31.25,5 -76.25,5.834l-70.417,1.25l-1.25,55.416l-1.25,55l75,0c83.75,0 87.917,1.25 87.917,27.5c-0,31.667 3.333,30.834 -107.917,30.834c-78.75,-0 -100.417,-1.25 -104.167,-5.834Z" style="fill:#fefffe;fill-rule:nonzero;"></path><path d="M2584.17,386.667c-2.917,-2.917 -5,-12.5 -5,-22.084c-0,-9.583 2.083,-19.166 5,-22.083c3.333,-3.333 20,-5 47.916,-5c30.834,0 43.75,-1.667 45,-5.417c1.25,-2.916 1.667,-62.083 1.25,-131.25l-1.25,-126.25l-41.666,37.5c-22.917,20.834 -43.334,37.084 -45.834,36.667c-2.083,-0.833 -4.583,-13.333 -5.416,-27.917l-1.25,-26.666l94.166,-90l25,1.25l25,0.833l4.167,329.167l31.25,1.25c50,1.666 50,1.666 50,27.5c0,16.666 -1.667,22.916 -6.667,25c-3.75,1.25 -53.75,2.5 -111.666,2.5c-76.25,-0 -106.25,-1.25 -110,-5Z" style="fill:#fefffe;fill-rule:nonzero;"></path><path d="M690,372.917c-5.833,-6.25 -6.667,-25 -6.667,-170.834c0,-160.416 0,-164.583 8.334,-168.75c4.583,-2.5 10.833,-3.333 13.75,-1.666c2.5,1.666 50.416,39.583 106.25,84.166c63.75,51.25 100.833,83.75 100.833,88.334c0,4.583 -37.5,37.5 -102.083,89.166c-56.25,45.417 -105,82.917 -107.917,84.167c-2.917,1.25 -8.75,-0.833 -12.5,-4.583Z" style="fill:#fefffe;fill-rule:nonzero;"></path><path d="M2256.25,369.583c-1.25,-2.5 -1.667,-80 -1.25,-171.666c1.25,-162.917 1.25,-166.667 9.583,-167.917c12.084,-1.667 212.084,159.167 213.75,171.667c0.834,7.916 -16.25,23.333 -101.25,91.25c-95.833,77.083 -115.833,90 -120.833,76.666Z" style="fill:#fefffe;fill-rule:nonzero;"></path></g></svg>