<svg xmlns="http://www.w3.org/2000/svg" xmlns:xlink="http://www.w3.org/1999/xlink" xmlns:serif="http://www.serif.com/" width="100%" height="100%" viewBox="0 0 2821 436" xml:space="preserve" style="fill-rule:evenodd;clip-rule:evenodd;stroke-linejoin:round;stroke-miterlimit:2;"><g id="g10"><g id="g12"><g id="g14"><g id="g16"><clipPath id="_clip1"><rect x="-0.001" y="-0.002" width="2820.31" height="435.706"></rect></clipPath><g clip-path="url(#_clip1)"><path id="path22" d="M82.009,172.541c-0.291,1.119 -2.41,3.686 -3.155,4.048c-0,1.754 -1.068,3.418 -2.696,4.501c0,2.752 -4.665,3.969 -5.251,6.903c-0.535,2.675 -1.682,5.208 -3.752,6.596c0,2.477 -4.046,3.424 -4.046,5.851c-1.21,0.614 -2.321,4.5 -3.147,4.5c-0,1.679 -1.837,2.848 -2.255,4.948c-0.958,0.488 -2.25,2.71 -2.25,4.055c-2.128,1.052 -1.453,3.869 -3.601,4.942c0,1.517 -1.8,3.389 -1.8,4.956c-0.802,-0 -2.7,8.249 -2.7,9.45c-1.752,-0 -1.097,15.07 -0.454,17.507c1.355,5.157 1.678,10.716 4.954,13.991c0.857,0.855 1.384,2.356 1.8,3.603c0.656,0.32 3.036,2.67 3.6,3.371c1.304,1.628 9.899,3.713 9.899,4.277c4.336,0.621 6.684,3.149 10.35,3.149c-0,-0.02 12.256,3.846 13.499,4.049c-0,1.781 5.853,1.184 5.853,2.7c3.858,0.392 7.713,0.773 11.571,1.16c3.877,0.392 7.824,2.779 11.828,3.79c0,1.495 8.344,2.136 10.423,1.886c4.976,-0.594 8.913,0.814 13.09,0.814c6.734,-0 12.927,1.8 19.692,1.8c0,2.285 15.806,-0.451 17.096,-0.451c-0,-1.486 16.615,-3.225 18.774,-3.565c3.323,-0.525 6.647,-1.05 9.967,-1.593c3.237,-0.529 4.407,-2.807 7.856,-3.841c4.423,-1.327 6.282,-3.066 10.2,-4.049c0,0.057 8.308,-4.052 9.003,-4.052c1.219,-1.838 3.467,-2.371 4.726,-4.049c1.221,-1.622 3.984,-3.906 5.845,-5.396c2.112,-1.69 4.279,-7.466 4.279,-9.904c1.839,0 1.314,-9.22 -0,-10.799c-2.48,-0.824 -3.324,-1.855 -6,-1.652c-3.955,0.305 -7.267,0.952 -11.552,1.201c0,1.291 -9.448,1.871 -9.448,3.153c-2.74,-0 -5.493,0.448 -7.648,0.448c0,1.092 -4.925,1.352 -6.303,1.352c0,1.421 -13.047,1.059 -13.047,2.249c-0.944,-0 -5.405,0.701 -5.405,1.352c-1.626,0.092 -9.447,0.133 -9.447,1.347c-3.161,-0.207 -11.503,1.349 -12.15,1.349c0,0.957 -29.25,5.783 -31.577,6.399c-2.948,0.783 -4.106,-0.438 -7.066,-0.261c-2.558,0.163 -3.302,-1.184 -5.009,-1.184c-0.721,-1.465 -1.076,-0.335 -1.797,-1.804c-1.421,-0 -1.812,-1.359 -2.925,-2.25c-1.843,-1.469 -1.864,-3.439 -3.377,-4.948c-0.918,-0.922 -2.236,-6.751 -4.053,-6.751c-0.676,-2.038 -4.651,-12.598 -5.845,-12.598c-0,-2.217 -0.688,-2.824 -0.027,-5.173c0.59,-2.1 0.928,-4.622 0.928,-6.303c-0,-0.759 0.857,-4.73 1.349,-4.73c0.159,-3.091 0.897,-7.018 0.897,-9.449c1.609,0 1.626,-9.45 4.055,-9.45c-0,-1.322 0.531,-2.96 1.798,-3.597c0.708,-2.801 2.153,-4.073 3.825,-6.303c1.701,-2.266 6.299,-3.198 8.923,-4.27c1.211,-0.499 8.399,-0.641 8.399,-1.129c1.797,-0 13.053,-1.292 13.053,-2.696c2.808,-0 6.236,-0.62 9.597,-0.753c2.824,-0.11 4.094,-1.048 6.152,-1.048c0,-2.695 12.844,-3.265 15.748,-3.601c-0,-0.529 3.698,-1.349 4.502,-1.349c-0,-1.088 6.111,-1.104 7.471,-1.174c5.098,-0.24 8.183,-2.427 12.778,-2.427c4.464,0 7.538,-1.749 12.449,-1.998c3.901,-0.203 7.805,-0.402 11.701,-0.6c2.49,-0.128 3.876,-1.003 6.451,-1.003c0,-0.148 13.432,-1.794 14.85,-1.794c0,0.01 6.14,-1.445 7.221,-1.823c3.251,-1.117 7.403,-1.778 10.329,-1.778c-0,-0.041 3.397,-1.485 4.083,-1.78c2.812,-1.201 4.212,-0.499 6.435,-0.285c2.509,0.24 5.172,-0.244 7.589,-0.865c2.059,-0.529 4.624,-1.615 6.59,-0.915c1.239,0.441 8.15,-0.222 8.15,0.689c2.47,0 3.08,0.902 5.401,0.902c0,0.244 9.048,2.254 9.898,2.254c0,0.986 3.272,0.807 4.055,0.895c1.465,1.017 2.928,2.026 4.386,3.041c1.832,1.264 3.203,3.449 3.711,5.66c0.731,3.14 2.016,4.763 2.704,7.504c1.898,0.946 2.045,3.961 4.045,4.944c1.353,4.018 3.158,6.297 3.158,10.355c1.226,0 1.505,9.45 2.697,9.45c0,1.372 2.517,8.997 3.148,8.997c0.266,3.261 0.832,5.894 1.672,9.005c1.06,3.927 -0.761,8.244 -1.672,12.058c-0.391,1.642 -1.563,4.674 -3.148,5.487c0,1.17 -1.003,3.256 -1.8,4.049c-0.877,0.881 -2.702,3.286 -2.702,4.502c-0.46,0 -2.25,3.754 -2.25,4.497c-1.187,-0 -1.388,5.853 -2.696,5.853c-0.297,1.166 -1.729,4.95 -2.704,4.95c0,3.147 -2.698,6.764 -2.698,10.797c-0.056,0 -4.009,8.124 -3.9,9.298c0.491,5.381 -1.723,7.334 -2.405,12.756c-0.346,2.773 -1.348,4.496 -1.348,6.75c-0.538,0 -1.347,2.849 -1.347,3.601c-1.583,0 0.23,8.098 -1.349,8.098c-0.596,2.92 -1.422,3.764 -1.801,7.196c-0.191,1.719 -1.89,11.251 -2.702,11.251c0,0.871 -0.765,4.95 -1.35,4.95c-0,4.089 0.366,6.724 0.111,10.803c-0.173,2.771 -1.009,4.206 -1.009,7.491c0,1.03 -0.504,5.113 -1.355,5.113c0,2.187 -0.809,4.069 -0.12,6.897c0.816,3.377 1.026,5.951 1.026,9.297c1.67,0 0.895,14.445 0.895,16.429c-0,5.453 -1.766,9.613 -2.134,15.517c-0.354,5.677 -4.189,8.616 -5.06,13.058c-2.427,1.204 -25.643,13.895 -30.88,12.39c-1.22,-0.35 -0.531,-1.139 -1.973,-1.139c-0,-0.977 -2.515,-1.37 -3.3,-1.655c-1.549,-0.559 -4.159,-1.993 -4.797,-3.299c-0.794,-0 -9.907,-3.5 -9.907,-3.15c-0.939,0 -3.599,-0.895 -3.599,-1.8c-0.878,-0 -2.418,-0.625 -3.153,-1.347c-2.252,-2.238 -7.239,-3.312 -6.869,-7.548c0.212,-2.407 0.955,-3.902 -0.325,-6.405c-0.92,-0.808 -1.215,-4.948 -1.801,-4.948c0.273,-7.157 1.351,-12.614 1.351,-19.079c0,-6.786 -0.452,-13.941 -0.452,-20.071c-0.241,0 2.381,-14.144 1.801,-16.205c-0.755,-2.654 -0.83,-7.948 -2.671,-9.663c-2.094,-1.953 -3.41,-1.429 -6.33,-1.134c0,0.513 -7.037,3.29 -8.551,3.601c0,0.936 -5.106,1.662 -6.075,1.795c-2.632,0.362 -4.372,1.8 -6.52,1.8c-0,1.862 -11.253,0.651 -11.253,3.16c-4.224,0 -7.45,2.004 -11.401,2.394c-4.822,0.478 -6.553,2.544 -11.398,2.544c-3.973,-0 -7.715,1.424 -12.315,1.216c-4.061,-0.183 -6.939,-1.831 -10.933,-0.667c-4.374,1.271 -7.33,-0.549 -11.102,-0.549c-2.759,-0.591 -7.587,0.911 -11.699,0.911c0,1.444 -30.122,-3.154 -32.853,-3.154c0,-0.956 -11.247,-1.826 -11.247,-3.596c-5.753,-0.731 -8.847,-3.113 -15.299,-3.602c-2.73,-1.214 -6.244,-3.605 -9.229,-3.605c-0.901,0 -3.827,-0.488 -3.827,-1.352c-1.452,-0 -8.548,-2.011 -8.548,-3.591c-3.435,-0 -6.8,-4.507 -10.35,-4.507c-0,-0.464 -5.935,-4.049 -7.196,-4.049c-1.758,-1.908 -5.355,-4.465 -6.305,-6.297c-1.742,0 -4.262,-3.143 -5.396,-4.5c-1.137,0 -3.57,-2.219 -4.052,-3.149c-2,-1.614 -3.15,-2.808 -3.15,-4.954c-0.162,-0 -2.425,-3.673 -2.704,-4.497c-0.567,0 -2.417,-3.662 -2.695,-4.5c-1.199,-3.597 -2.21,-7.625 -2.79,-10.992c-0.347,-2.035 -0.962,-4.028 -1.523,-6.012c-0.212,-0.759 -1.545,-2.798 -1.575,-3.058c-0.106,-0.879 -0.6,-9.638 -0.863,-9.638c0,-5.279 -1.918,-55.802 -1.353,-55.802c0,-1.412 0.853,-10.349 2.253,-10.349c-0,-0.704 2.252,-10.433 2.551,-13.947c0.13,-1.567 1.947,-12.156 3.749,-12.156c0,-3.622 3.966,-6.816 4.95,-10.793c3.335,-1.685 3.876,-7.117 6.753,-8.557c-0,-2.42 4.044,-3.365 4.044,-5.848c2.269,-1.511 2.466,-4.38 4.505,-5.401c-0,-1.516 2.698,-2.279 2.698,-4.051c2.39,-2.049 3.989,-3.823 5.851,-6.295c1.733,-0.87 2.083,-3.387 4.051,-4.056c0.549,-1.664 1.355,-2.077 2.701,-3.148c0,-0.791 0.753,-2.103 1.349,-2.7c1.455,-1.448 7.247,-11.248 8.549,-11.248c0.739,-2.987 2.558,-5.723 5.101,-7.951c1.283,-1.129 2.321,-4.203 4.347,-4.203c0.515,-1.036 1.351,-0.611 1.351,-1.349c1.552,-0 0.877,-1.111 2.248,-1.797c0,-1.696 4.159,-5.397 5.852,-5.397c1.442,-1.921 2.738,-2.525 4.824,-3.744c3.32,-1.939 16.8,-18.428 19.925,-19.205c0.576,-1.144 2.971,-1.801 4.051,-1.801c0,-0.348 4.458,-3.154 5.402,-3.154c0.631,-1.261 17.706,-14.719 22.05,-19.801c1.328,-0 3.737,-2.025 4.498,-3.148c1.8,-0.59 2.403,-1.719 3.599,-3.151c0.995,-0 2.293,-0.956 2.928,-1.803c0.958,-1.279 2.179,-2.234 3.373,-3.298c1.55,-1.371 0.751,-1.493 1.8,-2.551c2.218,-2.217 5.878,-2.732 8.102,-4.944c1.172,-1.17 2.437,-4.506 4.498,-4.506c1.894,-2.279 3.453,-3.693 5.851,-4.497c2.289,-3.438 7.26,-3.668 9.449,-5.849c0.828,-0.834 3.819,-3.153 4.948,-3.153c0.722,-1.44 4.016,-2.33 5.853,-2.696c-0,-0.977 4.498,-1.17 4.498,-2.254c0.987,-0.238 4.053,-1.103 4.053,-1.801c3.088,-1.021 4.533,-1.347 8.102,-1.347c-0,-1.181 6.333,-1.281 7.696,-1.253c4.099,0.104 8.203,0.2 12.3,0.301c2.295,0.058 4.073,-0.858 6.843,-0.508c5.3,0.677 8.799,2.807 13.506,2.807c0.88,0 5.101,0.77 5.101,1.353c2.299,0.566 5.585,1.339 7.829,2.794c6.228,4.022 10.716,8.524 16.168,13.706c3.382,3.211 7.363,7.31 8.402,11.399c1.99,1.001 3.773,8.1 4.497,8.1c-0,4.952 2.217,9.865 2.704,15.297c1.678,0 4.05,9.074 4.05,10.354c0.761,-0 0.9,8.998 2.7,8.998c0,2.936 0.952,4.604 0.582,7.595c-0.364,2.909 -1.931,5.715 -1.931,8.606c-0.472,0 -1.8,2.869 -1.8,3.599c-2.186,1.654 -3.705,3.77 -5.724,5.597c-2.093,1.897 -13.177,3.662 -13.177,5.209c-3.924,-0 -7.051,1.916 -11.543,1.546c-2.121,-0.179 -4.407,-0.489 -6.389,-1.298c-1.768,-0.716 -2.222,-2.68 -3.666,-3.402c-0,-2.146 -3.15,-2.828 -3.15,-4.954c-1.485,-0.724 -2.701,-3.951 -2.701,-5.391c-1.766,-0 -2,-7.782 -4.501,-9.005c0,-0.608 -3.399,-8.102 -4.05,-8.102c-0,-2.892 -4.855,-6.901 -6.973,-9.448c-1.692,-2.03 -4.657,-1.643 -5.623,-3.596c-2.909,-0.581 -5.047,-1.661 -6.755,0.894c-1.525,0 -3.155,1.713 -4.722,2.023c-2.506,0.5 -3.939,2.702 -6.305,3.379c-0.768,0.224 -4.272,2.106 -4.272,2.248c-1.587,0 -2.954,1.134 -4.952,1.799c-0,1.223 -4.793,2.097 -5.847,3.155c-1.838,1.831 -4.525,2.798 -6.751,4.047c-1.515,-0 -4.067,2.27 -4.95,3.601c-2.665,0.657 -4.14,2.698 -6.748,2.698c-0,0.376 -3.355,1.8 -4.048,1.8c-1.612,1.77 -5.032,4.181 -5.854,5.849c-5.343,1.78 -10.097,6.566 -13.503,10.803c-2.95,0.733 -4.942,3.244 -7.107,5.579c-2.278,2.458 -4.508,3.953 -6.838,6.568c-1.554,1.749 -3.706,4.953 -5.851,4.953c-1.577,1.887 -7.202,5.848 -7.202,8.098c-1.827,1.424 -4.95,3.235 -4.95,5.401c-1.43,1.272 -4.537,5.402 -6.299,5.402c-0.513,1.038 -1.346,0.614 -1.346,1.353c-1.646,1.089 -1.128,2.348 -2.704,3.147c-0,2.448 -2.66,2.946 -3.825,4.503c-1.603,2.126 -6.073,4.693 -6.073,7.196c-0.586,-0 -1.522,2.828 -2.254,3.373c-1.74,1.302 -3.453,4.1 -4.045,6.531c-1.988,1.485 -4.291,6.297 -6.751,6.297" style="fill:#fff;"></path><path id="path24" d="M729.561,136.992c-0.521,1.908 -2.807,4.085 -4.505,4.95c-1.042,3.123 -1.927,4.561 -2.25,8.097c-1.688,5.788 -3.636,11.401 1.802,15.751c-0,0.962 3.557,2.313 4.651,2.397c3.219,0.254 5.078,0.752 8.401,0.752c-0,0.651 16.646,0.198 16.646,-0.901c0.802,0 4.5,-0.817 4.5,-1.347c3.156,-0.457 5.088,-0.901 8.552,-0.901c0.979,0 10.797,-0.828 10.797,-1.8c3.651,-0.432 16.198,-2.706 18,-3.148c1.755,-3.481 9.036,-4.055 12.901,-4.055c4.458,0 8.87,-1.275 13.411,-1.17c3.026,0.078 9.24,1.679 9.24,5.225c1.547,1.028 3,3.148 3.599,4.948c0.797,2.387 2.297,3.73 3.151,6.303c0.463,-0 4.114,8.494 4.276,9.451c0.698,4.17 2.849,5.287 3.224,10.192c0.208,2.716 1.14,4.14 1.5,7.355c0.14,-0 1.937,9.46 2.25,10.797c1.255,0 3.818,11.471 3.87,13.707c0.088,3.847 -3.636,6.994 -6.568,6.994c-1.688,2.529 -4.656,2.61 -7.651,3.15c-0,0.474 -2.948,1.851 -3.828,2.024c-2.552,0.509 -5.615,0.936 -8.771,1.129c-3.333,0.987 -6.99,2.248 -10.464,2.248c-5.911,0 -10.968,1.353 -16.312,1.353c-2.323,-0 -5.359,0.02 -8.328,-0.281c-2.813,-0.272 -5.406,0.729 -9,0.729c-1.985,-0 -18,0.759 -18,1.353c-6.302,0.447 -9.193,2.248 -14.844,2.248c0,0.773 -9.156,2.411 -10.807,2.547c-2.453,0.199 -5.011,1.054 -7.422,1.054c-3.172,-0 -6.667,-0.108 -9.828,0.223c-1.886,0.194 -3.193,1.12 -5.25,1.12c-2.667,-0 -4.344,0.905 -6.297,0.905c-0,1.353 -4.052,0.671 -4.052,2.248c-1.662,0 -3.677,1.398 -4.948,2.7c-0,1.471 -2.776,4.553 -4.052,5.401c-1.667,1.903 -0.901,4.014 -1.49,6.202c-1.578,5.92 0.334,8.006 3.74,12.247c1.625,0 3.229,2.249 4.948,2.249c-0,0.376 3.359,1.8 4.052,1.8c-0,1.475 7.64,3.601 9.901,4.055c-0,1.021 12.599,1.076 12.599,3.147c2.323,0 3.844,0.899 6.755,0.899c-0,2.55 7.396,-0.095 8.547,-0.451c4.599,-0.254 8.89,-1.349 12.599,-1.349c-0,-1.068 6.547,-2.079 8.099,-2.246c-0,-1.628 6.479,-4.116 7.651,-5.855c1.51,-0 2.526,-1.353 4.276,-1.353c2.187,-0 3.724,-0.458 5.474,-0.295c2.656,0.244 3.026,0.539 5.026,2.014c0.828,0.61 3.224,2.913 3.224,3.235c1.901,1.702 7.401,10.522 8.776,11.698c1.838,1.571 7.526,11.688 7.875,16.205c-0.151,-0 1.963,9.643 2.036,11.047c0.047,0.971 -0.599,4.246 -1.135,4.246c-0,2.076 -0.453,4.574 -0.453,7.209c-0.745,-0 -1.344,8.555 -1.344,9.891c-0.885,0 -2.25,8.958 -2.25,10.352c-2.24,1.109 -0.937,3.835 -3.151,4.948c-0,5.188 -11.802,12.65 -11.802,10.605c5.885,0 -32.302,11.398 -32.302,9.201c-2.438,0.759 -4.943,-0.635 -7.198,-1.347c-3.057,-0.305 -4.901,-0.946 -7.802,-1.207c-3.891,-0.35 -8.557,-3.3 -12.448,-3.3c-0,-0.173 -8.089,-2.39 -9,-2.696c-3.625,-1.21 -6.953,-3.149 -10.802,-3.149c-0,-1.271 -3.599,-0.502 -3.599,-1.804c-2.948,-0.485 -5.281,-1.298 -8.552,-1.797c-0,-2.618 -11.698,-1.052 -11.698,-4.053c-1.037,0 -8.995,-3.037 -8.995,-4.048c-2.052,-0.519 -4.266,-1.886 -5.406,-3.607c-2.365,-0 -3.479,-3.595 -5.849,-3.595c-0.5,-0.987 -3.901,-3.148 -4.948,-3.148c-0.787,-1.166 -3.62,-3.596 -4.953,-3.596c-1.427,-1.716 -2.25,-2.208 -2.25,-4.507c-0.266,-0 -0.927,-1.668 -1.802,-2.248c-0,-0.173 -3.948,-1.583 -4.495,-2.702c-1.135,-0.94 -2.698,-1.581 -2.698,-3.148c-1.453,-0.732 -0.349,-1.084 -1.802,-1.8c-0,-2.482 -4.052,-3.418 -4.052,-5.855c-1.136,-0.554 -1.787,-2.177 -2.026,-3.372c-0.495,-2.477 -0.672,0.438 -0.672,-2.925c-0.099,-0 -1.354,-2.527 -1.354,-3.148c-2.125,-1.104 -2.948,-8.544 -4.047,-8.544c-0,-3.53 -2.703,-7.345 -2.703,-10.804c-1.703,0 -0.073,-17.1 -2.25,-17.1c-0,-2.462 -0.896,-3.261 -0.896,-6.303c-0.839,0 -0.453,-9.688 -0.453,-11.133c-0,-1.765 2.041,-12.267 1.349,-12.267c-0,-3.144 0.453,-6.73 0.453,-9.223c-0,-1.882 1.354,-3.045 1.354,-5.171c0,-8.948 4.12,-15.233 5.693,-23.103c0.89,-4.434 3.755,-7.354 3.755,-12.003c1.047,-0.525 2.25,-2.93 2.25,-4.049c0.422,0 1.797,-2.635 1.797,-3.603c0.89,-0.441 1.604,-3.147 2.25,-3.147c-0,-0.779 1.969,-4.948 2.703,-4.948c1.177,-4.649 3.708,-7.416 4.495,-12.15c1.26,-0 1.151,-10.354 2.698,-10.354c1.635,-5.42 -2.021,-11.072 -5.844,-13.946c-0,-0.669 -0.781,-2.7 -1.349,-2.7c-0,-2.639 -2.333,-1.983 -3.156,-4.022c-0.849,-2.118 -4.047,-4.039 -4.047,-5.88c-0.995,-0 -0.453,-2.848 -0.453,-3.601c-1.854,-1.485 -2.818,-2.749 -4.047,-4.801c-2.375,-3.955 -1.797,-11.817 -1.797,-15.748c-0,-4.679 -0.807,-9.206 0.146,-14.495c0.521,-2.899 0.75,-6.145 0.75,-8.606c0.177,-0 2.703,-5.073 2.703,-5.85c1.906,-1.267 3.573,-6.297 6.297,-6.297c0.568,-1.129 2.068,-1.979 3.151,-2.705c-0,-1.475 1.802,-2.244 2.823,-3.282c2.739,-2.771 5.594,-5.294 9.328,-6.616c3.719,-1.312 7.953,-0.397 11.802,-0.59c5.844,-0.285 9.026,-4.397 14.297,-6.154c5.526,-1.852 8.068,-3.587 15.302,-4.507c-0,-0.733 4.661,-1.802 5.698,-1.802c3.557,-0 4.515,0.063 8.479,0.339c2.557,0.186 3.896,-1.151 6.219,-1.387c3.26,-0.326 31.521,-7.048 32.25,-7.048c-0,-1.796 11.948,-3.383 13.953,-4.049c2.422,-0.809 2.588,-1.352 5.849,-1.352c2.182,-0 3.948,-0.898 6.078,-0.898c3.401,0 10.604,-2.781 11.474,-2.929c2.224,-0.364 2.891,-1.158 5.849,-1.302c3.766,-0.187 5.781,-0.808 9.297,-1.622c0.781,-0.177 5.552,-1.601 5.552,-1.8c4.979,-0 8.781,-1.347 13.505,-1.347c0,0.743 14.432,-0.914 16.662,-1.15c1.625,-0.173 13.031,-1.129 13.031,1.15c2.776,0.692 3.458,2.899 6.302,3.601c1.807,2.248 3.265,4.883 5.396,6.297c0.557,2.221 2.677,5.09 4.505,6.3c-0,0.739 2,4.055 2.698,4.055c0.234,0.946 1.698,4.047 2.25,4.047c0.604,2.881 2.25,7.121 2.25,9.452c2.021,-0 3.291,8.097 4.953,8.097c0.615,2.605 2.25,6.47 2.25,8.549c0.615,0 2.521,4.238 2.703,4.95c2.042,1.048 1.703,4.09 1.573,6.077c-0.146,2.163 0.292,3.008 -1.573,4.279c-0.74,2.171 -1.802,0.895 -1.802,3.296c-0,3.654 -0.922,4.358 -4.057,6.372c-2.36,1.522 -5.12,2.924 -7.198,2.924c-0,1.318 -7.511,2.02 -9.224,2.142c-2.974,0.209 -4.776,1.914 -8.099,1.914c-1.594,0 -13.276,2.039 -13.276,2.246c-3,0 -5.781,2.255 -9.297,2.255c-3.339,-0 -5.422,1.346 -8.026,1.346c-3.922,0 -8.521,1.349 -12.375,1.349c-3.818,0 -5.854,1.353 -9.302,1.353c-4.068,0 -5.75,1.801 -9.146,1.801c-2.62,-0 -4.427,1.8 -6.755,1.8c-0,2.334 -8.37,2.499 -10.433,2.611c-1.427,0.075 -8.911,1.426 -8.911,2.333c-3.469,0 -4.812,1.805 -8.104,1.805c-0,1.41 -4.948,1.021 -4.948,2.248c-1.047,0.075 -6.302,0.006 -6.302,0.899c-1.386,0 -2.026,0.902 -3.599,0.902c-0,1.413 -7.151,1.668 -9,1.796c-0,0.492 -7.047,4.975 -8.547,5.406" style="fill:#fff;"></path><path id="path26" d="M941.957,257.587c-0.891,3.245 -4.104,3.78 -5.271,6.455c-1.302,2.981 -1.531,6.969 -1.062,10.147c0.52,3.566 3.442,4.573 4.984,7.7c1.516,0.505 8.099,2.824 8.099,3.603c1.151,0 8.547,1.199 8.547,2.246c2.823,0 6.672,1.801 9.005,1.801c-0,2.682 27,2.553 27,0.901c0.547,-0.03 3.391,0.611 4.495,0.672c0.734,0.034 4.052,0.783 4.052,-0.224c2.625,-0 0.224,-0.448 2.25,-0.448c-0,-2.061 8.984,-2.248 10.797,-2.248c-0,-1.862 7.015,-0.977 8.104,-3.153c1.51,-0 4.005,-2.781 4.948,-4.049c2.125,-0 2.807,-3.153 4.953,-3.153c0.526,-1.038 3.51,-2.696 4.495,-2.696c-0,-0.045 4.166,-1.4 5.036,-1.557c4.781,-0.864 5.688,3.327 9.818,4.704c-0,1.064 0.963,2.906 1.739,4.069c1.235,1.868 3.058,3.048 4.631,4.604c1.265,1.255 1.281,1.634 1.281,3.479c-0,2.502 1.073,1.876 1.797,4.049c0.635,1.902 2.38,3.52 2.5,5.147c0.125,1.634 3.802,5.738 3.802,8.352c2.901,1.454 3.599,15.202 3.599,18.005c0.64,3.784 -0.735,6.337 -1.125,9.451c-0.36,2.878 -0.927,6.021 -1.125,9.446c-0.271,-0 -1.485,3.829 -1.651,4.652c-0.709,3.571 -2.563,8.881 -6.448,10.204c-1.563,4.598 -5.927,5.955 -10.531,6.921c-1.344,0.285 -9.719,2.539 -9.719,3.872c-2.422,0.6 -4.224,1.688 -7.177,1.835c-3.156,0.168 -25.953,3.495 -28.594,3.79c-3.234,0.356 -16.979,3.707 -18.677,1.571c-1.516,-0 -0.74,-0.896 -2.25,-0.896c-0,-0.868 -4.479,-0.166 -5.401,-0.111c-2.464,0.152 -3.297,0.697 -6.115,-0.554c-2.463,-1.084 -3.25,-1.139 -5.781,-0.335c-2.651,0.844 -9.073,-1.319 -10.156,-3.5c-1.49,0 -2.61,-0.976 -4.802,-1.2c-2.146,-0.207 -4.328,-0.922 -6.448,-1.272c-0.735,-0.122 -4.495,-2.03 -4.495,-2.482c-1.625,-0.091 -9.453,-0.132 -9.453,-1.349c-1.833,-0.258 -9.901,-2.018 -9.901,-3.147c-2.386,-0.553 -6.208,-0.712 -7.203,-2.695c-1.933,-0 -3.542,-3.856 -5.849,-4.507c-0.531,-2.198 -2.245,-2.238 -2.245,-4.497c-0.542,0 -1.354,-2.848 -1.354,-3.596c-0.182,-0 -3.141,-3.734 -4.047,-4.5c-0,-1.97 -1.802,-3.317 -1.802,-5.403c-2.151,0 -3.693,-9.002 -5.401,-9.002c-0.474,-1.888 -1.88,-4.13 -3.151,-5.402c-1.365,-1.369 -5.849,-2.346 -5.849,-4.95c-1.016,-0.766 -1.797,-0.915 -1.797,-2.246c-1.771,-1.182 -0.662,-1.908 -2.255,-2.702c-0,-0.768 -1.755,-3.601 -2.25,-3.601c-0,-1.542 -2.802,-11.698 -3.599,-11.698c-0,-1.298 -1.641,-13.953 -1.802,-13.953c-1.063,-3.483 -1.052,-8.498 -0.547,-12.085c0.698,-4.954 1.469,-9.474 1.677,-14.913c0.302,-7.969 3.614,-15.018 4.271,-22.949c0.182,-2.166 1.187,-10.797 2.703,-10.797c-0,-1.821 1.328,-11.704 2.698,-11.704c-0,-1.845 0.453,-4.71 0.453,-7.197c0.453,0 1.349,-3.722 1.349,-4.506c0.5,0 2.255,-9.979 2.255,-11.393c0,-1.837 0.833,-13.353 2.24,-13.353c0.427,-1.666 3.083,-10.796 3.604,-10.796c-0,-3.877 3.599,-7.685 4.953,-11.705c0.75,-0 1.661,-5.121 3.151,-5.849c-0,-1.876 1.443,-3.302 1.802,-5.396c1.057,0 1.917,-4.344 3.146,-4.954c-0,-1.617 2.047,-3.902 2.698,-5.849c0.62,-0 3.599,-9.013 3.599,-9.904c0.323,-0 2.698,-5.945 2.698,-6.749c0.922,0 4.057,-11.413 4.057,-12.601c0.562,-0 1.214,-14.742 1.151,-16.584c-0.104,-3.234 -0.104,-6.235 0.422,-8.839c0.302,-1.516 1.12,-1.044 1.12,-2.473c1.39,-1.108 1.718,-2.166 2.708,-3.153c1.448,-1.456 3.458,-2.085 4.948,-3.825c1.583,-1.847 3.677,-3.104 5.844,-3.825c3.213,-1.068 15.75,-6.703 15.75,-7.202c2.916,0 -0.354,-0.447 3.156,-0.447c-0,-1.384 1.588,0.091 2.245,-0c-0,-0.914 4.5,-0.694 4.5,-2.249c1.125,0 6.755,-0.956 6.755,-1.8c4.802,-0 10.078,-1.465 15.073,-2.024c2.989,-0.336 4.015,-1.109 7.422,-0.824c2.734,0.223 5.234,-1.048 8.552,-1.654c-0,-1.329 12.151,-0.259 12.151,-2.252c1.979,-0 13.047,-0.581 13.047,-2.249c4.682,-0.669 9.88,-1.19 14.401,-2.696c0.812,-0.274 3.151,-1.297 3.151,-1.8c1.385,-0.173 6.75,-0.895 6.75,-1.801c1.906,0 13.5,0.662 13.5,-1.8c2.078,-0 3.031,-0.901 5.849,-0.901c-0,-0.167 5.156,-1.347 5.849,-1.347c2.281,-0 3.703,-0.905 6.526,-0.905c3.338,-0 6.338,-0.641 9.588,-1.421c2.256,-0.532 20.792,0.204 20.792,0.973c3.734,-0 6.583,2.7 10.802,2.7c0,1.098 0.896,-0.2 0.896,0.901c2.031,-0 2.911,1.302 4.432,2.574c1.443,1.194 7.354,7.324 8.172,7.324c1.292,5.298 3.224,11.153 8.094,14.404c-0,0.997 1.5,3.296 2.25,4.049c0.818,0.818 0.995,2.069 1.349,3.154c0.885,0.427 1.807,1.713 1.807,2.695c0.344,-0 4.083,7.477 4.24,8.351c1.036,5.799 -2.094,21.17 -5.599,24.048c-1.568,0.916 -3.042,1.71 -4.912,1.893c-5.812,0.567 -10.161,1.845 -16.687,1.031c-2.88,-0.36 -23.047,3.831 -24.521,3.831c-1.969,0 -4.511,0.895 -6.526,0.895c-0,0.493 -2.953,1.353 -3.599,1.353c-0,1.13 -5.448,0.899 -6.75,0.899c-0,-0.758 -4.396,0.902 -5.625,0.902c-11.109,-0 -21.302,2.246 -32.177,2.246c-5.834,-0 -28.349,3.247 -28.349,4.05c-1.037,0 -4.953,1.414 -4.953,2.253c-1.875,-0 -2.901,1.027 -5.25,1.501c-2.063,0.411 -3.209,3.001 -5.099,3.001c-0.63,1.268 -3.729,3.147 -4.948,3.147c-0.656,1.286 -1.599,1.085 -2.474,2.249c-1.078,1.428 -2.542,2.254 -3.828,4.046c-1.495,1.209 -3,2.403 -4.5,3.603c-0.63,1.98 -1.261,3.963 -1.891,5.937c-0.849,2.696 -2.036,6.419 -4.406,8.016c-0,1.078 -2.208,4.016 -3.151,4.72c-2.932,2.201 -2.25,5.324 -2.25,7.878c2.75,1.363 3.193,3.81 6.656,4.179c2.995,0.323 4.578,-0.578 7.292,-0.578c-0,-0.9 13.5,-0.566 13.5,-2.253c2.677,0 23.401,-3.267 23.401,-4.496c4.005,0 7.818,-1.739 11.698,-2.702c-0,-1.346 7.651,-2.364 7.651,-3.601c2.885,-0.268 5.672,0.037 7.203,-2.248c0.979,0 4.088,-1.882 4.5,-2.7c1.271,-0.427 8.104,-2.024 8.104,-3.153c1.401,-0 3.849,-1.674 5.948,-1.851c1.995,-0.17 2.979,0.954 4.844,0.954c-0,0.155 3.375,2.25 4.052,2.25c0.729,1.475 2.234,1.383 3.755,1.8c2.313,0.631 1.057,0.428 2.771,1.801c1.469,1.172 1.635,2.299 3.146,3.601c1.015,0.865 2.927,2.779 2.927,4.049c2.625,1.743 5.854,8.352 5.854,11.25c2.271,0 3.755,8.997 4.948,8.997c-0,1.278 0.917,3.388 2.255,4.051c0,0.624 1.578,4.052 1.797,4.052c-0,2.167 0.896,4.222 0.896,6.297l-0,7.202c-1.995,0 0.864,13.947 -0.896,13.947c-0,2.217 -2,6.83 -4.5,8.101c-0,3.048 -6.734,4.95 -9,4.95c-0,1.256 -3.604,0.499 -3.604,1.801c-2.979,0.747 -5.005,1.8 -8.323,2.024c-4.854,0.326 -6.667,3.025 -11.479,3.825c-0,0.183 -5.235,1.17 -6.297,1.353c-0,1.394 -4.047,1.322 -4.047,2.248c-3.75,0.301 -14.484,2.248 -15.297,2.248c0,1.774 -37.047,5.402 -38.708,5.402c-0,0.752 -3.584,1.353 -4.495,1.353c-0,-0.02 -15.297,2.36 -15.297,0.447c-0.807,0 -1.26,0.957 -2.625,1.201c-1.729,0.299 -3.453,0.6 -5.177,0.899c-3.781,0.657 -7.281,0.376 -11.104,0.149c-0,1.684 -11.703,1.393 -11.703,3.153c-2.209,-0 -3.636,0.895 -5.844,0.895l-5.406,0c-0,1.068 -2.188,2.432 -3.146,2.7" style="fill:#fff;"></path><path id="path28" d="M1625.05,125.287c-0,0.613 -3.855,3.156 -4.495,3.156c-0.74,1.516 -4.209,3.184 -5.854,3.593c-0.448,0.903 -2.584,2.256 -3.599,2.256c-0.636,1.259 -2.266,1.8 -3.599,1.8c-0,0.631 -4.511,2.474 -5.401,2.696c-1.86,2.828 -5.698,3.805 -9,4.842c-3.662,1.14 -6.922,2.808 -10.797,2.808c-0,1.516 -6.38,1.396 -7.563,1.414c-3.161,0.031 -5.557,0.01 -8.187,-1.862c-0.88,-1.308 -1.344,-1.023 -1.344,-2.248c-1.771,-1.19 -0.667,-1.898 -2.25,-2.702c-0.302,-1.652 -1.083,-9.004 -2.26,-9.004c-0,-1.62 -1.662,-11.701 -2.693,-11.701c-0,-1.074 -0.323,-6.297 -0.906,-6.297c0.114,-2.024 0.234,-4.05 0.343,-6.073c0.115,-2.115 -0.802,-3.076 -0.76,-5.464c0.063,-3.426 0.26,-7.314 4.198,-8.024c3.458,-0.631 6.651,-0.688 10.172,-0.688c2.646,-0.452 3.588,-0 6.297,-0c-0,1.072 4.953,0.728 4.953,1.8c3.349,0 5.38,0.455 8.547,0.455c2.099,-0 3.869,0.894 5.854,0.894c2.604,0 6.234,0.723 9.448,0.902c-0,0.028 4.484,1.477 5.177,1.574c3.359,0.483 5.823,2.478 8.781,2.478c0,2.248 9.182,2.029 11.141,5.077c0.833,1.292 2.547,7.971 0.099,7.971c-1.354,4.104 -2.5,7.236 -6.302,10.347m355.5,-68.846c2.656,0 5.39,21.597 4.052,21.597c-0,0.814 0.13,9.226 -0.063,12.156c-0.203,3.089 -0.88,6.389 -2.635,8.993c-0.906,0.73 -5.401,4.201 -5.401,4.05c-1.078,0 -7.646,3.762 -7.646,4.057c-4.089,0 -8.083,2.694 -12.599,2.694c-0,0.164 -12.224,1.375 -13.776,1.894c-7.083,2.364 -14.354,3.247 -21.333,3.957c-0,1.754 -11.25,0.665 -11.25,2.252c-4.625,0 -8.985,2.59 -14.62,2.924c-1.969,0.114 -11.927,1.63 -11.927,2.921c-2.808,0.193 -5.854,0.906 -8.099,0.906c-0,0.956 -4.933,1.475 -6.297,1.577c-5.235,0.366 -7.688,2.014 -13.5,2.919c-0,0.865 -9.443,2.698 -10.802,2.698c-0,2.022 -13.12,3.013 -15.615,3.342c-2.203,0.297 -3.901,2.061 -5.989,2.061c-0,1.034 -5.844,1.349 -7.188,1.349c0,0.747 -10.364,1.958 -10.364,3.599c-0.891,0 -4.495,0.643 -4.495,1.355c-1.823,0 -2.604,2.248 -4.495,2.248c-1.047,2.12 -4.057,3.174 -4.057,5.402c-1.547,1.028 -2.995,3.154 -3.599,4.948c-0.287,0.855 -1.854,3.597 -2.245,3.597c-0.646,1.943 -1.271,1.424 -1.797,3.601c-0.891,0.446 -2.255,2.096 -2.255,3.153c-1.276,0.847 -4.052,3.927 -4.052,5.402c-1.266,0.631 -2.214,4.944 -2.698,4.944c0.151,1.652 0.302,3.306 0.453,4.954c1.354,0.447 2.698,0.899 4.042,1.349c1.562,1.947 3.343,3.599 5.401,3.599c-0,2.051 12.958,-0.025 15.005,0.016c6.953,0.132 13.38,-0.45 20.146,-1.949c3.349,-0.743 6.411,-0.767 9.859,-0.767c0,-1.129 5.443,-0.899 6.745,-0.899c-0,-0.555 13.948,-0.81 13.948,-2.702c1.416,-0.214 7.198,-0.73 7.198,-1.801c2.562,-0.642 5.026,-2.248 7.656,-2.248c-0,-0.299 7.708,-4.059 9.224,-4.272c1.588,-0.23 4.016,-1.068 4.729,-2.476c0.823,-0 2.969,-1.176 3.589,-1.796c1.114,-1.105 3.286,-2.279 4.953,-2.707c0.927,-1.389 5.401,-3.061 5.401,-4.048c4.239,-0 7.286,1.587 11.161,3.239c2.073,0.891 6.386,3.597 6.386,6.211c1.427,0 1.734,5.4 3.151,5.4c1.406,4.203 3.13,7.631 4.057,11.252c0.583,0 3.151,8.165 3.365,9.451c0.166,0.956 3.333,8.996 3.385,8.996c-0,1.565 1.865,17.554 -0,17.554c-0,1.333 -1.698,6.297 -2.708,6.297c-0,0.698 -1.417,4.049 -1.802,4.049c-0,2.014 -1.157,3.957 -2.693,6.001c-1.021,1.343 -7.203,4.019 -7.203,4.802c-0.568,-0 -4.042,1.908 -4.042,2.248c-2.13,-0 -3.5,1.353 -5.63,1.353c-0.714,-0 -5.63,1.139 -5.63,1.794c-3.344,0 -6.323,0.46 -9.636,0.84c-7.51,0.865 -28.88,4.817 -32.531,4.69c-3.974,-0.132 -74.609,10.671 -80.12,10.671c-6.198,0 -9.552,1.394 -16.213,1.709c-4.151,0.198 -6.756,2.614 -10.438,3.845c-1.562,0.519 -3.286,0.57 -4.062,2.096c-1.584,-0 -1.105,1.353 -2.693,1.353c-1.453,1.688 -2.953,4.038 -4.5,5.401c-0.307,2.706 -0,4.588 -0,7.196c0.896,0 3.38,5.246 4.5,6.079c1.24,0.926 3.12,2.89 4.042,4.273c1.948,-0 4.755,1.957 5.854,3.601c1.323,-0 4.177,2.435 4.948,3.601c1.953,-0 2.411,1.8 4.5,1.8c-0,1.048 11.396,2.229 13.531,2.35c6.838,0.397 13.849,-0.833 20.365,-2.864c1.171,-0.37 7.505,-0.869 7.505,-1.733c0.911,-0.23 4.953,-1.424 4.953,-2.259c2.792,-0.671 3.161,-1.794 6.297,-2.248c-0,-1.139 4.047,-0.661 4.047,-1.797c0.828,0 4.057,-0.732 4.057,-1.352c3.224,-0.356 4.437,-0.228 6.297,-2.7c2.844,-0 5.51,-3.15 8.547,-3.15c-0,-0.187 7.448,-3.147 8.552,-3.147c-0,-0.692 10.916,-2.411 12.599,-2.553c3.427,-0.285 6.234,3.662 8.776,5.7c1.515,1.211 2.177,3.689 3.828,4.503c0.338,1.353 1.776,6.744 2.693,6.744c0.942,4.212 3.161,6.474 3.161,9.909c1.953,-0 1.344,16.631 1.344,19.341c1.547,0 -0,12.736 -0,13.499c-0.63,0 -1.047,8.551 -1.495,9.904c-0.828,2.466 -2.271,6.623 -4.359,7.65c-0,2.425 -5.552,5.957 -7.193,7.873c-0.969,1.113 -3.641,2.93 -4.953,2.93c-0,0.356 -2.568,1.347 -3.151,1.347c-0.813,1.664 -4.521,3.16 -6.302,3.597c-1.167,2.329 -7.381,4.049 -9.443,4.049c-0,1.454 -8.609,2.299 -9.906,4.954c-2.089,-0 -6.193,2.289 -8.703,3.153c-3.855,1.333 -7.037,1.353 -11.094,1.353c-0,1.18 -3.599,-0.02 -3.599,1.347c-2.755,0.844 -15.974,-0.869 -18.453,-0.977c-3.625,-0.152 -7.261,-0.248 -10.896,-0.417c-3.318,-0.152 -6.516,-1.306 -9.802,-1.306c-1.219,0 -7.646,0.163 -7.646,-0.901c-3.677,-0 -7.156,-1.988 -10.573,-2.476c-1.948,-0.275 -11.49,-1.41 -11.49,-2.92c-1.562,0 -2.843,-1.007 -4.947,-1.353c-0,-0.352 -3.474,-2.247 -4.042,-2.247c-0.912,-1.842 -6.75,-2.218 -6.75,-3.606c-0.776,0 -4.948,-2.417 -4.948,-2.702c-2.214,-0.539 -4.568,-1.678 -5.854,-3.59c-2.261,-0 -3.084,-3.612 -5.401,-3.612c-1.761,-2.112 -5.276,-3.753 -6.297,-5.849c-4.307,0 -6.24,-7.314 -8.859,-9.592c-2.094,-1.838 -3.037,-5.118 -5.094,-6.155c-0,-1.353 -0.933,-1.461 -1.349,-3.15c-1.646,-0.854 -0.584,-2.323 -2.245,-3.147c-0.484,-1.912 -2.25,-3.021 -2.25,-4.954c-0.495,0 -2.255,-3.245 -2.255,-4.049c-1.818,0 -3.599,-13.677 -3.599,-15.523c-0,-3.672 -1.406,-8.85 -2.146,-13.499c-0.474,-3.011 -0.766,-6.221 -0.109,-9.232c-0.537,-4.246 -0.709,-8.58 0.088,-12.822c0.625,-3.306 0.365,-6.754 0.365,-10.122c0.583,0 0.896,-5.228 0.896,-6.302c0.765,-0 2.38,-9.892 2.484,-11.475c0.26,-4.52 2.917,-8.392 2.917,-12.374c-0.308,0 3.609,-10.996 3.609,-11.698c1.771,-0 1.984,-9.003 3.151,-9.003c0,-0.834 0.802,-4.95 1.349,-4.95c0,-1.979 0.104,-4.988 1.797,-5.849c0.432,-2.126 1.349,-2.659 1.349,-4.5c0.375,-0 1.802,-3.357 1.802,-4.049c1.719,-0 2.568,-8.097 4.042,-8.097c0.687,-4.147 1.927,-6.216 3.161,-9.904c0.5,-1.54 1.797,-3.012 1.797,-4.501c1.036,0 2.005,-9.338 2.245,-10.799c-1.672,0 -2.396,-0.118 -3.146,2.702c-2.109,0.5 -3.583,2.248 -5.401,2.248c-0,0.421 -3.604,1.872 -4.5,2.024c-2.193,0.366 -40.167,30.461 -41.182,31.275c-1.761,1.41 -2.459,2.254 -4.714,2.254c0,1.068 -6.505,3.143 -7.656,3.143c-0,1.272 -4.5,0.478 -4.5,1.801c-1.495,0.152 -2.995,0.305 -4.5,0.452c-0.396,0.789 -1.313,1.471 -2.13,1.891c-1.219,0.631 -2.87,2.245 -3.719,3.51c-0.443,0 -4.948,2.045 -4.948,2.255c-1.516,-0 -9.901,2.024 -9.901,3.143c-1.011,0.146 -6.302,1.037 -6.302,1.8c-1.823,0.458 -3.735,1.801 -5.401,1.801c-0,1.343 -6.75,2.146 -6.75,3.601c-5.755,1.44 -12.407,3.499 -18.886,4.293c-2.359,0.295 -2.583,1.129 -4.062,2.909c-1.021,-0 -0.604,1.638 -1.802,2.248c-0.729,2.92 -2.167,4.338 -2.401,7.351c-0.438,5.66 -1.396,10.109 -2.094,15.598c-1.693,0 -2.255,8.397 -2.255,10.346c-0.542,-0 -0.407,17.552 -2.255,17.552c-0,1.78 -0.954,11.704 -2.693,11.704c-0,1.903 -0.557,18.9 -0.901,18.9c-0,1.734 -2.026,16.195 -0.901,16.195c0.588,2.112 0.151,4.791 -0.266,6.897c-0.427,2.126 -0.187,3.52 -0.187,6.46c-0,0.926 -2.704,19.094 -2.584,21.382c0.13,2.076 -0.562,3.3 -0.562,4.863c-0.308,-0 -1.547,2.35 -2.255,2.929c-1.573,1.317 -3.412,2.208 -4.495,3.825c-1.469,0 -2.995,1.795 -4.495,1.795c-0,1.186 -4.005,1.349 -4.953,1.349c-0,1.275 -13.568,1.806 -15.86,1.806c-2.427,0 -3.64,-0.958 -6.197,-1.806c-0,-0.488 -2.829,-2.254 -3.589,-2.254c-0.755,-1.459 -2.927,-2.012 -4.057,-3.137c-1.318,-1.319 -3.896,-1.059 -4.948,-3.16c-2.167,-0 -9.448,-7.216 -9.448,-9.445c-1.615,-0.803 -1.422,-10.976 -3.599,-11.698c-0.307,-2.254 -0.599,-4.506 -0.906,-6.754c-1.62,-0 0.786,-19.226 0.458,-20.248c-1.089,-3.353 1.344,-14.355 1.344,-17.438c-0,-2.15 -0.953,-3.625 -0.745,-5.66c0.224,-2.335 1.198,-3.316 1.198,-5.025c-0,-2.217 -0.844,-20.477 1.349,-20.477c-0,-2.214 0.901,-3.438 0.901,-6.303c0.312,0 1.458,-16.213 0.896,-18.447c-0.912,-0.549 -7.198,-3.519 -7.198,-3.601c-1.854,0 -3.365,-2.702 -5.401,-2.702c-1.412,-2.095 -3.995,-2.995 -5.63,-4.948c-1.303,-1.566 -5.167,-3.235 -5.167,-5.401c-0.479,-0 -2.448,-3.967 -3.146,-4.944c-1.838,0 -3.948,-2.814 -4.505,-4.507c-2.328,-1.165 -4.057,-6.211 -4.057,-8.55c-0.11,-0 -2.693,-7.437 -2.693,-8.098c-0.63,0 5.854,-34.169 5.854,-35.547c1.177,0 1.635,-7.202 3.146,-7.202c-0,-3.225 6.609,-7.151 9.448,-8.097c2.692,-0.906 4.208,-1.038 7.526,-0.671c1.349,0.152 6.422,-0.749 6.422,-1.583c2.328,-0 4.849,-1.211 7.203,-1.801c1.219,-1.424 2.203,-2.854 3.823,-3.825c1.562,-0.94 0.552,-1.308 2.021,-2.024c0.807,-2.395 2.364,-5.111 3.421,-7.827c1.308,-3.373 0.188,-8.002 0.313,-11.648c0.281,-7.924 0.734,-15.818 1.224,-23.722c0.198,0 -3.75,-4.807 -4.052,-5.402c-1.261,-0.182 -5.849,-0.988 -5.849,-1.8c-2.479,-0 -3.703,-0.569 -6.62,0.6c-2.896,1.16 -6.036,0.895 -9.135,1.007c-1.328,0.045 -7.188,0 -7.188,1.091c-2.109,-0 -3.172,1.351 -5.182,1.351c-3.083,-0 -6.229,4.052 -9.682,4.052c-0,0.637 -3.61,2.703 -4.495,2.703c-1.427,2.15 -3.292,2.715 -5.854,3.147c-0,1.552 -9.875,2.522 -12.141,2.701c-0,1.333 -13.25,-1.353 -14.177,-1.353c-3.078,0 -6.615,-2.699 -9.229,-2.699c-2.448,-2.275 -5.323,-4.425 -7.198,-7.199c-3.531,-0.301 -5.276,-0.758 -7.547,1.048c-1.958,1.557 -2.037,4.598 -2.037,6.847c0,2.638 -1.125,4.628 -1.848,7.1c-1.579,5.361 4.375,7.314 4.145,12.003c-0.26,5.26 0.526,9.027 0.219,14.338c-0.099,1.774 -0.099,3.739 -0.583,5.462c-0.906,3.225 0.458,6.68 -0.448,9.905c0.167,6.827 1.12,14.068 -0.245,20.751c-0.531,2.619 0.245,3.978 0.245,6.694c-0,3.723 0.14,7.348 0.182,11.051c0.037,2.946 -1.281,6.104 -1.583,9.074c-0.36,3.475 -0.401,6.985 -0.396,10.474c0.057,1.261 0.797,9.002 -0,9.002c-0,3.571 -0.901,6.521 -0.901,9.674c-0,4.364 -1.87,7.013 -1.5,11.781c0.432,5.625 -0.219,12.572 -0.901,19.494c-0.615,6.317 -1.511,11.938 -1.089,17.777c0.157,2.167 1.12,11.021 2.584,11.021c-0,5.595 0.906,13.536 0.906,19.131c-0,1.815 0.901,3.245 0.901,4.948c-0,2.885 0.01,6.974 -0.094,10.549c-0.052,2.05 -1.276,17.568 -2.161,17.568c-0,1.495 -1.672,10.803 -2.698,10.803c-0,0.769 -3.089,8.103 -3.151,8.103c-0,0.814 -0.724,4.049 -1.349,4.049c-0,2.004 -3.146,3.703 -3.146,5.853c-0.63,0.529 -5.854,4.09 -5.854,3.597c-2.063,0 -3.599,1.475 -6.104,1.485c-0.724,0.004 -21.422,-0.132 -23.375,-0.132c-4.901,0 -7.823,-1.119 -12.37,-2.254c-1.927,-2.405 -3.261,-4.067 -5.625,-6.073c-2.354,-1.994 -3.766,-5.019 -6.073,-6.749c-1.13,-0.844 -2.255,-2.644 -2.255,-3.825c-1.594,0 -0.995,-6.754 -2.698,-6.754c-0,-1.007 -2.443,-7.192 -3.151,-7.192c-0.219,-1.312 -0.985,-7.208 -1.802,-7.208l-0,-13.046c-1.224,0 -1.526,-9.898 -2.698,-9.898c-0,-1.145 -2.115,-9.002 -3.146,-9.002c-0.375,-1.129 -2.266,-6.751 -2.703,-6.751c-0.656,-2.567 -2.229,-4.022 -3.151,-6.748c-1.334,-0.885 -3.599,-3.438 -3.599,-4.954c-1.974,-0.987 -2.162,-7.198 -4.047,-7.198c-0,-2.197 -2.995,-3.361 -3.604,-5.853c-1.912,-1.428 -2.188,-4.004 -4.047,-4.944c-0,-0.916 -2.75,-4.975 -3.604,-5.402c-0,-2.496 -2.042,-2.777 -3.594,-4.726c-0.557,-0.695 -3.542,-4.724 -3.599,-4.724c0,-0.671 -0.781,-2.702 -1.359,-2.702c-0,-1.377 -1.282,-3.544 -2.698,-4.724c-2.839,-2.366 -2.328,-4.74 -4.052,-7.538c-1.177,-1.912 -3.146,-4.394 -3.146,-6.185c-0.964,0 -0.828,-3.778 -2.25,-4.502c-0,-2.625 -4.5,-3.707 -4.5,-6.301c-1.938,-0.98 -4.563,-4.805 -6.297,-6.744c-1.323,-0 -1.354,-0.977 -2.51,-1.77c-1.506,-1.048 -2.235,-1.095 -4.115,-0.794c-0.766,0.122 -2.38,0.244 -2.38,1.211c-1.99,-0 -1.401,1.353 -3.146,1.353c-0,1.21 -1.354,0.797 -1.354,2.248c-1.485,0.759 -0.901,2.055 -0.901,3.597c-0,1.015 -0.36,7.653 -1.349,7.653c-0,1.907 -3.672,17.548 -4.047,17.548c-0,4.283 -3.151,10.142 -3.151,14.852c-0.443,-0 -2.698,5.752 -2.698,6.745c-1.927,-0 -0.396,11.702 -2.255,11.702c-0,1.074 1.255,11.253 0.453,11.253c-0,7.166 -1.349,10.777 -1.349,17.433l-0,10.908c-0,3.37 -1.641,6.721 -2.703,9.902c-0.13,1.244 -0.417,8.559 -1.349,8.559c-0,2.075 -1.349,2.772 -1.349,4.95c-0.453,-0 -2.698,6.347 -2.698,7.202c-3.896,1.861 -3.76,8.396 -10.151,6.805c-1.438,-0.362 -15.479,-1.862 -17.865,-1.862c-3.099,0 -5.953,-0.453 -8.885,-0.453c-0,-0.981 -11.526,-0.539 -13.052,-3.601c-2.214,-0.483 -3.662,-0.306 -4.948,-2.243c-1.307,0 -1.557,-1.525 -2.703,-2.477c-2.891,-2.421 -2.771,-6.135 -3.328,-10.035c-0.495,-3.475 -2.662,-5.122 -2.776,-8.748c-0.073,-2.288 0.244,-4.598 0.593,-6.856c0.516,-3.302 -0.645,-6.1 -0.974,-9.324c-0.234,-2.36 0.86,-4.613 1.329,-6.881c0.567,-2.777 -0.292,-4.177 -0.469,-6.979c-0.11,-1.759 1.755,-12.155 1.125,-12.155c0.067,-1.232 0.015,-8.546 0.901,-8.546c-0,-0.996 0.406,-4.048 1.349,-4.048c1.463,-6.521 2.271,-12.461 2.854,-19.955c0.687,-8.925 4.344,-13.081 4.344,-22.349c1.651,0 0.932,-10.797 2.703,-10.797c-0,-4.024 2.698,-8.376 2.698,-12.603c0.802,-0 2.942,-13.178 3.599,-15.3c-0,-5.045 1.396,-10.803 2.76,-16.622c0.859,-3.642 1.641,-7.304 2.573,-10.927c0.99,-3.829 0.802,-7.108 0.615,-11.056c-0.177,-3.717 0.041,-7.446 0.849,-11.088c0.755,-3.387 0.333,-6.496 0.656,-9.91c0.328,-3.477 0.203,-7.013 0.203,-10.524c-0,-2.287 1.271,-5.16 0.979,-7.294c-0.948,-7.011 -1.411,-13.47 -1.88,-20.231c-0.745,-0 -2.698,-6.057 -2.698,-7.198c-1.458,-0 -1.969,-15.3 -0.453,-15.3c-0,-1.686 0.984,-3.19 1.203,-5.548c0.219,-2.417 0.115,-2.689 -0.078,-5.924c-0.354,-6.032 1.573,-10.865 1.573,-16.653c-0,-3.58 1.797,-7.405 1.797,-11.476c-0.271,-0 5.406,-9.255 5.406,-10.35c1.51,0 2.312,-2.7 4.047,-2.7c0.989,-1.237 4.953,-3.408 4.953,-4.048c1.859,-0 2.776,-1.079 4.948,-1.801c-0,-0.484 4.323,-1.623 5.401,-1.8c-0,-2.961 14.015,-0.474 16.312,-0.336c3.568,0.213 5.349,0.653 8.438,1.688c3.036,1.006 4.922,3.704 8.099,4.497c-0,1.764 7.203,2.354 7.203,3.601c1.479,-0 3.818,0.893 4.5,2.248c1.625,0 4.047,4.602 4.047,5.849c3.224,0 2.515,14.388 2.588,16.988c0.032,1.079 -0.073,6.42 1.011,6.42c-0,4.679 0.088,9.277 0.453,13.946c0.114,1.542 0.948,14.851 0.901,14.851c-1.63,4.853 -0,10.578 -0,14.853c0.719,-0 2.698,6.413 2.698,7.65c1.328,-0 0.13,4.351 0.015,5.299c-0.223,1.821 3.136,3.737 3.136,5.493c1.687,0.865 2.698,4.161 2.698,5.854c0.187,-0 2.703,4.064 2.703,4.502c2.026,0.997 2.016,3.428 4.047,4.948c-0,1.929 2.828,3.963 3.604,6.301c1.594,4.811 9.448,7.794 9.448,12.599c0.375,0 1.802,2.458 1.802,3.15c2.172,1.088 3.875,4.883 5.844,6.524c1.073,0.891 3.151,3.425 3.151,4.727c1.776,1.66 7.198,5.249 7.198,7.649c1.547,0.761 3.146,3.592 3.604,5.402c1.552,1.333 6.75,5.623 6.75,7.65c3.328,2.217 4.411,8.884 9.437,9.033c1.995,0.057 2.459,0.346 3.61,-1.384c1.104,0 -0.198,-0.905 0.901,-0.905c0.713,-3.072 2.021,-5.611 2.474,-7.873c0.198,-0.967 1.64,-3.374 0.677,-3.374c-0.182,-3.32 -0,-6.768 -0,-9.45c0.916,0 2.104,-14.276 2.255,-16.646c1.802,-0 0.073,-5.697 -0.219,-6.724c-0.843,-2.981 0.219,-4.767 0.219,-7.229c0.25,0 1.344,-17.887 1.344,-19.802c-0,-2.154 0.219,-16.199 1.349,-16.199c-0,-1.947 0.786,-15.303 1.802,-15.303c-0,-2.122 0.541,-10.793 2.255,-10.793c0.385,-3.121 1.505,-4.58 -0.021,-7.579c-0.635,-1.253 -0.427,-10.426 0.469,-10.426c-0.391,-7.009 0.448,-11.589 0.448,-18.449c1.5,-0 -0.604,-7.197 0.901,-7.197c0.469,-3.8 1.411,-5.208 3.823,-8.103c2.901,-3.473 7.276,-5.503 11.922,-7.202c0.994,0 6.755,-0.868 6.755,0c1.864,0 5.771,0.759 6.75,2.702c4.937,-0 9.776,2.706 13.047,6.525c0.942,1.094 2.698,1.983 2.698,3.375c0.869,-0 0.786,1.29 1.802,1.798c-0,1.679 1.953,2.574 3.151,3.601c-0,1.219 1.182,2.442 2.25,3.152c-0,0.592 0.989,3.149 1.354,3.149c-0,2.265 0.896,4.848 0.896,6.974c-0,2.666 3.713,8.963 7.489,8.515c2.573,-0.312 2.886,-2.462 4.662,-3.784c-0,-0.759 1.864,-3.602 2.255,-3.602c0,-1.969 2.026,-3.946 3.333,-5.401c2,-2.207 4.417,-6.272 7.282,-7.263c4.968,-1.719 16.708,-3.103 19.078,-4.889c0.411,-1.622 2.911,-5.849 4.948,-5.849c0.843,-1.744 11.698,-3.962 11.698,-4.053c3.796,0.32 13.114,-2.718 15.755,-3.597c4.771,-1.591 60.302,-7.552 60.302,-4.948c2.344,-0 27.812,0.061 30.323,0.177c3.166,0.153 38.073,1.583 38.073,2.071c1.338,0 2.271,0.946 3.682,0.804c2.078,-0.21 19.177,2.797 22.307,2.797c4.943,0 7.256,1.424 12.386,1.579c1.932,0.063 21.474,3.599 21.474,4.27c1.635,0 3.896,2.045 5.854,2.696c-0,0.204 7.906,1.526 9.005,1.803c0,0.862 6.635,3.599 7.635,3.599c0,1.214 4.506,2.771 4.506,4.952c1.724,0.85 5.401,3.918 5.401,5.851c3.547,1.739 3.427,7.223 6.75,9.448c-0,1.742 1.354,1.162 1.354,3.152c0.88,-0 0.135,1.194 1.349,1.8c0.417,2.11 1.828,5.436 3.594,6.295c-0,1.522 1.359,1.801 1.796,3.608c0.98,-0 1.037,2.665 1.209,3.446c0.521,2.423 1.953,5.906 1.953,7.804c1.76,0 3.146,6.517 3.146,8.095c-0,4.478 1.802,8.991 1.802,13.054c-0,2.167 0.896,4.228 0.896,6.296l-0,8.549c-1.448,0 -1.438,12.071 -2.214,14.354c-1.375,4.028 -4.021,15.336 3.75,12.121c1.412,-0.579 3.865,-2.502 3.865,-3.973c1.734,-1.536 5.401,-4.14 5.401,-6.303c1.89,-0.96 1.588,-3.951 3.599,-4.948c-0,-2.089 1.802,-2.547 1.802,-4.5c1.995,-1.318 1.984,-4.385 4.052,-5.398c-0,-0.88 2.057,-4.5 2.698,-4.5c-0,-1.322 2.943,-8.101 3.599,-8.101c-0,-1.145 2.166,-8.999 2.698,-8.999c0.672,-4.761 3.26,-6.511 4.052,-11.253c0.828,0 1.349,-2.693 1.349,-3.599c1.495,-0.752 1.265,-2.177 2.708,-3.377c1.745,-1.455 1.505,-2.309 1.797,-4.496c0.312,-2.352 1.797,-4.334 1.797,-6.074c1.823,-0.925 1.463,-2.817 2.703,-4.054c1.521,-1.52 1.927,-3.188 4.042,-4.948c-0,-0.834 0.609,-3.153 1.359,-3.153c-0,-4.167 5.922,-6.613 8.995,-7.65c-0,-0.834 9.958,-2.248 11.25,-2.248c-0,-0.271 10.604,-2.702 11.703,-2.702c2.187,-0 15.297,-0.869 15.297,-1.797c4.015,0 21.286,-4.952 22.047,-4.952c-0,-1.363 63.177,-16.648 65.703,-16.648c-0,-1.231 26.995,-7.08 26.995,-7.654c1.234,-0.108 7.651,-0.514 7.651,-1.8c2.192,-0 3.213,-1.345 5.406,-1.345c-0,0.094 15.302,-3.585 15.302,-2.252c1.37,-0 5.401,0.087 5.401,1.347c2.125,-0 3.365,2.701 5.401,2.701c2,2.295 4.016,4.503 6.75,4.503c0,0.38 1.604,0.783 2.24,1.576c1.062,1.313 6.895,15.198 7.369,18.321c0.292,1.972 3.61,11.017 3.881,12.054" style="fill:#fff;"></path><path id="path30" d="M2595.25,276.941c1.755,0 10.177,1.347 12.375,1.347c0.843,0 3.375,-1.585 3.375,0c2.906,0.966 4.651,2.254 7.203,2.254c2.739,0 4.344,1.217 6.453,1.011c2.068,-0.193 3.88,-0.844 5.943,0.454c1.521,0.951 2.484,3.245 2.453,4.808c-0.037,1.459 -0.068,3.249 -0.901,4.524c-0.802,0.668 -36.808,5.398 -38.25,5.398c-0,2.259 -38.844,4.262 -43.287,4.673c-1.192,0.118 -4.864,-0.085 -4.864,-1.072c-2.735,-0.183 -8.313,0.692 -9,-1.347c-1.203,0 -0.808,-1.349 -2.245,-1.349c-0,-0.962 -2.234,-0.895 -3.005,-1.054c-0.828,-0.166 -5.094,-2.537 -5.094,-3c-2.99,-0.727 -11.214,-5.386 -10.151,-9.349c0.719,-2.686 2.87,-4.911 5.078,-6.48c3.005,-2.14 5.573,-1.546 9.12,-1.265c-0,-1.369 6.667,0.58 7.651,0.742c0.786,0.133 3.604,0.076 3.604,1.052c1.76,-0.177 27.151,-1.794 33.292,-1.794c-0,1.591 15.916,-1.756 20.25,0.447m-500.396,-153.452c3.302,0.907 3.396,6.652 3.802,9.348c0.292,1.974 1.302,17.202 2.047,17.202c-0.099,1.821 0.099,16.205 -0.901,16.205c-0,4.785 -1.349,8.179 -1.349,12.146c-1.792,0.895 -0.453,2.236 -2.25,3.154c-0,1.281 -3,4.384 -4.057,5.171c-3.042,2.285 -5.568,2.686 -9.636,2.008c-3.474,-0.574 -6.901,1.841 -10.411,2.252c-1.698,0.206 -8.297,0.079 -8.297,-1.782c-4.807,-3.855 -1.578,-8.634 -0.453,-13.053c0.583,-0 1.354,-3.03 1.354,-3.599c1.338,-0 1.531,-4.503 2.698,-4.503c-0,-1.398 2.333,-6.341 4.047,-7.196c-0,-2.39 2.25,-4.557 2.25,-7.202c1.52,0 1.422,-5.886 3.151,-6.75c-0,-1.964 2.489,-3.412 3.151,-5.396c0.833,-2.492 1.698,-3.123 2.25,-5.402c0.198,0 3.76,-6.479 4.052,-7.649c1.38,-0 -0.037,-2.702 1.349,-2.702c-0,-2.773 5.219,-4.303 7.203,-2.252m26.547,-88.202c2.146,-0 3.317,3.662 4.948,4.502c0.203,0.796 10.307,15.168 12.453,17.1c1.265,1.144 3.297,3.453 3.297,4.955c1.161,0.569 3.609,4.648 3.609,5.846c1.365,0.684 1.891,2.67 2.24,4.275c0.557,2.486 3.599,3.863 3.599,6.073c1.218,0.6 2.25,3.601 2.25,4.952c0.823,-0 1.802,3.054 1.802,4.05c1.494,0 2.276,18.175 2.479,19.802c0.562,4.545 2.922,8.035 2.922,12.15c1.672,0 1.854,10.346 3.151,10.346c-0,1.068 2.755,12.604 3.151,12.604c-0,1.963 1,11.698 2.255,11.698c0.099,0.906 0.688,6.297 1.339,6.297c-0,2.203 0.901,2.929 0.901,4.73c-0,2.85 0.515,10.356 5.276,10.946c2.64,0.325 5.073,-4.564 5.073,-6.222c0.656,0 1.578,-2.689 1.802,-3.601c2.432,-1.235 2.14,-5.589 4.51,-6.748c0.891,-2.757 2.755,-4.222 3.599,-6.751c0.823,-2.496 1.563,-3.871 3.589,-5.401c-0,-1.052 1.791,-3.602 2.708,-4.049c0.427,-1.672 1.349,-1.805 1.349,-3.147c0.687,-0.464 2.693,-2.43 2.693,-3.154c2.822,-0 3.484,-4.954 6.307,-4.954c0.76,-1.532 6.219,-6.073 6.901,-7.945c0.677,-1.878 0.568,-3.102 2.547,-3.749c-0,-0.157 3.271,-2.7 4.052,-2.7c-0,-0.688 4.099,-3.322 4.948,-3.603c2.172,-0.72 4.505,-1.15 4.505,-2.246c1.656,-0 9.729,-5.947 10.344,-7.203c2.312,0 3.135,-3.601 5.401,-3.601c0.677,-1.027 5.401,-3.092 5.401,-3.601c2.276,-0.553 2.521,-1.318 4.948,-1.796c0.635,-1.306 5.401,-2.812 5.401,-3.605c0.661,-0 2.698,-0.773 2.698,-1.343c1.739,-0.437 5.489,-2.016 6.307,-3.601c3.391,-0 7.448,-4.221 11.021,-4.73c3.484,-0.501 6.172,-2.492 9.677,-3.374c-0,-0.481 5.432,-2.038 6.297,-2.252c-0,-0.223 7.557,-1.688 8.854,-1.942c1.958,-0.391 3.219,-1.028 5.099,-1.659c0.943,-0.315 4.047,-1.798 4.047,-2.248c6.828,-1.139 21.219,-5.401 22.047,-5.401c-0,-0.519 4.791,-0.898 5.854,-0.898c-0,-0.527 3.698,-1.351 4.495,-1.351c-0,-0.498 7.338,-0.894 8.552,-0.894c-0,-2.021 21.677,-3.289 23.526,-3.293c2.208,-0.004 3.745,0.139 5.505,0.139c2.484,-0 3.953,-0.902 6.969,-0.902c2.416,0 6.385,0.462 8.896,1.801c1.677,0.901 3.364,1.8 5.057,2.702c0.583,1.18 2.698,0.905 2.698,1.798c2.864,0.723 4.885,3.695 6.599,6.151c1.593,2.274 3.859,2.97 5.854,5.249c1.651,1.888 2.797,4.008 4.646,5.255c-0,1.66 0.906,0.712 0.906,2.695c-0,2.259 2.385,3.341 4.042,4.725c2.823,2.356 2.687,7.218 5.854,8.774c1.328,2.159 1.526,5.229 1.802,7.65c1.364,0 2.802,6.392 3.146,7.65c1.547,-0 2.156,10.203 2.453,12.39c0.609,4.496 -0.203,9.064 -0.203,12.811c-0,2.356 0.531,14.852 -1.349,14.852c-0,0.942 -0.224,5.396 -0.901,5.396c-0,2.016 -1.349,3.135 -1.349,4.956c-0.969,-0 -2.86,10.61 -4.5,11.698c-0,1.333 -0.787,1.485 -1.802,2.248c-1.073,3.29 -3.485,4.588 -4.495,7.955c-0.61,2.027 -1.245,1.567 -1.807,3.742c-1.235,1.088 -3.594,2.352 -3.594,4.05c-1.011,0.507 -2.703,2.934 -2.703,4.053c-2.526,1.262 -3.464,4.502 -6.297,4.502c-0,0.6 -13.547,0.894 -14.854,0.894c-0,1.456 -5.907,-0.692 -6.745,-0.894c-1.011,-1.973 -1.917,-1.353 -3.375,-1.353c-1.818,0 -11.026,0.52 -11.026,-1.8c-2.011,-0 -3.125,-2.574 -5.401,-3.149c-0.573,-1.205 -3.354,-2.253 -4.495,-2.253c-0,-0.213 -2.557,-2.014 -3.307,-2.411c-1.052,-0.559 -2.193,-1.033 -3.094,-1.841c-0.625,-0.553 -1.037,-1.237 -1.255,-2.044c-0.912,-0.19 -1.636,-0.668 -2.167,-1.437c-1.979,-3.029 -2.677,-8.296 -2.068,-11.778c0.115,-0.701 0.636,-8.199 0.636,-11.088c0.646,0 0.026,-4.496 -0.448,-4.496c-0,-1.953 1.292,-12.25 2.776,-15.076c1.463,-2.783 1.271,-5.361 1.271,-8.551c-0,-1.977 -1.323,-6.514 -3.151,-7.426c-0,-1.688 -3.469,-3.147 -4.943,-3.147c-2.391,0 -6.734,-0.295 -9.005,0.448c-0,0.502 -3.761,1.884 -4.719,2.024c-2.266,0.326 -4.766,1.129 -6.979,1.129c-0,0.383 -3.245,1.595 -4.052,1.801c-0,0.751 -5,1.367 -6.302,1.801c-2.771,0.923 -3.464,3.326 -6.297,4.048c-0,1.556 -4.5,1.333 -4.5,2.248c-2.547,0.509 -3.068,1.669 -5.396,2.248c-2.12,2.651 -4.052,3.154 -6.307,5.853c-3.433,1.136 -4.433,2.143 -7.203,4.495c-0,2.002 -3.349,3.396 -4.495,4.728c-1.912,2.238 -3.927,2.759 -5.854,5.178c-1.391,-0 -6.297,4.903 -6.297,6.296c-2.058,1.376 -2.407,3.382 -4.495,4.954c-0,1.964 -3.151,2.941 -3.151,4.948c-2.339,2.041 -4.057,3.669 -4.958,6.304c-1.151,0.579 -4.042,4.075 -4.042,5.395c-1.667,0.84 -3.167,4.061 -3.604,5.855c-1.766,1.414 -2.313,3.174 -4.052,4.049c-0,1.567 -1.349,2.258 -1.349,3.597c-0.396,-0 -3.62,4.15 -3.823,5.172c-0.219,1.127 -2.229,7.425 -2.927,7.425c-0,3.416 -2.979,6.196 -3.302,10.957c-0.209,3.025 0.494,5.954 0.26,9.073c-0.047,0.737 -1.083,3.371 0.349,3.371c-0,2.59 3.198,3.459 4.495,5.402c2.864,0.718 3.536,2.58 6.057,3.749c1.208,0.56 1.922,1.038 2.724,2.1c0.984,1.312 2.172,0.789 2.917,2.248c2.119,0 3.109,3.601 4.948,3.601c1.015,1.99 3.994,2.086 5.625,4.055c1.448,1.73 11.031,6.419 11.031,8.545c1.521,0 4.062,2.269 4.953,3.601c1.542,0 0.562,1.801 2.693,1.801c0.692,-0 3.151,0.295 3.151,0.895c1.255,-0 3.427,1.454 4.052,2.706c1.823,-0 3.354,2.634 5.401,3.147c-0,1.892 8.099,2.696 8.099,4.055c2.666,-0 5.135,2.696 7.656,2.696c0,1.478 8.099,2.081 8.099,3.601c3.818,0.238 7.146,0.433 10.797,1.642c3.599,1.21 6.693,2.406 10.495,2.406c2.323,0 12.453,0.438 12.453,-0.453c1.781,-0 14.396,0.168 14.396,-0.896c2.474,0 3.515,-0.899 5.849,-0.899c-0,-1.241 6.119,-1.247 7.656,-1.353c-0,-0.687 6.135,-3.595 7.198,-3.595c0.51,-1.029 1.802,-0.931 1.802,-1.806c2.135,-0 2.724,-1.608 4.047,-3.144c1.432,0 6.052,-2.828 6.974,-4.048c1.448,-1.923 4.463,-4.954 6.984,-4.954c0.464,-0.956 3.349,-2.249 4.495,-2.249c-0,-1.318 4.458,-0.803 5.396,-0.453c-0,1.104 0.901,-0.198 0.901,0.901c2.114,0 2.547,1.913 3.599,3.601c1.771,0.59 2.552,0.391 3.151,2.248c1.026,0.513 0.63,1.353 1.354,1.353c-0,1.398 2.693,2.452 2.693,3.144c3.776,2.919 9.453,-1.75 9.453,-4.944c3.531,-0 0.135,-28.351 1.797,-28.351c-0,-3.442 2.708,-7.507 2.708,-11.251c1.427,0 1.344,-10.345 3.141,-10.345c-0,-3.481 1.916,-6.13 3.151,-9.904c1.255,-0 1.296,-9.451 3.151,-9.451c-0,-1.417 3.218,-11.702 4.057,-11.702c-0,-1.18 3.401,-11.699 4.042,-11.699c-0,-0.64 0.864,-3.601 1.359,-3.601c-0,-0.61 1.719,-4.496 2.245,-4.496c0.312,-1.871 3.416,-9.897 4.5,-9.897c-0,-2.747 2.828,-5.571 3.375,-8.328c0.317,-1.57 2.021,-3.2 2.021,-4.724c0.77,-0 2.145,-4.425 3.599,-5.402c-0,-1.393 0.406,-0.732 0.906,-2.702c0.599,0 0.739,-2.685 0.932,-3.456c0.844,-3.412 0.932,-7.098 -0.036,-10.494c-0,-2.665 -0.683,-4.73 -0.922,-7.306c-0.172,-1.809 0.922,-4.148 0.922,-6.641c0.557,0 1.849,-8.097 3.156,-8.097c-0,-1.699 2.958,-9.005 4.5,-9.005c0.578,-2.266 1.385,-6.966 3.37,-8.551c1.51,-1.202 2.979,-4.946 5.177,-4.946c1.39,-2.085 3.364,-2.512 5.182,-4.732c2.026,-2.48 3.25,-3.371 6.073,-3.371c-0,-1.398 9.255,-2.191 11.25,-2.834c3.599,-1.154 7.198,-2.307 10.792,-3.467c4.052,0 6.64,-0.506 10.578,-0.783c4.526,-0.326 38.927,-6.673 38.927,-5.961c4.062,0 33.937,-6.236 40.838,-6.645c6.308,-0.364 12.927,-3.652 19.912,-4.006c2.255,-0.124 17.099,-0.559 17.099,-1.953c6.104,-0 10.281,-0.45 15.302,-0.45c-0,-1.218 10.531,-1.8 12.375,-1.8c4.948,-0 28.25,-4.443 29.927,-4.728c2.13,-0.357 7.719,-0.515 10.021,-1.557c2.224,-1.017 21.515,-4.828 23.724,-4.964c-0,-1.495 8.099,-2.569 8.099,-4.051c1.661,0 13.057,-0.994 13.057,-1.798c3.599,-0.521 6.052,-0.987 9.531,0.177c1.62,0.545 3.24,1.084 4.86,1.621c1.234,1.365 3.057,4.499 4.958,4.499c0.875,1.17 3.141,2.939 3.141,4.048c2.38,1.984 4.546,4.836 6.76,6.301c0,1.547 1.792,2.295 1.792,4.049c1.161,-0 2.531,4.655 4.052,5.401c0.937,2.855 3.25,4.492 4.052,7.657c0.484,-0 2.698,5.224 2.698,6.296c0.567,-0 1.666,6.297 2.703,6.297c-0.151,1.795 2.583,36.902 -0,36.902c-0,2.612 -0.203,4.459 -2.688,6.067c-2.276,1.465 -5.448,3.021 -7.88,2.252c-2.474,-0.777 -2.416,-0.218 -4.729,-0.218c-3.964,0 -7.292,-0.445 -11.146,-1.353c-4.479,-1.058 -22.161,-2.248 -28.005,-2.248c-3.167,0.895 -6.49,0.895 -9.76,0.895c-3.084,0 -5.037,0.905 -7.792,0.905c-2.792,0 -4.995,0.509 -7.703,0.936c-2.787,0.438 -4.245,-0.386 -6.474,-0.712c-0.75,-0.107 -4.281,0.469 -4.281,1.123c-3.48,0 -8.308,-0.86 -11.599,0.265c-2.386,0.82 -17.589,0.698 -20.011,1.318c-1.687,0.432 -4.359,1.282 -5.745,1.117c-3.083,-0.38 -4.906,-0.557 -7.901,0.383c-3.052,0.952 -5.25,0.071 -7.614,0.071c-2.61,-0 -5.953,0.352 -9.229,0.901c-0,0.936 -9.427,0.895 -10.849,0.924c-1.948,0.053 -17.49,1.823 -17.49,1.772c-2.286,0.214 -20.708,1.326 -20.708,1.353c-5.505,0.539 -7.459,2.187 -12.891,2.4c-2.161,0.08 -33.911,4.039 -33.911,5.249c-3.068,0.768 -2.584,1.852 -4.948,3.825c-3.235,2.696 -5.261,4.059 -8.552,6.525c-0,1.587 -2.474,3.854 -3.146,5.849c-1.068,0 -0.724,2.702 -1.802,2.702c-0,2.452 -6.729,11.495 -6.901,13.651c-0.354,4.64 0.125,7.193 3.755,10.198c5.052,-0 9.437,1.348 14.849,1.348c-0,0.951 6.219,0.733 7.198,0.676c3.776,-0.21 6.765,0.401 10.802,0.677c5.208,0 9.963,0.534 15.417,1.363c2.729,0.408 4.427,-0.467 6.635,-0.467c-0,-0.735 7.484,-0.8 8.484,-0.77c1.328,0.047 13.766,-1.926 15.818,-1.926c0,0.447 10.469,-2.499 11.698,-2.702c3.016,-4.523 7.75,-4.378 12.594,-3.149c-0,-0.035 3.948,1.802 4.505,1.802c0.609,0.802 4.047,2.843 4.047,3.148c0.833,-0 3.604,0.962 3.604,1.8c2.203,0 2.99,3.282 4.495,4.049c-0,1.054 14.854,23.779 14.854,25.651c2.151,1.115 2.245,5.157 2.245,7.202c-0,2.826 0.901,4.128 0.901,6.521c-0,3.336 0.041,6.673 0.047,10.01c0.01,2.522 -0.375,14.516 -2.75,14.516c-0,1.709 -0.735,3.015 -2.24,4.276c-1.99,1.648 -6.755,6.714 -6.755,9.674c-0.943,2.244 -9.459,7.29 -9.459,8.103c-3.734,0 -6.807,1.221 -10.343,2.402c-2.354,0.783 -4.453,2.543 -6.297,2.543c-0,0.909 -3.495,2.105 -4.281,3.153c-3.105,4.14 2.416,9.43 5.63,12.374c1.713,1.573 3.484,3.037 4.047,5.177c3.146,0.617 5.38,3.374 6.302,6.304c-0,6.133 -1.052,35.542 -2.245,35.542c-0,1.622 -5.359,18.64 -9.13,20.111c-1.959,0.763 -19.729,9.593 -23.271,9.593c-0,3.693 -69.313,10.437 -77.849,10.396c-1.25,-0.005 -13.958,0.723 -13.958,-0.952c-4.328,0 -9.558,-1.387 -13.5,-2.696c-1.792,-0.593 -21.927,-5.069 -23.849,-9.002c-1.198,-0 -4.11,-2.324 -4.948,-3.371c-0.828,-1.048 -4.698,-3.378 -5.844,-3.378c-0.687,-1.349 -1.771,-1.332 -3.161,-1.8c-0.855,-1.078 -1.245,-2.248 -2.693,-2.248c-1.396,-2.112 -4.323,-4.13 -6.302,-6.297c-0.771,-0 -3.599,-1.77 -3.599,-2.248c-1.62,-1.088 -0.802,-1.542 -2.255,-2.255c-0,-2.36 -2.146,-2.532 -3.151,-4.5c-1.881,0 -4.62,-3.526 -5.849,-4.954c-1,-0.512 -3.146,-3.509 -3.146,-4.496c-2,-1.593 -2.167,-3.058 -3.604,-4.496c-0.698,-0.712 -4.495,-2.325 -4.495,-1.801c-3.537,-0 -5.318,8.097 -6.755,8.097c-0,1.582 -1.735,3.26 -2.021,4.955c-0.141,0.803 -1.49,5.391 -2.469,5.391c0,1.404 -2.583,6.942 -4.057,7.65c-0,0.864 -4.276,7.66 -4.495,7.66c-0,1.271 -1.833,3.615 -2.927,4.49c-2.188,1.755 -2.037,4.36 -4.281,5.855c-2.323,2.716 -4.532,3.581 -6.745,5.941c-2.511,2.669 -5.36,6.643 -8.771,7.334c-3.38,0.682 -5.49,2.92 -9.005,2.92c-1.953,-0 -3.433,0.966 -6.078,1.129c-3.985,0.238 -7.506,0.844 -11.881,1.038c-5.328,0.223 -11.979,-1.069 -17.906,-1.353c-3.062,-0.143 -6.443,-0.814 -8.906,-0.814c-2.188,-0 -3.219,-1.349 -5.401,-1.349c-0.74,-0 -5.854,1.033 -5.854,-0.442c-2.412,-0.406 -2.974,-1.251 -4.953,-1.576c-3.516,-0.59 -5.943,-2.712 -9.589,-3.079c-2.885,-0.288 -4.036,-1.519 -6.604,-1.953c-1.073,-0.177 -6.302,-1.031 -6.302,-2.394c-0.948,-0.122 -5.849,-0.688 -5.849,-1.801c-2.016,0 -3.188,-1.698 -5.401,-2.254c-0,-1.174 -9.005,-3.127 -9.005,-3.601c-0.829,-0 -4.495,-0.784 -4.495,-1.801c-2.37,0 -4.078,-3.601 -6.75,-3.601c-0,-0.777 -5.281,-3.147 -6.297,-3.147c-0,-0.478 -3.255,-2.248 -4.052,-2.248c-1.198,-2.364 -4.24,-1.668 -5.401,-4.049c-1.11,-0 -3.557,-1.689 -4.047,-2.706c-0.88,0 -2.422,-0.616 -3.156,-1.349c-0.979,-0.976 -3.047,-2.211 -4.495,-2.696c-1.958,-2.36 -3.625,-3.204 -5.854,-4.5c-1.698,0 -4.651,-2.417 -5.844,-3.825c-1.474,-1.708 -3.036,-2.736 -4.953,-3.377c-0.833,-1.638 -3.287,-2.299 -4.505,-3.831c-1.917,-2.394 -4.646,-2.699 -6.297,-5.171c-3.802,-2.686 -6.797,-7.101 -10.802,-8.098c-3.287,-4.13 -7.25,-5.717 -10.646,-9.603c-1.427,-1.617 -2.307,-1.699 -2.854,-3.896c-1.068,-0.864 -2.25,-1.247 -2.25,-2.702c-0.901,-1.102 -1.969,-0.339 -2.698,-1.8c-1.328,-0 -7.646,-8.234 -7.646,-10.35c-3.557,-2.651 -3.99,-7.426 -7.646,-9.898c0,-1.509 -0.901,-0.742 -0.901,-2.248c-1.781,-1.18 -1.599,-2.471 -3.036,-4.049c-1.24,-1.352 -2.48,-2.705 -3.714,-4.054l-4.062,-0c0.135,1.044 -0.172,1.495 -0.896,1.355c-0,1.392 -2.891,10.797 -3.599,10.797c-0.339,7.294 -1.87,14.51 -1.641,21.81c0.198,6.337 2.542,12.634 2.542,18.839c-0,7.766 0.896,15.07 0.896,22.353c-1.422,0 -0.771,11.492 -1.047,13.601c-0.261,1.99 -0.703,4.981 -2.552,6.197c-0,1.347 -1.75,5.151 -2.104,6.915c-0.688,3.424 -2.62,5.921 -4.938,8.962c-1.354,1.787 -3.536,3.201 -5.557,4.365c-0,1.19 -3.604,1.515 -3.604,2.254c-1.089,-0 -7.198,0.411 -7.198,-0.448c-2.631,0 -0.224,-0.447 -2.24,-0.447c0,-1.028 -2.917,0.03 -3.604,0.146c-2.255,0.376 -3.495,-0.492 -5.703,-0.899c-1.417,-0.254 -7.354,-2.079 -7.354,-3.296c-2.782,-0 -7.907,-1.689 -9.667,-4.048c-1.172,-1.567 -3.818,-4.721 -5.182,-5.403c-0.61,-1.871 -3.151,-3.515 -3.151,-5.401c-4.23,-2.187 -3.823,-10.427 -4.047,-14.852c-2.183,-7.721 -1.407,-16.418 -1.672,-24.363c-0.167,-5.341 -0.25,-11.206 0.62,-15.987c1.083,-5.904 0.604,-11.678 0.604,-18c-0,-3.774 -4.089,-9.043 -8.104,-10.05c-0,-2.492 -15.74,-1.902 -15.74,-0.895c-6.745,-0.163 -14.479,-0 -20.484,-0c-0.828,-0 -8.771,2.391 -8.771,2.696c-3.667,-0 -6.641,1.8 -9.901,1.8c-0,0.143 -11.776,2.94 -13.495,3.148c0,0.86 -9.458,0.982 -9.458,2.701c-0.761,0 -3.146,1.129 -3.146,1.801c-2.172,0.533 -3.495,1.8 -5.401,1.8c-2.365,2.757 -5.063,5.036 -7.511,7.691c-0.869,0.946 -3.151,6.704 -3.739,6.704c-0.339,1.027 -2.198,4.506 -2.703,4.506c-0,1.668 -1.802,2.689 -1.802,4.502c-1.657,1.093 -1.547,3.26 -3.146,4.047c-0,0.556 -1.828,4.496 -1.802,4.496c-0.349,2.533 -1.349,3.811 -1.349,5.855c-1.157,0 -5.933,15.3 -7.203,15.3c-0.558,2.283 -1.219,1.764 -1.797,4.043c-1.641,1.09 -1.12,2.366 -2.698,3.159c-1.354,3.737 -3.271,6.185 -4.495,9.898c-1.021,0.502 -0.63,1.347 -1.349,1.347c0,1.587 -1.594,2.356 -2.708,3.377c-2.589,2.376 -4.776,3.801 -7.198,6.521c-2.677,0.891 -6.12,5.784 -9.292,3.017c-1.995,-1.75 -24.531,-13.159 -27.161,-13.814c-1.224,-1.638 -4.047,-2.682 -4.047,-4.503c-2.537,-1.245 -4.016,-10.797 -4.948,-10.797c-0.651,-4.628 -2.266,-9.405 -2.484,-14.533c-0.053,-1.143 0.255,-4.364 1.135,-4.364c-0,-1.606 -0.516,-8.549 0.891,-8.549c1.125,-4.41 2.703,-7.72 4.057,-13.413c0.911,-3.859 5.396,-7.206 5.396,-11.342c0.677,-0 1.797,-2.378 1.797,-3.148c1.994,-1.322 2.01,-2.964 4.057,-4.502c-0,-0.971 1.354,-4.053 2.25,-4.494c-0,-1.274 3.739,-5.855 4.505,-5.855c0,-1.923 3.073,-7.162 4.943,-8.098c1.239,-3.79 4.948,-7.466 4.948,-11.251c1.932,0 2.161,-7.649 3.599,-7.649c-0,-1.638 1.453,-3.296 1.802,-5.402c0.984,0 1.802,-3.916 1.802,-4.95c2.531,0 2.745,-10.797 4.495,-10.797c-0,-1.77 0.906,-3.042 0.906,-5.554c-0,-2.421 -0.724,-4.684 -0.193,-7.732c0.474,-2.644 0.849,-5.183 1.089,-7.863c1.25,-2.372 4.073,-4.028 5.854,-6.002c1.562,-1.739 2.193,-2.876 4.505,-3.448c1.073,-1.648 2.37,-1.119 3.146,-2.706c2.068,0 4.307,-3.291 6.146,-4.944c2.364,-2.126 3.953,-4.63 5.015,-7.834c0.48,-1.433 1.672,-6.57 2.782,-6.57c-0,-1.526 3.427,-7.558 4.505,-8.097c-0,-2.411 2.656,-4.375 3.604,-7.203c1.13,-3.397 3.047,-4.618 4.042,-8.551c1.218,-0.604 2.255,-3.584 2.255,-4.948c0.515,0 2.239,-3.889 3.146,-4.504c-0,-1.961 2.609,-2.978 2.932,-5.17c0.109,-0.803 2.099,-6.073 2.922,-6.073c-0,-1.759 1.521,-3.234 2.245,-5.401c1.468,-0.749 1.067,-4.049 2.255,-4.049c-0,-2.044 1.729,-3.774 2.255,-5.855c1.214,-0.604 2.167,-4.042 3.146,-4.042c-0,-2.357 3.599,-4.741 3.599,-7.203c1.219,0 1.307,-3.82 2.698,-4.504c1.328,-5.39 7.651,-7.886 7.651,-13.501c1,-0.499 2.698,-2.543 2.698,-3.599c1.515,-1.019 2.234,-2.216 2.708,-4.051c2.787,-1.396 3.245,-6.348 5.844,-7.65c-0,-0.956 3.01,-5.849 3.599,-5.849c1.172,-3.448 8.552,-6.887 8.552,-10.346c0.594,0 1.797,-2.034 1.797,-2.705c1.682,-1.557 3.364,-3.117 5.036,-4.682c1.766,-1.635 3.349,-3.442 4.974,-5.216c1.75,-1.898 4.448,-2.452 5.292,-4.95c2,-1.601 5.682,-3.737 6.75,-5.849c1.604,-0 2.755,-2.747 4.052,-3.825c1.943,-1.621 2.463,-2.746 4.948,-3.379c2.812,-5.485 12.87,-2.104 17.099,-1.569c0.682,0.085 3.156,0.523 3.156,1.123c1.406,-0 4.146,0.193 5.964,0.759c2.822,0.885 7.994,2.197 8.88,5.538" style="fill:#fff;"></path><path id="path32" d="M512.659,117.192c-0.34,2.981 -1.351,4.358 -1.351,6.744c-0.466,0 -2.704,4.317 -2.704,4.952c-0.988,0.49 -3.147,3.898 -3.147,4.948c-0.973,0.739 -2.712,3.603 -3.149,3.603c-0.855,2.611 -3.205,4.401 -5.402,6.415c-1.644,1.499 -4.189,6.637 -6.297,6.637c-0.515,1.007 -1.8,0.942 -1.8,1.8c-1.677,0 -2.58,1.954 -3.603,3.15c-1.148,-0 -4.494,2.695 -5.17,3.601c-0.857,1.129 -2.332,1.77 -3.601,2.024c-2.252,0.448 -4.653,0.991 -7.526,0.531c-2.197,-0.348 -2.148,-2.993 -2.148,-4.81c-1.367,0 0.948,-14.247 1.194,-15.747c0.419,-2.526 1.503,-3.92 1.503,-5.849c1.578,0 -0.229,-8.103 1.349,-8.103c0,-2.847 0.902,-3.589 0.902,-6.301c0.84,-0 0.447,-7.322 0.447,-8.549c1.239,-4.283 0.051,-7.699 -0.231,-12.095c-0.143,-2.157 1.114,-11.302 2.034,-11.302c-0,-2.238 3.204,-6.276 5.397,-8.097c4.946,0.071 7.27,2.695 11.701,2.695c-0,0.55 7.322,3.49 8.996,4.049c1.78,2.366 4.735,3.479 6.303,5.849c1.945,0 2.674,2.686 4.049,3.601c-0,0.753 1.494,4.049 1.802,4.049c0.992,3.011 1.472,4.645 1.687,8.101c0.063,0.985 0.651,8.104 -1.235,8.104Zm101.699,183.146c-0.177,0 -1.917,-5.29 -2.25,-6.297c-1.344,-1.078 -3.432,-2.38 -4.052,-3.601c-2.307,-0.773 -1.969,-4.502 -4.5,-4.502c-1.354,-1.194 -2.313,-2.893 -3.599,-4.5c-4.698,-1.171 -5.448,-7.066 -9.896,-8.546c-2.276,-0.762 -3.146,-2.146 -5.406,-2.699c-0.401,-0.82 -3.521,-2.702 -4.5,-2.702c-1.328,-1.994 -2.959,-2.004 -4.5,-4.049c-0.787,0 -4.948,-2.624 -4.948,-3.153c-2.526,-0.631 -3.005,-1.349 -5.849,-1.349c-1.469,-1.693 -4.526,-6.749 -6.75,-6.749c-0.443,-0.874 -3.99,-3.153 -4.953,-3.153c-1.823,-2.187 -3.495,-3.082 -5.401,-5.178c-2.032,-2.227 -2.813,-4.516 -4.948,-6.297c-1.776,-1.475 -5.401,-3.896 -5.401,-6.073c-1.433,0 -1.12,-4.74 -0.667,-5.706c0.787,-1.669 2.219,-2.757 3.547,-3.958c1.526,-1.377 2.521,-3.143 2.521,-4.736c1.26,0 8.39,-7.493 9.422,-9.23c1.317,-2.212 2.547,-3.471 4.526,-5.168c0.463,-1.4 0.453,-2.47 1.802,-3.154c0.203,-1.013 1.26,-4.949 2.255,-4.949c0,-2.029 3.385,-3.89 3.823,-6.074c0.609,-3.065 3.823,-5.161 3.823,-8.325c0.953,0 3.151,-8.703 3.151,-9.898c1.583,0 -0.234,-8.103 1.354,-8.103c0,-0.777 0.885,-4.502 1.344,-4.502c0.609,-2.44 1.802,-3.28 1.802,-5.624c-0,-2.268 1.229,-4.266 1.797,-6.522c0.312,-0 1.354,-3.443 1.354,-4.047c1.245,0 0.896,-5.068 0.896,-6.421c-0,-3.102 -0.229,-6.946 -0.073,-10.685c0.104,-2.385 -0.823,-3.168 -0.823,-5.843c-0.188,0 1.068,-9.003 -1.354,-9.003c-0,-4.1 -1.797,-7.07 -1.797,-10.803c-0.62,-0 -2.703,-6.531 -2.703,-7.65c-0.906,0 -1.636,-5.005 -1.797,-6.297c-0.636,0 -1.802,-3.133 -1.802,-4.048c-2.328,0 -1.854,-10.356 -4.5,-10.356c-0,-2.309 -3.599,-3.609 -3.599,-5.849c-0.87,-0 -7.938,-11.973 -8.552,-15.3c-0.641,0 -2.099,-3.509 -2.922,-4.502c-1.359,-1.634 -6.078,-5.381 -6.078,-7.196c-1.62,-1.101 -3.11,-4.954 -5.396,-4.954c-2.662,-3.09 -3.677,-3.622 -7.505,-4.797c-3.912,-1.205 -2.427,-3.148 -4.875,-5.101c-2.63,-2.116 -3.438,-2.702 -6.971,-3.153c-0,-1.72 -9.898,-1.19 -9.898,-2.696c-5.161,-0 -9.99,-2.702 -14.858,-2.702c-0,-0.706 -4.02,-2.303 -4.83,-2.364c-1.689,-0.112 -3.377,-0.224 -5.068,-0.336c-0.635,-1.287 -1.349,-1.084 -2.693,-1.349c-0,-1.56 -8.275,-3.147 -9.905,-3.147c0,-0.03 -11.655,-1.801 -12.821,-1.801c-2.71,0 -15.977,0.656 -15.977,3.148c-1.947,-0 -2.185,0.901 -4.504,0.901c-0,0.371 -5.911,0.899 -6.749,0.899c0,1.522 -8.097,1.715 -8.097,3.15c-2.594,-0 -6.01,2.014 -8.551,4.507c-0.91,1.342 -3.86,4.042 -5.402,4.042c-1.068,2.163 -4.498,3.536 -4.498,5.849c-5.262,3.566 -5.485,11.393 -8.777,16.876c-2.871,4.787 -3.911,8.378 -3.644,13.729c0.258,5.208 -0.568,9.139 0.967,14.587c0.633,2.259 1.106,4.676 1.106,6.56c0.542,-0 1.801,3.601 1.801,4.498c0.504,0 2.24,3.896 3.147,4.507c0,1.061 1.608,3.499 2.698,4.048c-0,0.895 3.768,5.931 4.502,6.297c0.853,1.272 3.587,3.196 3.866,4.68c0.173,0.931 1.628,6.123 0.181,6.123c-0,1.866 -0.962,2.649 -1.349,4.948c-1.862,0 -3.601,8.85 -3.601,10.352c-1.237,-0 -1.609,9.45 -3.147,9.45c-0,6.785 -5.109,11.054 -6.074,17.771c-0.398,2.798 -1.58,4.944 -1.58,6.979c-0.572,-0 -1.347,2.034 -1.347,2.695c-0.653,0 -1.353,2.707 -2.248,3.154c-0,1.892 -2.444,3.204 -3.599,4.95c-1.133,-0 -2.484,0.675 -4.053,0.899c-0,0.993 -3.296,0.446 -4.047,0.446c0,0.805 -4.485,0.907 -5.401,0.907c-0,-0.027 -3.988,2.838 -4.525,4.202c-1.031,2.624 -0.447,4.862 -3.235,6.506c-2.504,1.479 -3.727,1.977 -4.168,4.591c-0.444,2.666 -0.933,5.752 -1.126,8.997c-0.779,2.791 -0.221,5.87 -0.234,8.724c-0.009,3.182 -0.807,6.256 -0.516,9.461c0.291,3.23 1.373,6.264 2.551,9.267c0.344,2.004 1.355,3.078 1.355,4.496c1.65,0.828 2.997,4.507 3.595,6.307c1.965,1.556 3.003,2.934 4.502,4.944c0.639,-0 2.129,3.601 3.152,3.601c-0,3.123 0.283,5.141 -0,8.555c-0.692,0 -1.036,16.205 -1.176,18.178c-0.466,6.373 -2.425,12.299 -2.425,17.816c-0,1.19 -1.756,13.054 -2.249,13.054c0,4.877 -0.089,11.34 -0.681,16.803c-0.082,0.742 -1.766,6.144 -0.22,6.144c0.151,3.902 0.301,7.798 0.452,11.705c0.486,-0 2.791,8.905 3.147,10.345c0.355,-0 1.351,3.337 1.351,4.049c0.179,-0 2.698,3.656 2.698,4.506c2.159,1.408 1.837,3.839 4.051,4.944c-0,1.499 2.622,3.082 3.824,4.049c4.228,3.387 6.721,8.727 12.372,9.79c4.236,0.789 13.505,0.718 13.505,1.912c1.701,0.169 3.762,0.159 4.95,-0c4.277,0.285 6.334,0.738 9.9,-1.801c0,-1.383 2.364,-5.222 3.599,-5.853c0,-1.827 2.246,-2.299 2.246,-4.045c1.535,-0.756 1.144,-4.948 2.253,-4.948c-0,-1.759 1.8,-3.377 1.8,-5.401c0.74,-0 -0.448,-13.631 -0.448,-15.3c-1.8,0 -1.149,-11.647 -1.239,-13.275c-0.156,-2.868 -1.011,-6.459 -1.011,-9.226c0,-2.346 -1.355,-4.913 -1.355,-7.375c0,-3.265 0.277,-6.531 -0.465,-9.705c-0.56,-2.39 -1.162,-5.249 -0.432,-7.67c0.625,0 2.702,-11.088 2.702,-12.152c1.302,0 4.946,-8.746 4.946,-9.896c1.688,-0.84 2.529,-3.922 4.689,-4.319c3.095,-0.57 3.396,-0.655 6.114,1.77c1.656,1.475 3.849,6.144 6.299,6.144c0.861,1.72 4.372,4.151 6.03,5.941c1.758,1.892 3.54,1.384 5.221,3.062c0.901,0.906 3.044,1.886 4.502,2.248c1.754,3.577 7.224,4.327 9.45,7.65c1.487,-0 5.02,3.241 6.075,4.5c1.549,1.858 3.876,3.312 6.071,4.049c0.84,1.701 3.372,2.346 4.501,4.054c2.407,1.801 3.953,3.195 6.04,5.02c1.553,1.353 3.813,4.878 5.662,4.878c1.559,1.774 3.685,5.015 5.402,5.85c1.245,1.682 3.369,2.675 4.044,4.048c2.175,1.628 2.541,3.51 4.505,5.253c1.557,1.384 4.193,5.998 6.292,5.998c-0,1.851 3.802,3.758 4.505,5.849c2.39,2.171 4.734,4.222 6.75,6.749c2.031,-0 4.401,3.302 5.849,4.95c2.604,-0 3.719,4.506 6.302,4.506c-0,0.635 3.677,2.015 4.724,2.242c4.177,0.926 6.359,3.176 11.443,2.997c1.656,-0.067 11.281,0.712 11.281,-1.196c2.474,-0 9.041,-3.433 9.906,-6.749c1.432,-0.427 2.865,-1.342 4.047,-1.342c0.953,-1.964 3.599,-3.242 3.599,-5.408c0.437,-0.747 1.427,-2.7 1.797,-2.7c0.552,-2.187 3.604,-3.53 3.604,-5.401c1.427,-1.227 4.948,-3.964 4.948,-5.844c1.161,-1.009 2.698,-0.861 2.698,-2.702c3.297,-2.201 4.052,-6.713 4.052,-10.351c-0,-6.144 -0.448,-13.767 -0.448,-19.8" style="fill:#fff;fill-rule:nonzero;"></path></g></g></g></g></g></svg>