<svg xmlns="http://www.w3.org/2000/svg" xmlns:xlink="http://www.w3.org/1999/xlink" xmlns:serif="http://www.serif.com/" width="100%" height="100%" viewBox="0 0 750 171" xml:space="preserve" style="fill-rule:evenodd;clip-rule:evenodd;stroke-linejoin:round;stroke-miterlimit:2;"><g id="Page-1"><g id="our-logo-full"><g id="Group-15"><g id="Fill-13-Clipped"><path id="Fill-13" d="M114.817,170.313l-25.971,-14.761l-0,-48.661l-63.423,63.422l-25.423,-14.761l49.343,-107.223l-11.033,8.206l-17.261,-23.729l51.254,-32.806l25.564,14.491l-36.496,77.567l36.507,-36.551l21.859,12.291l-0.098,54.303l14.735,-14.318l18.168,24.805l-37.725,37.725Z" style="fill:#fff;fill-opacity:0.72;fill-rule:nonzero;"></path></g></g></g></g><g><path id="Fill-1" d="M426.863,101.393c3.888,6.469 12.401,11.45 19.353,11.45c6.832,0 11.386,-3.355 11.386,-8.269c0,-4.795 -3.476,-8.15 -11.866,-11.028l-7.191,-2.516c-13.663,-4.794 -20.975,-12.705 -20.975,-24.331c-0,-16.062 12.225,-25.53 28.766,-25.53c10.427,0 19.978,3.71 27.707,12.619l-11.83,11.5c-4.007,-5.09 -9.884,-7.819 -15.758,-7.819c-5.873,0 -11.386,2.518 -11.386,7.551c0,5.155 4.195,7.432 13.184,10.668l6.832,2.517c12.466,4.554 20.255,12.465 20.255,25.289c-0.119,15.222 -12.224,25.651 -29.843,25.651c-13.544,-0 -25.154,-6.101 -31.267,-15.45l12.632,-12.302Z" style="fill:#fff;fill-rule:nonzero;"></path><path id="Fill-3" d="M518.853,101.991c3.888,6.469 12.999,10.853 19.951,10.853c6.832,0 11.387,-3.356 11.387,-8.27c0,-4.795 -3.477,-8.15 -11.866,-11.028l-7.192,-2.516c-13.664,-4.795 -20.975,-12.705 -20.975,-24.331c-0,-16.062 12.225,-25.53 28.766,-25.53c10.427,-0 19.978,3.71 27.707,12.619l-11.83,11.5c-4.007,-5.09 -9.884,-7.819 -15.757,-7.819c-5.873,0 -11.387,2.518 -11.387,7.551c0,5.155 4.195,7.432 13.184,10.669l6.832,2.516c12.466,4.554 20.256,12.465 20.256,25.289c-0.12,15.222 -12.225,25.65 -29.844,25.65c-13.544,0 -25.752,-5.502 -31.864,-14.851l12.632,-12.302Z" style="fill:#fff;fill-rule:nonzero;"></path><path id="Fill-5" d="M195.34,42.607l17.38,0l-0,33.92l36.916,0l-0,-33.92l17.379,0l0,85.099l-17.379,0l-0,-34.639l-36.916,0l-0,34.639l-17.38,0l0,-85.099Z" style="fill:#fff;fill-rule:nonzero;"></path><path id="Fill-7" d="M343.851,129.144c-20.375,0 -34.638,-13.783 -34.638,-34.997l-0,-51.54l17.38,0l-0,51.778c-0,11.267 6.951,17.979 17.258,17.979c10.308,0 17.261,-6.712 17.261,-17.979l-0,-51.778l17.378,0l0,51.54c0,21.214 -14.503,34.997 -34.639,34.997" style="fill:#fff;fill-rule:nonzero;"></path><path id="Fill-9" d="M605.999,42.607l17.379,0l0,68.559l36.437,-0l-0,16.54l-53.816,0l-0,-85.099Z" style="fill:#fff;fill-rule:nonzero;"></path><path id="Fill-11" d="M696.257,42.607l52.977,0l0,16.541l-35.597,-0l0,17.499l28.406,0l-0.359,16.539l-28.047,0l0,17.98l35.597,-0l0,16.54l-52.977,0l0,-85.099Z" style="fill:#fff;fill-rule:nonzero;"></path></g></svg>