<svg xmlns="http://www.w3.org/2000/svg" xmlns:xlink="http://www.w3.org/1999/xlink" x="0px" y="0px" width="1198px" height="1085.634px" viewBox="0 0 1198 1085.634" xml:space="preserve"><g id="BACKGROUND" display="none">	<rect x="-1435.219" y="-198.291" display="inline" width="4056.511" height="2505.596"></rect></g><g id="_x35_"></g><g id="_x34_"></g><g id="_x33_"></g><g id="_x32_">	<g>		<g>			<rect y="947.583" fill="#FFFFFF" width="14.779" height="135.691"></rect>			<path fill="#FFFFFF" d="M83.278,980.081c-14.715,0-25.045,7.146-30.19,14.268v-11.727H39.034v100.652h14.054v-56.227    c0-14.878,5.672-22.576,9.056-25.843c7.95-7.741,18.186-8.342,21.134-8.342s13.185,0.602,21.137,8.344    c5.956,5.758,9.237,15.258,9.237,26.749v55.319h14.053v-55.319c0-15.228-4.339-27.511-12.542-35.514    C106.613,983.892,96.779,980.081,83.278,980.081z"></path>			<polygon fill="#FFFFFF" points="139.069,961.091 169.932,961.091 169.932,1083.274 184.713,1083.274 184.713,961.091     215.394,961.091 215.394,947.583 139.069,947.583    "></polygon>			<path fill="#FFFFFF" d="M270.823,980.081c-14.716,0-25.047,7.146-30.191,14.268v-46.766h-14.053v135.691h14.053v-56.227    c0-14.878,5.672-22.576,9.055-25.843c7.951-7.741,18.187-8.342,21.136-8.342s13.185,0.602,21.137,8.344    c5.956,5.758,9.235,15.257,9.235,26.749v55.319h14.053v-55.319c0-15.228-4.339-27.511-12.542-35.514    C294.159,983.892,284.326,980.081,270.823,980.081z"></path>			<path fill="#FFFFFF" d="M385.187,980.081c-28.794,0.542-52.219,24.299-52.219,52.958c0,29.001,23.513,52.595,52.414,52.595    c22.228,0,42.11-14.189,49.471-35.308l0.313-0.894h-14.851l-0.163,0.44c-3.805,10.354-15.247,22.586-34.952,22.979    c-19.025,0-36.495-16.088-37.776-34.601h90.371v-0.672c0-0.617,0.045-1.191,0.089-1.764c0.047-0.607,0.093-1.214,0.093-1.868    c0-10.139-2.66-19.603-7.896-28.112C423.012,993.505,407.509,980.266,385.187,980.081z M423.43,1025.467h-75.926    c3.702-21.41,21.756-32.605,37.878-32.605C400.853,992.862,419.231,1003.072,423.43,1025.467z"></path>			<path fill="#FFFFFF" d="M530.814,955.5c-7.216-4.752-15.937-7.917-35.047-7.917h-38.071v135.691h14.779v-54.102h23.292    c19.107,0,27.828-3.165,35.052-7.921c10.802-7.268,16.999-19.25,16.999-32.874S541.621,962.771,530.814,955.5z M472.475,961.091    h18.753c14.287,0,19.1,0,26.586,3.387c9.675,4.505,15.224,13.215,15.224,23.899c0,10.685-5.549,19.395-15.218,23.898    c-7.493,3.388-12.306,3.388-26.593,3.388h-18.753V961.091z"></path>			<path fill="#FFFFFF" d="M610.678,980.081c-28.794,0.542-52.219,24.299-52.219,52.958c0,29.001,23.513,52.595,52.414,52.595    c22.228,0,42.11-14.189,49.471-35.308l0.313-0.894h-14.851l-0.163,0.44c-3.805,10.354-15.247,22.586-34.952,22.979    c-19.025,0-36.495-16.088-37.776-34.601h90.372v-0.672c0-0.617,0.045-1.191,0.088-1.764c0.047-0.607,0.093-1.214,0.093-1.868    c0-10.139-2.66-19.603-7.896-28.112C648.504,993.505,633.001,980.266,610.678,980.081z M648.922,1025.467h-75.926    c3.702-21.41,21.756-32.605,37.878-32.605C626.345,992.862,644.723,1003.072,648.922,1025.467z"></path>			<path fill="#FFFFFF" d="M725.616,980.081c-14.715,0-25.045,7.146-30.19,14.268v-11.727h-14.054v100.652h14.054v-56.227    c0-14.878,5.672-22.576,9.056-25.843c7.95-7.741,18.186-8.342,21.134-8.342c2.948,0,13.185,0.602,21.137,8.344    c5.956,5.758,9.237,15.258,9.237,26.749v55.319h14.053v-55.319c0-15.228-4.339-27.511-12.542-35.514    C748.951,983.892,739.117,980.081,725.616,980.081z"></path>			<path fill="#FFFFFF" d="M879.806,998.761c-12.718-17.309-32.496-18.681-38.36-18.681c-33.832,0-54.048,26.742-54.048,52.595    c0,29.696,23.741,52.958,54.048,52.958c12.131,0,28.388-4.978,38.36-18.833v16.473h14.054V947.583h-14.054V998.761z     M841.446,1072.851c-22.8,0-39.994-17.038-39.994-39.631c0-26.495,20.119-40.358,39.994-40.358    c21.552,0,39.086,18.023,39.086,40.177C880.532,1055.364,863.363,1072.851,841.446,1072.851z"></path>			<path fill="#FFFFFF" d="M1004.717,999.037c-11.752-17.076-30.644-18.957-38.36-18.957c-33.832,0-54.048,26.742-54.048,52.595    c0,29.696,23.741,52.958,54.048,52.958c7.586,0,26.233-1.865,38.36-18.829v16.469h14.054V982.622h-14.054V999.037z     M966.357,1072.851c-22.801,0-39.995-17.038-39.995-39.631c0-26.495,20.12-40.358,39.995-40.358    c21.552,0,39.086,18.023,39.086,40.177C1005.443,1055.364,988.274,1072.851,966.357,1072.851z"></path>			<path fill="#FFFFFF" d="M1084.731,980.081c-14.715,0-25.045,7.146-30.19,14.268v-11.727h-14.054v100.652h14.054v-56.227    c0-14.878,5.672-22.576,9.056-25.843c7.95-7.741,18.186-8.342,21.134-8.342s13.185,0.602,21.137,8.344    c5.956,5.758,9.237,15.258,9.237,26.749v55.319h14.053v-55.319c0-15.228-4.339-27.511-12.542-35.514    C1108.066,983.892,1098.232,980.081,1084.731,980.081z"></path>			<polygon fill="#FFFFFF" points="1176.908,982.622 1176.908,947.583 1162.854,947.583 1162.854,982.622 1144.666,982.622     1144.666,995.405 1162.854,995.405 1162.854,1083.274 1176.908,1083.274 1176.908,995.405 1198,995.405 1198,982.622    "></polygon>		</g>		<linearGradient id="SVGID_1_" gradientUnits="userSpaceOnUse" x1="319.6833" y1="686.7234" x2="770.81" y2="17.9613">			<stop offset="0" style="stop-color:#FFFFFF;stop-opacity:0.3"></stop>			<stop offset="0.7849" style="stop-color:#FFFFFF"></stop>		</linearGradient>		<path fill="url(#SVGID_1_)" d="M301.491,686.541c197.781,86.529,438.424-46.124,412.703-198.023l0,0   c-21.742,50.512-71.957,85.881-130.44,85.881c-78.398,0-141.952-63.554-141.952-141.952c0-20.058,4.169-39.14,11.674-56.439   c5.376-43.582,25.994-96.68,79.562-153.016c104.105-109.483,343.96-116.306,466.879,91.515C948.58,132.998,781.701,0,583.755,0   C344.921,0,151.308,193.613,151.308,432.447c0,43.702,6.508,85.879,18.564,125.644C198.51,611.729,240.35,659.791,301.491,686.541   z"></path>		<linearGradient id="SVGID_2_" gradientUnits="userSpaceOnUse" x1="409.6323" y1="810.3394" x2="920.1654" y2="135.3347">			<stop offset="0" style="stop-color:#FFFFFF"></stop>			<stop offset="0.9968" style="stop-color:#FFFFFF;stop-opacity:0.3"></stop>		</linearGradient>		<path fill="url(#SVGID_2_)" d="M999.918,314.507c-122.919-207.822-362.774-200.999-466.879-91.515   c-53.568,56.336-74.187,109.435-79.562,153.016c21.828-50.315,71.939-85.513,130.278-85.513   c78.398,0,141.952,63.554,141.952,141.952c0,19.916-4.108,38.869-11.512,56.071l0,0   c25.721,151.899-214.922,284.552-412.703,198.023c-61.141-26.749-102.982-74.811-131.62-128.449   c53.831,177.552,218.751,306.803,413.883,306.803c238.834,0,432.447-193.613,432.447-432.447   C1016.202,391.56,1010.522,351.999,999.918,314.507z"></path>	</g></g><g id="_x31_">	<linearGradient id="SVGID_3_" gradientUnits="userSpaceOnUse" x1="-1271.058" y1="542.817" x2="3.6312" y2="542.817">		<stop offset="0" style="stop-color:#FFFFFF"></stop>		<stop offset="1" style="stop-color:#FFFFFF;stop-opacity:0.3"></stop>	</linearGradient>	<path fill="url(#SVGID_3_)" d="M-344.904-37.037c-17.522-12.454-38.485-19.146-59.982-19.146h-228.827H-862.54  c-21.497,0-42.461,6.692-59.982,19.146l-304.986,216.787c-27.321,19.42-43.55,50.866-43.55,84.386v278.681v278.681  c0,33.52,16.228,64.966,43.55,84.386l304.986,216.787c17.522,12.454,38.485,19.146,59.982,19.146h228.827h228.827  c21.497,0,42.461-6.692,59.982-19.146l304.986-216.787c27.321-19.42,43.55-50.866,43.55-84.386V542.817V264.136  c0-33.52-16.228-64.966-43.55-84.386L-344.904-37.037z M-590.818,913.453c-44.405,0-94.687-1.809-145.699-7.236  c-79.829-8.492-151.136-55.572-206.212-136.15c-39.406-57.654-41.736-112.723-43.12-117.139h66.837  c7.784,19.311,6.91,50.993,29.008,83.035c44.845,65.023,98.719,101.305,160.127,107.837c143.006,15.212,284.924,0.163,286.34,0.008  l41.007,63.254C-402.53,907.061-504.699,913.453-590.818,913.453z M-281.859,543.302l-0.475,30.802l-30.805,0.099  c-1.95,0.006-197.193,0.629-390.408,0.94c-72.301,0.115-135.313,0.174-188.384,0.174c-30.24,0-57.25-0.019-80.914-0.056  c-38.756-0.063-95.769-0.176-116.402-0.339c-2.822-0.022-5.481-0.046-7.977-0.07v-62.763c99.534,0.938,484.634,0.267,750.662-0.55  c-4.985-46.6-22.742-136.346-85.883-200.225c-49.89-50.473-119.678-76.064-207.427-76.064  c-114.344,0-197.174,35.364-246.189,105.11c-36.983,52.624-39.39,110.48-39.425,111.021l-0.026,0.402l-64.76-0.981  c0,0,4.986-76.659,50.856-143.652c27.031-39.48,62.921-70.898,106.674-93.382c53.312-27.397,118.203-41.288,192.871-41.288  c105.38,0,190.325,32.003,252.476,95.121C-280.527,376.132-281.754,536.527-281.859,543.302z"></path></g></svg>