<svg xmlns="http://www.w3.org/2000/svg" xmlns:xlink="http://www.w3.org/1999/xlink" xmlns:serif="http://www.serif.com/" width="100%" height="100%" viewBox="0 0 4100 707" xml:space="preserve" style="fill-rule:evenodd;clip-rule:evenodd;stroke-linejoin:round;stroke-miterlimit:2;"><g><path d="M647.917,704.583c-84.584,-11.25 -154.584,-58.333 -186.667,-125.833c-18.333,-38.75 -23.75,-64.583 -23.75,-113.333c0,-71.667 21.25,-125 68.333,-171.667c48.334,-48.333 101.25,-69.167 175.417,-69.167c71.667,0.417 122.917,20.834 166.25,67.5c40.417,43.75 60.833,100.417 60.833,171.667l0,40.417l-332.5,-0l2.917,13.75c4.583,19.583 10.417,28.75 29.167,45.833c25.416,22.917 43.333,29.167 81.666,29.167c37.917,0.416 61.25,-7.917 86.667,-30l15.417,-13.75l47.916,30c26.25,16.666 48.75,31.666 50,33.333c3.75,5.833 -50.416,53.333 -75.416,65.833c-46.25,23.334 -110.417,33.334 -166.25,26.25Zm125.416,-309.583c-3.75,-24.583 -21.666,-49.167 -44.166,-60.833c-16.25,-8.334 -23.334,-9.584 -52.5,-8.334c-52.5,2.5 -82.5,24.167 -95.834,68.334l-5.416,18.333l200.833,0l-2.917,-17.5Z" style="fill:#fff;fill-rule:nonzero;"></path><path d="M2320,704.167c-148.333,-18.334 -236.667,-145 -205.417,-293.75c18.334,-87.5 84.584,-156.25 172.5,-179.167c35.417,-9.167 101.25,-9.167 132.917,-0c102.083,29.583 162.5,119.583 163.333,242.917l0,30l-166.666,-0c-188.334,-0 -175.417,-2.917 -157.084,33.333c30.834,61.667 129.584,76.25 184.584,27.917l18.75,-16.25l30,18.333c16.666,10.417 38.75,24.167 49.583,30.833c10.833,6.667 20,13.75 20,15.834c0,1.666 -10.833,13.75 -24.167,27.083c-50.833,49.583 -133.333,73.333 -218.333,62.917Zm125.833,-303.334c0,-18.333 -19.166,-51.666 -35.833,-63.333c-18.333,-12.5 -62.5,-16.25 -91.25,-8.333c-32.083,9.166 -68.75,48.75 -68.75,75c0,8.333 2.083,8.333 97.917,8.333l97.916,0l0,-11.667Z" style="fill:#fff;fill-rule:nonzero;"></path><path d="M1090.83,697.917c-55.833,-14.167 -97.5,-49.167 -110,-92.917c-8.75,-30 -6.25,-75.833 5.834,-98.75c9.583,-19.167 38.75,-47.917 59.166,-58.333c39.167,-20.417 100,-33.334 178.334,-37.917l46.666,-2.917l-2.5,-15c-7.083,-40 -33.75,-58.75 -83.75,-58.75c-34.166,0 -64.583,9.584 -93.75,29.167c-9.583,6.667 -18.75,12.5 -20,12.5c-1.25,0 -17.916,-17.083 -37.5,-38.333l-35,-37.917l16.25,-14.167c21.667,-18.75 75.834,-44.166 112.084,-52.916c37.083,-9.167 108.75,-9.167 147.916,-0.417c40.834,9.583 75,32.5 95.834,64.167c31.25,48.333 37.916,96.666 37.916,270l0,126.25l-133.333,-0l-0,-22.917c-0,-12.5 -1.25,-22.917 -2.5,-22.917c-1.25,0 -11.667,8.334 -23.333,18.334c-11.25,10.416 -30.417,22.5 -42.5,27.083c-30.417,11.25 -85.417,14.583 -115.834,6.667Zm129.167,-99.167c17.5,-6.667 37.917,-26.25 45.417,-43.333c2.916,-7.5 6.666,-25.417 8.333,-39.167l2.5,-25.833l-45.417,2.916c-57.5,3.75 -85.416,11.667 -104.583,29.167c-12.917,11.667 -15,16.25 -15.417,32.5c-0.416,21.667 7.917,34.167 28.75,43.333c15.417,6.667 61.667,7.084 80.417,0.417Z" style="fill:#fff;fill-rule:nonzero;"></path><path d="M1662.08,697.917c-51.25,-14.167 -103.75,-57.084 -128.333,-105c-45.833,-91.25 -40,-200.834 15,-280.417c68.333,-98.75 206.667,-117.083 293.333,-38.75l16.25,14.583l0,-288.333l150,0l0,691.667l-137.5,-0l0,-60l-21.666,21.25c-23.75,23.333 -53.334,40 -82.5,46.666c-25.417,5.834 -80.834,5 -104.584,-1.666Zm126.25,-119.584c22.084,-6.666 51.25,-33.333 65,-59.166c14.584,-28.334 15.834,-77.5 2.5,-107.084c-19.583,-42.083 -56.25,-65.833 -102.083,-66.25c-66.25,0 -109.167,47.917 -108.75,121.25c0,47.5 22.917,87.5 60,105.417c24.583,11.667 56.25,14.167 83.333,5.833Z" style="fill:#fff;fill-rule:nonzero;"></path><path d="M0,691.667l0,-645.834l154.167,0l-0,512.5l250,0l-0,133.334l-404.167,-0Z" style="fill:#fff;fill-rule:nonzero;"></path><path d="M2679.17,691.667l-0,-454.167l141.666,-0l0,33.333c0,18.334 1.25,33.334 3.334,33.334c1.666,-0 8.75,-8.75 15.416,-19.167c25.417,-38.75 73.75,-62.5 118.75,-59.167c22.917,1.667 22.917,1.25 18.75,76.25l-2.916,54.167l-27.084,-1.25c-15,-0.833 -35.416,0.833 -45.416,3.333c-24.167,7.084 -50.834,30.417 -62.5,55.834c-9.584,20.833 -10,23.75 -10,149.583l-0,127.917l-150,-0Z" style="fill:#fff;fill-rule:nonzero;"></path><path d="M3606.25,164.583c-33.75,-12.083 -60.417,-55 -54.167,-86.666c5.417,-26.25 21.667,-47.5 44.584,-58.75c27.916,-13.75 49.583,-13.75 77.5,-0c25,12.5 35.833,25.833 42.916,52.916c7.084,26.25 -0.416,49.584 -22.916,72.084c-25,25.416 -54.584,32.083 -87.917,20.416Z" style="fill:#fff;fill-rule:nonzero;"></path></g><g><path d="M3967.5,699.583c-35.417,-6.25 -61.667,-19.583 -81.25,-41.25c-31.25,-35 -33.75,-46.666 -35.417,-188.75l-1.25,-123.75l-74.583,0l0,-108.333l75,-0l0,-120.833l141.667,-0l-0,120.833l108.333,-0l0,108.333l-109.167,0l1.25,103.334c1.667,94.583 2.5,104.166 10.417,117.5c10.417,18.333 32.917,26.666 61.25,22.916c10.833,-1.25 22.5,-3.333 25.833,-4.583c5.417,-2.083 6.25,5.417 6.25,51.667l0,54.166l-17.5,4.167c-26.666,6.667 -85.833,9.167 -110.833,4.583Z" style="fill:#fff;fill-opacity:0.64;fill-rule:nonzero;"></path><path d="M3054.17,691.667l-0,-645.834l425,0l-0,129.167l-275,-0l-0,137.5l254.166,-0l0,125l-125.833,0.833l-126.25,1.25l-1.25,126.25l-0.833,125.834l-150,-0Z" style="fill:#fff;fill-opacity:0.64;fill-rule:nonzero;"></path><path d="M3562.5,691.667l0,-454.167l145.833,-0l0,454.167l-145.833,-0Z" style="fill:#fff;fill-opacity:0.64;fill-rule:nonzero;"></path></g></svg>