<svg xmlns="http://www.w3.org/2000/svg" xmlns:xlink="http://www.w3.org/1999/xlink" xmlns:serif="http://www.serif.com/" width="100%" height="100%" viewBox="0 0 2132 847" xml:space="preserve" style="fill-rule:evenodd;clip-rule:evenodd;stroke-linejoin:round;stroke-miterlimit:2;"><g id="Laag_2"><g id="Layer_1"><path d="M1517.79,20.833l-0,281.25c-0,11.429 9.404,20.834 20.833,20.834l70.833,-0c1.258,-0 2.292,1.034 2.292,2.291l-0,103.25c-0,0.006 -0,0.012 -0,0.018c-0,1.257 1.034,2.292 2.292,2.292c0.55,-0 1.083,-0.199 1.5,-0.56l121.625,-106.708c0.411,-0.373 0.945,-0.58 1.5,-0.583l154.166,-0c11.429,-0 20.834,-9.405 20.834,-20.834l-0,-281.25c-0,-11.428 -9.405,-20.833 -20.834,-20.833l-354.166,0c-0.014,-0 -0.028,-0 -0.042,-0c-11.429,-0 -20.833,9.404 -20.833,20.833Z" style="fill:#fff;fill-rule:nonzero;"></path><path d="M70.833,408.542l77.5,-0c8.334,-0 11.875,2.75 11.875,11.083l0,30.833c0,8.334 -3.583,11.459 -11.875,11.459l-132.916,-0c-7.125,-0 -9.875,-3.917 -9.875,-11.834l-0,-245.291c-0,-8.334 3.166,-11.834 11.458,-11.834l42.708,0c8.334,0 11.084,3.542 11.084,11.834l0.041,203.75Z" style="fill:#fff;fill-rule:nonzero;"></path><path d="M203.292,461.917c-8.334,-0 -11.459,-3.542 -11.459,-11.834l0,-245.291c0,-8.334 3.167,-11.834 11.459,-11.834l135.291,0c8.334,0 11.875,2.75 11.875,11.042l0,30.875c0,8.333 -3.541,11.458 -11.875,11.458l-81.458,0l0,51.417l75,0c8.333,0 11.833,2.792 11.833,11.083l0,28.875c0,8.334 -3.541,11.5 -11.833,11.5l-75,0l0,59.334l85.417,-0c8.333,-0 11.875,2.75 11.875,11.083l-0,30.833c-0,8.334 -3.542,11.459 -11.875,11.459l-139.25,-0Z" style="fill:#fff;fill-rule:nonzero;"></path><path d="M516.208,204.792l71.584,245.208c2.375,7.5 -0.375,11.833 -8.667,11.833l-43.917,0c-8.333,0 -11.875,-4.166 -13.875,-11.833l-10.25,-38l-65.666,0l-10.292,38c-2,7.5 -5.542,11.833 -13.875,11.833l-39.917,0c-8.333,0 -11.083,-4.166 -8.708,-11.833l71.583,-245.292c2.375,-7.916 6.334,-11.833 14.625,-11.833l42.75,0c8.292,0.083 12.25,4 14.625,11.917Zm-25,134.5c-6.333,-24.125 -11.875,-79.167 -12.25,-82.667c-0.791,5.542 -7.125,59.75 -13.458,82.667l-5.958,21.375l37.208,-0l-5.542,-21.375Z" style="fill:#fff;fill-rule:nonzero;"></path><path d="M772.125,352.75l38.792,97.25c2.75,7.125 -2.375,11.833 -11.084,11.833l-42.708,0c-7.542,0 -9.125,-6.291 -11.5,-11.833l-34.792,-87.5l-29.666,0l-0,87.5c-0,8.333 -2.792,11.833 -11.084,11.833l-42.708,0c-8.333,0 -11.5,-3.541 -11.5,-11.833l-0,-245.208c-0,-8.334 3.167,-11.834 11.5,-11.834l85.417,0c74.375,0 100.5,33.625 100.5,67.625l-0,34.417c-0,22.542 -11.459,45.083 -41.167,57.75Zm-90.958,-106.417l-0,62.917l31.625,0c19.416,0 36,-7.542 36,-25.708l-0,-11.5c-0,-18.167 -16.667,-25.709 -36,-25.709l-31.625,0Z" style="fill:#fff;fill-rule:nonzero;"></path><path d="M1064.88,450c0,8.333 -2.792,11.833 -11.083,11.833l-38.792,0c-4.356,0.643 -8.664,-1.578 -10.667,-5.5l-63.291,-105.166c-6.704,-11.338 -12.393,-23.245 -17,-35.584l-0,134.417c-0,8.333 -2.792,11.833 -11.084,11.833l-38.75,0c-8.333,0 -11.5,-3.541 -11.5,-11.833l0,-245.208c0,-8.334 3.167,-11.834 11.5,-11.834l38.75,0c3.932,-0.562 7.837,1.299 9.875,4.709l66.875,111.958c5.157,9.625 9.775,19.53 13.834,29.667l-0,-134.5c-0,-8.334 3.166,-11.834 11.458,-11.834l38.792,0c8.333,0 11.083,3.542 11.083,11.834l0,245.208Z" style="fill:#fff;fill-rule:nonzero;"></path><path d="M167.708,585.833l0,30.834c0,8.333 -3.541,11.5 -11.833,11.5l-90.583,-0l-0,51.416l84.25,0c8.333,0 11.875,2.75 11.875,11.084l-0,30.833c-0,8.333 -3.584,11.458 -11.875,11.458l-84.25,0l-0,98.917c-0,8.333 -2.792,11.875 -11.084,11.875l-42.75,0c-8.333,0 -11.458,-3.583 -11.458,-11.875l0,-245.25c0,-8.333 3.167,-11.875 11.458,-11.875l144.417,0c8.292,0 11.833,2.75 11.833,11.083Z" style="fill:#fff;fill-rule:nonzero;"></path><path d="M359.583,734.542l38.75,97.333c2.792,7.125 -2.375,11.875 -11.083,11.875l-42.708,-0c-7.5,-0 -9.084,-6.333 -11.459,-11.875l-34.833,-87.5l-29.667,0l0,87.5c0,8.333 -2.75,11.875 -11.083,11.875l-42.708,-0c-8.334,-0 -11.459,-3.583 -11.459,-11.875l0,-245.25c0,-8.333 3.167,-11.875 11.459,-11.875l85.458,0c74.375,0 100.458,33.625 100.458,67.625l0,34.417c0,22.541 -11.458,45.125 -41.125,57.75Zm-91,-106.375l0,62.875l31.667,-0c19.375,-0 36,-7.5 36,-25.709l0,-11.458c0,-18.208 -16.667,-25.708 -36,-25.708l-31.667,-0Z" style="fill:#fff;fill-rule:nonzero;"></path><path d="M550.625,586.625l71.625,245.25c2.375,7.5 -0.417,11.875 -8.708,11.875l-43.917,-0c-8.333,-0 -11.875,-4.375 -13.833,-11.875l-10.292,-38l-65.667,-0l-10.291,38c-2,7.5 -5.542,11.875 -13.834,11.875l-39.958,-0c-8.333,-0 -11.083,-4.375 -8.708,-11.875l71.583,-245.25c2.375,-7.917 6.333,-11.875 14.667,-11.875l42.708,-0c8.292,0 12.25,3.958 14.625,11.875Zm-25,134.5c-6.333,-24.167 -11.875,-79.167 -12.25,-82.708c-0.792,5.541 -7.125,59.75 -13.458,82.708l-5.917,21.333l37.167,0l-5.542,-21.333Z" style="fill:#fff;fill-rule:nonzero;"></path><path d="M844.542,831.875c-0,8.333 -2.75,11.875 -11.084,11.875l-38.75,0c-4.379,0.654 -8.713,-1.588 -10.708,-5.542l-63.167,-105.25c-6.687,-11.346 -12.375,-23.252 -17,-35.583l0,134.5c0,8.333 -2.75,11.875 -11.083,11.875l-38.75,0c-8.333,0 -11.458,-3.583 -11.458,-11.875l-0,-245.25c-0,-8.333 3.166,-11.875 11.458,-11.875l38.75,0c3.956,-0.584 7.892,1.301 9.917,4.75l66.666,111.958c5.181,9.613 9.8,19.519 13.834,29.667l-0,-134.5c-0,-8.333 3.166,-11.875 11.5,-11.875l38.666,0c8.334,0 11.084,3.542 11.084,11.875l0.125,245.25Z" style="fill:#fff;fill-rule:nonzero;"></path><path d="M1082.67,779.167c-0,34.041 -22.917,67.666 -97.292,67.666c-74.375,0 -97.333,-33.625 -97.333,-67.666l-0,-139.959c-0,-34 22.958,-67.625 97.333,-67.625c74.375,0 97.292,33.625 97.292,67.625l-0,18.209c-0,8.333 -2.75,11.875 -11.084,11.875l-40.708,-0c-8.333,-0 -11.5,-3.584 -11.5,-11.875l0,-6.709c0,-18.208 -13.833,-25.708 -33.333,-25.708c-19.5,-0 -32.834,7.5 -32.834,25.708l0,117.084c0,18.208 13.417,25.708 32.834,25.708c19.416,-0 33.333,-7.5 33.333,-25.708l0,-12.5c0,-8.334 3.167,-11.875 11.5,-11.875l40.708,-0c8.334,-0 11.084,3.583 11.084,11.875l-0,23.875Z" style="fill:#fff;fill-rule:nonzero;"></path><path d="M1185.5,680.75l71.625,0l0,-94.125c0,-8.333 3.167,-11.875 11.458,-11.875l42.75,0c8.334,0 11.042,3.542 11.042,11.875l-0,245.25c-0,8.333 -2.75,11.875 -11.042,11.875l-42.75,-0c-8.333,-0 -11.458,-3.583 -11.458,-11.875l0,-97.708l-71.625,-0l0,97.708c0,8.333 -2.75,11.875 -11.042,11.875l-42.75,-0c-8.333,-0 -11.458,-3.583 -11.458,-11.875l0,-245.25c0,-8.333 3.167,-11.875 11.458,-11.875l42.75,0c8.334,0 11.042,3.542 11.042,11.875l0,94.125Z" style="fill:#fff;fill-rule:nonzero;"></path><path d="M1443.04,831.875c-0,8.333 -2.792,11.875 -11.084,11.875l-42.708,0c-8.333,0 -11.5,-3.583 -11.5,-11.875l0,-245.25c0,-8.333 3.167,-11.875 11.5,-11.875l42.708,0c8.334,0 11.084,3.542 11.084,11.875l-0,245.25Z" style="fill:#fff;fill-rule:nonzero;"></path><path d="M1621.83,647.917c0,-18.167 -12.5,-25 -30.875,-25c-18.375,-0 -31.25,6.75 -31.25,25l0,3.958c0.086,7.743 5.136,14.61 12.5,17l66.625,22.792c29.167,9.875 49.459,30.458 49.459,59.708l-0,27.792c-0,34.041 -24.125,67.666 -98.5,67.666c-74.375,0 -99.292,-33.625 -99.292,-67.666l0,-26.5c0,-8.334 3.167,-11.875 11.458,-11.875l41.167,-0c8.333,-0 11.042,3.583 11.042,11.875l-0,17.791c-0,18.209 15.458,25 34.833,25c19.375,0 35.208,-6.708 35.208,-25l0,-7.958c0,-14.208 -19,-20.833 -34.041,-26.5l-56.834,-21.208c-21.538,-8.724 -35.995,-29.401 -36.791,-52.625l-0,-22.959c-0,-34 20.583,-67.625 93.75,-67.625c73.166,0 95.375,33.625 95.375,67.625l-0,14.667c-0,8.333 -3.167,11.833 -11.5,11.833l-41.25,0c-8.334,0 -11.084,-3.541 -11.084,-11.833l0,-5.958Z" style="fill:#fff;fill-rule:nonzero;"></path><path d="M1737.5,843.75c-8.333,0 -11.458,-3.583 -11.458,-11.875l-0,-245.25c-0,-8.333 3.166,-11.875 11.458,-11.875l135.292,0c8.333,0 11.875,2.75 11.875,11.083l-0,30.834c-0,8.333 -3.584,11.5 -11.875,11.5l-81.667,-0l0,51.416l75,0c8.333,0 11.875,2.75 11.875,11.084l0,28.875c0,8.333 -3.583,11.458 -11.875,11.458l-75,0l0,59.333l85.458,0c8.334,0 11.875,2.792 11.875,11.084l0,30.833c0,8.333 -3.583,11.5 -11.875,11.5l-139.083,0Z" style="fill:#fff;fill-rule:nonzero;"></path></g></g><g><path d="M2111.08,139.917l-337.5,-0c-11.428,-0 -20.833,9.404 -20.833,20.833l0,281.25c0,11.429 9.405,20.833 20.833,20.833l151.084,0c0.554,0.003 1.089,0.211 1.5,0.584l121.625,106.666c0.416,0.361 0.949,0.56 1.5,0.56c1.248,-0 2.278,-1.02 2.291,-2.268l0,-103.333c0,-1.258 1.035,-2.292 2.292,-2.292l57.25,0c11.429,0 20.833,-9.405 20.833,-20.833l0,-281.209c-0.022,-11.413 -9.42,-20.791 -20.833,-20.791c-0.014,-0 -0.028,-0 -0.042,-0Z" style="fill:#fff;fill-opacity:0.6;fill-rule:nonzero;"></path><path d="M1357.58,408.542c8.334,-0 11.875,2.75 11.875,11.083l0,30.833c0,8.334 -3.583,11.459 -11.875,11.459l-163.791,-0c-8.334,-0 -11.834,-3.167 -11.834,-11.459l0,-71.291c0,-21.334 9.875,-28.084 24.125,-34.792l84.25,-38.375c7.125,-3.167 12.5,-7.917 12.5,-20.833l0,-17.459c0,-18.208 -13.458,-25.708 -32.041,-25.708c-18.584,-0 -31.667,7.5 -31.667,25.708l0,14.25c0,8.334 -2.75,11.875 -11.083,11.875l-40.542,0c-8.333,0 -11.5,-3.583 -11.5,-11.875l0,-24.541c0,-34 23.75,-67.625 94.958,-67.625c71.209,-0 96.125,33.625 96.5,67.625l0,25.333c0,41.667 -20.541,57.75 -38.375,65.667l-66.666,30.458c-12.25,5.542 -15.042,8.333 -15.042,19.75l0,9.917l110.208,-0Z" style="fill:#fff;fill-opacity:0.6;fill-rule:nonzero;"></path></g></svg>