<svg xmlns="http://www.w3.org/2000/svg" xmlns:xlink="http://www.w3.org/1999/xlink" xmlns:serif="http://www.serif.com/" width="100%" height="100%" viewBox="0 0 1059 830" xml:space="preserve" style="fill-rule:evenodd;clip-rule:evenodd;stroke-linejoin:round;stroke-miterlimit:2;"><g><path d="M973.958,828.958c-11.25,-1.458 -20.625,-6.666 -26.875,-15c-5.208,-6.875 -7.083,-14.791 -3.75,-16.666c0.834,-0.417 5,-1.459 9.167,-2.292c7.292,-1.25 7.917,-1.042 11.042,5.625c5.416,11.458 20.625,15.625 31.25,8.542c7.708,-5 7.083,-13.75 -1.667,-20.417c-3.958,-3.125 -7.708,-5.417 -8.333,-5.417c-4.584,0 -24.375,-11.25 -29.584,-16.666c-5.416,-5.625 -6.25,-7.917 -6.25,-19.167c0,-12.083 0.417,-12.917 7.917,-19.375c13.125,-11.25 35,-12.083 48.958,-1.667c7.5,5.625 8.75,12.292 3.125,16.459c-5.416,3.958 -10.625,3.541 -15.833,-1.25c-3.333,-3.125 -6.667,-4.167 -12.917,-3.75c-6.875,0.625 -8.541,1.458 -10.416,6.666c-1.875,5.417 -1.25,6.459 5.208,11.875c3.958,3.334 7.917,6.042 8.958,6.042c0.834,-0 7.5,2.917 14.584,6.25c15.208,7.292 22.291,16.667 22.291,28.75c0,22.083 -19.791,35.417 -46.875,31.458Z" style="fill:#fff;fill-rule:nonzero;"></path><path d="M33.958,826.667c0.625,-1.459 2.5,-6.875 4.584,-12.084c4.375,-11.875 6.041,-15.833 10,-25c1.875,-3.958 4.791,-11.458 6.666,-16.666c4.375,-11.875 5.834,-15.417 11.042,-27.084c2.083,-5.208 5.208,-12.916 6.875,-17.291c2.708,-7.5 3.125,-7.917 11.042,-7.292l8.333,0.625l20.417,51.042c11.25,27.916 20.416,52.083 20.416,53.541c0,1.875 -3.333,2.709 -10,2.709c-10.625,-0 -9.375,1.458 -17.291,-18.125c-1.667,-4.584 -2.917,-4.792 -22.084,-4.792c-20.208,-0 -20.416,0.208 -22.916,5.625c-1.459,3.125 -2.709,7.083 -2.709,8.958c0,5.834 -4.583,8.334 -15.208,8.334c-7.292,-0 -10,-0.834 -9.167,-2.5Zm61.875,-41.667c0,-3.542 -5,-17.917 -6.875,-19.583c-0.833,-0.834 -1.458,-3.125 -1.458,-5.209c0,-2.083 -0.833,-4.375 -2.083,-5c-1.875,-1.25 -3.542,1.667 -8.334,14.584c-0.833,2.291 -2.708,6.875 -3.958,10c-1.25,3.125 -2.292,6.25 -2.292,6.666c0,0.625 5.625,1.042 12.5,1.042c8.542,0 12.5,-0.833 12.5,-2.5Z" style="fill:#fff;fill-rule:nonzero;"></path><path d="M187.5,829.167l0,-108.334l10,0c8.958,0 10.208,0.625 14.583,7.292c2.5,3.958 4.584,7.708 4.584,8.542c-0,0.625 2.916,5.208 6.25,10.208c3.541,5 6.25,9.792 6.25,10.417c-0,0.833 1.666,3.958 3.958,6.875c2.083,3.125 6.25,9.791 8.958,14.791c2.709,4.792 5.834,8.542 6.875,8.334c0.834,-0.417 1.667,-15.417 1.875,-33.125l0.209,-32.292l10,-0.625l9.791,-0.625l0,108.542l-9.791,-0c-9.584,-0 -10.209,-0.417 -16.667,-10.417c-3.75,-5.625 -6.875,-10.833 -6.875,-11.667c0,-0.625 -2.708,-5 -6.042,-9.791c-3.125,-4.792 -6.25,-9.584 -6.666,-10.834c-2.709,-6.666 -15,-26.041 -16.667,-26.041c-1.042,-0 -1.875,15.208 -1.875,34.375l0,34.375l-18.75,-0Z" style="fill:#fff;fill-rule:nonzero;"></path><path d="M333.333,829.167l0,-108.334l23.959,0c13.125,0 27.916,1.25 32.708,2.709c22.708,6.666 38.125,35.833 32.708,62.291c-6.458,32.292 -23.125,43.334 -65.416,43.334l-23.959,-0Zm57.709,-26.25c14.166,-10.625 15.833,-44.792 2.5,-55.834c-6.042,-5.208 -32.917,-11.25 -37.292,-8.541c-2.5,1.458 -2.917,68.125 -0.417,70.625c3.125,3.333 28.334,-1.042 35.209,-6.25Z" style="fill:#fff;fill-rule:nonzero;"></path><path d="M554.167,829.375l-0,-108.542l23.541,0c26.25,0 32.917,2.084 42.084,12.709c4.375,5.416 5.208,8.541 5.208,19.375c-0,10.833 -0.833,13.958 -4.792,18.333c-7.291,7.708 -17.5,11.875 -31.666,12.5l-12.5,0.625l-2.084,43.75l-9.791,0.625l-10,0.625Zm37.5,-65c11.666,-2.5 15.416,-6.875 13.333,-15.625c-1.667,-6.25 -8.125,-9.167 -20.833,-9.167l-9.167,0l0,12.084c0,16.458 -0.208,16.25 16.667,12.708Z" style="fill:#fff;fill-rule:nonzero;"></path><path d="M679.167,829.167l-0,-108.334l72.916,0l0,16.459l-25.416,0.625l-25.625,0.625l-0,27.083l49.166,1.25l-1.25,15.417l-47.916,2.083l-0,25l50,2.083l0.625,8.959l0.625,8.75l-73.125,-0Z" style="fill:#fff;fill-rule:nonzero;"></path><path d="M800,826.042c0,-1.667 0.833,-4.792 1.875,-6.875c1.875,-3.75 5.833,-12.917 8.75,-20.625c1.042,-2.709 2.708,-6.875 3.75,-9.375c2.708,-7.292 5.625,-14.584 8.542,-21.459c1.458,-3.333 3.333,-8.125 4.166,-10.416c3.334,-8.959 9.584,-24.167 12.917,-31.25c1.875,-4.167 3.958,-5.209 10.208,-5.209l7.709,0l12.916,32.917c7.084,17.917 13.959,35 15,37.917c2.292,5.625 5.209,12.291 8.542,20.833c1.042,2.917 2.708,6.875 3.75,8.75c3.333,6.667 2.083,7.917 -8.542,7.917c-11.25,-0 -10.416,0.833 -16.666,-16.042l-2.5,-6.875l-20.417,-0c-22.292,-0 -20.625,-0.833 -27.083,16.25c-2.5,6.25 -3.125,6.667 -12.709,6.667c-7.708,-0 -10.208,-0.834 -10.208,-3.125Zm62.5,-41.25c0,-1.667 -0.625,-3.542 -1.458,-4.375c-0.834,-0.834 -3.125,-6.459 -5,-12.292c-1.875,-6.042 -4.584,-10.833 -6.042,-10.833c-2.292,-0 -12.5,23.541 -12.5,28.75c0,0.833 5.625,1.458 12.5,1.458c8.958,-0 12.5,-0.833 12.5,-2.708Z" style="fill:#fff;fill-rule:nonzero;"></path><path d="M348.958,633.958c-14.791,-1.875 -28.75,-12.291 -35.416,-26.25c-4.375,-8.75 -5.209,-13.75 -5.209,-28.75c0,-20.208 2.709,-28.958 12.709,-40.416c9.791,-11.042 18.958,-14.584 38.333,-14.584c14.583,0 17.917,0.834 26.667,5.834c5.416,3.333 12.291,9.583 15.416,14.166c4.792,7.084 5,8.75 2.5,11.042c-1.666,1.667 -5.833,3.542 -9.166,4.167c-5.417,1.25 -6.875,0.416 -10,-5c-7.292,-12.084 -26.875,-16.042 -40.834,-8.125c-11.458,6.458 -15.416,15.416 -15.208,34.375c0.208,14.375 0.833,16.666 6.042,23.333c8.333,10.208 20.833,14.375 32.708,10.833c8.958,-2.708 20,-11.458 20,-16.041c0,-3.125 5.417,-3.75 7.292,-0.625c0.625,1.25 3.125,2.083 5.416,2.083c13.125,0 0.417,21.25 -17.916,30c-6.875,3.333 -23.75,5.417 -33.334,3.958Z" style="fill:#fff;fill-rule:nonzero;"></path><path d="M766.042,633.542c-11.875,-2.5 -24.584,-12.5 -31.042,-24.167c-4.792,-8.958 -5.417,-12.917 -5.625,-29.375c-0.208,-21.458 2.292,-29.792 12.5,-41.458c17.917,-20.209 56.875,-21.459 76.042,-2.292c14.791,15 19.791,43.75 11.25,66.667c-7.292,19.166 -21.25,29.375 -42.917,31.25c-6.667,0.416 -15.833,0.208 -20.208,-0.625Zm29.583,-19.792c20.833,-10.833 21.667,-55.833 1.458,-68.125c-7.916,-4.792 -23.958,-5.208 -32.291,-0.833c-13.125,6.666 -19.375,38.125 -11.042,55.208c7.292,14.583 27.292,21.25 41.875,13.75Z" style="fill:#fff;fill-rule:nonzero;"></path><path d="M0,633.333l0,-108.333l14.583,-0c11.042,-0 14.584,0.625 14.584,2.917c-0,2.291 2.083,8.541 10.416,29.375c0.834,2.291 2.709,7.5 4.167,11.458c1.458,3.958 3.333,9.167 4.167,11.458c0.833,2.292 2.708,7.292 4.166,11.042c2.709,6.667 6.25,8.958 6.25,3.75c0,-1.458 1.875,-7.292 3.959,-12.917c2.291,-5.625 6.041,-15.833 8.541,-22.708c2.5,-6.875 5.417,-14.375 6.25,-16.667c0.834,-2.291 2.917,-7.291 4.167,-11.041l2.708,-6.875l27.5,1.25l0,106.25l-9.791,0.625l-10,0.625l-0,-36.459c-0,-23.125 -0.834,-36.666 -2.084,-36.666c-1.041,-0 -2.083,1.25 -2.083,2.916c0,1.459 -1.875,7.292 -3.958,12.917c-2.292,5.625 -6.042,15.833 -8.542,22.708c-9.583,26.042 -9.583,26.042 -19.583,26.042l-9.167,0l-4.583,-11.875c-2.5,-6.667 -5.417,-13.958 -6.25,-16.25c-2.084,-5.208 -9.584,-25.833 -11.25,-31.042c-2.917,-8.958 -3.959,0.625 -3.542,33.125l0.417,34.375l-21.042,0Z" style="fill:#fff;fill-rule:nonzero;"></path><path d="M162.5,632.5c0,-1.25 3.125,-8.75 8.542,-21.458c2.291,-5 3.958,-9.584 3.958,-10.625c0,-1.042 1.875,-5.625 4.167,-10.417c2.291,-4.583 4.166,-9.375 4.166,-10.417c0,-0.833 1.875,-5.625 4.167,-10.416c2.292,-4.584 4.167,-9.375 4.167,-10.417c-0,-0.833 1.666,-5.417 3.958,-10c2.083,-4.375 5.208,-11.667 6.667,-16.042c2.708,-7.5 3.125,-7.916 11.041,-7.291l8.334,0.625l20.416,51.041c11.25,27.917 20.417,52.084 20.417,53.542c0,1.875 -3.333,2.708 -10,2.708l-9.792,0l-4.166,-10.833l-4.375,-11.042l-40.417,-1.25l-3.333,7.917c-1.875,4.375 -4.167,9.375 -5,11.042c-1.042,2.083 -5.209,3.333 -12.292,3.75c-5.833,0.416 -10.625,0.208 -10.625,-0.417Zm62.5,-43.958c0,-1.667 -1.042,-5.625 -2.292,-8.75c-4.375,-10.625 -5.625,-14.167 -6.875,-18.125c-1.875,-5.417 -4.166,-2.5 -9.166,11.25c-2.292,6.25 -4.792,13.125 -5.625,15.208c-1.25,3.125 -0,3.542 11.25,3.542c9.791,-0 12.708,-0.625 12.708,-3.125Z" style="fill:#fff;fill-rule:nonzero;"></path><path d="M450,630.208c0,-1.666 0.833,-4.791 1.875,-6.875c1.875,-3.75 5.833,-12.916 8.75,-20.625c1.042,-2.708 2.708,-6.875 3.75,-9.375c2.708,-7.291 5.625,-14.583 8.542,-21.458c1.458,-3.333 3.333,-8.125 4.166,-10.417c3.334,-8.958 9.584,-24.166 12.917,-31.25c1.875,-4.166 3.958,-5.208 10.208,-5.208l7.709,-0l17.083,43.333c19.792,50.209 20.625,52.292 23.125,57.084c3.333,6.666 2.083,7.916 -8.125,7.916c-10.833,0 -11.25,-0.416 -17.083,-16.041l-2.5,-6.875l-20.417,-0c-22.292,-0 -20.625,-0.834 -27.083,16.25c-2.5,6.25 -3.125,6.666 -12.709,6.666c-7.708,0 -10.208,-0.833 -10.208,-3.125Zm62.5,-41.25c0,-1.666 -0.625,-3.541 -1.458,-4.375c-0.834,-0.833 -3.125,-6.458 -5,-12.291c-1.875,-6.042 -4.584,-10.834 -6.042,-10.834c-2.292,0 -12.5,23.542 -12.5,28.75c0,0.834 5.625,1.459 12.5,1.459c8.958,-0 12.5,-0.834 12.5,-2.709Z" style="fill:#fff;fill-rule:nonzero;"></path><path d="M600,633.333l0,-108.333l24.792,-0c21.25,-0 26.041,0.625 33.125,4.375c9.583,5.208 17.083,17.083 17.083,26.875c-0,8.75 -7.083,21.25 -14.792,25.833l-6.041,3.542l4.166,6.042c2.292,3.125 4.167,6.458 4.167,7.083c-0,0.833 4.792,8.333 10.417,17.083c5.833,8.542 10.416,16.042 10.416,16.667c0,0.417 -5,0.833 -11.25,0.833l-11.25,0l-9.583,-15.833c-5.208,-8.75 -9.583,-16.458 -9.583,-16.875c-0,-0.625 -1.875,-3.75 -4.375,-7.292c-3.334,-4.583 -5.834,-5.833 -10,-5.416l-5.417,0.625l-0.625,22.5l-0.625,22.291l-20.625,0Zm48.75,-66.875c12.917,-10.208 2.083,-25.416 -17.5,-24.375l-9.375,0.625l-0.625,11.25c-0.417,6.042 -0.208,12.5 0.417,13.959c1.875,4.791 20.416,3.75 27.083,-1.459Z" style="fill:#fff;fill-rule:nonzero;"></path><path d="M889.583,633.333l0,-108.333l10.209,-0c9.791,-0 10.208,0.208 17.708,11.458c4.167,6.25 7.5,11.875 7.5,12.709c0,0.625 1.667,3.75 3.958,6.666c4.584,6.667 13.542,21.667 18.334,31.25c1.875,3.542 4.166,6.667 5.208,6.667c0.833,0 1.667,-15.417 1.667,-34.375l-0,-34.375l20.833,-0l0,108.333l-10.208,0c-8.959,0 -10.834,-0.833 -14.584,-6.041c-2.5,-3.334 -4.375,-6.667 -4.375,-7.5c0,-0.625 -2.708,-5.209 -6.041,-10c-3.334,-4.792 -7.917,-12.292 -10.417,-16.667c-2.292,-4.167 -6.25,-10.833 -8.333,-14.792c-7.084,-12.291 -9.584,-15.833 -11.042,-15.833c-1.042,-0 -1.667,16.042 -1.667,35.417l0,35.416l-18.75,0Z" style="fill:#fff;fill-rule:nonzero;"></path><path d="M1037.5,633.333l0,-108.333l20.833,-0l0,108.333l-20.833,0Z" style="fill:#fff;fill-rule:nonzero;"></path><path d="M452.083,380.833c-46.875,-9.791 -71.875,-22.5 -99.166,-50.833c-20.209,-20.833 -31.875,-43.333 -41.459,-78.958c-3.541,-13.542 -5.625,-54.167 -2.916,-60.834l2.083,-5.416l24.167,1.458c13.125,0.833 26.041,2.292 28.541,3.333c2.292,0.834 9.584,2.709 15.834,4.167c13.541,3.125 42.083,16.042 55.208,25c11.667,8.125 30.417,26.667 38.542,38.333c19.166,28.125 31.25,70.209 31.25,109.375l-0,16.875l-21.25,-0.208c-11.875,-0.208 -25.625,-1.25 -30.834,-2.292Z" style="fill:#fff;fill-rule:nonzero;"></path><path d="M553.542,381.875c-1.875,-1.667 -0,-32.5 2.916,-51.667c7.5,-47.5 31.459,-87.083 67.5,-111.25c31.667,-21.458 64.375,-31.458 103.125,-32.083l21.875,-0.417l0.625,22.917c1.25,40.417 -10.625,76.875 -35.208,110c-21.042,27.917 -56.667,50 -93.542,57.708c-6.25,1.459 -14.791,3.334 -18.958,4.375c-8.75,2.084 -46.25,2.5 -48.333,0.417Z" style="fill:#fff;fill-rule:nonzero;"></path><path d="M513.333,262.083c-35.208,-37.083 -52.5,-72.291 -55.833,-114.166c-1.667,-18.334 3.333,-59.167 7.292,-61.667c1.041,-0.625 1.875,-2.708 1.875,-4.583c0.208,-3.542 7.5,-18.959 16.458,-34.792c11.458,-19.583 36.25,-46.875 42.917,-46.875c4.375,-0 21.875,16.042 29.583,27.083c1.875,2.917 4.792,6.459 6.25,7.917c1.458,1.458 2.708,3.542 2.708,4.583c0,1.042 1.25,3.125 2.709,4.584c3.958,4.166 15.208,26.458 19.166,38.125c16.667,48.958 10.209,101.041 -17.916,142.083c-3.334,4.792 -6.042,9.583 -6.042,10.625c0,1.25 -0.625,2.5 -1.458,2.917c-1.042,0.416 -6.875,6.666 -13.125,14.166c-12.084,14.375 -20.209,22.917 -21.459,22.917c-0.416,0 -6.25,-5.833 -13.125,-12.917Z" style="fill:#fff;fill-rule:nonzero;"></path></g></svg>