<svg xmlns="http://www.w3.org/2000/svg" xmlns:xlink="http://www.w3.org/1999/xlink" xmlns:serif="http://www.serif.com/" width="100%" height="100%" viewBox="0 0 2533 1210" xml:space="preserve" style="fill-rule:evenodd;clip-rule:evenodd;stroke-linejoin:round;stroke-miterlimit:2;"><g><g><path d="M1467.71,1209.17c-2.291,-0.417 -11.458,-2.5 -20.416,-4.375c-18.542,-3.959 -18.959,-4.584 -17.292,-24.584c1.042,-14.375 -0.208,-13.958 24.167,-8.541c24.166,5.625 66.666,6.666 83.333,2.5c26.667,-6.875 37.5,-19.167 39.167,-44.584c0.833,-13.958 0.625,-15.625 -2.5,-14.375c-22.292,8.542 -67.709,11.459 -90.834,5.834c-40,-9.792 -65.416,-36.25 -74.166,-77.709c-4.375,-20.208 -4.375,-60.833 -0,-79.583c9.583,-41.042 34.583,-66.042 76.25,-76.458c16.666,-4.167 83.958,-3.125 112.5,1.666l21.875,3.75l-0,126.042c-0,115.833 -0.209,126.875 -3.75,136.667c-8.542,24.375 -25.417,40.625 -51.667,49.166c-11.458,3.75 -18.958,4.584 -52.917,5c-21.666,0.209 -41.458,0.209 -43.75,-0.416Zm95.417,-127.917l13.958,-4.375l-0.416,-76.25l-0.625,-76.458l-8.334,-1.875c-4.583,-1.042 -21.041,-2.084 -36.458,-2.292c-36.25,-0.208 -46.042,2.708 -62.708,19.375c-16.667,16.667 -19.584,26.458 -19.584,63.75c0,22.708 0.834,31.458 3.75,40c7.5,21.25 22.5,35.833 42.709,41.667c14.166,3.958 49.791,2.083 67.708,-3.542Z" style="fill:#fff;fill-rule:nonzero;"></path><path d="M0,1125.21l0,-329.375l41.667,0l0.416,72.5l0.625,72.292l197.917,-0l0.625,-72.292l0.417,-72.5l41.666,0l0,329.167l-41.666,0l-0.417,-74.375l-0.625,-74.583l-197.917,-0l-0.416,73.958l-0.625,73.958l-41.667,1.25Z" style="fill:#fff;fill-rule:nonzero;"></path><path d="M434.375,1122.92c-26.458,-4.375 -43.333,-11.875 -60.208,-27.292c-21.667,-19.792 -32.5,-51.25 -32.5,-94.167c0.208,-54.166 17.291,-88.541 52.916,-105.625c31.875,-15.208 80.417,-16.666 110.625,-3.333c30,13.333 43.542,39.583 43.542,84.583c0,13.125 -0.625,27.5 -1.458,31.875l-1.667,7.709l-81.042,-0c-92.083,-0 -83.333,-2.084 -78.333,18.958c5.833,25 19.792,40 45,48.125c17.5,5.625 56.667,7.292 82.5,3.75c29.792,-4.167 26.875,-5.625 26.875,13.542l0,16.666l-14.583,2.5c-19.584,3.542 -76.25,5 -91.667,2.709Zm72.292,-155.209c-0.834,-17.916 -9.167,-33.541 -21.459,-41.25c-12.291,-7.5 -31.458,-10.416 -49.583,-7.5c-28.75,4.584 -44.583,20.209 -50.208,49.375c-0.834,5.417 -1.25,10.417 -0.625,11.25c0.416,1.042 28.333,1.459 61.666,1.25l60.834,-0.625l-0.625,-12.5Z" style="fill:#fff;fill-rule:nonzero;"></path><path d="M665.208,1122.92c-42.916,-7.917 -63.125,-31.042 -63.125,-72.917c0,-38.333 17.084,-60.208 54.167,-70c15,-3.958 59.375,-5.208 89.375,-2.292l17.5,1.667l-1.042,-16.458c-1.25,-21.667 -5.416,-28.542 -21.458,-36.875c-12.083,-6.25 -12.5,-6.25 -46.667,-6.25c-28.541,0.208 -37.708,1.041 -52.916,4.791c-10.209,2.5 -18.75,4.584 -19.375,4.584c-0.417,-0 -0.834,-7.709 -0.834,-17.292l0,-17.292l15.209,-3.541c46.25,-10.834 88.333,-10.209 121.666,1.875c18.75,6.666 31.667,17.708 39.584,33.75l5.833,11.875l0.625,93.333l0.625,93.125l-10.625,0c-9.375,0 -11.458,-0.833 -19.792,-8.542c-8.958,-8.125 -9.166,-8.333 -15.208,-5.208c-19.583,10.208 -68.125,16.25 -93.542,11.667Zm60.417,-36.459c7.708,-1.666 18.958,-5.625 25,-8.75l10.833,-5.833l1.25,-57.083l-7.916,-1.667c-4.375,-0.833 -24.375,-1.667 -44.375,-1.667c-35,0 -37.084,0.209 -46.875,5.209c-17.917,9.166 -24.792,31.458 -15.834,51.041c4.584,10.209 9.584,14.584 20.209,18.542c10.625,3.958 39.791,4.167 57.708,0.208Z" style="fill:#fff;fill-rule:nonzero;"></path><path d="M872.917,1125.21l-0,-241.875l28.958,0l2.083,7.917c1.25,4.375 2.917,10.833 3.542,14.583c0.833,3.75 1.875,6.667 2.292,6.667c0.625,-0 4.583,-2.917 8.958,-6.25c11.875,-9.375 32.5,-18.333 49.375,-21.25c8.333,-1.25 15.417,-2.083 16.042,-1.458c0.416,0.416 1.25,8.333 1.458,17.291l0.417,16.459l-17.5,3.541c-20.209,4.167 -31.875,9.584 -43.542,20l-8.333,7.5l-0.417,87.917l-0.625,87.708l-21.25,0.625l-21.458,0.625Z" style="fill:#fff;fill-rule:nonzero;"></path><path d="M1029.17,1125l-0,-241.667l41.666,0l0,241.667l-41.666,0Z" style="fill:#fff;fill-rule:nonzero;"></path><path d="M1139.58,1125.21l0,-241.875l28.959,0l2.083,7.917c1.25,4.375 2.917,10.833 3.542,14.583c1.666,7.709 3.333,8.125 11.458,2.292c11.458,-8.125 37.5,-18.75 53.333,-21.875c33.75,-6.458 60.625,-1.667 82.292,14.375c7.5,5.625 15.625,17.917 21.042,32.5c4.166,11.042 4.375,16.042 5.208,101.875l0.625,90.208l-42.917,-1.25l-0.208,-81.875c-0.208,-60.208 -1.042,-84.375 -3.125,-91.458c-5.833,-21.25 -28.125,-33.542 -55.833,-31.25c-17.5,1.458 -29.792,6.25 -47.5,17.917l-14.167,9.583l-2.083,177.083l-21.25,0.625l-21.459,0.625Z" style="fill:#fff;fill-rule:nonzero;"></path><path d="M1662.5,1122.5c0,-1.458 11.667,-30.417 26.042,-64.167c14.375,-33.75 31.875,-74.583 38.541,-90.625c6.875,-16.041 25.834,-61.041 42.5,-100l30,-70.833l23.75,-0.625l23.959,-0.625l30.416,71.458c84.167,197.084 107.709,252.917 107.709,255.209c-0,2.083 -5.417,2.708 -21.459,2.708l-21.458,-0l-15.417,-36.875c-8.333,-20.417 -18.333,-43.958 -22.083,-52.083l-6.875,-15.209l-54.167,0c-30,0 -54.375,-0.625 -54.166,-1.458c-0,-1.042 2.5,-8.542 5.625,-17.083l5.625,-15.209l40.416,0.209c38.959,0.416 40.209,0.208 39.167,-3.75c-2.708,-10.625 -56.875,-139.584 -58.333,-139.167c-1.042,0.208 -27.709,63.333 -59.375,140l-57.709,139.583l-21.25,0.625c-16.458,0.417 -21.458,0 -21.458,-2.083Z" style="fill:#fff;fill-rule:nonzero;"></path><path d="M2027.08,1125.21l0,-242.083l21.459,0.625l21.25,0.625l-0,239.583l-21.25,0.625l-21.459,0.625Z" style="fill:#fff;fill-rule:nonzero;"></path><path d="M2217.71,1123.75c-22.5,-4.375 -28.541,-6.25 -38.541,-11.25c-11.25,-5.833 -24.375,-17.917 -32.709,-30.208c-12.5,-18.334 -21.041,-61.875 -18.75,-94.584c3.542,-46.666 20.209,-76.041 52.084,-91.875c30,-14.791 75.625,-16.041 115.416,-3.333l4.792,1.458l0.417,-48.541l0.625,-48.542l21.458,-0.625l21.25,-0.625l0,314.583l-10.833,3.125c-31.667,8.75 -94.375,14.375 -115.209,10.417Zm68.125,-39.583l14.167,-3.334l0,-149.375l-15,-4.791c-20.417,-6.459 -59.792,-6.875 -75.417,-0.834c-13.541,5.209 -26.875,17.709 -32.291,30.209c-10.209,23.958 -10.209,63.541 0.208,91.25c7.5,20.208 25.417,35.833 46.042,40.208c11.458,2.5 44.583,0.625 62.291,-3.333Z" style="fill:#fff;fill-rule:nonzero;"></path><path d="M2414.38,832.708c-64.792,-18.333 -71.875,-104.166 -10.625,-132.083c8.958,-4.167 14.583,-5.417 27.5,-5.417c27.917,0 50.208,14.167 62.708,39.375c12.709,25.625 8.125,55.834 -11.666,77.709c-15.834,17.5 -46.042,26.458 -67.917,20.416Zm40.833,-17.291c10,-4.792 20.625,-15.209 26.459,-26.459c6.666,-12.291 6.666,-36.458 0.208,-48.541c-5.833,-11.042 -15.417,-20.625 -26.458,-26.459c-12.084,-6.458 -36.25,-6.458 -48.334,0c-11.041,5.834 -20.625,15.417 -26.458,26.459c-3.333,6.458 -4.583,12.083 -4.583,24.166c-0,13.542 0.833,17.084 6.25,26.875c6.666,12.292 18.958,22.5 31.875,26.667c10.208,3.542 31.041,2.083 41.041,-2.708Z" style="fill:#fff;fill-rule:nonzero;"></path><path d="M2401.46,802.917c-1.875,-1.875 -1.875,-72.084 -0.208,-76.667c1.042,-2.708 4.792,-3.333 18.333,-3.333c19.584,-0 29.792,2.5 36.25,8.333c9.584,8.958 7.5,24.375 -4.166,30.417l-6.25,3.333l5.208,5.417c2.708,3.125 6.875,10.833 8.75,17.083c2.083,6.25 4.167,12.708 4.792,14.167c0.625,2.083 -0.834,2.708 -6.042,2.083c-6.458,-0.625 -7.083,-1.458 -10.625,-13.125c-5,-16.042 -8.75,-19.583 -22.083,-21.25l-10.625,-1.25l-0.625,17.5c-0.625,17.083 -0.834,17.5 -5.834,18.125c-2.916,0.417 -6.041,0 -6.875,-0.833Zm38.75,-44.792c6.875,-3.125 10.209,-10.833 7.709,-17.292c-2.084,-5.833 -11.667,-9.583 -24.167,-9.583l-9.167,0l0,29.167l10.417,-0c5.625,-0 12.5,-1.042 15.208,-2.292Z" style="fill:#fff;fill-rule:nonzero;"></path><path d="M1029.17,831.25l-0,-35.417l41.666,0l0,35.417l-41.666,0Z" style="fill:#fff;fill-rule:nonzero;"></path><path d="M2028.54,830c-0.834,-0.833 -1.459,-8.958 -1.459,-17.917l0,-16.458l21.459,0.625l21.25,0.625l-0,33.333l-19.792,0.625c-11.042,0.209 -20.625,0 -21.458,-0.833Z" style="fill:#fff;fill-rule:nonzero;"></path><path d="M0.833,715.625c-0.416,-1.042 -0.625,-160.417 -0.416,-354.167l0.625,-352.083l66.875,-0.625c52.083,-0.417 67.291,0.208 68.958,2.083c1.042,1.459 4.375,8.334 7.292,15.209c4.583,10.416 48.541,108.958 212.5,475.625c10.416,23.125 19.375,42.083 20.208,42.083c0.625,0 8.958,-18.125 18.542,-40.208c9.583,-21.875 62.083,-142.084 116.666,-267.084l99.584,-227.083l131.041,0l0.625,353.75c0.417,335.625 0.209,353.542 -3.125,353.75c-2.083,0 -29.375,0.417 -60.625,0.417c-56.25,0.416 -56.875,0.416 -57.916,-3.959c-0.625,-2.5 -0.834,-112.291 -0.417,-244.166c0.417,-131.875 -0,-239.167 -0.833,-238.334c-1.459,1.459 -40.417,100.625 -144.792,369.167c-24.583,63.542 -45.208,116.042 -45.625,116.25c-0.208,0.417 -25.625,0.833 -56.458,0.833l-55.834,0l-52.083,-130.416c-28.542,-71.667 -72.292,-181.042 -96.875,-242.917c-24.583,-61.875 -45.417,-112.5 -46.25,-112.5c-1.042,0 -1.667,109.375 -1.667,243.333l0,243.125l-59.583,0c-37.917,0 -60,-0.833 -60.417,-2.083Z" style="fill:#fff;fill-rule:nonzero;"></path><path d="M892.5,715.625c-0.417,-1.042 -0.625,-160.417 -0.417,-354.167l0.625,-352.083l173.959,0c155.833,0 176.875,0.417 201.458,3.75c108.542,14.792 178.333,57.917 222.083,136.875c16.042,29.167 28.75,70.417 36.042,116.667c4.792,30 5.417,119.791 1.042,155.208c-21.25,176.875 -106.875,271.25 -264.792,291.667c-19.375,2.5 -57.708,3.333 -196.667,3.75c-113.541,0.208 -172.916,-0.209 -173.333,-1.667Zm315.625,-113.75c106.667,-10 166.25,-68.333 185.833,-182.083c6.875,-38.959 6.875,-108.75 0,-140.209c-9.583,-45.208 -24.375,-75 -50,-100.625c-25.625,-25.625 -55.208,-40.416 -100.625,-50.208c-20.416,-4.375 -26.25,-4.583 -120.416,-4.583l-98.959,-0.209l-0.625,237.5c-0.208,130.625 0,238.75 0.625,240.209c1.25,3.333 148.959,3.541 184.167,0.208Z" style="fill:#fff;fill-rule:nonzero;"></path></g><g><path d="M1568.12,724.167c-4.167,-1.667 -8.958,-3.959 -10.625,-5.209c-8.75,-7.291 -12.5,-30.208 -6.667,-41.458c2.709,-5.208 68.125,-68.125 100,-96.042c6.875,-6.041 31.875,-29.166 55.417,-51.25c23.542,-21.875 48.958,-45.416 56.458,-52.291c7.5,-6.667 37.709,-34.792 67.084,-62.292c50.625,-47.083 53.333,-50 50,-53.333c-2.084,-1.875 -32.292,-30.417 -67.084,-63.542c-35,-33.125 -71.666,-67.708 -81.666,-76.875c-10,-9.167 -40.417,-37.708 -67.5,-63.542c-27.084,-25.833 -63.125,-59.583 -79.792,-75.208c-16.875,-15.833 -31.667,-31.25 -33.125,-34.375c-1.458,-3.333 -2.5,-10.833 -2.708,-16.458c-0.209,-23.542 22.5,-38.542 44.583,-29.375c9.375,3.958 26.25,19.583 262.708,243.958c43.542,41.25 84.584,80.208 91.25,86.458c20.209,18.75 24.584,32.292 15.625,48.125c-2.5,4.584 -26.458,28.542 -53.541,53.542c-68.125,62.917 -77.917,72.083 -155.417,144.167c-37.5,35 -76.458,71.041 -86.458,80.208c-10,9.167 -30,27.5 -44.375,40.833c-30,27.917 -35.834,30.417 -54.167,23.959Z" style="fill:#fff;fill-rule:nonzero;"></path></g><g><path d="M2136.67,725c-18.334,-5.625 -27.917,-30 -18.334,-47.5c1.875,-3.75 39.167,-39.792 82.917,-80.208c176.042,-162.917 239.583,-221.875 244.167,-226.875l4.583,-5.209l-28.75,-26.875c-36.875,-34.166 -173.75,-163.75 -202.5,-191.25c-12.083,-11.666 -38.75,-36.875 -59.167,-56.458c-20.625,-19.375 -39.166,-38.125 -41.25,-41.667c-4.791,-8.125 -4.791,-22.916 0.209,-32.291c4.375,-8.125 18.541,-16.667 27.708,-16.667c9.167,0 19.792,5.208 30.625,15c5.417,5 45.417,42.708 88.958,83.958c43.334,41.25 111.875,105.834 151.875,143.542c102.709,96.667 112.917,107.083 114.584,116.458c0.833,4.167 0.833,11.25 -0,15.625c-1.459,8.959 -4.375,11.875 -85.417,86.875c-56.667,52.5 -140.417,130.209 -225.625,209.167c-27.917,25.833 -54.583,49.167 -59.167,51.875c-8.958,4.792 -15.416,5.417 -25.416,2.5Z" style="fill:#fff;fill-rule:nonzero;"></path></g><g><path d="M1851.46,725c-5.208,-1.042 -10.833,-4.167 -15.625,-8.958c-6.25,-6.25 -7.5,-9.167 -8.333,-18.959c-0.625,-6.875 0.208,-14.166 1.667,-17.916c1.458,-3.75 23.333,-25.417 52.916,-52.709c27.5,-25.416 64.792,-59.791 82.5,-76.458c17.917,-16.667 69.167,-64.167 114.167,-105.833c44.792,-41.667 81.667,-76.875 81.667,-78.542c-0,-1.458 -3.542,-5.833 -7.917,-9.792c-4.375,-3.75 -58.125,-54.166 -119.375,-112.291c-61.25,-57.917 -130.833,-123.75 -155,-146.459c-24.167,-22.708 -45.417,-44.166 -47.292,-47.708c-4.791,-8.542 -4.791,-23.542 0.209,-32.708c4.375,-8.334 18.541,-16.667 28.333,-16.667c11.042,-0 22.292,7.917 55.625,39.583c17.5,16.459 55.417,52.084 83.958,79.167c28.75,27.083 79.792,75.417 113.542,107.5c33.75,31.875 76.042,71.875 94.167,88.958c17.916,16.875 33.958,33.959 35.833,37.709c4.583,9.583 4.167,21.25 -0.833,29.375c-2.292,3.75 -13.75,15.416 -25.417,26.25c-11.875,10.833 -28.958,26.666 -38.125,35.208c-93.75,87.708 -299.167,277.083 -302.5,278.75c-6.042,3.125 -15.625,3.958 -24.167,2.5Z" style="fill:#fff;fill-rule:nonzero;"></path></g></g></svg>