<svg xmlns="http://www.w3.org/2000/svg" xmlns:xlink="http://www.w3.org/1999/xlink" xmlns:serif="http://www.serif.com/" width="100%" height="100%" viewBox="0 0 2473 568" xml:space="preserve" style="fill-rule:evenodd;clip-rule:evenodd;stroke-linejoin:round;stroke-miterlimit:2;"><g><g><path d="M2415.42,452.532c0.625,-4.375 1.875,-4.791 14.791,-5.416c10.625,-0.417 13.959,-1.25 13.959,-3.542c-0,-2.5 -2.917,-3.125 -12.292,-3.125c-16.667,0 -18.958,-2.5 -18.958,-20.833c-0,-8.125 1.041,-15 2.291,-15.834c3.75,-2.291 7.084,2.917 6.459,10.209c-0.417,3.75 0.208,9.375 1.458,12.5c1.875,5 3.333,5.625 11.458,5.625c10.834,-0 12.917,-3.334 10.625,-16.459c-0.833,-5.625 -0.416,-8.541 1.875,-10.416c6.042,-5 7.5,-0.417 7.5,22.708c0,27.917 -1.041,29.167 -24.583,29.167c-14.583,-0 -15.208,-0.209 -14.583,-4.584Z" style="fill:#fff;fill-rule:nonzero;"></path><path d="M694.583,451.491c0.625,-3.125 3.542,-3.959 16.25,-4.792c18.542,-1.25 20,-4.792 1.875,-5.417c-6.875,-0.208 -13.333,-1.041 -14.166,-2.083c-1.042,-1.042 -2.292,-7.5 -3.125,-14.375c-1.875,-17.917 0.416,-20.417 18.75,-20.625c22.083,-0.208 21.666,-0.833 21.666,24.583c0,26.25 0,26.25 -25,26.25c-15,0 -16.875,-0.416 -16.25,-3.541Zm32.5,-28.125l-0.625,-11.042l-10.416,0c-9.792,0 -10.209,0.208 -11.459,6.458c-0.833,3.542 -0.625,8.334 0.209,10.834c1.458,3.958 3.333,4.583 12.291,4.583l10.625,0l-0.625,-10.833Z" style="fill:#fff;fill-rule:nonzero;"></path><path d="M1727.92,451.491c0.625,-3.125 3.541,-3.959 16.25,-4.792c18.541,-1.25 19.791,-4.792 1.875,-5.417c-16.667,-0.625 -18.542,-2.5 -18.542,-18.541c-0,-16.25 2.083,-18.125 20.417,-18.542c21.666,-0.208 21.25,-0.833 21.25,24.583c-0,26.25 -0,26.25 -25,26.25c-15,0 -16.875,-0.416 -16.25,-3.541Zm32.5,-24.375c0.416,-3.125 0.208,-8.125 -0.417,-10.834c-1.25,-4.375 -2.5,-5 -11.458,-5c-9.584,0 -10.417,0.417 -11.667,6.042c-0.625,3.333 -0.625,8.333 0.208,11.458c1.25,5.209 1.875,5.625 12.084,5c10,-0.625 10.625,-1.041 11.25,-6.666Z" style="fill:#fff;fill-rule:nonzero;"></path><path d="M2326.88,453.574c-0.833,-0.625 -0.417,-2.5 0.833,-4.167c1.667,-1.666 7.292,-2.708 16.875,-2.708c18.542,0 18.542,-4.375 0,-5.417c-7.083,-0.208 -13.958,-1.25 -15,-1.875c-1.25,-0.625 -2.083,-8.333 -2.083,-16.875c0,-18.125 0.208,-18.333 21.042,-18.541c19.375,-0 20.625,1.458 20.625,25c-0,24.791 -1.25,26.041 -24.375,26.041c-9.167,0 -17.292,-0.625 -17.917,-1.458Zm33.333,-22.708c0.625,-1.875 0.417,-6.875 -0.625,-11.042c-1.666,-7.083 -2.5,-7.5 -11.041,-8.125c-10,-0.833 -12.709,1.25 -12.709,10.417c0,10.416 1.875,12.083 12.709,12.083c7.5,0 10.625,-0.833 11.666,-3.333Z" style="fill:#fff;fill-rule:nonzero;"></path><path d="M1101.67,437.741c-1.25,-5.625 0.208,-40.417 1.875,-43.125c0.833,-1.25 3.958,-2.084 7.083,-2.084c5,0 6.667,1.875 13.958,16.667c4.375,9.167 8.959,16.458 10.209,16.042c1.041,-0.417 4.583,-5.625 7.708,-11.667c8.958,-17.708 11.667,-21.042 17.292,-21.042c7.5,0 9.375,6.667 7.916,29.167c-0.833,13.958 -2.083,19.375 -4.375,20.208c-4.791,1.875 -6.666,-3.75 -5.625,-17.5c0.625,-7.916 0.209,-13.125 -1.041,-13.125c-1.042,0 -5.209,6.459 -9.375,14.375c-3.959,7.917 -8.125,15 -9.167,15.625c-3.958,2.5 -8.958,-1.875 -14.792,-13.125c-3.125,-6.458 -7.291,-13.541 -9.166,-15.833c-3.125,-3.958 -3.125,-3.75 -2.917,3.125c0.208,3.958 0.208,11.667 -0,17.292c-0.417,8.125 -1.042,9.791 -4.375,9.791c-2.292,0 -4.375,-1.875 -5.208,-4.791Z" style="fill:#fff;fill-rule:nonzero;"></path><path d="M548.333,440.449l0,-47.917l20,0c27.709,0 27.917,0.209 27.917,22.917c0,24.583 -0.417,25 -27.292,25l-20.625,0Zm35,-9.583c1.875,-0.625 2.5,-4.792 2.084,-14.792l-0.625,-14.167l-11.459,-1.25c-6.25,-0.625 -12.083,-0.833 -12.916,-0.416c-1.875,1.041 -2.292,30.625 -0.625,32.291c1.25,1.25 18.541,0 23.541,-1.666Z" style="fill:#fff;fill-rule:nonzero;"></path><path d="M638.958,435.866c-0.625,-2.709 -0.833,-10.834 -0.416,-18.334c0.416,-12.083 0.833,-13.541 4.583,-13.541c3.75,-0 4.167,1.666 4.792,18.333c0.625,17.083 0.416,18.125 -3.542,18.125c-2.708,0 -4.792,-1.667 -5.417,-4.583Z" style="fill:#fff;fill-rule:nonzero;"></path><path d="M779.583,422.949c0,-14.375 0.625,-17.708 3.542,-18.75c4.792,-1.875 6.042,1.25 6.667,15.625c0.625,15.417 -1.042,20.625 -6.25,20.625c-3.542,0 -3.959,-1.667 -3.959,-17.5Z" style="fill:#fff;fill-rule:nonzero;"></path><path d="M835.208,436.907c-0.625,-2.083 -0.833,-12.708 -0.625,-23.541c0.209,-18.75 0.417,-19.792 5,-20.417c3.959,-0.625 4.584,0.208 4.584,5.625c-0,5.417 0.833,6.458 5.208,6.458c3.333,0 5.208,1.25 5.208,3.125c0,1.875 -1.875,3.125 -5.208,3.125c-5,0 -5.208,0.417 -5.208,14.584c-0,13.125 -0.417,14.583 -3.959,14.583c-2.291,0 -4.583,-1.667 -5,-3.542Z" style="fill:#fff;fill-rule:nonzero;"></path><path d="M900.833,437.949c-1.458,-1.458 -2.5,-6.042 -2.5,-10.417c0,-9.791 3.959,-12.083 19.584,-12.083c6.458,0 11.666,-0.833 11.666,-2.083c0,-1.25 -6.666,-2.084 -15.833,-2.084c-13.75,0 -15.625,-0.416 -15,-3.541c0.625,-3.334 3.125,-3.75 17.917,-3.542c10.208,0.208 18.333,1.25 20.208,2.917c3.958,3.125 4.375,27.083 0.625,30.833c-1.458,1.458 -8.75,2.5 -18.333,2.5c-9.584,0 -16.875,-1.042 -18.334,-2.5Zm27.5,-7.083c4.167,-4.167 4.167,-6.25 0,-7.917c-8.75,-3.333 -19.583,-0.625 -19.583,5c0,6.667 13.958,8.75 19.583,2.917Z" style="fill:#fff;fill-rule:nonzero;"></path><path d="M983.75,440.449l0,-47.917l10.417,0l-0,47.917l-10.417,0Z" style="fill:#fff;fill-rule:nonzero;"></path><path d="M1213.96,435.449c-4.375,-6.667 -2.083,-15.417 4.584,-18.125c2.708,-1.042 9.791,-1.875 15.416,-1.875c6.459,0 10,-0.833 9.167,-2.083c-0.625,-1.042 -7.708,-2.084 -15.833,-2.084c-11.459,0 -14.375,-0.625 -14.375,-3.125c-0,-3.541 -0.417,-3.541 20.625,-3.541c8.333,-0 16.041,0.833 17.291,2.083c1.042,1.042 1.667,8.75 1.25,17.292l-0.625,15.416l-17.083,0.625c-16.042,0.625 -17.292,0.209 -20.417,-4.583Zm29.167,-7.5c0,-5.833 -3.958,-7.292 -14.792,-5.208c-12.916,2.291 -7.291,12.083 6.459,11.041c7.291,-0.625 8.333,-1.25 8.333,-5.833Z" style="fill:#fff;fill-rule:nonzero;"></path><path d="M1296.25,425.032c0,-9.791 1.042,-16.041 2.708,-17.5c4.584,-3.541 16.042,-5.208 19.167,-2.5c4.167,3.542 1.875,6.25 -5,6.25c-6.875,0 -8.542,3.75 -8.542,19.375c0,8.334 -0.625,9.792 -4.166,9.792c-3.75,0 -4.167,-1.458 -4.167,-15.417Z" style="fill:#fff;fill-rule:nonzero;"></path><path d="M1362.92,416.282c-0,-23.75 -0,-23.958 4.791,-23.333c3.959,0.625 4.584,1.667 3.959,9.375c-0.417,4.792 0.208,10.417 1.25,12.292c1.666,2.916 2.708,2.5 8.958,-2.917c3.958,-3.333 9.167,-6.667 11.667,-7.5c7.916,-2.5 7.083,2.292 -1.875,10l-8.959,7.5l8.959,8.333c4.791,4.792 8.75,8.959 8.75,9.375c-0,3.75 -11.042,-0.208 -18.125,-6.25c-9.167,-7.708 -11.042,-7.5 -11.042,1.459c0,4.375 -1.042,5.833 -4.167,5.833c-3.958,0 -4.166,-1.458 -4.166,-24.167Z" style="fill:#fff;fill-rule:nonzero;"></path><path d="M1444.58,437.949c-3.75,-3.75 -3.333,-27.708 0.625,-30.833c1.875,-1.459 9.375,-2.709 17.5,-2.917c15.625,-0.208 21.042,2.5 21.042,10.208c0,4.167 -2.083,5.625 -14.792,9.792c-8.125,2.708 -15,5.833 -15.208,6.875c0,1.25 6.458,2.292 15,2.708c11.458,0.417 15,1.25 15,3.542c0,2.5 -3.75,3.125 -18.333,3.125c-11.459,0 -19.167,-0.833 -20.834,-2.5Zm21.042,-20.625c4.375,-1.042 7.292,-2.917 6.667,-4.167c-1.875,-2.708 -16.459,-2.291 -19.375,0.625c-6.042,6.042 -1.042,7.5 12.708,3.542Z" style="fill:#fff;fill-rule:nonzero;"></path><path d="M1526.67,436.907c-0.834,-2.916 -0.417,-32.083 0.625,-42.708c0.208,-1.042 2.083,-1.667 4.375,-1.667c3.333,0 4.166,1.459 4.166,6.25c0,5.209 0.834,6.25 5.209,6.25c3.333,0 5.208,1.25 5.208,3.125c-0,1.875 -1.875,3.125 -5.208,3.125c-5,0 -5.209,0.417 -5.209,14.584c0,13.125 -0.416,14.583 -3.958,14.583c-2.292,0 -4.583,-1.667 -5.208,-3.542Z" style="fill:#fff;fill-rule:nonzero;"></path><path d="M1588.96,435.866c-0.625,-2.709 -0.833,-10.834 -0.416,-18.334c0.416,-12.083 0.833,-13.541 4.583,-13.541c3.75,-0 4.167,1.666 4.792,18.333c0.625,17.083 0.416,18.125 -3.542,18.125c-2.708,0 -4.792,-1.667 -5.417,-4.583Z" style="fill:#fff;fill-rule:nonzero;"></path><path d="M1642.08,425.032c0,-18.958 1.459,-20.416 20.834,-20.625c19.375,0 20.833,1.459 20.833,20.625c-0,13.959 -0.417,15.417 -4.167,15.417c-4.791,0 -4.583,0.417 -5.208,-14.167c-0.208,-6.041 -1.042,-11.458 -1.667,-12.083c-1.875,-2.083 -17.708,-2.083 -19.583,0c-0.833,0.833 -1.875,6.25 -1.875,11.875c-0.417,14.375 -0.417,14.375 -5,14.375c-3.75,0 -4.167,-1.458 -4.167,-15.417Z" style="fill:#fff;fill-rule:nonzero;"></path><path d="M1876.46,438.157c-2.291,-3.333 -0.416,-4.166 14.792,-5.208c16.042,-1.25 17.5,-1.667 17.5,-6.875c0,-4.167 -7.083,-6.458 -19.583,-6.458c-9.792,-0 -12.709,-2.917 -12.5,-12.292c0.416,-13.333 2.708,-14.792 24.166,-14.792c16.667,0 18.542,0.417 17.917,3.75c-0.625,2.917 -3.125,3.542 -15,3.75c-14.167,0.209 -18.75,2.5 -16.458,8.125c0.416,1.459 6.666,3.334 13.75,4.167c15.625,1.667 18.125,3.542 18.125,13.542c-0,11.875 -4.375,14.583 -24.584,14.583c-9.583,0 -17.5,-1.042 -18.125,-2.292Z" style="fill:#fff;fill-rule:nonzero;"></path><path d="M1964.38,436.907c-0.625,-2.083 -0.833,-12.708 -0.833,-23.541c0.416,-18.75 0.625,-19.792 5.208,-20.417c3.958,-0.625 4.583,0.208 4.583,5.625c0,5 1.042,6.25 5.209,6.875c2.916,0.417 5.416,1.667 5.416,2.708c0,1.25 -2.5,2.292 -5.416,2.709c-5,0.625 -5.209,1.25 -5.209,15.208c0,12.917 -0.416,14.375 -3.958,14.375c-2.292,0 -4.583,-1.667 -5,-3.542Z" style="fill:#fff;fill-rule:nonzero;"></path><path d="M2025.42,425.032c-0,-16.666 1.041,-18.541 11.875,-20.625c8.125,-1.666 13.125,0 13.125,3.959c-0,1.875 -2.5,2.916 -7.292,2.916l-7.292,0l0,14.584c0,14.166 -0.208,14.583 -5.208,14.583c-5,0 -5.208,-0.417 -5.208,-15.417Z" style="fill:#fff;fill-rule:nonzero;"></path><path d="M2096.46,438.574c-4.583,-2.917 -3.958,-16.667 0.834,-20.208c2.083,-1.667 8.958,-2.917 15,-2.917c6.041,0 11.041,-0.833 11.041,-2.083c0,-1.25 -6.25,-2.084 -14.375,-2.084c-15.208,0 -19.166,-1.875 -13.75,-6.25c3.75,-3.125 33.959,-1.25 37.292,2.084c3.333,3.333 2.708,25.833 -0.625,30c-2.083,2.5 -6.458,3.333 -17.708,3.333c-8.125,0 -16.25,-0.833 -17.709,-1.875Zm27.292,-7.917c5.417,-6.666 -6.667,-12.083 -17.917,-7.708c-3.333,1.25 -4.583,7.292 -1.875,10c2.292,2.292 17.292,0.625 19.792,-2.292Z" style="fill:#fff;fill-rule:nonzero;"></path><path d="M2178.96,436.907c-0.416,-2.083 -0.625,-12.708 -0.625,-23.541c0.209,-18.959 0.417,-19.792 5,-20.417c3.959,-0.625 4.584,0.208 4.584,5.625c-0,5.417 0.833,6.458 5.208,6.458c3.333,0 5.208,1.25 5.208,3.125c0,1.875 -1.875,3.125 -5.208,3.125c-5,0 -5.208,0.417 -5.208,14.584c-0,13.125 -0.417,14.583 -3.959,14.583c-2.291,0 -4.583,-1.667 -5,-3.542Z" style="fill:#fff;fill-rule:nonzero;"></path><path d="M2245.42,437.116c-4.584,-4.375 -4.584,-26.25 -0.209,-30c1.875,-1.459 9.375,-2.709 17.5,-2.917c15.625,-0.208 21.042,2.5 21.042,10.208c0,3.959 -2.292,5.417 -15,9.584c-8.333,2.708 -15.208,6.041 -15.208,7.083c-0,1.25 6.875,2.292 15.208,2.708c11.458,0.417 15,1.25 15,3.542c0,4.583 -33.75,4.375 -38.333,-0.208Zm19.166,-19.375c4.792,-1.459 8.75,-3.334 8.75,-4.375c0,-3.334 -17.916,-2.5 -20.833,1.041c-2.292,2.917 -1.042,8.125 1.667,6.459c0.833,-0.417 5.416,-1.875 10.416,-3.125Z" style="fill:#fff;fill-rule:nonzero;"></path><path d="M641.458,399.616c-2.916,-3.125 -1.25,-7.084 2.917,-7.084c2.917,0 3.958,1.042 3.542,3.542c-0.625,3.75 -4.167,5.625 -6.459,3.542Z" style="fill:#fff;fill-rule:nonzero;"></path><path d="M781.042,399.616c-3.334,-3.334 -1.25,-7.292 3.333,-6.667c2.5,0.417 4.583,2.083 4.583,3.75c0,3.333 -5.416,5.208 -7.916,2.917Z" style="fill:#fff;fill-rule:nonzero;"></path><path d="M1591.46,399.616c-2.916,-3.125 -1.25,-7.084 2.917,-7.084c2.917,0 3.958,1.042 3.542,3.542c-0.625,3.75 -4.167,5.625 -6.459,3.542Z" style="fill:#fff;fill-rule:nonzero;"></path><path d="M548.333,359.616c-1.25,-0.417 -2.083,-2.084 -2.083,-3.75c0,-2.5 132.5,-2.917 955.417,-2.917c850.416,0 955.208,0.417 954.583,3.125c-0.625,2.708 -106.042,3.125 -953.333,3.75c-523.75,0.208 -953.542,0.208 -954.584,-0.208Z" style="fill:#fff;fill-rule:nonzero;"></path><path d="M1579.17,332.741c-4.375,-1.042 -4.167,2.083 -3.75,-38.125c0.416,-41.875 -1.042,-40.209 31.875,-39.167c30.625,0.833 30.625,0.833 30.625,27.917c-0,18.333 -0.209,19.583 -5.417,23.541c-4.792,3.75 -8.542,4.375 -25,4.375l-19.375,0l-0.625,10.834c-0.625,10.833 -1.875,12.291 -8.333,10.625Zm44.166,-35.834c1.042,-2.291 2.084,-8.541 2.084,-13.75c-0,-15.833 -2.084,-17.708 -18.334,-17.708c-8.333,0 -15.208,1.042 -16.666,2.5c-1.459,1.458 -2.5,8.75 -2.5,17.708l-0,15.209l16.666,-0c14.167,-0 16.875,-0.625 18.75,-3.959Z" style="fill:#fff;fill-rule:nonzero;"></path><path d="M1658.75,332.116l-5.208,-1.25l-0,-33.542c-0,-43.333 -0.625,-42.292 29.583,-42.292c20.625,0 28.75,1.875 32.292,7.084c0.833,1.25 1.666,10.833 1.666,21.458c0,18.125 -0.208,19.375 -5.416,23.333c-4.792,3.75 -8.542,4.375 -25,4.375l-19.584,0l0,10.209c0,11.458 -0.833,12.708 -8.333,10.625Zm43.75,-36.667c1.25,-2.917 2.083,-8.333 2.083,-12.292c0,-3.958 -0.833,-9.375 -2.083,-12.291c-1.875,-5 -2.917,-5.417 -16.25,-5.417c-8.333,0 -15.208,1.042 -16.667,2.5c-1.458,1.458 -2.5,8.75 -2.5,17.708l0,15.209l16.667,-0c16.042,-0 16.875,-0.209 18.75,-5.417Z" style="fill:#fff;fill-rule:nonzero;"></path><path d="M2174.79,311.699c-3.959,-1.667 -35,-54.583 -33.542,-57.083c1.875,-2.917 10.625,-1.667 13.75,2.083c1.667,1.875 6.667,10.208 11.042,18.125c13.541,24.792 11.458,24.792 25,1.042c12.291,-21.875 15.208,-24.792 21.875,-21.667c3.541,1.667 2.5,4.167 -10.417,27.917c-12.708,23.125 -18.958,31.666 -22.708,31.041c-0.625,0 -2.917,-0.833 -5,-1.458Z" style="fill:#fff;fill-rule:nonzero;"></path><path d="M1412.92,306.282c-0,-6.666 3.125,-7.5 25.833,-7.5c20.208,0 24.167,-1.458 24.167,-9.583c-0,-7.083 -3.959,-8.75 -21.875,-9.375c-23.542,-1.042 -28.125,-4.375 -28.125,-19.792c-0,-6.25 0.833,-13.333 2.083,-15.416c3.333,-6.042 13.75,-8.334 38.542,-8.334c18.958,0 23.75,0.625 24.791,3.125c2.917,8.125 -0.416,9.375 -23.958,9.375c-22.5,0 -22.917,0 -24.792,5.417c-1.458,3.542 -1.458,6.667 0,9.375c1.875,3.333 4.584,3.958 16.875,3.958c14.375,0 27.084,3.542 30,8.334c0.834,1.458 1.459,7.916 1.459,14.166c-0,10 -0.834,12.5 -5.625,16.459c-5,4.375 -7.292,4.791 -32.5,4.791l-26.875,0l-0,-5Z" style="fill:#fff;fill-rule:nonzero;"></path><path d="M1500.83,307.741c-3.75,-3.334 -4.375,-6.667 -5,-27.709l-0.625,-23.958l6.875,-0.625l6.667,-0.625l0,19.792c0,23.125 0.833,24.166 19.583,24.166c15.834,0 18.542,-4.166 17.709,-26.458l-0.834,-16.25l6.875,-0.625l6.667,-0.625l0,23.958c0,23.334 -0.208,23.959 -5.417,28.125c-4.791,3.75 -8.541,4.375 -26.875,4.375c-17.5,0 -22.291,-0.625 -25.625,-3.541Z" style="fill:#fff;fill-rule:nonzero;"></path><path d="M1737.92,308.574c-4.792,-2.292 -5.209,-4.167 -6.25,-19.167c-2.292,-31.666 1.458,-35.208 35.208,-33.958c27.708,0.833 28.125,1.458 28.333,27.917c0,26.666 -1.25,27.916 -31.041,27.916c-12.709,0 -23.125,-1.041 -26.25,-2.708Zm40.625,-8.75l-0,-33.333l-14.375,-0.625c-7.917,-0.417 -15.209,0.208 -16.25,1.25c-2.917,2.916 -4.375,21.875 -1.875,28.125c2.291,5.625 2.5,5.833 17.291,5.208l15.209,-0.625Z" style="fill:#fff;fill-rule:nonzero;"></path><path d="M1806.67,287.741c-0,-29.375 1.875,-32.084 22.916,-33.125c13.125,-0.625 13.542,-0.417 13.542,4.583c0,4.792 -1.042,5.208 -10.417,6.25l-10.416,1.042l-0.625,22.5l-0.625,22.291l-14.375,0l-0,-23.541Z" style="fill:#fff;fill-rule:nonzero;"></path><path d="M1856.67,311.282l-0,-75.208l6.875,0.625c6.458,0.625 6.666,1.042 6.666,10l0,9.375l7.5,-0.625c8.125,-0.625 11.25,2.708 8.75,9.167c-0.833,2.5 -2.916,2.916 -7.916,2.083c-8.75,-1.667 -9.375,0 -9.375,25l-0,19.583l-12.5,0Z" style="fill:#fff;fill-rule:nonzero;"></path><path d="M1944.58,305.657l0.625,-5.833l21.667,-0.625c22.917,-0.625 27.292,-2.083 27.292,-9.583c-0,-7.709 -4.167,-9.584 -19.584,-9.584c-26.041,0 -36.458,-10.208 -30.416,-29.791c3.541,-11.875 10.833,-14.167 41.25,-13.542l24.375,0.625l-0,10.417l-23.542,0.625c-22.292,0.625 -23.542,0.833 -25.625,5.416c-1.667,3.542 -1.667,6.042 0,8.959c1.875,3.75 4.792,4.375 20.833,5.208c24.375,1.042 27.292,3.333 27.292,21.667c0,11.666 -0.625,13.541 -5.417,17.291c-5,3.959 -8.333,4.375 -32.5,4.375l-26.875,0l0.625,-5.625Z" style="fill:#fff;fill-rule:nonzero;"></path><path d="M2031.46,307.324c-4.583,-3.75 -5,-5.417 -5,-24.167c0.209,-26.875 1.459,-28.125 30.417,-28.125c28.125,0 35,3.959 32.708,18.75c-0.625,4.167 -3.75,5.625 -24.166,11.459c-12.917,3.75 -24.167,7.291 -24.792,8.125c-0.625,0.625 0,2.5 1.458,4.375c2.084,2.5 7.5,3.125 25.209,3.125l22.708,-0l0,10.416l-26.875,0c-23.333,0 -27.5,-0.416 -31.667,-3.958Zm30,-31.458c20,-6.25 18.125,-10.417 -4.583,-10.417c-13.333,0 -16.875,2.292 -16.875,11.042c-0,4.583 0.833,5.625 3.75,4.791c1.875,-0.625 9.792,-3.125 17.708,-5.416Z" style="fill:#fff;fill-rule:nonzero;"></path><path d="M2100.21,303.991c-0.208,-3.959 -0.416,-11.875 -0.416,-17.709c-0,-28.541 1.041,-30 22.708,-32.5c12.083,-1.25 12.917,-1.041 14.375,3.334c1.875,5.833 -1.458,8.333 -11.875,8.333c-10.417,0 -12.083,3.75 -12.083,26.875l-0,18.958l-6.25,0c-5.625,0 -6.25,-0.625 -6.459,-7.291Z" style="fill:#fff;fill-rule:nonzero;"></path><path d="M2221.25,311.282l0,-56.25l14.583,0l0,56.25l-14.583,0Z" style="fill:#fff;fill-rule:nonzero;"></path><path d="M2257.92,306.907c-5.209,-3.958 -5.417,-5.208 -5.417,-23.958c0,-27.083 1.042,-27.917 30.208,-27.917c21.875,0 21.875,0 21.875,5.209c0,5 -0.416,5 -18.125,5.625l-18.333,0.625l0,33.333l18.333,0.625c17.709,0.625 18.125,0.625 18.125,5.625c0,5.208 -0.208,5.208 -20.625,5.208c-17.5,0 -21.25,-0.625 -26.041,-4.375Z" style="fill:#fff;fill-rule:nonzero;"></path><path d="M2321.67,307.949c-4.167,-2.917 -4.584,-4.792 -4.584,-24.583c0,-17.5 0.625,-22.084 3.542,-24.375c2.5,-2.084 10.208,-2.917 28.125,-2.917c28.125,0 31.667,1.667 30.417,15.417l-0.625,7.291l-21.875,6.25c-26.042,7.709 -28.334,8.75 -24.792,12.917c1.875,2.083 8.125,2.917 25,2.917l22.708,-0l0,10.416l-26.666,0c-20.625,0 -27.5,-0.625 -31.25,-3.333Zm42.291,-38.542c0,-3.125 -18.75,-5.208 -27.291,-3.125c-5.209,1.459 -7.709,6.25 -6.042,11.667c1.042,3.333 2.292,3.333 17.292,-1.042c10,-2.916 16.041,-5.625 16.041,-7.5Z" style="fill:#fff;fill-rule:nonzero;"></path><path d="M2390.62,307.949c-2.083,-5.625 1.875,-6.875 22.292,-7.5c19.583,-0.625 19.791,-0.625 19.791,-5.833c0,-5 -0.625,-5.209 -16.875,-6.25c-20.833,-1.25 -23.75,-3.334 -23.75,-16.875c0,-14.584 3.542,-16.459 32.709,-16.459c12.708,0 23.75,0.834 24.375,1.875c0.833,1.042 0.625,3.334 -0,5.209c-1.042,2.708 -4.792,3.333 -20.417,3.333c-21.042,0 -26.458,1.875 -22.917,7.708c1.875,2.917 6.042,3.959 19.167,4.792c17.708,1.042 22.708,3.542 23.333,11.458c1.042,8.959 -0.208,13.75 -4.166,17.709c-3.75,3.75 -6.875,4.166 -28.125,4.166c-20,0 -24.375,-0.625 -25.417,-3.333Z" style="fill:#fff;fill-rule:nonzero;"></path><path d="M552.083,307.116l-5.625,-1.042l-0.625,-88.958c-0.208,-48.959 0.209,-89.584 0.834,-90.209c2.083,-2.083 129.166,-2.916 140.208,-0.833c17.292,3.125 28.542,10 33.958,20.625c3.959,8.125 4.584,12.5 4.584,34.583c-0,28.334 -1.459,34.167 -10.834,43.959c-12.083,12.5 -21.25,14.166 -79.166,14.166l-51.667,0l-0.208,7.292l-0,28.125c-0,11.458 -0.625,23.75 -1.25,27.5c-1.042,6.667 -1.042,6.667 -12.917,6.25c-6.458,0 -14.167,-0.833 -17.292,-1.458Zm124.375,-98.75c9.375,-3.959 11.459,-8.75 11.459,-27.084c-0,-18.958 -0.834,-21.25 -9.167,-25.833c-8.75,-4.792 -95,-6.667 -95,-2.083c0,1.458 -0.417,14.375 -1.042,28.541c-0.416,14.167 -0.416,26.667 0.209,27.709c0.625,0.833 20.208,1.666 43.75,1.666c32.083,0 44.375,-0.833 49.791,-2.916Z" style="fill:#fff;fill-rule:nonzero;"></path><path d="M731.667,306.907c-0,-1.25 27.5,-58.541 61.666,-128.333c15,-30.625 23.334,-45.417 27.084,-47.708c11.875,-7.917 32.708,-6.875 42.291,1.875c2.709,2.5 18.75,32.708 35.625,67.083c16.875,34.375 35.417,72.292 41.25,84.167c6.042,11.875 10.417,22.083 10,22.916c-0.416,0.625 -9.166,1.25 -19.375,1.042l-18.333,-0.208l-11.458,-22.084l-11.459,-22.291l-96.875,-0l-11.041,22.5l-11.042,22.291l-19.167,0c-10.625,0 -19.166,-0.625 -19.166,-1.25Zm143.75,-70.833c-0,-3.75 -35.417,-74.792 -37.292,-74.792c-1.25,0 -2.292,0.834 -2.292,2.084c0,1.041 -6.875,17.708 -15.416,36.875c-8.542,19.166 -15,35.625 -14.584,36.458c1.25,1.875 69.584,1.458 69.584,-0.625Z" style="fill:#fff;fill-rule:nonzero;"></path><path d="M986.667,307.324c-0.417,-0.417 -0.834,-6.875 -0.834,-14.167l0,-13.125l53.125,0c67.917,0 67.084,0.209 70.625,-22.916c1.875,-11.25 -1.25,-19.167 -8.958,-23.75c-5.833,-3.334 -11.875,-4.167 -39.583,-4.584c-41.875,-1.041 -47.709,-1.875 -59.167,-9.166c-14.583,-9.167 -16.458,-14.584 -15.625,-45.209l0.625,-26.041l9.583,-8.75c15.417,-13.959 19.792,-14.584 87.292,-14.792c32.708,-0.208 60.417,0.417 61.458,1.25c1.25,0.833 2.084,7.083 1.875,13.75l-0.208,12.083l-56.667,1.042l-56.875,1.042l-5,5.833c-3.958,4.583 -5,8.125 -5,17.083c0,22.709 2.917,24.167 55.417,25.834c39.583,1.25 40,1.458 50,7.5c15.417,9.583 17.708,15.208 17.917,43.333c-0,34.167 -4.375,41.875 -28.542,50.625c-8.958,3.125 -18.333,3.75 -70.417,3.75c-33.125,0.208 -60.625,-0.208 -61.041,-0.625Z" style="fill:#fff;fill-rule:nonzero;"></path><path d="M1202.08,307.532l-18.333,-0.625l0,-26.875l53.125,0c67.917,0 67.083,0.209 70.625,-22.916c1.875,-11.25 -1.25,-19.167 -9.167,-23.75c-5.833,-3.542 -11.875,-4.167 -42.916,-4.792c-37.5,-0.833 -47.292,-2.5 -59.375,-11.25c-11.042,-7.708 -12.709,-13.958 -11.875,-42.708l0.625,-25.625l8.125,-8.334c14.375,-14.791 20.625,-15.833 89.375,-15.833c39.166,0 60.833,0.833 61.875,2.083c1.041,1.25 1.25,7.709 0.625,14.167l-1.25,11.875l-52.5,0c-31.25,0 -55,0.833 -58.75,2.083c-7.709,2.709 -11.042,9.584 -11.042,22.917c-0,21.667 3.542,23.125 55.208,24.792c36.875,1.25 40.209,1.666 48.959,6.458c5,2.917 11.458,8.333 13.958,12.292c4.375,6.458 4.792,9.375 4.792,31.875c-0,35 -3.959,42.083 -28.125,50.625c-8.542,3.125 -17.917,3.75 -53.125,3.958c-23.542,0.208 -50.834,0 -60.834,-0.417Z" style="fill:#fff;fill-rule:nonzero;"></path><path d="M2223.33,245.657c-2.083,-2.5 -2.083,-3.75 0,-6.25c4.167,-5.208 11.459,-3.125 11.459,3.125c-0,6.25 -7.292,8.334 -11.459,3.125Z" style="fill:#fff;fill-rule:nonzero;"></path><path d="M1415,201.074l0,-75.208l29.792,-0c25.833,-0 30.416,0.625 36.458,4.166c6.458,3.959 6.667,4.584 6.667,18.334c-0,21.458 -0.834,22.083 -31.667,23.333l-25.625,1.042l0,13.541l-0.208,13.542l-15.417,1.25Zm53.75,-41.667c1.875,-1.041 2.5,-4.791 2.083,-10.833c-0.833,-10.625 -3.125,-11.667 -24.791,-12.083c-10.834,-0.209 -14.167,0.416 -15.209,3.125c-1.666,4.375 -1.666,18.541 0.209,20.208c1.875,2.083 34.583,1.667 37.708,-0.417Z" style="fill:#fff;fill-rule:nonzero;"></path><path d="M1498.33,178.991c0,-31.667 2.084,-34.584 25.625,-35.209c10.209,-0.208 10.834,0 10.834,5c-0,4.584 -1.042,5.209 -9.375,5.834c-5,0.416 -10,1.875 -10.834,3.125c-0.833,1.458 -1.666,11.666 -1.666,22.916l-0,20.209l-14.584,-0l0,-21.875Z" style="fill:#fff;fill-rule:nonzero;"></path><path d="M1553.54,195.657c-4.792,-4.583 -5.209,-6.666 -5.209,-23.75c0,-17.708 0.209,-18.958 5.417,-22.916c4.792,-3.75 8.542,-4.375 27.292,-4.375c20.208,-0 22.083,0.416 26.666,5.208c3.334,3.125 5.209,7.5 5.209,11.25c-0,6.667 -1.042,7.083 -38.542,17.292c-10.833,3.125 -12.708,4.791 -9.375,8.958c2.083,2.5 7.292,3.125 25.208,3.125l22.709,0l-0,10.417l-27.084,-0c-26.25,-0 -27.5,-0.209 -32.291,-5.209Zm28.125,-29.791c8.958,-2.709 13.75,-5 14.166,-7.292c0.625,-2.917 -1.25,-3.542 -12.708,-3.542c-17.5,0 -20.208,1.042 -20.208,8.542c-0,7.083 0.833,7.292 18.75,2.292Z" style="fill:#fff;fill-rule:nonzero;"></path><path d="M1625.42,177.949c-0,-21.667 0.208,-23.333 5.208,-28.125c4.375,-4.583 6.875,-5.208 19.167,-5.208c8.958,-0 15.833,1.041 18.541,2.916c3.542,2.5 4.584,2.5 8.125,0c2.292,-1.666 9.167,-2.916 16.875,-2.916c10.625,-0 14.167,0.833 18.334,4.791c4.791,4.375 5.208,6.042 5.833,27.5l0.625,22.917l-6.667,0.625l-6.875,0.625l0,-19.792c0,-21.875 -1.25,-24.166 -14.166,-24.166c-9.375,-0 -11.459,4.375 -12.084,24.583l-0.625,18.125l-6.25,0.625l-6.458,0.625l-0,-19.792c-0,-21.875 -1.25,-24.166 -14.167,-24.166c-9.583,-0 -11.875,4.583 -12.083,24.791l0,17.917l-13.333,1.25l-0,-23.125Z" style="fill:#fff;fill-rule:nonzero;"></path><path d="M1731.67,201.074l-0,-56.458l6.25,-0c5,-0 6.25,0.833 6.458,4.791c-0,2.5 -0,15 0.208,27.5l0,22.917l-12.916,1.25Z" style="fill:#fff;fill-rule:nonzero;"></path><path d="M1768.12,195.866c-5,-5 -5.208,-6.459 -5.208,-28.334l-0,-22.916l12.083,-0l0.833,20c1.042,22.916 1.459,23.75 17.917,23.75c18.333,-0 19.167,-1.042 19.167,-23.959l-0,-19.791l12.5,-0l-0,23.541c-0,31.875 0.416,31.459 -28.959,32.292c-22.291,0.833 -23.125,0.625 -28.333,-4.583Z" style="fill:#fff;fill-rule:nonzero;"></path><path d="M1842.08,177.116c0,-23.334 0.209,-23.959 5.417,-28.125c6.875,-5.417 30.625,-6.25 37.5,-1.459c3.542,2.5 4.583,2.5 8.125,0c2.292,-1.666 9.167,-2.916 16.875,-2.916c10.625,-0 14.167,0.833 18.333,4.791c4.792,4.375 5.209,6.042 5.834,27.5l0.625,22.917l-6.667,0.625l-6.875,0.625l-0,-18.75c-0,-21.042 -2.083,-25.208 -13.125,-25.208c-11.458,-0 -12.708,2.083 -13.333,23.333l-0.417,19.375l-6.458,0.625l-6.25,0.625l-0,-19.792c-0,-21.875 -1.459,-24.166 -13.959,-24.166c-10.833,-0 -12.083,2.291 -12.291,23.333l-0,19.375l-13.334,1.25l0,-23.958Z" style="fill:#fff;fill-rule:nonzero;"></path><path d="M2003.54,165.241c9.583,-19.792 18.75,-36.667 20.208,-37.5c4.583,-2.917 13.333,-2.084 16.667,1.666c3.541,3.959 31.25,58.959 33.75,66.875c1.458,4.167 0.833,4.584 -6.875,4.584c-8.125,-0 -8.75,-0.417 -11.875,-8.334c-3.959,-9.791 -6.875,-10.833 -27.917,-10l-15.625,0.625l-4.375,8.334c-3.75,7.5 -5.208,8.333 -12.917,8.958l-8.541,0.625l17.5,-35.833Zm40.625,4.583c-0,-1.458 -11.875,-24.792 -13.542,-26.875c-0.625,-0.625 -13.542,26.25 -13.542,27.917c0,0.416 6.042,0.833 13.542,0.833c7.5,0 13.542,-0.833 13.542,-1.875Z" style="fill:#fff;fill-rule:nonzero;"></path><path d="M2092.08,199.407c-6.875,-2.5 -8.333,-7.708 -8.333,-28.125c0,-26.25 1.042,-27.083 30.417,-26.25c18.958,0.625 20.625,1.042 20.625,4.792c-0,3.75 -1.667,4.167 -17.917,4.792c-16.667,0.625 -18.125,1.041 -19.375,5.208c-1.875,7.083 -1.458,19.375 0.833,25.208c1.875,5.209 2.709,5.417 18.542,5.417c13.125,0 16.667,0.625 17.708,3.333c0.625,1.875 0.834,4.167 0,5.209c-1.041,1.875 -37.083,2.291 -42.5,0.416Z" style="fill:#fff;fill-rule:nonzero;"></path><path d="M2151.67,196.491c-5.209,-3.959 -5.417,-5.209 -5.417,-23.959c0,-27.083 1.042,-27.916 30.208,-27.916c21.875,-0 21.875,-0 21.875,5.208c0,5 -0.416,5 -18.125,5.625l-18.333,0.625l-0.625,15.417c-0.417,11.041 0.208,16.041 2.083,17.083c1.459,1.042 10,1.875 18.959,1.875c15.625,0 16.041,0 16.041,5.208c0,5.209 0,5.209 -20.625,5.209c-17.5,-0 -21.25,-0.625 -26.041,-4.375Z" style="fill:#fff;fill-rule:nonzero;"></path><path d="M2215.62,198.782c-5.833,-2.291 -7.083,-7.083 -7.292,-25.416c-0.416,-26.875 1.667,-28.75 33.75,-28.75c28.125,-0 28.959,0.833 29.584,27.916c0.416,27.5 -0.625,28.334 -30.417,28.125c-11.458,0 -23.125,-0.833 -25.625,-1.875Zm40.625,-10.833c1.458,-1.458 2.5,-8.125 2.5,-15.208c0,-7.084 -1.042,-13.75 -2.5,-15.209c-1.458,-1.458 -8.333,-2.5 -16.667,-2.5c-11.666,0 -14.375,0.625 -16.25,3.959c-2.708,5.208 -2.708,19.166 0,26.041c1.875,5 2.917,5.417 16.25,5.417c8.334,0 15.209,-1.042 16.667,-2.5Z" style="fill:#fff;fill-rule:nonzero;"></path><path d="M2293.12,195.657c-5,-4.791 -5.208,-6.458 -5.208,-28.125l-0,-22.916l12.083,-0l0.833,18.541c1.042,22.917 2.709,25.209 17.709,25.209c18.541,-0 19.375,-1.042 19.375,-23.959l-0,-19.791l14.583,-0l0,20.833c0,23.125 -2.708,31.875 -10.833,34.167c-2.709,0.625 -13.542,1.25 -24.167,1.25c-17.708,-0 -19.792,-0.417 -24.375,-5.209Z" style="fill:#fff;fill-rule:nonzero;"></path><path d="M2364.17,198.991c-1.875,-2.917 -1.042,-33.959 1.041,-42.292c1.042,-4.375 3.75,-8.75 6.042,-10c2.083,-1.042 13.333,-2.083 25,-2.083c19.583,-0 21.458,0.416 26.042,5.208c5,4.792 5.208,6.458 5.208,28.125l0,22.917l-14.583,-0l-0,-20.625c-0,-23.334 0.208,-23.125 -16.875,-23.125c-17.5,-0 -18.542,1.25 -18.542,23.958l0,19.792l-6.042,-0c-3.541,-0 -6.666,-0.834 -7.291,-1.875Z" style="fill:#fff;fill-rule:nonzero;"></path><path d="M2442.08,201.074l0,-75.417l6.875,0.625c6.25,0.625 6.667,1.042 6.667,8.959c0,8.125 0.208,8.333 8.333,9.375c6.667,0.833 8.334,1.875 8.334,5.208c-0,3.333 -1.667,4.375 -8.334,5.208l-8.333,1.042l0,21.875l-0.208,21.875l-13.334,1.25Z" style="fill:#fff;fill-rule:nonzero;"></path><path d="M1733.12,136.907c-0.833,-0.625 -1.458,-3.541 -1.458,-6.25c-0,-3.958 1.041,-4.791 6.25,-4.791c7.083,-0 10.208,4.583 6.25,9.375c-2.709,3.333 -8.75,4.166 -11.042,1.666Z" style="fill:#fff;fill-rule:nonzero;"></path></g><g><path d="M66.458,566.074c-2.083,-2.083 -1.666,-10.833 0.625,-15.417c1.667,-2.916 4.375,-3.958 10.417,-3.958l8.333,0l0,20.833l-8.958,0c-5,0 -9.792,-0.625 -10.417,-1.458Z" style="fill:#fff;fill-rule:nonzero;"></path><path d="M10.833,500.866l0,-20.834l9.167,0c8.75,0 9.167,0.417 10.417,7.084c2.083,11.041 -0,13.75 -10.417,13.75l-9.167,-0Z" style="fill:#fff;fill-rule:nonzero;"></path><path d="M65,500.866l0,-20.834l20.833,0l0,20.834l-20.833,-0Z" style="fill:#fff;fill-rule:nonzero;"></path><path d="M124.167,497.949c-0.625,-1.667 -0.834,-6.042 -0.417,-10c0.625,-6.667 1.042,-6.875 10.625,-7.5l9.792,-0.625l-0,21.042l-9.375,-0c-6.25,-0 -9.792,-1.042 -10.625,-2.917Z" style="fill:#fff;fill-rule:nonzero;"></path><path d="M8.75,442.532l0,-20.416l7.917,-0.834c13.958,-1.25 15,-0.416 15,11.042l-0,10.208l-22.917,0Z" style="fill:#fff;fill-rule:nonzero;"></path><path d="M123.333,442.532l0,-20.833l20.834,0l-0,20.833l-20.834,0Z" style="fill:#fff;fill-rule:nonzero;"></path><path d="M62.917,422.741c-0,-10.209 0.416,-11.459 5,-12.709c2.708,-0.625 7.916,-0.833 11.875,-0.416c6.458,0.625 7.083,1.25 8.75,9.583c2.708,13.542 1.458,15 -13.125,15l-12.5,0l-0,-11.458Z" style="fill:#fff;fill-rule:nonzero;"></path><path d="M7.708,382.116c-0.625,-1.042 -0.625,-6.667 0.209,-12.5l1.458,-10.625l21.25,1.25l0.625,12.083l0.625,11.875l-11.458,0c-6.25,0 -12.084,-0.833 -12.709,-2.083Z" style="fill:#fff;fill-rule:nonzero;"></path><path d="M121.25,372.741c0,-10.417 0.417,-11.459 5.208,-12.709c2.917,-0.625 8.542,-0.625 12.5,0c7.292,1.459 7.292,1.459 7.292,12.709l0,11.458l-25,0l0,-11.458Z" style="fill:#fff;fill-rule:nonzero;"></path><path d="M62.292,368.157c-1.875,-1.666 -1.875,-17.916 -0.209,-22.291c1.042,-2.5 4.375,-3.334 14.584,-3.334l13.333,0l0,27.084l-13.125,-0c-7.292,-0 -13.958,-0.625 -14.583,-1.459Z" style="fill:#fff;fill-rule:nonzero;"></path><path d="M198.333,369.616l0,-20.834l9.167,0c8.542,0 9.375,0.417 10.625,6.25c2.5,11.042 -0.208,14.584 -10.625,14.584l-9.167,-0Z" style="fill:#fff;fill-rule:nonzero;"></path><path d="M257.083,357.741c0.625,-10 0.625,-10 8.542,-10.625c6.667,-0.625 7.917,-0 9.792,4.791c1.25,2.917 2.083,7.709 2.083,10.625c-0,4.584 -0.833,5 -10.625,5l-10.417,0l0.625,-9.791Z" style="fill:#fff;fill-rule:nonzero;"></path><path d="M308.125,353.574c-2.5,-2.292 -1.667,-16.25 1.25,-20.208c1.875,-2.709 4.792,-3.542 10.833,-2.917c7.292,0.625 8.334,1.458 10,7.292c1.042,3.541 1.459,8.958 0.625,11.875c-1.25,4.791 -2.291,5.416 -11.458,5.416c-5.417,0 -10.625,-0.625 -11.25,-1.458Z" style="fill:#fff;fill-rule:nonzero;"></path><path d="M6.667,314.407c-0,-12.291 0.416,-13.541 4.791,-14.791c2.709,-0.625 8.542,-0.834 12.917,-0.417c6.875,0.625 8.333,1.458 9.792,6.875c1.041,3.542 1.25,9.792 0.416,14.167l-1.25,7.708l-26.666,0l-0,-13.542Z" style="fill:#fff;fill-rule:nonzero;"></path><path d="M121.042,325.449c-0,-1.458 -0.417,-7.083 -1.042,-12.5c-1.25,-12.708 2.083,-14.375 25.833,-12.292c1.667,0.209 2.5,4.375 2.5,13.75l0,13.542l-13.541,0c-9.375,0 -13.542,-0.833 -13.75,-2.5Z" style="fill:#fff;fill-rule:nonzero;"></path><path d="M355,309.824l0.625,-12.083l11.042,-0.625l10.833,-0.625l0,25.208l-23.125,0l0.625,-11.875Z" style="fill:#fff;fill-rule:nonzero;"></path><path d="M239.375,309.824c-0.833,-0.625 -1.458,-5.417 -1.458,-10.417l-0,-8.958l18.75,0l-0,20.833l-7.917,0c-4.375,0 -8.75,-0.625 -9.375,-1.458Z" style="fill:#fff;fill-rule:nonzero;"></path><path d="M61.875,303.157c-0.625,-0.416 -1.042,-6.458 -1.042,-13.125c0,-10.416 0.625,-12.083 3.75,-12.083c2.084,0 5.209,2.292 6.667,5.208c1.667,3.334 4.583,5.209 7.708,5.209c2.709,-0 4.792,1.041 4.792,2.083c0,1.25 1.458,2.083 3.333,2.083c2.292,0 2.917,1.667 2.5,5.834c-0.625,5.416 -1.041,5.625 -13.75,5.833c-7.083,0 -13.541,-0.417 -13.958,-1.042Z" style="fill:#fff;fill-rule:nonzero;"></path><path d="M294.583,286.907l0.625,-10l8.542,-0.625l8.75,-0.625l0.833,9.584c0.417,5.416 0.209,10 -0.208,10.625c-0.417,0.416 -5,0.833 -10,0.833l-9.167,0l0.625,-9.792Z" style="fill:#fff;fill-rule:nonzero;"></path></g><g><path d="M81.667,72.741c-0,-4.375 1.041,-5.209 6.25,-5.209c5.208,0 6.25,0.834 6.25,5.209c-0,4.375 -1.042,5.208 -6.25,5.208c-5.209,0 -6.25,-0.833 -6.25,-5.208Z" style="fill:#fff;fill-rule:nonzero;"></path><path d="M337.917,76.074l-0,-35.833l16.875,0.625l16.666,0.625l0.834,33.333l-17.084,0.625l-17.291,0.625Z" style="fill:#fff;fill-rule:nonzero;"></path><path d="M25.417,71.907c-0,-1.041 -1.875,-2.291 -4.167,-2.916c-2.5,-0.625 -4.167,-2.917 -4.167,-5.417c0,-3.958 1.25,-4.375 11.459,-4.375l11.458,0l0,7.292c0,6.875 -0.417,7.291 -7.292,7.291c-3.958,0 -7.291,-0.833 -7.291,-1.875Z" style="fill:#fff;fill-rule:nonzero;"></path><path d="M139.167,71.907c-0.834,-1.041 -5,-2.5 -9.584,-3.333c-6.25,-1.042 -8.333,-2.292 -8.333,-5.417c0,-3.541 1.667,-3.958 15.625,-3.958l15.625,0l0,7.292c0,6.666 -0.417,7.291 -6.042,7.291c-3.541,0 -6.666,-0.833 -7.291,-1.875Z" style="fill:#fff;fill-rule:nonzero;"></path><path d="M173.958,68.366c-1.875,-5.209 3.334,-6.875 18.125,-6.25c17.709,0.833 16.667,0.625 16.667,5.416c0,3.75 -1.458,4.167 -16.667,4.167c-13.541,0 -17.083,-0.625 -18.125,-3.333Z" style="fill:#fff;fill-rule:nonzero;"></path><path d="M238.333,70.241c-3.125,-0.625 -4.583,-2.084 -4.166,-4.375c0.625,-2.709 3.333,-3.542 12.083,-3.959c16.042,-0.625 20.833,0.834 20.833,5.625c0,3.75 -1.25,4.167 -11.875,3.959c-6.666,-0.209 -14.166,-0.834 -16.875,-1.25Z" style="fill:#fff;fill-rule:nonzero;"></path><path d="M300.833,47.116l-15.208,-0.625l0.625,-17.084l0.625,-16.875l31.25,0l0.625,16.25c0.417,9.167 -0.208,17.084 -1.042,17.709c-0.833,0.625 -8.541,1.041 -16.875,0.625Z" style="fill:#fff;fill-rule:nonzero;"></path><path d="M15.417,40.657l-15.417,-1.25l0,-18.125c0,-10 0.417,-18.958 1.042,-19.791c0.625,-0.834 9.375,-1.667 19.583,-1.459l18.333,0.209l0,20.625c0,23.541 2.084,21.875 -23.541,19.791Z" style="fill:#fff;fill-rule:nonzero;"></path><path d="M64.375,41.074l-10,-0.833l1.25,-40l18.333,0.208c10,0 19.167,0.208 20.209,0.208c1.458,0.209 2.083,7.5 1.666,20.625l-0.625,20.209l-10.416,0.208c-5.625,0 -15,-0.208 -20.417,-0.625Z" style="fill:#fff;fill-rule:nonzero;"></path><path d="M125,41.074l-12.083,-0.833l-0,-19.584c-0,-10.833 0.625,-19.791 1.666,-19.791c3.125,-0.209 35,-0.417 37.5,-0.209c2.084,0.209 2.5,5.209 2.084,20.625l-0.625,20.209l-8.334,0.208c-4.583,0 -13.75,-0.208 -20.208,-0.625Z" style="fill:#fff;fill-rule:nonzero;"></path><path d="M174.792,36.907c-0.417,-1.041 -0.625,-8.125 -0.417,-16.25l0.417,-14.583l14.375,-1.25c7.916,-0.625 15.625,-0.833 17.083,-0.417c1.667,0.834 2.5,6.25 2.5,17.5l0,16.459l-16.458,-0c-9.167,-0 -17.084,-0.625 -17.5,-1.459Z" style="fill:#fff;fill-rule:nonzero;"></path><path d="M229.583,38.366l0,-35.417l32.709,0l1.25,16.042c0.625,8.75 0.833,16.875 0.208,17.708c-0.625,0.833 -8.542,1.667 -17.708,1.667l-16.459,-0Z" style="fill:#fff;fill-rule:nonzero;"></path></g><g><path d="M58.333,170.241c-0.416,-1.042 -0.625,-8.75 -0.625,-17.292l0,-15.625l18.334,-0.625l18.125,-0.625l-0,35.625l-17.5,0c-9.792,0 -17.917,-0.625 -18.334,-1.458Z" style="fill:#fff;fill-rule:nonzero;"></path><path d="M273.333,171.699l0,-31.25l29.167,0l0,31.25l-29.167,0Z" style="fill:#fff;fill-rule:nonzero;"></path><path d="M398.333,167.741l0,-29.584l13.959,0.625l13.75,0.625l0.416,27.084l-13.958,0.625l-14.167,0.625Z" style="fill:#fff;fill-rule:nonzero;"></path><path d="M2.5,155.032l0,-35.416l35.417,-0l-0,35.416l-35.417,0Z" style="fill:#fff;fill-rule:nonzero;"></path><path d="M116.458,153.574c-0.416,-1.042 -0.833,-8.75 -0.625,-17.292l0.209,-15.625l18.333,-0.625l18.125,-0.625l0,35.625l-17.5,0c-9.792,0 -18.125,-0.625 -18.542,-1.458Z" style="fill:#fff;fill-rule:nonzero;"></path><path d="M171.667,137.949l0.625,-17.292l31.25,0l1.041,16.25c0.625,8.959 0.625,16.875 0.209,17.292c-0.417,0.417 -8.334,0.833 -17.292,0.833l-16.458,0l0.625,-17.083Z" style="fill:#fff;fill-rule:nonzero;"></path><path d="M224.792,153.574c-1.25,-2.708 -0,-28.958 1.458,-31.667c1.042,-1.666 6.458,-2.083 16.458,-1.458c8.334,0.417 15.209,1.042 15.625,1.042c0.209,0.208 0.417,7.708 0.417,16.875l0,16.666l-16.458,0c-9.167,0 -17.084,-0.625 -17.5,-1.458Z" style="fill:#fff;fill-rule:nonzero;"></path><path d="M341.667,149.199l-12.084,-0.625l0,-26.875l27.084,0l-0,13.333c-0,7.5 -0.625,13.75 -1.459,14.167c-1.041,0.417 -7.083,0.417 -13.541,0Z" style="fill:#fff;fill-rule:nonzero;"></path><path d="M375.417,117.532l-0,-12.5l31.25,0l-0,12.5l-31.25,0Z" style="fill:#fff;fill-rule:nonzero;"></path><path d="M304.167,111.907c-5.209,-1.25 -4.792,-6.875 0.416,-6.875c2.292,0 4.167,-1.458 4.167,-3.125c0,-2.083 2.083,-3.125 6.25,-3.125c5.625,0 6.25,0.625 6.25,6.25c0,4.792 -1.042,6.25 -3.958,6.25c-2.292,0 -5.209,0.417 -6.875,0.834c-1.459,0.416 -4.375,0.416 -6.25,-0.209Z" style="fill:#fff;fill-rule:nonzero;"></path><path d="M56.667,100.866c-0,-6.042 0.416,-6.25 9.166,-6.25c5,-0 13.334,0.625 18.75,1.25c8.334,1.25 9.584,2.083 9.584,6.25c-0,4.791 -0.417,5 -18.75,5l-18.75,-0l-0,-6.25Z" style="fill:#fff;fill-rule:nonzero;"></path><path d="M0.417,93.574c-0,-4.792 0.833,-5.208 8.958,-5.208c4.792,-0 13.75,-0.625 19.792,-1.25l10.833,-1.459l0,13.125l-19.792,0c-19.791,0 -19.791,0 -19.791,-5.208Z" style="fill:#fff;fill-rule:nonzero;"></path><path d="M114.583,95.241c-1.25,-5.834 0.417,-11.042 3.75,-11.042c1.667,0 2.917,1.042 2.917,2.083c0,1.25 6.667,2.084 15.625,2.084c15.208,-0 15.625,0.208 15.625,5.208c0,5.208 -0.208,5.208 -18.542,5.208c-15.833,0 -18.541,-0.416 -19.375,-3.541Z" style="fill:#fff;fill-rule:nonzero;"></path><path d="M358.75,72.949c0,-2.292 1.875,-3.333 6.042,-3.333c4.166,-0 6.458,-1.25 7.291,-3.542c0.417,-2.083 0.834,-0.833 0.625,2.5c-0.416,5.417 -1.25,6.25 -7.083,6.875c-5.208,0.417 -6.875,-0.208 -6.875,-2.5Z" style="fill:#fff;fill-rule:nonzero;"></path></g><g><path d="M287.917,100.032c-0,-6.041 -0.625,-14.166 -1.25,-17.708l-1.25,-6.458l35.833,-0l0,14.583c0,11.667 -0.625,14.583 -3.125,14.583c-1.667,0 -3.125,1.459 -3.125,3.125c0,2.5 -2.917,3.125 -13.542,3.125l-13.541,0l-0,-11.25Z" style="fill:#fff;fill-rule:nonzero;"></path><path d="M375.417,111.282l-0,-27.083l31.25,0l-0,27.083l-31.25,0Z" style="fill:#fff;fill-rule:nonzero;"></path><path d="M57.5,101.074c-0.417,-0.417 -0.833,-8.333 -0.833,-17.292l-0,-16.25l18.333,0c12.5,0 17.083,0.625 15,2.084c-2.708,1.666 -2.5,2.083 0.625,2.083c3.125,0 3.542,2.083 3.542,15.625l-0,15.625l-17.917,-0.417c-9.792,-0.416 -18.333,-1.041 -18.75,-1.458Z" style="fill:#fff;fill-rule:nonzero;"></path><path d="M116.25,95.449c-0.625,-1.875 -1.25,-10.625 -1.25,-19.583l0,-16.25l18.333,0.208c13.542,0 16.042,0.417 9.792,1.458c-4.583,0.834 -6.875,1.667 -5,1.875c1.667,0 5.625,1.459 8.75,2.917c5.208,2.292 5.625,3.333 5.625,15.625c0,12.917 0,12.917 -6.042,12.917c-3.333,-0 -6.666,1.25 -7.083,2.708c-0.833,2.083 -1.25,2.083 -1.25,0c-0.208,-3.333 -16.875,-3.75 -16.875,-0.625c0,3.333 -3.542,2.5 -5,-1.25Z" style="fill:#fff;fill-rule:nonzero;"></path><path d="M0.417,95.657l-0,-36.458l11.25,0c6.25,0 12.083,1.042 12.708,2.083c0.625,1.25 3.333,2.084 5.833,1.875c4.375,-0.208 4.167,-0.416 -0.625,-1.875c-4.583,-1.458 -4.166,-1.666 2.709,-1.458l7.708,0.208l0,16.25c0,8.959 -0.625,16.25 -1.458,16.459c-1.042,-0 -9.792,0.833 -19.792,1.458l-18.333,1.458Z" style="fill:#fff;fill-rule:nonzero;"></path><path d="M175.208,96.282c-0.625,-1.875 -0.625,-32.5 0,-31.875c0.209,0.417 2.917,0 5.625,-1.041c2.917,-1.25 5.417,-1.25 6.042,-0c0.833,1.25 4.583,2.083 8.542,2.083c5,0 6.875,-0.833 5.833,-2.5c-1.042,-1.667 -0.417,-1.875 2.083,-1.042c2.084,0.834 4.167,1.459 4.584,1.459c0.416,-0 0.833,7.5 0.833,16.666l0,16.667l-16.667,0c-9.166,0 -16.666,-0.208 -16.875,-0.417Z" style="fill:#fff;fill-rule:nonzero;"></path><path d="M233.542,96.282c-0.834,-2.291 -0.625,-32.916 0.208,-33.125c6.042,-1.458 16.25,-1.041 15.417,0.625c-0.834,1.25 2.291,1.875 7.708,1.25l9.167,-0.625l0.625,16.25l0.625,16.042l-16.875,0c-9.167,0 -16.667,-0.208 -16.875,-0.417Z" style="fill:#fff;fill-rule:nonzero;"></path><path d="M338.333,62.949l0.209,-13.125l1.25,10c0.625,5.417 1.875,9.792 2.916,9.792c10,-0.209 28.75,0.625 26.042,1.458c-2.083,0.417 -3.75,1.875 -3.75,2.917c-0,1.041 -6.042,1.875 -13.542,1.875l-13.541,-0l0.416,-12.917Z" style="fill:#fff;fill-rule:nonzero;"></path><path d="M33.125,38.574c0.625,-2.5 2.5,-4.375 4.167,-4.375c4.166,0 2.5,7.083 -1.875,7.917c-2.5,0.416 -3.125,-0.417 -2.292,-3.542Z" style="fill:#fff;fill-rule:nonzero;"></path><path d="M85.417,41.074c2.5,-0.417 4.583,-2.292 4.583,-3.958c0,-1.667 1.458,-2.917 3.125,-2.917c4.167,0 3.958,5.417 -0.208,7.083c-1.875,0.625 -5.209,1.042 -7.709,1.042c-4.583,-0.417 -4.583,-0.417 0.209,-1.25Z" style="fill:#fff;fill-rule:nonzero;"></path><path d="M143.75,41.074c2.5,-0.417 4.583,-2.292 4.583,-3.958c0,-1.667 1.459,-2.917 3.125,-2.917c4.167,0 3.959,5.417 -0.208,7.083c-1.875,0.625 -5.208,1.042 -7.708,1.042c-4.584,-0.417 -4.584,-0.417 0.208,-1.25Z" style="fill:#fff;fill-rule:nonzero;"></path><path d="M229.583,35.032c0,-2.5 1.25,-3.125 5.417,-2.083c9.167,2.292 27.917,-0.833 27.917,-4.583c-0,-1.667 0.416,-2.709 1.041,-2.084c0.834,0.625 0.625,3.542 -0.208,6.667c-1.25,5.208 -1.667,5.417 -17.708,5.417c-13.75,-0 -16.459,-0.625 -16.459,-3.334Z" style="fill:#fff;fill-rule:nonzero;"></path></g><g><path d="M58.75,238.366l0,-33.334l33.333,0l0,33.334l-33.333,-0Z" style="fill:#fff;fill-rule:nonzero;"></path><path d="M402.5,223.782l0,-27.291l27.5,1.25l0.625,8.333c1.25,16.458 0.208,17.708 -14.792,17.708l-13.333,0Z" style="fill:#fff;fill-rule:nonzero;"></path><path d="M295.833,220.032l-12.083,-0.625l0,-26.875l27.083,0l0,13.334c0,7.5 -0.625,13.75 -1.458,14.166c-1.042,0.417 -7.083,0.417 -13.542,0Z" style="fill:#fff;fill-rule:nonzero;"></path><path d="M4.375,212.949c0,-0.417 -0.208,-7.708 -0.417,-16.25l-0.416,-15.625l16.25,-0.625l16.041,-0.625l0,33.542l-15.625,-0c-8.541,-0 -15.625,-0.209 -15.833,-0.417Z" style="fill:#fff;fill-rule:nonzero;"></path><path d="M117.083,213.366l0,-33.334l33.334,0l-0,33.334l-33.334,-0Z" style="fill:#fff;fill-rule:nonzero;"></path><path d="M345.625,203.574c-0.625,-1.042 -0.417,-7.083 0,-13.542l1.042,-12.083l24.166,0l0.625,8.958c1.459,17.292 1.042,18.125 -12.708,18.125c-6.667,0 -12.708,-0.625 -13.125,-1.458Z" style="fill:#fff;fill-rule:nonzero;"></path><path d="M87.917,169.616c-0,-1.042 1.458,-2.084 3.125,-2.084c1.666,0 3.125,1.042 3.125,2.084c-0,1.25 -1.459,2.083 -3.125,2.083c-1.667,0 -3.125,-0.833 -3.125,-2.083Z" style="fill:#fff;fill-rule:nonzero;"></path><path d="M273.333,169.616c0,-1.042 1.459,-2.084 3.125,-2.084c1.667,0 3.125,1.042 3.125,2.084c0,1.25 -1.458,2.083 -3.125,2.083c-1.666,0 -3.125,-0.833 -3.125,-2.083Z" style="fill:#fff;fill-rule:nonzero;"></path><path d="M285.833,169.824c0,-1.875 7.084,-4.375 13.125,-4.375c1.875,0 3.542,1.458 3.542,3.125c0,2.292 -2.292,3.125 -8.333,3.125c-4.584,0 -8.334,-0.833 -8.334,-1.875Z" style="fill:#fff;fill-rule:nonzero;"></path><path d="M410.833,165.449c0,-1.042 2.292,-2.083 5.209,-2.083c2.916,-0 5.208,1.041 5.208,2.083c-0,1.25 -2.292,2.083 -5.208,2.083c-2.917,0 -5.209,-0.833 -5.209,-2.083Z" style="fill:#fff;fill-rule:nonzero;"></path></g><g><path d="M65.625,299.199c1.667,-3.75 1.458,-6.25 -1.25,-10.833c-1.875,-3.125 -3.542,-7.917 -3.542,-10.209c0,-3.958 1.25,-4.375 14.584,-4.375l14.583,0l-0,12.5c-0,9.792 -0.625,12.5 -3.125,12.5c-1.667,0 -3.125,0.834 -3.125,1.875c-0,1.042 -4.583,2.292 -10.208,2.709c-9.792,0.625 -10,0.625 -7.917,-4.167Z" style="fill:#fff;fill-rule:nonzero;"></path><path d="M306.667,292.532c-0,-2.291 -0.834,-4.166 -2.084,-4.166c-3.125,-0 -1.666,-10.209 1.667,-11.459c5,-1.875 6.667,1.042 6.667,10.625c-0,6.667 -0.834,9.167 -3.125,9.167c-1.667,0 -3.125,-1.875 -3.125,-4.167Z" style="fill:#fff;fill-rule:nonzero;"></path><path d="M387.708,275.449c-0.208,-0.417 -0.416,-5.625 -0.833,-11.667c-0.417,-12.5 0.417,-13.333 14.375,-13.75l8.542,-0.208l0.625,13.125l0.625,12.917l-11.667,-0c-6.25,-0 -11.667,-0.209 -11.667,-0.417Z" style="fill:#fff;fill-rule:nonzero;"></path><path d="M17.708,270.032l-13.125,-0.625l0,-28.958l31.459,0l-0.625,15c-0.417,8.125 -1.459,15 -2.709,15.208c-1.041,0 -7.916,-0.208 -15,-0.625Z" style="fill:#fff;fill-rule:nonzero;"></path><path d="M132.292,270.032l-13.125,-0.625l-0,-28.958l29.166,0l0,14.375c0,8.125 -0.625,14.792 -1.458,15.208c-1.042,0.417 -7.5,0.417 -14.583,0Z" style="fill:#fff;fill-rule:nonzero;"></path><path d="M331.667,245.866c-0,-11.875 1.458,-13.75 11.458,-13.75c10,-0 11.458,1.875 11.458,13.75l0,11.25l-22.916,-0l-0,-11.25Z" style="fill:#fff;fill-rule:nonzero;"></path><path d="M199.583,253.366c-0.625,-0.625 -1.25,-5.209 -1.25,-10c0,-8.542 0.209,-8.959 7.292,-10.417c11.667,-2.083 13.958,-0.208 13.125,10.833l-0.625,9.584l-8.75,0.625c-4.792,0.416 -9.167,0.208 -9.792,-0.625Z" style="fill:#fff;fill-rule:nonzero;"></path><path d="M249.583,249.616c-0.625,-1.875 -1.25,-6.459 -1.25,-10.417c0,-5.833 1.042,-7.5 5.625,-9.375c10.209,-3.75 15.834,-1.667 17.709,6.458c0.833,3.959 0.833,9.375 0.208,12.084c-0.833,3.958 -2.5,4.583 -11.042,4.583c-7.083,0 -10.416,-0.833 -11.25,-3.333Z" style="fill:#fff;fill-rule:nonzero;"></path><path d="M58.75,234.824c0,-3.333 2.083,-3.75 16.667,-3.75c13.75,0 16.666,0.625 16.25,3.125c-0.625,2.292 -4.375,3.333 -16.875,3.75c-14.167,0.625 -16.042,0.208 -16.042,-3.125Z" style="fill:#fff;fill-rule:nonzero;"></path><path d="M305.833,220.241c-2.291,-2.292 -1.25,-4.792 1.875,-4.792c1.667,0 3.125,0.833 3.125,1.875c0,2.708 -3.333,4.583 -5,2.917Z" style="fill:#fff;fill-rule:nonzero;"></path><path d="M29.583,211.282c0,-1.041 1.459,-2.083 3.125,-2.083c1.667,0 3.125,1.042 3.125,2.083c0,1.25 -1.458,2.084 -3.125,2.084c-1.666,-0 -3.125,-0.834 -3.125,-2.084Z" style="fill:#fff;fill-rule:nonzero;"></path><path d="M140,211.282c0,-1.041 1.875,-2.083 3.958,-2.083c2.292,0 4.792,1.042 5.417,2.083c0.833,1.25 -1.042,2.084 -3.958,2.084c-2.917,-0 -5.417,-0.834 -5.417,-2.084Z" style="fill:#fff;fill-rule:nonzero;"></path></g></g></svg>