<svg xmlns="http://www.w3.org/2000/svg" xmlns:xlink="http://www.w3.org/1999/xlink" xmlns:serif="http://www.serif.com/" width="100%" height="100%" viewBox="0 0 1241 225" xml:space="preserve" style="fill-rule:evenodd;clip-rule:evenodd;stroke-linejoin:round;stroke-miterlimit:2;"><g id="Layer_x0020_1"><g id="_2693621352352"><path d="M0,204.64l230.413,0l-0,5.329l-230.413,0l0,-5.329Z" style="fill:#fff;"></path><path d="M1010.34,204.64l230.413,0l-0,5.329l-230.413,0l-0,-5.329Z" style="fill:#fff;"></path><g><path d="M269.967,225c0.499,0 0.708,-0.25 0.624,-0.749l-7.369,-34.059c-0.084,-0.458 -0.375,-0.624 -0.75,-0.624l-6.162,-0c-0.416,-0 -0.666,0.166 -0.749,0.624l-7.37,34.059c-0.125,0.499 0.083,0.749 0.583,0.749l4.747,0c0.416,0 0.624,-0.208 0.707,-0.583l1.208,-6.495l7.869,-0l1.249,6.495c0.083,0.375 0.291,0.583 0.708,0.583l4.705,0Zm-7.786,-12.199l-5.663,-0l2.832,-15.489l2.831,15.489Z" style="fill:#fff;fill-rule:nonzero;"></path><path d="M303.275,219.171l10.534,-0c0.5,-0 0.708,0.25 0.708,0.708l0,4.413c0,0.5 -0.208,0.708 -0.708,0.708l-15.863,0c-0.416,0 -0.708,-0.208 -0.708,-0.708l0,-34.016c0,-0.458 0.292,-0.708 0.708,-0.708l4.622,-0c0.499,-0 0.707,0.25 0.707,0.708l0,28.895Z" style="fill:#fff;fill-rule:nonzero;"></path><path d="M358.901,195.938c-0,-4.163 -2.29,-6.37 -6.412,-6.37l-4.955,-0c-4.163,-0 -6.412,2.207 -6.412,6.37l0,22.692c0,4.163 2.249,6.37 6.412,6.37l4.955,0c4.122,0 6.412,-2.207 6.412,-6.37l-0,-4.788c-0,-0.417 -0.292,-0.708 -0.708,-0.708l-4.455,-0c-0.458,-0 -0.708,0.291 -0.708,0.708l0,3.539c0,1.207 -0.624,1.79 -1.749,1.79l-2.331,-0c-1.124,-0 -1.749,-0.583 -1.749,-1.79l0,-20.194c0,-1.166 0.583,-1.79 1.749,-1.79l2.331,-0c1.125,-0 1.749,0.624 1.749,1.79l0,3.539c0,0.458 0.25,0.708 0.708,0.708l4.455,0c0.416,0 0.708,-0.25 0.708,-0.708l-0,-4.788Z" style="fill:#fff;fill-rule:nonzero;"></path><path d="M385.464,218.63c0,4.163 2.249,6.37 6.412,6.37l4.955,0c4.164,0 6.37,-2.207 6.37,-6.37l0,-22.692c0,-4.163 -2.206,-6.37 -6.37,-6.37l-4.955,-0c-4.205,-0 -6.412,2.207 -6.412,6.37l0,22.692Zm7.661,0.666c-1.124,-0 -1.748,-0.583 -1.748,-1.749l-0,-20.485c-0,-1.165 0.624,-1.79 1.748,-1.79l2.582,0c1.166,0 1.79,0.625 1.79,1.79l0,20.485c0,1.166 -0.624,1.749 -1.79,1.749l-2.582,-0Z" style="fill:#fff;fill-rule:nonzero;"></path><path d="M441.506,204.349l-5.704,-0l0,-14.073c0,-0.458 -0.25,-0.708 -0.708,-0.708l-4.538,-0c-0.541,-0 -0.749,0.25 -0.749,0.708l-0,34.016c-0,0.458 0.208,0.708 0.749,0.708l4.538,0c0.458,0 0.708,-0.25 0.708,-0.708l0,-14.073l5.704,0l0,14.073c0,0.458 0.25,0.708 0.708,0.708l4.538,0c0.542,0 0.75,-0.25 0.75,-0.708l-0,-34.016c-0,-0.458 -0.208,-0.708 -0.75,-0.708l-4.538,-0c-0.458,-0 -0.708,0.25 -0.708,0.708l0,14.073Z" style="fill:#fff;fill-rule:nonzero;"></path><path d="M474.107,218.63c0,4.163 2.207,6.37 6.37,6.37l4.955,0c4.164,0 6.412,-2.207 6.412,-6.37l0,-22.692c0,-4.163 -2.248,-6.37 -6.412,-6.37l-4.955,-0c-4.163,-0 -6.37,2.207 -6.37,6.37l0,22.692Zm7.661,0.666c-1.166,-0 -1.79,-0.583 -1.79,-1.749l-0,-20.485c-0,-1.165 0.624,-1.79 1.79,-1.79l2.582,0c1.124,0 1.748,0.625 1.748,1.79l0,20.485c0,1.166 -0.624,1.749 -1.748,1.749l-2.582,-0Z" style="fill:#fff;fill-rule:nonzero;"></path><path d="M524.445,219.171l10.534,-0c0.499,-0 0.708,0.25 0.708,0.708l-0,4.413c-0,0.5 -0.209,0.708 -0.708,0.708l-15.864,0c-0.416,0 -0.707,-0.208 -0.707,-0.708l-0,-34.016c-0,-0.458 0.291,-0.708 0.707,-0.708l4.622,-0c0.5,-0 0.708,0.25 0.708,0.708l-0,28.895Z" style="fill:#fff;fill-rule:nonzero;"></path></g><g><path d="M628.16,195.938c-0,-4.163 -2.249,-6.37 -6.412,-6.37l-10.659,-0c-0.458,-0 -0.708,0.208 -0.708,0.708l0,34.016c0,0.458 0.25,0.708 0.708,0.708l10.659,0c4.163,0 6.412,-2.207 6.412,-6.37l-0,-8.161c-0,-1.624 -1.208,-2.873 -2.79,-3.123l0,-0.083c1.582,-0.291 2.79,-1.54 2.79,-3.164l-0,-8.161Zm-5.913,6.704c0,1.124 -0.624,1.707 -1.748,1.707l-4.039,-0l0,-8.952l4.039,-0c1.166,-0 1.748,0.624 1.748,1.79l0,5.455Zm0,14.739c0,1.207 -0.624,1.79 -1.748,1.79l-4.039,-0l0,-8.952l4.039,0c1.166,0 1.748,0.625 1.748,1.791l0,5.371Z" style="fill:#fff;fill-rule:nonzero;"></path><path d="M672.419,190.276c-0,-0.458 -0.167,-0.708 -0.708,-0.708l-16.321,-0c-0.375,-0 -0.667,0.25 -0.667,0.708l0,34.016c0,0.458 0.292,0.708 0.667,0.708l16.321,0c0.541,0 0.708,-0.25 0.708,-0.708l-0,-4.413c-0,-0.5 -0.167,-0.708 -0.708,-0.708l-11.075,-0l-0,-8.952l8.452,0c0.458,0 0.708,-0.25 0.708,-0.749l-0,-4.414c-0,-0.458 -0.25,-0.749 -0.708,-0.749l-8.452,-0l-0,-8.827l11.075,0c0.541,0 0.708,-0.333 0.708,-0.791l-0,-4.413Z" style="fill:#fff;fill-rule:nonzero;"></path><path d="M715.428,189.568c-0.499,-0 -0.832,0.25 -0.957,0.791l-4.705,23.774l-4.663,-23.774c-0.125,-0.541 -0.417,-0.791 -0.958,-0.791l-4.205,-0c-0.666,-0 -0.916,0.375 -0.791,0.958l7.411,33.683c0.166,0.541 0.458,0.791 0.999,0.791l4.414,0c0.541,0 0.832,-0.25 0.999,-0.791l7.453,-33.683c0.166,-0.583 -0.125,-0.958 -0.791,-0.958l-4.206,-0Z" style="fill:#fff;fill-rule:nonzero;"></path><path d="M764.85,190.276c0,-0.458 -0.166,-0.708 -0.708,-0.708l-16.321,-0c-0.375,-0 -0.666,0.25 -0.666,0.708l-0,34.016c-0,0.458 0.291,0.708 0.666,0.708l16.321,0c0.542,0 0.708,-0.25 0.708,-0.708l0,-4.413c0,-0.5 -0.166,-0.708 -0.708,-0.708l-11.075,-0l0,-8.952l8.452,0c0.458,0 0.708,-0.25 0.708,-0.749l0,-4.414c0,-0.458 -0.25,-0.749 -0.708,-0.749l-8.452,-0l0,-8.827l11.075,0c0.542,0 0.708,-0.333 0.708,-0.791l0,-4.413Z" style="fill:#fff;fill-rule:nonzero;"></path><path d="M809.65,195.938c0,-4.163 -2.206,-6.37 -6.37,-6.37l-11.158,-0c-0.417,-0 -0.708,0.25 -0.708,0.708l-0,34.016c-0,0.458 0.291,0.708 0.708,0.708l4.621,0c0.458,0 0.708,-0.25 0.708,-0.708l-0,-11.158l3.081,-0l2.956,11.283c0.083,0.375 0.292,0.583 0.75,0.583l4.621,0c0.458,0 0.75,-0.25 0.625,-0.791l-3.081,-11.616c2.123,-0.916 3.247,-2.873 3.247,-5.829l0,-10.826Zm-12.199,11.367l-0,-11.908l4.372,-0c1.166,-0 1.79,0.624 1.79,1.79l0,8.327c0,1.166 -0.624,1.791 -1.79,1.791l-4.372,-0Z" style="fill:#fff;fill-rule:nonzero;"></path><path d="M858.114,225c0.542,0 0.708,-0.25 0.625,-0.749l-7.37,-34.059c-0.083,-0.458 -0.333,-0.624 -0.749,-0.624l-6.162,-0c-0.375,-0 -0.666,0.166 -0.75,0.624l-7.328,34.059c-0.166,0.499 0.084,0.749 0.542,0.749l4.746,0c0.417,0 0.625,-0.208 0.708,-0.583l1.207,-6.495l7.87,-0l1.249,6.495c0.083,0.375 0.333,0.583 0.708,0.583l4.704,0Zm-7.744,-12.199l-5.662,-0l2.831,-15.489l2.831,15.489Z" style="fill:#fff;fill-rule:nonzero;"></path><path d="M885.427,218.63c0,4.163 2.207,6.37 6.371,6.37l5.829,0c4.122,0 6.412,-2.207 6.412,-6.37l-0,-12.324c-0,-0.458 -0.292,-0.708 -0.75,-0.708l-7.411,-0c-0.5,-0 -0.708,0.25 -0.708,0.708l0,4.455c0,0.416 0.208,0.707 0.708,0.707l2.29,0l0,5.913c0,1.207 -0.625,1.79 -1.79,1.79l-3.165,-0c-1.165,-0 -1.79,-0.583 -1.79,-1.79l0,-20.194c0,-1.166 0.583,-1.79 1.79,-1.79l3.165,-0c1.165,-0 1.79,0.624 1.79,1.79l0,3.373c0,0.458 0.208,0.708 0.708,0.708l4.413,-0c0.458,-0 0.75,-0.25 0.75,-0.708l-0,-4.622c-0,-4.163 -2.29,-6.37 -6.412,-6.37l-5.829,-0c-4.164,-0 -6.371,2.207 -6.371,6.37l0,22.692Z" style="fill:#fff;fill-rule:nonzero;"></path><path d="M948.298,190.276c-0,-0.458 -0.209,-0.708 -0.708,-0.708l-16.321,-0c-0.417,-0 -0.667,0.25 -0.667,0.708l0,34.016c0,0.458 0.25,0.708 0.667,0.708l16.321,0c0.499,0 0.708,-0.25 0.708,-0.708l-0,-4.413c-0,-0.5 -0.209,-0.708 -0.708,-0.708l-11.075,-0l-0,-8.952l8.452,0c0.458,0 0.708,-0.25 0.708,-0.749l-0,-4.414c-0,-0.458 -0.25,-0.749 -0.708,-0.749l-8.452,-0l-0,-8.827l11.075,0c0.499,0 0.708,-0.333 0.708,-0.791l-0,-4.413Z" style="fill:#fff;fill-rule:nonzero;"></path><path d="M981.273,189.568c-4.122,-0 -6.412,2.207 -6.412,6.37l0,10.451c0,0.874 0.417,1.374 1.208,1.665l10.492,3.456l-0,5.871c-0,1.207 -0.625,1.79 -1.749,1.79l-2.123,-0c-1.124,-0 -1.791,-0.583 -1.791,-1.79l0,-3.414c0,-0.458 -0.208,-0.708 -0.707,-0.708l-4.622,-0c-0.416,-0 -0.708,0.25 -0.708,0.708l0,4.663c0,4.163 2.29,6.37 6.412,6.37l4.955,-0c4.163,-0 6.37,-2.207 6.37,-6.37l0,-10.243c0,-0.832 -0.416,-1.332 -1.166,-1.623l-10.534,-3.456l0,-6.121c0,-1.166 0.667,-1.79 1.791,-1.79l2.123,-0c1.166,-0 1.749,0.624 1.749,1.79l-0,3.456c-0,0.458 0.291,0.708 0.708,0.708l4.621,-0c0.5,-0 0.708,-0.25 0.708,-0.708l0,-4.705c0,-4.163 -2.207,-6.37 -6.37,-6.37l-4.955,-0Z" style="fill:#fff;fill-rule:nonzero;"></path></g></g><path d="M71.322,24.981c0,-16.321 -8.66,-24.981 -24.981,-24.981l-43.551,0c-1.749,0 -2.79,1.041 -2.79,2.79l0,133.276c0,1.749 1.041,2.789 2.79,2.789l18.028,0c1.749,0 2.79,-1.04 2.79,-2.789l-0,-43.718l11.991,0l11.616,44.051c0.333,1.582 1.207,2.456 2.956,2.456l18.028,0c1.916,0 2.957,-1.04 2.457,-3.122l-11.991,-45.467c8.327,-3.663 12.657,-11.283 12.657,-22.941l0,-42.344Zm-47.714,44.426l-0,-46.507l17.195,-0c4.497,-0 6.912,2.456 6.912,6.953l-0,32.642c-0,4.497 -2.415,6.912 -6.912,6.912l-17.195,-0Zm61.621,44.425c-0,16.322 8.66,25.023 24.981,25.023l19.444,0c16.321,0 24.981,-8.701 24.981,-25.023l0,-88.851c0,-16.321 -8.66,-24.981 -24.981,-24.981l-19.444,-0c-16.321,-0 -24.981,8.66 -24.981,24.981l-0,88.851Zm30.019,2.623c-4.538,0 -6.953,-2.248 -6.953,-6.953l-0,-80.19c-0,-4.497 2.415,-6.912 6.953,-6.912l10.076,0c4.497,0 6.911,2.415 6.911,6.912l0,80.19c0,4.705 -2.414,6.953 -6.911,6.953l-10.076,0Zm126.323,-91.474c0,-16.321 -8.827,-24.981 -25.148,-24.981l-41.636,-0c-1.749,-0 -2.789,0.874 -2.789,2.79l-0,133.276c-0,1.749 1.04,2.789 2.789,2.789l41.636,0c16.321,0 25.148,-8.701 25.148,-25.023l0,-31.934c0,-6.412 -4.663,-11.242 -10.909,-12.283l0,-0.375c6.246,-1.041 10.909,-5.912 10.909,-12.324l0,-31.935Zm-23.066,26.231c-0,4.33 -2.415,6.745 -6.953,6.745l-15.78,0l-0,-35.057l15.78,-0c4.704,-0 6.953,2.456 6.953,6.953l-0,21.359Zm-0,57.791c-0,4.663 -2.415,6.953 -6.953,6.953l-15.78,-0l-0,-35.099l15.78,-0c4.704,-0 6.953,2.456 6.953,6.953l-0,21.193Zm43.218,-109.003c-1.915,0 -2.79,1.041 -2.79,2.79l0,133.276c0,1.749 0.875,2.789 2.79,2.789l18.028,0c1.749,0 2.79,-1.04 2.79,-2.789l-0,-133.276c-0,-1.749 -1.041,-2.79 -2.79,-2.79l-18.028,0Zm91.474,0c-1.916,0 -2.79,1.041 -2.79,2.79l0,73.237l-1.041,0l-26.397,-73.779c-0.5,-1.54 -1.54,-2.248 -3.123,-2.248l-17.154,0c-1.748,0 -2.789,1.041 -2.789,2.79l-0,133.276c-0,1.749 1.041,2.789 2.789,2.789l18.029,0c1.915,0 2.789,-1.04 2.789,-2.789l0,-73.571l0.875,0l26.563,74.112c0.5,1.541 1.541,2.248 3.123,2.248l17.154,0c1.749,0 2.79,-1.04 2.79,-2.789l-0,-133.276c-0,-1.749 -1.041,-2.79 -2.79,-2.79l-18.028,-0Zm63.161,0c-16.154,0 -24.981,8.66 -24.981,24.981l-0,40.97c-0,3.289 1.54,5.371 4.663,6.412l41.136,13.532l0,23.108c0,4.663 -2.415,6.953 -6.953,6.953l-8.327,-0c-4.33,-0 -6.912,-2.29 -6.912,-6.953l0,-13.366c0,-1.915 -0.874,-2.789 -2.789,-2.789l-18.07,-0c-1.707,-0 -2.748,0.874 -2.748,2.789l-0,18.195c-0,16.322 8.827,25.023 24.981,25.023l19.444,0c16.321,0 24.982,-8.701 24.982,-25.023l-0,-40.053c-0,-3.331 -1.541,-5.205 -4.497,-6.454l-41.303,-13.532l0,-23.94c0,-4.497 2.582,-6.953 6.912,-6.953l8.327,-0c4.705,-0 6.953,2.456 6.953,6.953l0,13.532c0,1.748 1.041,2.789 2.79,2.789l18.028,0c1.915,0 2.79,-1.041 2.79,-2.789l-0,-18.404c-0,-16.321 -8.661,-24.981 -24.982,-24.981l-19.444,0Zm61.788,113.832c-0,16.322 8.66,25.023 24.981,25.023l19.444,0c16.321,0 24.982,-8.701 24.982,-25.023l-0,-88.851c-0,-16.321 -8.661,-24.981 -24.982,-24.981l-19.444,-0c-16.321,-0 -24.981,8.66 -24.981,24.981l-0,88.851Zm30.019,2.623c-4.496,0 -6.953,-2.248 -6.953,-6.953l0,-80.19c0,-4.497 2.457,-6.912 6.953,-6.912l10.076,0c4.497,0 6.953,2.415 6.953,6.912l0,80.19c0,4.705 -2.456,6.953 -6.953,6.953l-10.076,0Zm110.044,-116.455c-1.916,-0 -2.79,1.041 -2.79,2.79l0,73.237l-1.041,0l-26.355,-73.779c-0.542,-1.54 -1.582,-2.248 -3.123,-2.248l-17.196,-0c-1.748,-0 -2.789,1.041 -2.789,2.79l-0,133.276c-0,1.749 1.041,2.789 2.789,2.789l18.029,0c1.915,0 2.789,-1.04 2.789,-2.789l0,-73.571l0.875,0l26.563,74.112c0.5,1.541 1.541,2.248 3.123,2.248l17.154,0c1.749,0 2.79,-1.04 2.79,-2.789l-0,-133.276c-0,-1.749 -1.041,-2.79 -2.79,-2.79l-18.028,-0Zm105.172,115.956l41.303,-0c1.915,-0 2.789,1.041 2.789,2.748l0,17.362c0,1.915 -0.874,2.789 -2.789,2.789l-62.121,0c-1.749,0 -2.79,-0.874 -2.79,-2.789l0,-133.276c0,-1.749 1.041,-2.79 2.79,-2.79l18.028,-0c1.915,-0 2.79,1.041 2.79,2.79l-0,113.166Zm60.746,-115.956c-1.915,-0 -2.789,1.041 -2.789,2.79l-0,133.276c-0,1.749 0.874,2.789 2.789,2.789l18.029,0c1.749,0 2.789,-1.04 2.789,-2.789l0,-133.276c0,-1.749 -1.04,-2.79 -2.789,-2.79l-18.029,-0Zm107.587,24.981c0,-16.321 -8.66,-24.981 -24.981,-24.981l-19.444,-0c-16.321,-0 -24.981,8.66 -24.981,24.981l-0,88.851c-0,16.322 8.66,25.023 24.981,25.023l10.784,0l5.87,12.824c0.708,1.416 1.249,2.457 2.957,2.457l18.069,-0c1.916,-0 3.29,-1.249 2.415,-3.123l-6.953,-14.947c7.495,-3.831 11.283,-11.283 11.283,-22.234l0,-88.851Zm-45.799,4.872c0,-4.497 2.415,-6.953 6.953,-6.953l8.994,-0c4.538,-0 6.953,2.456 6.953,6.953l-0,79.15c-0,4.663 -2.415,6.953 -6.953,6.953l-8.994,-0c-4.538,-0 -6.953,-2.29 -6.953,-6.953l0,-79.15Zm113.166,-29.853c-1.915,-0 -3.497,1.582 -3.497,3.456l-0,105.547c-0,4.663 -2.415,6.953 -6.912,6.953l-9.035,-0c-4.538,-0 -6.953,-2.29 -6.953,-6.953l0,-105.547c0,-1.874 -1.54,-3.456 -3.456,-3.456l-16.654,-0c-1.915,-0 -3.497,1.582 -3.497,3.456l-0,110.376c-0,16.322 8.701,25.023 24.981,25.023l19.444,0c16.321,0 25.023,-8.701 25.023,-25.023l0,-110.376c0,-1.874 -1.582,-3.456 -3.497,-3.456l-15.947,-0Zm36.765,113.832c-0,16.322 8.702,25.023 25.023,25.023l19.402,0c16.321,0 25.023,-8.701 25.023,-25.023l0,-88.851c0,-16.321 -8.702,-24.981 -25.023,-24.981l-19.402,-0c-16.321,-0 -25.023,8.66 -25.023,24.981l-0,88.851Zm30.061,2.623c-4.539,0 -6.953,-2.248 -6.953,-6.953l-0,-80.19c-0,-4.497 2.414,-6.912 6.953,-6.912l10.034,0c4.538,0 6.953,2.415 6.953,6.912l0,80.19c0,4.705 -2.415,6.953 -6.953,6.953l-10.034,0Zm128.072,-91.474c-0,-16.321 -8.702,-24.981 -24.982,-24.981l-43.593,-0c-1.707,-0 -2.748,1.041 -2.748,2.79l0,133.276c0,1.749 1.041,2.789 2.748,2.789l18.07,0c1.707,0 2.79,-1.04 2.79,-2.789l-0,-43.718l11.949,0l11.617,44.051c0.374,1.582 1.249,2.456 2.956,2.456l18.07,0c1.915,0 2.956,-1.04 2.415,-3.122l-11.95,-45.467c8.327,-3.663 12.658,-11.283 12.658,-22.941l-0,-42.344Zm-47.715,44.426l-0,-46.507l17.154,-0c4.538,-0 6.953,2.456 6.953,6.953l0,32.642c0,4.497 -2.415,6.912 -6.953,6.912l-17.154,-0Zm90.058,-69.407c-16.155,-0 -24.981,8.66 -24.981,24.981l-0,40.97c-0,3.289 1.54,5.371 4.663,6.412l41.136,13.532l0,23.108c0,4.663 -2.415,6.911 -6.953,6.911l-8.327,0c-4.33,0 -6.912,-2.248 -6.912,-6.911l0,-13.366c0,-1.915 -0.874,-2.789 -2.789,-2.789l-18.07,-0c-1.707,-0 -2.748,0.874 -2.748,2.789l-0,18.195c-0,16.322 8.826,25.023 24.981,25.023l19.444,0c16.321,0 24.982,-8.701 24.982,-25.023l-0,-40.053c-0,-3.331 -1.541,-5.205 -4.497,-6.454l-41.303,-13.532l0,-23.94c0,-4.497 2.582,-6.953 6.912,-6.953l8.327,-0c4.705,-0 6.953,2.456 6.953,6.953l0,13.532c0,1.748 1.041,2.789 2.79,2.789l18.028,0c1.915,0 2.79,-1.041 2.79,-2.789l-0,-18.404c-0,-16.321 -8.661,-24.981 -24.982,-24.981l-19.444,-0Z" style="fill:#fff;fill-rule:nonzero;"></path></g></svg>