<svg xmlns="http://www.w3.org/2000/svg" xmlns:xlink="http://www.w3.org/1999/xlink" xmlns:serif="http://www.serif.com/" width="100%" height="100%" viewBox="0 0 3005 638" xml:space="preserve" style="fill-rule:evenodd;clip-rule:evenodd;stroke-linejoin:round;stroke-miterlimit:2;"><g><path d="M2603.48,168.876l-242.875,0c-21.409,0.023 -39.019,17.633 -39.042,39.042l0,185.542c0.023,21.409 17.633,39.019 39.042,39.041l242.875,0c21.409,-0.022 39.019,-17.632 39.042,-39.041l-0,-185.542c-0.046,-21.4 -17.642,-38.996 -39.042,-39.042m-18.5,68.709l0,126.375c0,0.028 0,0.055 0,0.083c0,6.057 -4.984,11.042 -11.041,11.042l-183.834,-0c-6.01,-0.113 -10.88,-5.114 -10.833,-11.125l-0,-126.375c-0,-6.057 4.984,-11.042 11.041,-11.042l183.834,0c5.987,0.091 10.856,5.054 10.833,11.042" style="fill:#fff;fill-opacity:0.72;fill-rule:nonzero;"></path><path d="M2229.6,169.335l0,190.666l-118.833,-89.958l-118.542,89.917l0,-190.625l-57.542,-0l0,228.25c-0.021,14.663 8.364,28.109 21.542,34.541c5.436,2.715 11.424,4.141 17.5,4.167c8.534,0.016 16.84,-2.782 23.625,-7.958l113.417,-86.042l113.708,86.083c6.791,5.166 15.093,7.962 23.625,7.959c6.076,-0.026 12.065,-1.452 17.5,-4.167c13.161,-6.466 21.525,-19.919 21.5,-34.583l0,-228.25" style="fill:#fff;fill-opacity:0.72;fill-rule:nonzero;"></path><path d="M461.976,579.251c-160.833,72 -247.75,-18.375 -247.75,-18.375l39.417,-152.458l-177.292,-0.375c-57.292,-57.958 -42.917,-144.625 -28.375,-194.875c0,-0.375 0.25,-0.792 0.333,-1.167c3.588,-12.462 7.972,-24.682 13.125,-36.583l-27.416,0c-0.667,0.958 -3.584,7.542 -3.584,7.542c-0.375,0.708 -0.75,1.416 -1.125,2.208c-37.161,80.495 -39.066,172.961 -5.25,254.917c6.716,16.212 14.771,31.835 24.084,46.708l97.791,0c-8.708,27.792 -17.083,54.167 -25.25,80.458c111.834,93.542 268.084,83.584 358.667,26.209" style="fill:#fff;fill-opacity:0.72;fill-rule:nonzero;"></path><path d="M2929.52,169.293l-253,0l-0,57.958l252.416,0c9.653,0.023 17.584,7.972 17.584,17.625l0.625,112.5c-0,0.028 -0,0.056 -0,0.084c-0,9.669 -7.956,17.625 -17.625,17.625l-195.584,-0l0,-105.875l-57.416,22.833l-0,140.583l253,0c41.143,0 75,-33.856 75,-75l-0,-113.291c-0,-41.144 -33.857,-75 -75,-75" style="fill:#fff;fill-opacity:0.72;fill-rule:nonzero;"></path></g><g><path d="M299.059,220.918c30.042,1.157 54.127,26.186 54.127,56.25c-0,30.064 -24.085,55.094 -54.127,56.25l-90.916,0l298.208,242.167c14.125,-10.375 29.167,-24.292 29.167,-24.292c64.187,-59.267 100.804,-142.719 100.958,-230.083c0.5,-33.894 -4.409,-67.652 -14.542,-100c-28.291,-85.75 -85.708,-152.542 -169.125,-191.667c-51.128,-23.977 -107.815,-33.641 -164,-27.958c-92.493,8.637 -176.726,57.327 -230.375,133.166c-1.166,1.667 -3.791,5.25 -5.125,7.459l14.375,0.541c6.166,-8.755 12.888,-17.106 20.125,-25c17.536,-19.338 37.656,-36.163 59.792,-50c60,-36.625 125,-44.833 193.083,-33.333c60.731,9.95 115.909,41.4 155.417,88.583c50.458,58.667 72.917,126.125 64.708,203.709c-4.703,44.934 -21.033,87.877 -47.375,124.583c-3.458,4.875 -7.166,9.625 -10.916,14.333l-1.542,1.875l-1.667,2.042l-4.458,5.542l-128.083,-104.167l1.041,0c72.625,-9.583 96.084,-52.083 98.542,-92.708l0,-7.292c0,-52.125 -40.458,-94.708 -89.667,-95.458l-5.75,-0l-281.666,0.25l52.5,45.208" style="fill:#fff;fill-rule:nonzero;"></path><path d="M1474.39,169.251l-242.875,0c-21.425,0.023 -39.042,17.659 -39.042,39.084c-0,0.028 -0,0.055 0,0.083l0,185.417c0.023,21.409 17.633,39.019 39.042,39.041l242.875,0c21.409,-0.022 39.019,-17.632 39.041,-39.041l0,-185.417c-0.022,-21.409 -17.632,-39.019 -39.041,-39.042m-18.5,195.084c-0,6.057 -4.985,11.041 -11.042,11.041l-183.833,0c-6.01,-0.067 -10.918,-5.03 -10.918,-11.041c0,-0.041 0.001,-0.083 0.001,-0.125l0,-126.542c0.023,-6.041 5,-11 11.042,-11l183.833,0c0.014,0 0.028,0 0.042,0c6.034,0 11,4.966 11,11l-0.125,126.667Z" style="fill:#fff;fill-rule:nonzero;"></path><path d="M1878.23,169.585c-5.434,-2.719 -11.424,-4.145 -17.5,-4.167c-8.539,-0.007 -16.847,2.806 -23.625,8l-113.417,86.083l-113.708,-86.125c-6.772,-5.17 -15.063,-7.968 -23.583,-7.958c-6.09,0.023 -12.093,1.449 -17.542,4.167c-13.195,6.471 -21.567,19.97 -21.5,34.666l0,228.334l57.542,-0l-0,-190.834l118.833,89.959l118.5,-89.959l0,190.709l57.542,-0l-0,-228.209c0.027,-14.675 -8.358,-28.136 -21.542,-34.583" style="fill:#fff;fill-rule:nonzero;"></path><path d="M1137.6,334.501c17.667,-15.166 28.375,-40.458 28.375,-67.625c0,-51.375 -28.583,-98.25 -98.125,-98.25l-40.167,0l-195.458,-0.291c0,-0 0.208,58.333 0,58.333l228.708,0c0.944,-0.063 1.89,-0.063 2.834,0c19.916,1.417 35.666,15.167 35.666,35.5c0,20.333 -15.5,34.583 -35.208,36.25l-173.417,0l0,-34.458l-58.333,24.5l0,143.916l58.083,0l0.25,-73.958l150.959,-0.75l47.416,75l70.084,0l-50.834,-80.5c10.742,-4.013 20.636,-10.005 29.167,-17.667" style="fill:#fff;fill-rule:nonzero;"></path></g></svg>