<svg xmlns="http://www.w3.org/2000/svg" xmlns:xlink="http://www.w3.org/1999/xlink" xmlns:serif="http://www.serif.com/" width="100%" height="100%" viewBox="0 0 1280 662" xml:space="preserve" style="fill-rule:evenodd;clip-rule:evenodd;stroke-linejoin:round;stroke-miterlimit:2;"><path d="M589.583,463.523c0,-102.291 -0.625,-189.166 -1.25,-192.708c-2.5,-12.083 2.5,-6.667 13.542,15c6.042,11.667 13.542,26.042 16.667,31.667c3.125,5.833 15.625,30.208 28.125,54.166c12.5,24.167 25.208,48.542 28.333,54.167c3.125,5.833 12.917,24.583 21.875,41.667c28.542,55.208 43.333,83.333 46.25,87.5c2.083,3.125 2.708,14.791 2.708,49.375l0,45.416l-156.25,0l0,-186.25Z" style="fill:#fff;fill-rule:nonzero;"></path><path d="M1122.92,649.773l-0,-102.083l9.583,-18.125c5.417,-10.208 13.125,-24.792 17.5,-32.917c4.375,-7.916 15.833,-30 25.625,-48.958c9.583,-18.958 21.875,-42.292 27.083,-52.083c5,-9.792 17.292,-33.125 26.875,-52.084c31.667,-61.458 45.834,-87.5 47.084,-87.5c0.833,0 1.875,88.542 2.291,196.875l0.625,196.875l-156.666,0Z" style="fill:#fff;fill-rule:nonzero;"></path><path d="M894.167,584.773c-1.875,-2.5 -4.584,-7.083 -15.834,-27.291c-2.291,-4.375 -5.416,-9.584 -6.458,-11.459c-1.25,-1.875 -6.25,-10.625 -11.042,-19.166c-12.708,-22.084 -19.375,-33.334 -23.75,-40.625c-2.083,-3.334 -5.625,-10 -7.916,-14.584c-2.5,-4.583 -5.417,-10.208 -6.875,-12.5c-5.625,-9.375 -47.709,-82.5 -50.625,-88.333c-0.834,-1.667 -7.292,-12.917 -14.375,-25c-7.084,-12.083 -23.542,-43.542 -36.875,-70c-13.334,-26.25 -48.125,-95.625 -77.5,-153.75c-29.375,-58.125 -53.334,-106.667 -53.334,-107.917c0,-1.041 26.875,-1.875 68.75,-1.875l68.75,0l5,8.125c2.917,4.375 13.959,23.959 24.792,43.125c10.833,19.375 23.125,40.834 27.292,47.709c4.166,6.875 9.375,16.25 11.666,20.833c2.5,4.583 6.042,11.25 8.125,14.583c2.084,3.542 13.334,23.125 25,43.75c11.667,20.625 22.084,38.959 23.125,40.625c1.042,1.667 8.959,15.834 17.709,31.25c8.75,15.417 16.875,30 18.125,32.292c1.458,2.292 12.083,21.25 23.958,42.292c11.875,20.833 22.5,37.916 23.333,37.916c1.875,0 14.167,-20.833 31.459,-53.125c5,-9.166 15.625,-28.333 23.541,-42.708c16.25,-28.958 18.125,-32.083 26.25,-46.875c13.959,-25.625 22.5,-41.042 34.584,-62.5c7.083,-12.5 16.458,-29.375 20.833,-37.5c10.833,-19.792 17.5,-31.875 23.125,-41.667c2.708,-4.583 6.667,-12.083 9.167,-16.666c2.291,-4.584 6.875,-12.917 10.416,-18.75c3.334,-5.625 7.709,-13.75 9.792,-17.709c2.083,-3.958 6.042,-11.25 8.75,-16.25l5.208,-8.75l67.292,0c37.083,0 67.292,0.417 67.292,1.042c-0,2.708 -152.084,303.75 -165.209,327.083c-14.791,26.25 -37.083,66.459 -42.916,77.709c-1.459,3.125 -6.875,12.5 -11.875,20.833c-5,8.333 -9.167,15.833 -9.167,16.667c-0,0.833 -3.333,7.083 -7.5,13.958c-4.167,6.875 -10.208,17.292 -13.125,22.917c-3.125,5.833 -16.25,29.375 -29.167,52.708l-23.541,42.083l-37.084,0c-27.083,0 -37.5,-0.625 -39.166,-2.5Z" style="fill:#fff;fill-rule:nonzero;"></path><path d="M178.125,657.273c-17.083,-2.708 -38.333,-6.458 -46.875,-8.541c-24.375,-5.625 -63.75,-19.167 -84.792,-29.167c-18.958,-8.958 -46.458,-25.833 -46.458,-28.542c0,-0.625 6.667,-17.083 14.792,-36.458c17.916,-42.5 33.75,-80.625 37.291,-89.583c1.459,-3.75 3.125,-6.875 3.75,-6.875c0.625,-0 3.959,2.291 7.5,5c8.75,6.458 48.542,28.333 51.875,28.333c1.042,0 4.792,1.25 8.334,2.917c11.25,5 45.208,15.208 68.125,20.208c18.958,4.375 27.083,5 60.416,4.792c35.417,-0.209 39.792,-0.625 54.584,-5.417c27.916,-9.167 39.166,-21.875 39.166,-44.375c0,-20.625 -12.5,-35.208 -37.5,-43.75c-0.625,-0.208 -2.5,-1.042 -4.166,-1.667c-14.167,-5.833 -57.917,-18.125 -86.459,-24.375c-16.041,-3.333 -21.458,-4.791 -59.375,-16.041c-24.375,-7.292 -63.125,-23.334 -66.666,-27.5c-0.625,-0.625 -3.75,-2.709 -7.292,-4.375c-6.875,-3.542 -41.458,-37.292 -48.125,-46.875c-7.708,-11.459 -15,-26.875 -19.792,-42.709c-4.375,-13.958 -4.791,-19.791 -4.791,-54.166c-0,-40.625 2.083,-53.125 13.541,-78.542c2.084,-5 3.959,-9.375 3.959,-10c-0,-0.833 5.416,-9.375 18.125,-28.125c7.5,-11.042 31.458,-34.167 45.833,-43.958c35.625,-24.167 66.042,-35.417 117.708,-43.334c64.167,-9.791 148.542,-1.875 210.625,19.792c17.084,5.833 16.875,5.833 41.042,17.292c27.292,12.916 28.542,14.583 20.833,30.416c-2.291,4.584 -3.958,9.375 -4.166,10.417c-0,1.25 -2.917,9.167 -6.459,17.708c-3.541,8.542 -8.541,21.875 -11.25,29.375c-2.5,7.5 -5.625,15.417 -6.875,17.709c-1.25,2.083 -5,11.875 -8.75,21.666c-3.75,9.792 -7.291,18.542 -8.333,19.375c-0.833,1.042 -8.542,-1.666 -16.875,-6.041c-47.083,-24.167 -92.708,-37.5 -135,-39.584c-67.292,-3.333 -107.083,17.292 -107.083,55.417c-0,18.75 6.875,28.333 27.708,37.917c17.083,7.708 37.708,14.166 69.792,21.458c55,12.708 124.166,34.375 143.333,45c16.458,9.375 17.917,10.417 33.75,22.917c33.333,26.666 52.083,57.083 57.083,92.083c4.167,30.833 4.584,39.167 2.292,60c-3.958,36.25 -15.833,66.25 -37.5,95.625c-10.208,13.958 -14.167,17.708 -32.292,32.292c-33.125,26.458 -70.208,42.5 -119.791,51.458c-37.292,6.667 -103.334,7.083 -144.792,0.833Z" style="fill:#fff;fill-rule:nonzero;"></path></svg>