<svg xmlns="http://www.w3.org/2000/svg" xmlns:xlink="http://www.w3.org/1999/xlink" xmlns:serif="http://www.serif.com/" width="100%" height="100%" viewBox="0 0 16665 4090" xml:space="preserve" style="fill-rule:evenodd;clip-rule:evenodd;stroke-linejoin:round;stroke-miterlimit:2;"><g><g><path d="M11231.5,3351.26c-181.666,-19.166 -328.75,-69.166 -464.583,-158.333c-255.833,-167.5 -430.417,-458.75 -493.75,-823.333c-56.25,-325.834 -21.25,-678.334 94.583,-949.167c58.75,-137.917 132.084,-248.75 231.667,-350.833c163.333,-167.5 351.25,-260.834 594.583,-295.834c57.084,-8.333 225.417,-6.666 287.5,2.084c298.334,43.75 530,187.083 661.25,408.333l22.084,37.5l4.166,-1170l9.584,-15.417c5.416,-8.333 16.666,-19.583 25,-25c15.416,-9.583 17.5,-9.583 162.083,-10.833c97.5,-0.833 152.083,0.417 163.333,3.333c22.5,5.834 45,26.25 50.417,45c3.333,10.834 4.167,503.75 3.333,1618.33l-1.25,1602.92l-8.75,11.667c-4.583,6.25 -15,15.833 -22.5,21.25l-14.166,9.583l-162.5,-1.25c-162.5,-1.25 -162.917,-1.25 -175.834,-10.833c-6.666,-5.417 -16.25,-15.417 -20.833,-22.917c-7.5,-12.5 -7.917,-23.75 -9.167,-198.75l-1.25,-185.416l-16.25,30.416c-60.833,111.667 -163.333,218.75 -277.083,288.334c-45,27.916 -132.5,68.333 -183.333,85.416c-114.167,37.917 -204.167,52.084 -341.667,54.167c-55,0.833 -107.5,0.417 -116.667,-0.417Zm280,-407.916c352.5,-48.75 594.167,-312.084 652.917,-711.25c16.25,-107.917 16.25,-261.25 -0,-367.5c-59.167,-395.834 -288.75,-656.667 -628.75,-714.167c-133.333,-22.917 -280.417,-12.917 -401.25,26.667c-282.083,92.5 -462.083,339.583 -511.667,703.75c-10.416,75 -10.416,260.833 -0.416,336.666c35.416,265.417 137.5,462.917 305.416,590.834c111.667,85.416 236.667,129.166 410,142.916c32.084,2.5 129.167,-2.083 173.75,-7.916Z" style="fill:#fff;fill-rule:nonzero;"></path><path d="M15356.5,3349.6c-222.083,-22.5 -414.166,-95.834 -582.5,-222.084c-60,-44.583 -159.166,-142.083 -202.916,-198.75c-123.75,-160.416 -209.167,-350 -250,-554.166c-59.167,-294.167 -34.167,-606.25 69.166,-868.334c109.167,-276.25 303.75,-494.166 551.667,-617.5c118.333,-58.75 233.75,-93.333 377.083,-112.5c75,-10 237.5,-10 312.5,0c327.5,44.167 585,193.334 776.25,449.167c321.667,431.25 344.584,1118.75 52.5,1590.83c-64.583,105 -185.833,238.75 -277.916,307.917c-157.084,117.5 -324.584,186.667 -525.834,217.083c-66.25,10 -235,14.584 -300,8.334Zm226.25,-371.25c197.917,-22.084 365.834,-111.25 483.334,-257.084c102.916,-127.916 165,-282.5 195.416,-486.25c5.834,-40 7.5,-75.833 7.084,-179.166c-0,-136.25 -5.417,-192.917 -27.084,-285.417c-70.833,-304.167 -243.333,-510.417 -495.833,-593.333c-159.167,-52.084 -352.083,-52.084 -513.75,0.416c-150.417,48.334 -283.333,153.75 -370,293.75c-103.333,166.667 -155.417,386.667 -147.917,628.334c11.667,388.75 164.584,675.416 430.834,807.916c70.833,35.417 160,61.25 240.833,70.417c47.917,5.417 150,5.833 197.083,0.417Z" style="fill:#fff;fill-rule:nonzero;"></path><path d="M4998.12,3329.6c-40.833,-19.167 -43.333,-30 -43.333,-175.834c-0,-145.833 2.5,-156.666 43.333,-175.416c15.833,-7.5 39.167,-7.917 479.583,-7.917c457.917,0 530.417,-1.667 612.084,-14.583c178.75,-28.334 275,-100.834 311.25,-233.334c12.5,-46.25 13.75,-190.833 2.083,-240.833c-22.5,-96.25 -85.833,-160.417 -196.667,-200c-84.166,-30 -169.583,-40 -387.5,-44.583c-176.666,-3.75 -236.25,-7.5 -322.5,-19.167c-334.166,-45 -480.833,-179.167 -525.416,-481.667c-17.917,-118.75 -18.75,-314.166 -2.084,-425.833c20,-134.167 62.084,-228.333 135.417,-302.5c95.417,-96.25 236.25,-152.083 452.083,-179.167c119.167,-14.583 192.917,-16.666 668.75,-16.666l464.584,-0l16.25,9.583c10.416,5.833 20,16.25 26.25,27.5c9.583,17.917 9.583,20.417 9.583,144.583c0,130.834 -1.25,141.25 -17.917,159.167c-23.333,25.417 12.917,23.333 -536.25,26.25c-447.083,1.667 -506.666,2.917 -543.75,9.167c-138.333,23.75 -212.5,65.833 -250,141.666c-22.5,45.417 -27.5,68.75 -30,138.75c-7.916,214.584 54.167,309.584 225.834,347.5c55,12.5 117.916,17.084 270.833,20.834c248.333,5.833 367.083,20.416 502.5,60.416c207.917,61.667 345.417,179.167 409.167,350c39.166,104.584 57.083,250 48.75,393.75c-11.25,185.834 -55.417,317.5 -145,429.584c-96.667,120.833 -264.584,205.416 -477.917,241.25c-133.75,22.083 -134.583,22.083 -677.083,23.75c-487.5,1.25 -506.667,1.25 -522.917,-6.25Z" style="fill:#fff;fill-rule:nonzero;"></path><path d="M7166.88,3327.93c-21.667,-11.25 -32.5,-25 -37.5,-47.5c-5.417,-21.667 -5.417,-2390 0,-2411.67c4.167,-18.75 14.167,-33.75 30.833,-45.833c11.25,-8.333 16.25,-8.75 183.75,-8.75c168.334,0 172.5,0 184.167,8.75c6.25,4.583 15.833,15 21.25,22.5l9.167,13.75l-0,2430.83l-9.584,14.167c-5,7.917 -17.5,18.333 -27.916,23.75c-18.334,9.167 -20.834,9.167 -177.084,9.167c-156.25,-0 -158.75,-0 -177.083,-9.167Z" style="fill:#fff;fill-rule:nonzero;"></path><path d="M7985.62,3331.26c-15.417,-7.083 -33.333,-25.833 -39.167,-41.25c-6.25,-16.666 -6.25,-2405.83 0,-2422.5c6.25,-16.666 20,-30.416 39.167,-39.166c15,-7.084 29.583,-7.917 162.5,-7.917c83.333,0 152.083,1.667 160.417,4.167c17.083,4.583 39.166,25.416 45.416,42.916c2.917,7.5 4.584,76.25 4.584,195.834l-0,184.166l25.416,-45.833c126.25,-227.5 314.584,-360.833 572.917,-406.25c138.333,-24.167 317.5,-17.5 451.25,16.667c324.583,82.916 520.833,326.666 575.417,715.833c15.416,109.583 16.666,190 16.666,977.917c-0.416,815 0.417,785 -19.583,807.083c-4.167,4.583 -15,12.083 -24.167,16.25c-15,7.083 -30,7.917 -166.666,7.917c-147.5,-0 -150.834,-0 -168.75,-9.167c-12.5,-6.25 -22.084,-15.417 -27.917,-26.25l-9.583,-16.667l-0,-727.083c-0,-726.25 -1.667,-820.833 -15,-912.5c-12.917,-89.167 -37.084,-170.833 -69.167,-235c-50.833,-101.667 -131.25,-176.667 -233.333,-218.75c-126.667,-51.667 -320,-55.833 -461.25,-10c-247.5,79.583 -389.167,317.5 -431.667,722.083c-12.917,124.167 -14.583,220.417 -14.583,794.584c-0,398.75 -1.25,583.333 -4.584,591.666c-6.25,17.5 -28.333,38.334 -45.416,42.917c-23.75,6.667 -307.5,5 -322.917,-1.667Z" style="fill:#fff;fill-rule:nonzero;"></path><path d="M12974,3318.76c-9.166,-3.333 -20.833,-10.416 -26.666,-15.833c-23.75,-21.667 -22.084,62.5 -22.084,-1237.92l0,-1201.67l9.584,-17.917c6.666,-12.5 15.416,-21.25 27.916,-27.917c17.917,-9.583 19.167,-9.583 173.75,-9.583c122.084,0 158.75,1.25 169.167,5.833c17.5,7.084 34.583,27.5 40.417,47.5c2.5,9.167 4.166,80.834 4.166,182.084l0.417,166.666l9.583,-25c82.084,-213.333 301.25,-363.333 598.334,-409.166c67.916,-10.417 280,-10.417 335.833,-0c72.917,13.333 137.083,37.916 157.5,59.583c13.333,14.583 20,41.667 15,60.417c-5,17.083 -189.167,272.083 -205.833,284.583c-18.334,13.75 -53.75,11.667 -104.584,-7.083c-53.333,-19.167 -95.833,-27.5 -158.333,-31.667c-360,-23.333 -586.25,195.833 -641.667,622.5c-12.5,96.25 -14.583,213.333 -14.583,857.5c-0,727.5 2.5,667.917 -30.417,689.583l-17.083,11.25l-152.083,0.834c-122.084,0.833 -155.834,-0 -168.334,-4.584Z" style="fill:#fff;fill-rule:nonzero;"></path></g><g><path d="M729.375,4086.68c-252.5,-26.25 -477.917,-169.167 -611.25,-387.917c-64.583,-105.833 -103.75,-230.416 -113.75,-361.666c-5.833,-76.667 -5.833,-1193.33 -0,-1204.17c5.833,-10.833 19.583,-17.5 29.167,-14.583c4.166,1.25 25,24.166 46.25,50.833c145.833,182.917 297.083,257.917 603.75,300c47.5,6.25 144.166,7.083 1087.5,9.583c954.166,2.5 1038.33,3.334 1070.83,9.584c90,18.333 143.75,35.416 215.417,69.583c254.583,121.25 426.666,366.25 455.416,649.583c19.167,192.917 -35,388.75 -152.083,545.834c-130,174.583 -318.333,287.916 -543.75,328.333c-36.25,6.25 -122.917,7.083 -1045.83,7.917c-559.167,0.416 -1022.08,-0.834 -1041.67,-2.917Z" style="fill:#fff;fill-rule:nonzero;"></path></g><g><path d="M3439.38,1923.76c-22.5,-28.333 -55,-65.416 -72.5,-82.5c-120.833,-121.666 -279.583,-185.833 -541.667,-219.583c-51.666,-6.667 -140.416,-7.5 -1087.5,-9.583c-1127.5,-2.917 -1038.33,-0.834 -1135.42,-25.417c-78.334,-20 -170.834,-62.5 -244.167,-111.667c-324.583,-217.916 -446.25,-646.25 -283.75,-997.5c59.583,-127.916 165,-250.833 284.167,-330.833c97.916,-65.417 201.25,-108.333 314.166,-130c87.5,-17.083 135,-17.5 1142.08,-16.25c899.583,1.25 969.583,2.083 1010.42,8.75c177.084,30 321.25,101.25 442.917,219.167c140.417,135.833 224.583,310 244.583,504.166c2.5,27.5 4.167,252.5 4.167,634.167c-0,585.833 -0,591.25 -8.333,599.583c-17.084,17.084 -25.417,12.084 -69.167,-42.5Z" style="fill:#fff;fill-rule:nonzero;"></path></g></g></svg>