<svg xmlns="http://www.w3.org/2000/svg" xmlns:xlink="http://www.w3.org/1999/xlink" xmlns:serif="http://www.serif.com/" width="100%" height="100%" viewBox="0 0 816 644" xml:space="preserve" style="fill-rule:evenodd;clip-rule:evenodd;stroke-linejoin:round;stroke-miterlimit:2;"><g id="Layer_2"><g id="Layer_1-2"><path d="M25.25,589.125c-7.2,-2.813 -13.476,-7.575 -18.125,-13.75c-4.616,-6.376 -7.109,-14.046 -7.125,-21.917l33.833,0c0.197,4.183 1.987,8.135 5,11.042c3.109,2.628 7.101,3.983 11.167,3.792c3.984,0.228 7.927,-0.92 11.167,-3.25c2.753,-2.154 4.306,-5.508 4.166,-9c0.093,-3.004 -1.088,-5.912 -3.25,-8c-2.305,-2.187 -4.987,-3.937 -7.916,-5.167c-4.398,-1.787 -8.891,-3.331 -13.459,-4.625c-7.06,-2.077 -13.954,-4.682 -20.625,-7.792c-5.432,-2.684 -10.147,-6.627 -13.75,-11.5c-4.058,-5.807 -6.08,-12.798 -5.75,-19.875c-0.483,-11.071 4.448,-21.712 13.209,-28.5c9.954,-7.235 22.082,-10.866 34.375,-10.291c12.412,-0.607 24.67,3.023 34.75,10.291c8.82,6.922 14.023,17.497 14.125,28.709l-34.542,-0c-0.056,-3.824 -1.739,-7.449 -4.625,-9.959c-3.091,-2.497 -6.988,-3.786 -10.958,-3.625c-3.371,-0.154 -6.683,0.944 -9.292,3.084c-2.452,2.257 -3.756,5.507 -3.542,8.833c-0.04,4.136 2.273,7.955 5.959,9.833c5.825,3.129 11.954,5.656 18.291,7.542c7.019,2.335 13.88,5.118 20.542,8.333c5.364,2.681 10.04,6.559 13.667,11.334c4.016,5.543 6.043,12.285 5.75,19.125c0.081,7.151 -1.886,14.179 -5.667,20.25c-4.015,6.282 -9.72,11.308 -16.458,14.5c-7.95,3.755 -16.67,5.596 -25.459,5.375c-8.716,0.072 -17.364,-1.556 -25.458,-4.792Z" style="fill:#fff;fill-rule:nonzero;"></path><path d="M266.667,488.792l-27.917,103.708l-35.125,0l-16.333,-67.25l-16.917,67.25l-34.917,0l-28.25,-103.667l31.75,0l14.667,74.125l17.458,-74.125l33.625,0l17.667,73.667l14.5,-73.75l29.792,0.042Z" style="fill:#fff;fill-rule:nonzero;"></path><path d="M278.583,512.5c3.637,-7.613 9.341,-14.053 16.459,-18.583c6.964,-4.31 15.019,-6.537 23.208,-6.417c6.664,-0.241 13.282,1.192 19.25,4.167c5.204,2.699 9.592,6.742 12.708,11.708l0,-14.667l31.792,0l-0,103.792l-31.792,0l0,-14.667c-3.226,4.949 -7.675,8.982 -12.916,11.709c-5.941,3.077 -12.562,4.61 -19.25,4.458c-8.133,0.099 -16.123,-2.159 -23,-6.5c-7.124,-4.596 -12.825,-11.091 -16.459,-18.75c-8.047,-17.862 -8.047,-38.347 0,-56.208l0,-0.042Zm65.042,9.458c-4.207,-4.354 -10.008,-6.816 -16.063,-6.816c-6.054,-0 -11.855,2.462 -16.062,6.816c-4.604,5.088 -6.977,11.817 -6.583,18.667c-0.376,6.91 1.991,13.697 6.583,18.875c4.177,4.409 9.989,6.909 16.062,6.909c6.074,0 11.886,-2.5 16.063,-6.909c8.744,-10.921 8.744,-26.579 -0,-37.5l-0,-0.042Z" style="fill:#fff;fill-rule:nonzero;"></path><path d="M463.667,491.667c5.204,2.699 9.592,6.742 12.708,11.708l-0,-14.667l31.958,0l0,103.5c0.127,8.959 -1.812,17.828 -5.666,25.917c-3.787,7.754 -9.811,14.199 -17.292,18.5c-8.829,4.851 -18.807,7.226 -28.875,6.875c-13.36,0.651 -26.561,-3.178 -37.5,-10.875c-9.408,-7.023 -15.361,-17.759 -16.333,-29.458l31.416,-0c0.982,3.947 3.525,7.332 7.042,9.375c4.169,2.416 8.934,3.615 13.75,3.458c5.781,0.29 11.444,-1.752 15.708,-5.667c4.328,-4.994 6.436,-11.544 5.834,-18.125l-0,-14.666c-3.224,4.942 -7.637,8.997 -12.834,11.791c-5.877,3.136 -12.465,4.701 -19.125,4.542c-8.209,0.096 -16.272,-2.192 -23.208,-6.583c-7.124,-4.596 -12.825,-11.091 -16.458,-18.75c-8.048,-17.862 -8.048,-38.347 -0,-56.209c3.636,-7.613 9.34,-14.053 16.458,-18.583c6.956,-4.339 15.011,-6.595 23.208,-6.5c6.671,-0.157 13.276,1.362 19.209,4.417Zm6.125,30.083c-4.207,-4.354 -10.008,-6.816 -16.063,-6.816c-6.054,-0 -11.856,2.462 -16.062,6.816c-4.604,5.087 -6.978,11.817 -6.584,18.667c-0.376,6.91 1.991,13.697 6.584,18.875c4.176,4.409 9.989,6.909 16.062,6.909c6.073,0 11.886,-2.5 16.063,-6.909c8.744,-10.921 8.744,-26.579 -0,-37.5l-0,-0.042Z" style="fill:#fff;fill-rule:nonzero;"></path><path d="M589.792,491.667c5.204,2.699 9.592,6.742 12.708,11.708l0,-14.667l31.792,0l-0,103.5c0.126,8.959 -1.813,17.828 -5.667,25.917c-3.786,7.754 -9.81,14.199 -17.292,18.5c-8.829,4.851 -18.807,7.226 -28.875,6.875c-13.359,0.651 -26.561,-3.178 -37.5,-10.875c-9.408,-7.023 -15.36,-17.759 -16.333,-29.458l31.417,-0c0.982,3.947 3.524,7.332 7.041,9.375c4.169,2.416 8.934,3.615 13.75,3.458c5.782,0.29 11.444,-1.752 15.709,-5.667c4.328,-4.994 6.436,-11.544 5.833,-18.125l0,-14.666c-3.223,4.942 -7.636,8.997 -12.833,11.791c-5.877,3.136 -12.466,4.701 -19.125,4.542c-8.209,0.096 -16.273,-2.192 -23.209,-6.583c-7.123,-4.596 -12.825,-11.091 -16.458,-18.75c-8.048,-17.862 -8.048,-38.347 0,-56.209c3.637,-7.613 9.341,-14.053 16.458,-18.583c6.956,-4.339 15.011,-6.595 23.209,-6.5c6.727,-0.185 13.392,1.335 19.375,4.417Zm6.125,30.083c-4.207,-4.354 -10.008,-6.816 -16.063,-6.816c-6.054,-0 -11.856,2.462 -16.062,6.816c-4.604,5.087 -6.978,11.817 -6.584,18.667c-0.376,6.91 1.991,13.697 6.584,18.875c4.176,4.409 9.989,6.909 16.062,6.909c6.073,0 11.886,-2.5 16.063,-6.909c8.744,-10.921 8.744,-26.579 -0,-37.5l-0,-0.042Z" style="fill:#fff;fill-rule:nonzero;"></path><path d="M659.667,473.125c-3.445,-3.094 -5.377,-7.538 -5.292,-12.167c-0.155,-4.738 1.781,-9.313 5.292,-12.5c3.737,-3.359 8.645,-5.125 13.666,-4.916c4.954,-0.176 9.785,1.589 13.459,4.916c3.51,3.187 5.447,7.762 5.291,12.5c0.086,4.629 -1.847,9.073 -5.291,12.167c-3.672,3.331 -8.505,5.097 -13.459,4.917c-5.021,0.208 -9.929,-1.558 -13.666,-4.917Zm29.458,15.708l0,103.667l-31.75,0l0,-103.708l31.75,0.041Z" style="fill:#fff;fill-rule:nonzero;"></path><path d="M804.375,499.5c7.668,8.995 11.567,20.617 10.875,32.417l0,60.583l-31.583,0l-0,-56.333c0.369,-5.88 -1.559,-11.679 -5.375,-16.167c-8.115,-7.742 -21.053,-7.742 -29.167,0c-3.817,4.488 -5.745,10.287 -5.375,16.167l0,56.333l-31.75,0l0,-103.708l31.792,-0l-0,13.75c3.323,-4.685 7.802,-8.431 13,-10.875c5.721,-2.787 12.011,-4.213 18.375,-4.167c11.021,-0.494 21.717,3.901 29.208,12Z" style="fill:#fff;fill-rule:nonzero;"></path><path d="M403.625,260c-71.316,0 -130,-58.684 -130,-130c-0,-71.316 58.684,-130 130,-130c71.316,-0 130,58.684 130,130l-48.75,0c0,-44.572 -36.678,-81.25 -81.25,-81.25c-44.572,0 -81.25,36.678 -81.25,81.25c0,44.572 36.678,81.25 81.25,81.25l0,48.75Z" style="fill:#fff;fill-rule:nonzero;"></path><path d="M403.625,358c-71.281,-0.091 -129.909,-58.719 -130,-130l48.75,0c0,44.572 36.678,81.25 81.25,81.25c44.572,0 81.25,-36.678 81.25,-81.25c0,-44.572 -36.678,-81.25 -81.25,-81.25l0,-48.75c71.316,-0 130,58.684 130,130c0,71.316 -58.684,130 -130,130l0,0Z" style="fill:#fff;fill-rule:nonzero;"></path></g></g></svg>