<svg xmlns="http://www.w3.org/2000/svg" xmlns:xlink="http://www.w3.org/1999/xlink" xmlns:serif="http://www.serif.com/" width="100%" height="100%" viewBox="0 0 735 267" xml:space="preserve" style="fill-rule:evenodd;clip-rule:evenodd;stroke-linejoin:round;stroke-miterlimit:2;"><g id="XMLID_1_"><path id="XMLID_18_" d="M518.333,240.779l0,-32.5l49.584,0l-0,-12.083l-49.584,-0l0,-31.25l55.417,-0l0,-12.084l-67.917,0l0,99.584l69.584,-0l-0,-12.084l-57.084,0l0,0.417Zm-52.083,-29.167c0,18.75 -10.833,30 -29.167,30c-18.333,0 -29.583,-11.25 -29.583,-30l0,-58.333l-12.5,0l0,58.333c0,26.25 15.833,41.667 42.083,41.667c26.25,0 41.667,-15.833 41.667,-41.667l0,-58.333l-12.5,0l0,58.333Zm-133.75,-47.083c10.833,0 21.25,4.167 29.583,11.25l0,0.417l7.084,-9.584l-0.417,0c-10.417,-8.75 -23.333,-13.75 -36.667,-13.75c-29.166,0 -52.5,21.667 -52.5,50c0,28.334 22.917,50.417 51.667,50.417c13.333,-0.417 26.25,-5 37.083,-12.917l0,-37.083l-38.75,0l0,11.25l27.917,0l-0,18.75c-7.5,5 -16.25,7.917 -25.417,7.917c-22.083,-0 -40,-17.084 -40,-38.334c0,-21.25 17.5,-38.75 39.167,-38.75l1.25,0.417Zm-106.667,-11.25l-12.083,0l-44.167,98.333l-0.416,1.25l13.333,0l11.25,-25l42.083,0l-5.416,-12.083l-31.667,0l21.25,-47.5l37.083,84.167l0,0.416l13.334,0l-44.584,-99.583Zm-132.083,55l50,0l0,-12.083l-49.583,-0l-0,-31.25l55,-0l-0,-12.084l-67.917,0l0,99.584l69.583,-0l0,-12.084l-57.083,0l0,-32.083Zm-81.667,-55l-12.083,0l0,99.583l55.417,0l-0,-12.083l-42.917,0l-0.417,-87.5Z" style="fill:#fefffe;fill-rule:nonzero;"></path><path id="XMLID_18_1" serif:id="XMLID_18_" d="M679.583,84.167l0,-26.667l47.5,0l0,-15l-47.5,0l0,-26.25l52.917,0l0,-15.833l-69.583,-0l-0,99.583l71.666,0l0,-15.833l-55,-0Zm-61.25,-84.167l0,74.167l-57.916,-74.167l-16.667,0l0,99.583l16.667,0l-0,-72.5l56.25,72.5l17.916,0l0,-99.583l-16.25,-0Zm-196.25,99.583l17.917,0l10,-22.5l38.75,0l-7.083,-15.416l-25.417,-0l17.917,-40.834l35,78.75l17.916,0l-43.75,-99.583l-17.916,0l-43.334,99.583Zm-44.166,-99.583l-30,62.5l-30,-62.5l-26.25,0l-0,99.583l16.666,0l0,-77.5l34.584,68.75l9.583,0l34.583,-68.75l0,77.5l16.667,0l0,-99.583l-25.833,0Zm-132.5,0l-0,55.417c-0,9.166 -2.084,16.25 -6.667,21.666c-4.583,5.417 -11.667,8.334 -18.75,7.917c-7.083,0.417 -13.75,-2.5 -18.333,-7.917c-4.584,-5.416 -7.084,-12.5 -7.084,-21.666l0,-55l-16.666,-0l-0,55.833c-0,14.167 4.166,25.417 11.666,32.917c8.334,7.916 19.167,12.083 30.417,11.666c11.25,0.417 22.083,-3.75 30.417,-11.666c7.916,-7.917 11.666,-18.75 11.666,-32.917l0,-55.833l-16.666,-0l-0,-0.417Zm-112.917,0l-0,42.917l-49.167,-0l0,-42.917l-16.666,0l-0,99.583l16.666,0l0,-40.833l49.167,-0l-0,40.833l16.667,0l-0,-99.583l-16.667,-0Zm-104.583,2.5l-0,18.333l-8.75,0l-0,-15.833l-5,0l-0,15.833l-8.75,0l-0,-17.916l-5.417,-0l-0,23.333l33.333,0l0,-23.75l-5.416,0Zm5.416,40.417l0,-5.417l-33.333,0l-0,5.417l14.167,-0l-0,16.666l-14.167,0l-0,5.417l33.333,0l0,-5.417l-13.75,0l0,-16.666l13.75,-0Zm-28.333,39.583l-0,-10l-5,0l-0,25.417l5,-0l-0,-10l28.333,-0l0,-5.834l-28.333,0l-0,0.417Z" style="fill:#fefffe;fill-rule:nonzero;"></path><path id="XMLID_28_" d="M690,143.279l-19.167,18.333l-18.75,-18.333l-23.75,0l-20,19.583l0,42.5l62.5,61.25l63.75,-61.25l0,-41.666l-20.416,-19.584l-24.167,0l0,-0.833Zm2.917,9.583l18.333,0l-15,33.334l-18.75,-18.75l15.417,-14.584Zm-25.417,97.5l-14.167,-14.166l12.917,-30l14.583,14.166l-13.333,30Zm-7.5,-50.416l-13.333,30l-15.834,-15.834l21.667,-21.666l7.5,7.5Zm25,11.666l-27.083,-26.666l7.083,-17.084l8.75,8.334l18.75,18.75l-7.5,16.666Zm-52.917,-58.75l17.917,0l8.75,8.75l-7.5,16.667l-22.917,-21.667l3.75,-3.75Zm-13.75,13.75l3.334,-3.333l24.166,22.917l-21.666,21.666l-5.834,-5.833l0,-35.417Zm106.25,35.417l-45.416,42.917l19.583,-43.75l2.083,-4.584l23.75,0l0,5.417Zm0,-14.583l-19.583,-0l12.5,-27.917l7.083,7.083l0,20.834Z" style="fill:#b1b1b1;fill-rule:nonzero;"></path></g></svg>