<svg xmlns="http://www.w3.org/2000/svg" xmlns:xlink="http://www.w3.org/1999/xlink" xmlns:serif="http://www.serif.com/" width="100%" height="100%" viewBox="0 0 4992 1603" xml:space="preserve" style="fill-rule:evenodd;clip-rule:evenodd;stroke-linejoin:round;stroke-miterlimit:2;"><g><path d="M2130.75,1503.33c-18.333,-16.25 -23.75,-76.666 -9.583,-112.916c5.833,-15 25,-25 41.25,-21.667c14.166,3.333 28.75,20 28.75,33.75c-0,14.583 -6.667,12.083 -15.417,-5.417c-5.833,-12.916 -10,-16.25 -20.833,-17.083c-21.25,-2.083 -28.334,12.917 -28.334,59.583c0,29.167 1.667,40.417 7.5,49.167c13.334,20.417 41.667,12.083 45.417,-13.333c2.083,-15.417 11.667,-16.25 11.667,-1.25c-0,7.5 -4.584,17.916 -10.834,25.416c-13.333,16.25 -33.333,17.5 -49.583,3.75Z" style="fill:#fff;fill-rule:nonzero;"></path><path d="M2847.42,1503.33c-26.667,-23.333 -21.667,-115.833 7.083,-130.833c22.917,-12.083 53.333,5 53.333,30c0,14.583 -6.666,12.083 -15.416,-5.417c-5.834,-12.5 -10,-16.25 -20.417,-17.083c-20.417,-2.083 -27.917,13.333 -27.917,57.5c0,44.167 6.25,60 24.584,61.667c15.416,1.666 26.666,-7.917 26.666,-22.5c0,-5.834 2.917,-11.25 6.25,-12.917c9.584,-3.333 10.834,-0.417 5.834,16.667c-7.917,29.583 -38.75,41.25 -60,22.916Z" style="fill:#fff;fill-rule:nonzero;"></path><path d="M3289.92,1507.92c-14.167,-8.334 -20.834,-29.167 -20.834,-66.25c0,-43.75 7.084,-62.917 26.25,-70.834c29.584,-12.083 50.834,9.167 53.334,54.167c2.5,40.417 -1.667,63.75 -13.75,76.667c-10.834,11.666 -30.834,14.583 -45,6.25Zm36.25,-14.167c14.583,-14.583 15,-90 0.833,-105.833c-10.833,-12.084 -25,-10.834 -35.833,2.5c-8.334,10.416 -8.75,15.833 -7.5,53.75c0.833,27.916 3.333,44.583 7.083,48.75c7.083,8.75 27.083,9.166 35.417,0.833Z" style="fill:#fff;fill-rule:nonzero;"></path><path d="M4036.59,1506.25c-13.333,-7.083 -20.416,-31.667 -20,-69.583c0,-35 7.084,-53.334 23.334,-62.917c29.166,-16.667 52.083,2.083 57.5,47.083c7.916,67.084 -20.834,107.084 -60.834,85.417Zm40.834,-17.5c5.416,-8.333 7.083,-19.583 7.083,-46.667c0,-45.416 -7.917,-62.5 -29.167,-62.916c-17.5,-0 -24.166,14.166 -25.833,55.416c-1.25,32.917 0,40.417 7.083,52.084c11.25,17.5 30,18.75 40.834,2.083Z" style="fill:#fff;fill-rule:nonzero;"></path><path d="M4177.42,1507.92c-13.334,-7.5 -19.584,-30.417 -19.584,-68.75c0,-23.75 2.084,-40.417 6.667,-49.584c11.25,-24.166 41.667,-29.166 59.583,-10c8.75,9.584 13.75,27.917 8.334,31.25c-5.834,3.334 -12.084,-2.083 -12.084,-10.416c0,-10.417 -13.333,-21.25 -26.25,-21.25c-16.666,-0 -23.75,17.5 -23.75,60c0,50.416 9.167,65.833 35.417,59.166c7.083,-1.666 11.667,-7.5 15,-19.166c2.917,-9.167 7.5,-16.667 10.833,-16.667c7.084,-0 6.667,4.583 -1.25,25c-3.75,9.167 -10.416,18.75 -14.583,20.833c-9.583,5.417 -28.75,5 -38.333,-0.416Z" style="fill:#fff;fill-rule:nonzero;"></path><path d="M4317.84,1507.5c-5,-2.083 -11.25,-9.167 -14.166,-15.417c-7.917,-17.083 -9.584,-70.416 -3.334,-92.083c11.25,-37.083 50.417,-43.75 67.917,-11.667c6.25,12.084 7.083,16.667 3.333,20.417c-3.75,3.75 -6.666,1.667 -12.083,-10c-12.083,-25.417 -35.417,-25.417 -45.833,-0.417c-8.334,20 -7.5,67.084 1.666,85c13.334,26.667 46.667,18.75 46.667,-11.25c0,-5.833 2.5,-9.583 6.25,-9.583c13.333,0 1.667,37.083 -14.167,45.833c-10,5 -24.583,5 -36.25,-0.833Z" style="fill:#fff;fill-rule:nonzero;"></path><path d="M4579.5,1509.58c-6.25,-2.5 -17.5,-23.333 -17.5,-32.5c0,-11.666 10.833,-6.666 14.583,7.5c3.75,11.25 6.25,13.334 19.167,14.584c18.75,1.666 30,-9.584 27.917,-28.75c-1.25,-11.667 -4.167,-15 -26.25,-26.25c-27.917,-14.584 -36.667,-27.5 -32.917,-48.334c3.75,-17.083 23.75,-30.416 41.25,-27.083c14.167,2.5 27.083,15.833 27.083,27.5c0,11.667 -7.083,9.583 -13.333,-3.333c-4.583,-9.584 -8.333,-11.667 -20,-11.667c-11.25,0 -15.833,2.5 -20.417,11.25c-9.166,16.25 -1.25,30.833 23.334,41.25c28.75,12.083 34.583,18.75 34.583,38.75c-0.417,18.333 -5.417,27.5 -19.583,35c-9.167,5 -28.334,6.25 -37.917,2.083Z" style="fill:#fff;fill-rule:nonzero;"></path><path d="M4792.84,1507.5c-13.75,-6.25 -19.166,-22.5 -21.25,-59.583c-2.5,-43.75 4.167,-63.75 24.167,-74.584c13.333,-7.083 16.667,-7.5 28.333,-2.5c16.667,6.667 24.167,20.834 27.5,52.5c7.5,64.167 -20,103.334 -58.75,84.167Zm38.75,-18.75c9.584,-14.583 10.417,-77.5 1.667,-94.583c-11.25,-20.417 -37.917,-17.917 -46.25,4.166c-2.5,5.834 -4.167,25 -4.167,42.5c0,40 9.584,59.167 29.167,59.167c8.75,0 14.583,-3.333 19.583,-11.25Z" style="fill:#fff;fill-rule:nonzero;"></path><path d="M1102.84,1445l-1.25,-63.333l-12.083,-0.417c-6.667,0 -12.917,-2.5 -14.167,-5c-1.25,-4.167 7.917,-5.417 36.667,-5.417c27.5,0 37.917,1.25 36.667,5c-0.834,2.5 -8.334,5 -16.25,5l-14.167,0.417l-1.25,63.75c-0.833,52.083 -2.083,63.333 -7.083,63.333c-5,0 -6.25,-11.25 -7.084,-63.333Z" style="fill:#fff;fill-rule:nonzero;"></path><path d="M1200.34,1440.83c0.834,-49.166 2.5,-67.5 6.667,-69.166c3.75,-1.25 5,6.25 5,27.916l0,29.584l54.167,-0l-0,-29.167c-0,-23.333 1.25,-29.167 6.25,-29.167c5.416,0 6.25,10.417 6.25,68.75c-0,58.334 -0.834,68.75 -6.25,68.75c-5,0 -6.25,-6.666 -6.25,-33.333l-0,-33.333l-54.167,-0l0,33.333c0,27.5 -1.25,33.333 -6.667,33.333c-5.416,0 -6.25,-8.75 -5,-67.5Z" style="fill:#fff;fill-rule:nonzero;"></path><path d="M1341.17,1508.33l-0,-137.5l31.666,0c22.5,0 31.25,1.25 30,5c-1.25,3.334 -10,4.584 -25.833,3.75l-23.75,-0.833l2.5,52.5l16.667,0.417c24.166,0.416 27.083,1.25 27.083,5.833c0,2.5 -10.417,4.167 -22.917,4.167l-22.916,-0l-0,58.333l25,0c13.75,0 25,1.667 25,4.167c-0,2.5 -13.334,4.166 -31.25,4.166l-31.25,0Z" style="fill:#fff;fill-rule:nonzero;"></path><path d="M1500.34,1440.83l1.25,-67.916l20.417,-1.25c39.167,-2.5 57.5,15.833 48.333,49.166c-4.583,17.084 -17.083,25 -39.583,25c-8.75,0 -14.583,2.084 -15,5.417c0,2.5 -0.417,16.25 -0.833,30c-0.834,20.417 -2.084,25 -8.334,26.25c-7.083,1.25 -7.5,-2.917 -6.25,-66.667Zm44.167,-7.916c15.833,-5.417 21.667,-24.167 12.083,-38.75c-6.666,-10 -35.833,-17.917 -40.416,-11.25c-1.667,2.916 -1.667,45.416 -0,53.75c0.416,2.5 16.666,0.416 28.333,-3.75Z" style="fill:#fff;fill-rule:nonzero;"></path><path d="M1628.67,1508.33l-0,-137.5l31.25,0c22.083,0 31.25,1.667 31.25,5.417c-0,3.333 -7.5,4.583 -25,4.167l-25.417,-0.834l2.5,51.667l20.417,0c12.916,0 21.25,2.083 22.083,5.417c1.25,3.75 -4.583,5 -21.25,5l-23.333,-0l-0,58.333l27.5,0c17.083,0 26.25,1.667 24.583,4.167c-1.25,2.5 -16.667,4.166 -33.75,4.166l-30.833,0Z" style="fill:#fff;fill-rule:nonzero;"></path><path d="M1746.59,1440.83l0.834,-67.916l26.25,-0c22.916,-0 27.916,1.666 34.583,10c10,12.5 10,34.166 0,46.666c-6.667,8.334 -7.083,10.417 -2.083,14.167c5.416,3.75 15.416,60 11.666,64.167c-0.833,0.833 -4.166,0.416 -7.916,-0.834c-4.584,-2.083 -6.25,-8.333 -6.25,-23.333c-0,-25 -8.75,-37.083 -29.167,-38.75l-14.583,-1.25l-1.25,32.5c-0.834,24.167 -2.5,32.083 -7.084,32.083c-4.583,0 -5.833,-12.083 -5,-67.5Zm49.584,-14.583c8.75,-7.917 10,-31.25 2.083,-37.917c-2.917,-2.5 -12.5,-5 -21.667,-5.833l-16.666,-1.25l-1.25,26.25l-1.25,25.833l15.416,0c8.75,0 19.167,-2.916 23.334,-7.083Z" style="fill:#fff;fill-rule:nonzero;"></path><path d="M1878.67,1440l-0,-69.167l31.666,0c22.917,0 31.25,1.25 30,5c-1.25,3.75 -9.583,5 -25.416,4.167c-13.334,-0.417 -24.167,0.833 -24.167,3.333c-0.417,2.5 -0.417,7.084 -0.417,10.417c0,3.333 0,13.75 0.417,23.333l0.417,16.667l21.25,-1.25c14.166,-0.833 22.083,0.417 23.333,3.75c1.25,3.333 -5.833,5.417 -22.083,6.25l-23.75,1.25l-0.417,30.833c-0.417,20.834 -2.083,31.667 -5.417,32.5c-4.166,1.667 -5.416,-13.75 -5.416,-67.083Z" style="fill:#fff;fill-rule:nonzero;"></path><path d="M1995.34,1508.33l0,-137.5l31.25,0c22.084,0 31.25,1.667 31.25,5.417c0,3.333 -7.5,4.583 -25,4.167l-25,-0.834l0,53.334l21.667,-0.834c14.167,-0.416 22.083,0.834 22.917,4.584c1.666,3.75 -4.584,5 -21.25,5l-23.334,-0l0,58.333l25,0c13.75,0 25,1.667 25,4.167c0,2.5 -13.333,4.166 -31.25,4.166l-31.25,0Z" style="fill:#fff;fill-rule:nonzero;"></path><path d="M2274.5,1443.33l0,-65.416l-14.583,2.5c-10.834,1.666 -14.584,0.833 -14.584,-3.75c0,-4.584 7.917,-5.834 37.917,-5.834c28.333,0 37.5,1.25 35.833,5.417c-0.833,2.917 -7.5,4.583 -14.583,4.167l-13.333,-0.834l-0,64.584c-0,61.25 -0.417,64.166 -8.334,64.166c-7.916,0 -8.333,-2.916 -8.333,-65Z" style="fill:#fff;fill-rule:nonzero;"></path><path d="M2418.67,1445c-6.667,-35 -12.917,-66.25 -14.167,-69.583c-1.25,-3.334 0.417,-5 5.417,-3.75c6.666,0.833 9.166,10 16.25,52.083c5,27.917 10,51.667 11.25,52.917c1.25,1.25 6.666,-21.25 12.083,-50c9.167,-47.084 15.417,-62.5 22.917,-55c1.25,0.833 6.666,25 12.5,53.75c5.833,28.333 11.25,53.333 12.083,55.833c0.417,2.083 5.417,-19.583 10.833,-47.917c10.834,-60.416 11.667,-62.5 18.75,-62.5c3.75,0 2.084,15.417 -6.666,59.584c-15.834,79.166 -15.417,77.916 -22.084,77.916c-7.5,0 -7.916,-1.25 -19.166,-61.25c-5.417,-27.916 -10.417,-50.416 -11.25,-49.583c-1.25,1.25 -22.084,105 -22.084,109.583c0,0.834 -3.333,1.25 -7.5,1.25c-6.25,0 -9.166,-10 -19.166,-63.333Z" style="fill:#fff;fill-rule:nonzero;"></path><path d="M2575.34,1502.92c24.584,-98.334 35,-132.084 41.667,-132.084c5,0 8.75,5.417 12.083,17.917c30.417,110.833 32.5,120 25.417,118.75c-4.167,-0.833 -8.333,-8.333 -11.25,-20l-4.583,-18.75l-42.5,-2.5l-5,21.25c-3.334,13.333 -7.084,20.833 -11.25,20.833c-3.334,0 -5.417,-2.5 -4.584,-5.416Zm57.084,-48.75c2.083,-2.5 -12.917,-67.084 -15.417,-65c-3.333,3.75 -17.083,62.5 -15,65.833c2.5,3.75 27.5,2.917 30.417,-0.833Z" style="fill:#fff;fill-rule:nonzero;"></path><path d="M2732.84,1445l0.834,-63.75l-15,0.833c-10.417,0.417 -15,-1.25 -15,-5.416c-0,-4.584 7.916,-5.834 37.916,-5.834c28.334,0 37.5,1.25 35.834,5.417c-0.834,2.917 -7.5,4.583 -14.584,4.167c-15.833,-0.834 -14.583,-6.25 -13.333,70.833c0.833,55.833 0.833,57.083 -7.917,57.083c-8.75,0 -9.166,-1.25 -8.75,-63.333Z" style="fill:#fff;fill-rule:nonzero;"></path><path d="M2970.34,1439.58c0,-58.333 0.834,-68.75 6.25,-68.75c5,0 6.25,5.834 6.25,29.167l0,29.167l54.167,-0l0,-29.167c0,-23.333 1.25,-29.167 6.25,-29.167c5.417,0 6.25,10.417 6.25,68.75c0,58.334 -0.833,68.75 -6.25,68.75c-5,0 -6.25,-6.666 -6.25,-33.333l0,-33.333l-54.167,-0l0,33.333c0,26.667 -1.25,33.333 -6.25,33.333c-5.416,0 -6.25,-10.416 -6.25,-68.75Z" style="fill:#fff;fill-rule:nonzero;"></path><path d="M3150.75,1440.83l0.833,-67.916l32.5,-1.25c24.167,-0.834 32.5,-0 31.25,3.75c-1.25,3.333 -10.416,5 -25,5c-14.583,-0.417 -24.166,1.25 -25.416,4.166c-0.834,2.917 -0.834,15 0.416,27.084l2.084,21.666l20.833,-0.833c13.333,-0.833 21.25,0.417 22.5,3.75c1.25,3.333 -5.833,5.417 -22.083,6.25l-23.75,1.25l-0.417,31.25c-0.417,25.833 -1.667,31.25 -7.5,32.5c-6.25,1.25 -7.083,-4.583 -6.25,-66.667Z" style="fill:#fff;fill-rule:nonzero;"></path><path d="M3407.84,1439.58l0,-68.75l20.834,0c24.583,0 44.166,8.75 47.916,21.25c4.167,12.917 -1.666,36.667 -10,42.084c-7.5,4.583 -7.5,5 0,11.25c10.417,8.75 17.084,65.416 7.5,62.083c-3.75,-1.25 -7.083,-11.25 -8.75,-26.25c-3.75,-28.333 -8.333,-34.167 -28.333,-36.25l-14.583,-1.25l-1.25,32.5c-0.834,24.583 -2.5,32.083 -7.084,32.083c-5.416,0 -6.25,-11.25 -6.25,-68.75Zm53.75,-19.166c7.917,-14.167 3.334,-32.084 -9.166,-35c-29.167,-6.667 -30,-6.25 -31.25,22.083l-1.25,26.25l17.916,-1.25c13.75,-0.833 18.75,-3.333 23.75,-12.083Z" style="fill:#fff;fill-rule:nonzero;"></path><path d="M3571.17,1503.33c1.25,-2.916 9.166,-34.166 18.333,-68.75c12.917,-50.833 17.5,-63.75 23.333,-63.75c3.75,0 7.917,3.334 9.167,7.5c10.417,33.75 31.667,117.084 31.667,122.917c-0,14.167 -10,4.583 -14.584,-14.167l-4.583,-18.333l-42.5,-2.5l-5,21.25c-3.333,13.333 -7.083,20.833 -11.25,20.833c-3.333,0 -5.417,-2.5 -4.583,-5Zm58.75,-47.916c0.833,-2.084 -2.5,-18.334 -7.5,-36.667l-8.75,-33.333l-9.167,32.916c-5,18.334 -7.917,34.584 -6.667,36.667c2.5,4.167 29.584,4.583 32.084,0.417Z" style="fill:#fff;fill-rule:nonzero;"></path><path d="M3707.84,1439.58c0,-64.166 0.417,-68.75 7.917,-68.75c5.833,0 13.333,12.917 32.083,57.5l24.584,57.084l1.25,-57.084c0.833,-47.5 2.083,-57.5 7.083,-57.5c5.417,0 6.25,10.834 6.25,68.75c0,63.75 -0.417,68.75 -7.5,68.75c-5.833,0 -13.75,-13.333 -32.5,-56.25l-24.583,-56.25l-1.25,56.25c-0.834,46.25 -2.084,56.25 -7.084,56.25c-5.416,0 -6.25,-10.833 -6.25,-68.75Z" style="fill:#fff;fill-rule:nonzero;"></path><path d="M3873.67,1474.17c-1.25,-30.417 -3.75,-38.75 -18.75,-68.75c-15.417,-30.834 -16.25,-34.584 -9.167,-34.584c5.417,0 10,5.417 14.167,15.834c3.75,8.333 10,22.916 14.166,32.083l7.917,16.667l15,-32.084c8.75,-19.166 17.5,-32.5 20.833,-32.5c7.084,0 3.334,11.667 -18.75,55c-10,19.584 -12.083,29.167 -12.083,53.334c0,22.083 -1.25,29.166 -5.833,29.166c-4.167,0 -6.25,-8.333 -7.5,-34.166Z" style="fill:#fff;fill-rule:nonzero;"></path><path d="M4428.67,1503.75c-0,-2.917 7.916,-34.167 17.083,-69.167c23.333,-85.416 25.833,-85.416 49.583,3.334c9.584,36.666 16.667,67.916 15.417,69.166c-5,4.584 -10.417,-3.333 -15,-21.666l-4.583,-18.75l-41.25,-0l-5.834,19.583c-5.416,18.333 -15.416,29.583 -15.416,17.5Zm58.333,-48.333c0,-7.5 -15,-63.75 -17.083,-63.75c-2.084,-0 -16.25,55.833 -16.25,63.75c-0,1.666 7.5,2.916 16.666,2.916c9.167,0 16.667,-1.25 16.667,-2.916Z" style="fill:#fff;fill-rule:nonzero;"></path><path d="M4695.34,1439.58c0,-58.333 0.834,-68.75 6.25,-68.75c5.417,0 6.25,10.417 6.25,68.75c0,58.334 -0.833,68.75 -6.25,68.75c-5.416,0 -6.25,-10.416 -6.25,-68.75Z" style="fill:#fff;fill-rule:nonzero;"></path><path d="M4912,1439.58c0,-55.416 1.25,-68.75 5.833,-68.75c8.334,0 11.25,5.417 33.75,58.334c11.25,26.25 22.084,49.583 23.75,52.083c1.667,2.083 3.334,-22.083 3.334,-53.333c-0,-47.917 0.833,-57.084 6.25,-57.084c5.416,0 6.25,10.417 6.25,69.167c-0,67.917 -0,68.75 -8.75,67.5c-7.084,-0.833 -13.75,-12.5 -32.5,-56.25l-23.334,-54.583l-1.25,55.833c-0.833,45.833 -2.083,55.833 -7.083,55.833c-5.417,0 -6.25,-10.833 -6.25,-68.75Z" style="fill:#fff;fill-rule:nonzero;"></path><path d="M4168.25,1275c-52.083,-8.333 -93.333,-28.75 -122.917,-61.25c-37.083,-40.417 -55.833,-96.25 -62.5,-184.583c-5,-67.084 -5,-315 0,-385.417c4.584,-65 11.25,-93.333 33.334,-138.333c35.416,-71.667 99.583,-105.417 202.083,-105.417c133.333,0 200.833,54.583 230,185.417c5,22.916 6.667,68.75 8.333,217.916c2.5,247.084 -1.666,293.75 -34.166,362.084c-25,53.333 -66.25,87.5 -125,102.916c-31.25,8.334 -96.25,11.667 -129.167,6.667Zm99.167,-106.667c23.75,-7.916 40.416,-26.25 53.333,-58.75l10,-24.166l0,-241.667c0,-261.667 -0.833,-272.083 -22.5,-304.167c-17.5,-26.25 -44.167,-37.5 -90,-37.5c-47.5,0 -72.083,10.417 -89.583,38.334c-22.5,35 -22.917,41.666 -22.917,299.166c0,215 0.833,239.584 7.5,260.417c17.5,54.583 44.583,74.167 103.333,74.583c18.75,0.417 39.167,-2.083 50.834,-6.25Z" style="fill:#fff;fill-rule:nonzero;"></path><path d="M1068.67,1267.08c-1.25,-2.083 -2.084,-195.416 -1.25,-430l0.833,-426.666l61.667,-1.25l61.25,-1.25l-0,862.916l-60,0c-33.334,0 -61.25,-1.666 -62.5,-3.75Z" style="fill:#fff;fill-rule:nonzero;"></path><path d="M1294.09,1267.92c-1.666,-1.25 -2.916,-195.417 -2.916,-431.25l-0,-428.334l86.25,0.834l86.25,1.25l32.5,175c17.5,96.25 35.833,194.583 40.416,218.75c4.167,24.166 17.084,92.083 27.917,150.833c10.833,59.167 20.417,107.083 20.833,106.25c0.417,-0.417 27.5,-144.167 60,-319.583c32.084,-175.417 59.584,-322.084 60.834,-325.834c2.083,-6.666 10,-7.5 87.5,-7.5l85,0l-0.834,430.417l-1.25,430l-61.25,1.25l-61.666,1.25l-0.834,-669.167l-60.833,334.584l-60.833,334.166l-45,0c-32.5,0 -45.834,-1.666 -47.084,-5c-1.25,-2.916 -24.583,-130 -52.083,-282.5c-27.5,-152.5 -53.75,-296.666 -57.917,-320.833c-4.583,-24.167 -9.166,-48.333 -10,-54.167c-0.833,-5.833 -2.083,140.834 -2.5,326.25l-0.416,336.25l-59.584,0c-32.916,0 -61.25,-1.25 -62.5,-2.916Z" style="fill:#fff;fill-rule:nonzero;"></path><path d="M1985.34,1267.08c-1.25,-2.083 -2.083,-195.416 -1.25,-430l0.834,-426.666l170,-1.25l169.583,-0.834l0,91.667l-216.667,0l0.834,137.5l1.25,137.5l75,1.25l75,0.833l1.25,47.084l1.25,46.666l-154.584,0l0.834,152.5l1.25,152.084l212.5,1.666l-0,91.667l-167.5,1.25c-95,0.417 -168.334,-0.833 -169.584,-2.917Z" style="fill:#fff;fill-rule:nonzero;"></path><path d="M2540.34,895l-1.25,-376.25l-75.833,-1.25l-76.25,-0.833l0,-108.334l429.167,0l-0,108.334l-75.834,0.833l-76.25,1.25l-1.25,376.25l-0.833,375.833l-120.833,0l-0.834,-375.833Z" style="fill:#fff;fill-rule:nonzero;"></path><path d="M2792.84,1263.75c0.834,-4.167 5.834,-26.25 10.834,-49.167c4.583,-22.916 13.333,-62.083 18.75,-87.5c26.25,-120.416 145.416,-677.5 148.75,-697.083l4.166,-21.667l61.667,0c55.417,0 62.083,0.834 64.167,7.5c4.583,15.834 181.666,845 181.666,851.25c0,2.084 -26.25,3.75 -60,3.75c-53.75,0 -60.416,-0.833 -62.5,-7.083c-2.5,-8.75 -44.166,-204.167 -44.166,-207.5c-0,-1.25 -34.584,-2.083 -76.667,-2.083c-69.583,-0 -77.083,0.833 -79.167,7.5c-2.916,9.166 -44.166,202.083 -44.166,206.25c-0,1.666 -28.334,2.916 -62.917,2.916c-57.5,0 -62.5,-0.416 -60.417,-7.083Zm305,-312.5c-1.25,-6.667 -14.583,-85.833 -29.583,-176.25c-15,-90.417 -27.917,-166.25 -28.75,-168.75c-0.833,-2.083 -2.5,0.417 -4.167,6.25c-3.75,15 -56.666,335.833 -56.666,343.75c-0,5.417 8.75,6.25 60.833,6.25l60.833,0l-2.5,-11.25Z" style="fill:#fff;fill-rule:nonzero;"></path><path d="M3411.17,895l-1.25,-376.25l-75.834,-1.25l-76.25,-0.833l0,-108.334l429.167,0l0,108.334l-75.833,0.833l-76.25,1.25l-1.25,376.25l-0.834,375.833l-120.833,0l-0.833,-375.833Z" style="fill:#fff;fill-rule:nonzero;"></path><path d="M3753.67,1270.83l-0,-862.5l125,0l-0,862.5l-125,0Z" style="fill:#fff;fill-rule:nonzero;"></path><path d="M4562,1271.25l0,-863.333l93.333,2.5l20,50c39.167,95.416 167.084,412.5 178.334,440.416c5.833,15.834 12.5,29.584 13.75,31.25c1.666,1.25 2.916,-115.833 2.916,-260.416l0,-263.334l120.834,0l-0,862.5l-86.667,0l-10.417,-27.916c-5.833,-15.834 -22.083,-58.334 -36.25,-95c-14.166,-36.667 -34.583,-90 -45.416,-118.75c-92.917,-242.5 -122.917,-319.167 -125,-321.667c-1.25,-1.667 -2.5,124.167 -2.5,279.167l-0,282.083l-61.25,1.25l-61.667,1.25Z" style="fill:#fff;fill-rule:nonzero;"></path></g><g><path d="M642.835,1600.42c-0.833,-0.834 -1.666,-321.25 -1.666,-711.667l-0,-709.583l837.5,-0l-0,-70.834l-1354.17,0l0,70.834l437.917,-0l-1.25,60.416l-1.25,60l-279.167,0.834l-279.167,0.416l-1.25,-140.833c-0.833,-77.5 0,-145.417 1.25,-150.417l2.084,-9.583l790,0.833l790,1.25l-0.417,149.167l0,149.167l-408.75,-0.417l-408.333,-0l-0,1179.17l75,-0l-0,-1075l120.833,-0l0,1197.92l-158.75,0c-87.083,0 -159.583,-0.833 -160.417,-1.666Z" style="fill:#fff;fill-opacity:0.63;fill-rule:nonzero;"></path></g></svg>