<svg xmlns="http://www.w3.org/2000/svg" xmlns:xlink="http://www.w3.org/1999/xlink" x="0px" y="0px" width="1198px" height="414.938px" viewBox="0 0 1198 414.938" xml:space="preserve"><g id="BACKGROUND" display="none">	<rect x="-1435.9" y="-1767.072" display="inline" width="4056.511" height="2505.596"></rect></g><g id="_x35_">	<g>		<g>			<g>				<path fill="#FFFFFF" d="M32.746,0H253.08v56.604h-94.027v261.5H94.028v-261.5H0V34.149C0,15.905,14.502,0,32.746,0z"></path>			</g>			<g>				<path fill="#FFFFFF" d="M730.224,31.342v179.635c0,74.38-38.827,111.336-116.015,110.868     c-76.72-1.403-115.078-43.037-115.078-125.37c0-84.204,32.745-127.241,98.705-129.58c30.875,0,54.733,12.63,70.638,38.36V0     h30.874C716.189,0,730.224,14.502,730.224,31.342z M563.219,193.668c-0.468,50.055,16.372,75.317,51.925,75.317     s53.329-25.262,53.329-75.317c-1.403-47.716-18.712-71.105-52.393-71.105C582.398,122.564,565.09,145.953,563.219,193.668z"></path>			</g>			<g>				<path fill="#FFFFFF" d="M807.994,135.194h-62.218c7.485-45.844,39.763-68.299,96.834-68.299     c68.299,0,102.917,22.455,104.32,68.299v84.204c0,68.299-41.166,98.706-108.062,103.384     c-59.411,4.677-100.576-22.923-100.576-77.655c1.403-59.411,44.44-75.317,107.125-81.398     c26.665-3.274,40.231-11.226,40.231-24.793c-1.404-14.034-14.502-21.051-40.231-21.051     C823.431,117.885,811.268,123.499,807.994,135.194z M886.584,216.591v-22.923c-14.502,6.081-31.342,11.227-49.586,14.97     c-24.794,4.678-37.425,16.374-37.425,34.618c1.404,19.648,11.695,29.004,31.343,29.004     C865.533,272.259,886.584,251.676,886.584,216.591z"></path>			</g>			<g>				<path fill="#FFFFFF" d="M1009.944,362.077c34.149,0,46.312-16.841,36.488-49.587L962.229,70.637h70.637l49.12,171.683     l43.037-149.696c3.743-14.502,13.567-21.987,29.472-21.987H1198l-97.771,289.568c-14.97,40.699-29.939,54.732-81.397,54.732     c-15.906,0-24.326-0.468-26.197-1.871v-50.99H1009.944z"></path>			</g>		</g>		<g>			<g>				<path fill="#FFFFFF" d="M374.143,348.378h-1.61v36.059c0,2.707,1.495,4.184,4.486,4.184h4.715v12.429     c-4.946,0.492-10.352,0.492-16.103-0.123c-5.751-0.615-8.511-4.43-8.396-11.691v-71.133h7.936c4.026,0,7.361,3.938,7.361,8.246     v10.338h9.201v3.568C381.734,344.932,378.399,348.378,374.143,348.378z"></path>			</g>			<g>				<path fill="#FFFFFF" d="M443.382,369.545c0,22.399-9.317,33.72-27.72,33.72c-18.403,0-27.604-11.321-27.604-33.72     c0-22.644,9.201-33.843,27.604-33.843C434.065,335.702,443.382,346.901,443.382,369.545z M403.586,369.545     c0.114,12.676,4.141,19.076,11.962,19.076c7.821,0,11.732-6.645,11.847-19.568c0-12.676-3.912-18.951-11.733-18.951     C407.612,350.101,403.586,356.623,403.586,369.545z"></path>			</g>			<g>				<path fill="#FFFFFF" d="M502.267,375.822c0,11.199-2.645,18.583-8.051,22.151c-5.406,3.323-11.387,5.047-17.943,5.047     c-6.327,0-11.962-1.847-17.253-5.538c-5.291-3.569-7.937-10.707-7.937-21.66v-39.135h15.298v42.458     c0,7.261,3.451,10.829,10.352,10.829s10.352-3.568,10.352-10.829v-34.336c-0.116-5.415,2.3-8.123,7.361-8.123h7.821V375.822z"></path>			</g>			<g>				<path fill="#FFFFFF" d="M509.279,368.192c0.46-21.044,10.927-31.505,31.285-31.505h2.186v16.983h-5.175     c-8.512,0-12.768,4.799-12.768,14.276v33.843h-15.528V368.192z"></path>			</g>			<g>				<path fill="#FFFFFF" d="M560.459,318.104c5.061,0,7.476,2.708,7.361,7.999v4.799h-15.297v-12.799H560.459z M560.459,336.687     c4.946,0,7.361,2.584,7.361,7.876v57.226h-15.297v-65.102H560.459z"></path>			</g>			<g>				<path fill="#FFFFFF" d="M603.359,389.974c6.441,0,9.661-1.969,9.661-6.153c0-3.323-5.291-6.031-15.758-7.999     c-13.457-2.584-20.358-8.984-20.472-19.199c0-14.029,10.351-20.675,24.268-20.921c7.821,0,14.032,1.846,18.633,5.538     c4.486,3.816,6.901,9.107,7.247,15.876h-9.661c-3.566-0.123-5.866-1.476-6.787-4.061c-1.035-2.831-4.141-4.431-9.201-4.431     c-5.981,0-8.971,1.724-8.971,5.046c0,3.323,3.911,5.907,11.846,7.507c10.353,2.216,17.138,5.047,20.474,8.369     c2.875,3.2,4.255,7.139,4.255,11.569c0,15.999-11.732,21.906-27.834,21.906c-8.511,0-14.952-1.97-19.093-5.784     c-4.601-3.692-6.901-9.354-6.901-16.861h15.642C591.053,387.513,595.883,389.974,603.359,389.974z"></path>			</g>			<g>				<path fill="#FFFFFF" d="M651.433,360.192v41.596h-15.528v-38.273c0-18.583,8.741-27.814,26.11-27.814     c7.821,0,13.802,1.846,18.173,5.538c4.371-3.569,10.352-5.292,18.173-5.292c17.368,0,25.994,9.231,25.878,27.813v38.274h-7.936     c-5.061-0.369-7.591-2.954-7.591-8.123v-33.474c-0.344-6.769-3.796-10.091-10.582-10.091c-6.786,0-10.237,3.322-10.352,10.091     v41.35h-15.412v-41.596c-0.345-6.769-3.796-10.091-10.582-10.091S651.547,353.423,651.433,360.192z"></path>			</g>			<g>				<path fill="#FFFFFF" d="M746.432,388.867v12.922h-12.997v-8.123c0-3.2,1.609-4.799,4.945-4.799H746.432z"></path>			</g>			<g>				<path fill="#FFFFFF" d="M782.661,403.265c-18.403,0-27.833-11.321-28.293-33.72c0-22.275,9.316-33.474,28.064-33.843     c14.722,0,23.464,7.014,26.109,21.168h-16.678c-1.84-4.43-5.061-6.768-9.89-6.768c-8.052,0-12.077,6.522-12.077,19.444     c0,12.922,4.256,19.445,12.766,19.322c3.566,0,6.672-1.599,9.201-4.676c1.496-1.601,3.221-2.338,5.176-2.338h11.502     C805.78,395.144,796.809,403.635,782.661,403.265z"></path>			</g>			<g>				<path fill="#FFFFFF" d="M871.797,369.545c0,22.399-9.317,33.72-27.72,33.72s-27.604-11.321-27.604-33.72     c0-22.644,9.201-33.843,27.604-33.843S871.797,346.901,871.797,369.545z M832.001,369.545     c0.114,12.676,4.141,19.076,11.962,19.076c7.821,0,11.732-6.645,11.847-19.568c0-12.676-3.912-18.951-11.733-18.951     C836.027,350.101,832.001,356.623,832.001,369.545z"></path>			</g>			<g>				<path fill="#FFFFFF" d="M895.026,360.192v41.596h-15.528v-38.273c0-18.583,8.741-27.814,26.11-27.814     c7.821,0,13.802,1.846,18.173,5.538c4.371-3.569,10.352-5.292,18.173-5.292c17.368,0,25.994,9.231,25.878,27.813v38.274h-7.936     c-5.061-0.369-7.591-2.954-7.591-8.123v-33.474c-0.345-6.769-3.796-10.091-10.582-10.091s-10.237,3.322-10.352,10.091v41.35     h-15.412v-41.596c-0.344-6.769-3.796-10.091-10.582-10.091C898.592,350.101,895.141,353.423,895.026,360.192z"></path>			</g>		</g>		<g>			<g>				<circle fill="#FFFFFF" cx="347.633" cy="195.097" r="8.545"></circle>			</g>			<g>				<path fill="#FFFFFF" d="M439.835,177.28c-0.136,0.033-0.272,0.049-0.406,0.049c-0.772,0-1.473-0.525-1.663-1.309     c-0.223-0.92,0.341-1.847,1.261-2.069l8.006-1.941c-5.732-25.519-21.118-47.386-42.126-61.559l-4.647,7.622     c-0.323,0.53-0.887,0.822-1.465,0.822c-0.304,0-0.612-0.08-0.89-0.25c-0.808-0.493-1.063-1.547-0.571-2.355l4.696-7.702     c-15.522-9.723-33.872-15.35-53.539-15.35c-6.934,0-13.704,0.7-20.245,2.031l2.163,8.923c0.223,0.92-0.341,1.847-1.261,2.069     c-0.136,0.033-0.272,0.049-0.406,0.049c-0.772,0-1.473-0.525-1.663-1.309l-2.178-8.985c-25.5,6.102-47.24,21.872-61.13,43.222     l7.43,4.531c0.808,0.493,1.063,1.547,0.571,2.355c-0.323,0.53-0.887,0.822-1.465,0.822c-0.304,0-0.612-0.08-0.89-0.25     l-7.469-4.554c-9.178,15.213-14.462,33.04-14.462,52.102c0,7.279,0.777,14.375,2.24,21.217l7.593-1.841     c0.922-0.227,1.846,0.341,2.069,1.261c0.223,0.92-0.341,1.847-1.261,2.069l-7.628,1.849     c6.242,24.988,21.789,46.288,42.75,60.008l3.646-5.979c0.492-0.808,1.545-1.066,2.355-0.571     c0.808,0.493,1.063,1.547,0.571,2.355l-3.677,6.03c15.266,9.269,33.183,14.606,52.346,14.606c6.795,0,13.432-0.676,19.851-1.955     l-1.596-6.583c-0.223-0.92,0.341-1.846,1.262-2.068c0.915-0.229,1.845,0.341,2.068,1.262l1.615,6.663     c25.008-5.878,46.433-21.049,60.43-41.671l-6.167-3.76c-0.808-0.493-1.063-1.547-0.571-2.355     c0.492-0.808,1.545-1.066,2.355-0.571l6.257,3.815c9.816-15.573,15.5-34.011,15.5-53.78c0-6.451-0.612-12.758-1.768-18.873     L439.835,177.28z M306.43,166.828l18.909,6.797c2.664-2.989,5.895-5.459,9.528-7.239v-37.949l16.442,34.939     c1.325,0.122,2.628,0.317,3.9,0.599l-2.588,3.365c-1.348-0.205-2.728-0.312-4.132-0.312c-15.029,0-27.212,12.183-27.212,27.212     c0,3.277,0.58,6.419,1.642,9.329c-0.846,0.994-1.799,2.116-2.763,3.257l-1.257,0.909h-36.531l35.214-15.814     c0.295-3.977,1.331-7.747,2.985-11.166L306.43,166.828z M287.508,268.439l48.84-81.704l70.27-66.063l-48.782,82.114     L287.508,268.439z M390.212,221.407l-18.303-6.864c-2.287,2.635-5.009,4.879-8.057,6.622v39.507l-16.545-35.468     c-2.351-0.09-4.639-0.427-6.828-1.011l2.596-3.282c1.75,0.353,3.56,0.54,5.415,0.54c15.029,0,27.212-12.183,27.212-27.212     c0-4.094-0.91-7.974-2.53-11.457l1.728-2.283l0.91-0.925l36.825,1.8l-33.198,14.684c-0.231,3.986-1.217,7.768-2.813,11.209     L390.212,221.407z"></path>			</g>			<g>				<path fill="#FFFFFF" d="M348.489,63.486c-72.214,0-130.755,58.541-130.755,130.754c0,72.214,58.541,130.755,130.755,130.755     c72.214,0,130.754-58.541,130.754-130.755C479.244,122.027,420.703,63.486,348.489,63.486z M348.489,309.245     c-63.515,0-115.004-51.489-115.004-115.004c0-63.515,51.489-115.004,115.004-115.004c63.515,0,115.004,51.489,115.004,115.004     C463.494,257.756,412.005,309.245,348.489,309.245z"></path>			</g>		</g>		<g>			<path fill="#FFFFFF" d="M318.789,62.276c-9.507,0-17.242-7.735-17.242-17.242s7.735-17.241,17.242-17.241    s17.241,7.734,17.241,17.241S328.296,62.276,318.789,62.276z M318.789,33.323c-6.458,0-11.712,5.254-11.712,11.711    c0,6.458,5.254,11.712,11.712,11.712c6.457,0,11.711-5.254,11.711-11.712C330.501,38.577,325.246,33.323,318.789,33.323z"></path>		</g>		<g>							<rect x="314.912" y="57.176" transform="matrix(0.9671 -0.2545 0.2545 0.9671 -5.4706 84.2168)" fill="#FFFFFF" width="15.53" height="12.141"></rect>		</g>	</g></g><g id="_x34_"></g><g id="_x33_"></g><g id="_x32_"></g><g id="_x31_"></g></svg>