<svg xmlns="http://www.w3.org/2000/svg" xmlns:xlink="http://www.w3.org/1999/xlink" x="0px" y="0px" width="1198px" height="562.016px" viewBox="0 0 1198 562.016" xml:space="preserve"><g id="BACKGROUND" display="none">	<rect x="-202.505" y="-1692.813" display="inline" width="4056.511" height="2505.596"></rect></g><g id="_x35_"></g><g id="_x34_">	<g>		<g>			<path fill="#FFFFFF" d="M804.274,121.973c2.58,2.468,3.873,5.873,3.873,10.214c0,4.244-1.293,7.549-3.873,9.916    c-2.4,2.468-5.626,3.701-9.683,3.701h-50.49V315.87c0,3.848-1.338,7.303-4.012,10.361c-2.859,2.763-6.317,4.144-10.375,4.144    c-4.06,0-7.518-1.381-10.375-4.144c-2.767-2.961-4.15-6.413-4.15-10.361V145.803h-50.075c-3.873,0-7.102-1.232-9.683-3.701    c-2.583-2.664-3.873-6.068-3.873-10.212s1.291-7.449,3.873-9.917c2.581-2.564,5.81-3.848,9.683-3.848h129.477    C798.464,118.125,801.692,119.408,804.274,121.973z"></path>			<path fill="#FFFFFF" d="M1005.211,311.43c1.268,2.171,1.905,4.343,1.905,6.513c0,4.244-1.37,7.4-4.103,9.473    c-2.835,1.974-6.106,2.96-9.818,2.96c-3.908,0-7.085-0.789-9.525-2.369c-5.861-3.353-10.748-8.929-14.654-16.725    c-3.81-7.696-5.715-18.993-5.715-33.894c0-10.065-3.029-17.563-9.085-22.499c-5.96-4.834-13.774-7.253-23.446-7.253h-60.519    v68.234c0,4.343-1.223,7.796-3.663,10.361c-2.345,2.763-5.422,4.144-9.232,4.144c-4.396,0-8.353-1.381-11.869-4.144    c-3.322-2.961-4.982-6.413-4.982-10.361V132.778c0-3.946,1.367-7.401,4.103-10.361c3.026-2.861,6.448-4.293,10.258-4.293h84.404    c10.939,0,20.857,2.664,29.747,7.992c8.888,5.527,16.068,12.929,21.541,22.203c5.371,9.276,8.059,19.834,8.059,31.674    c0,11.152-2.982,21.71-8.939,31.675c-6.154,9.868-13.872,17.22-23.153,22.054c7.522,3.848,13.383,9.228,17.584,16.133    c4.199,6.809,6.543,14.753,7.034,23.83c0.682,10.56,1.561,18.405,2.638,23.534c1.172,4.144,3.419,7.104,6.741,8.881    C1002.475,307.485,1004.038,309.26,1005.211,311.43z M952.897,216.405c4.298-3.552,7.961-8.485,10.99-14.801    c2.733-6.314,4.103-13.221,4.103-20.722c0-9.669-2.931-17.858-8.792-24.57c-5.861-6.808-12.993-10.212-21.394-10.212h-67.553    v76.374h68.432C943.761,221.981,948.501,219.957,952.897,216.405z"></path>			<path fill="#FFFFFF" d="M1193.263,121.973c2.529,2.665,3.795,6.169,3.795,10.51V248.82c0,15.986-3.503,30.342-10.508,43.072    c-6.811,12.631-16.396,22.597-28.75,29.899c-12.259,7.104-26.075,10.657-41.447,10.657c-15.47,0-29.432-3.553-41.885-10.657    c-12.456-7.302-22.088-17.267-28.896-29.899c-7.005-12.73-10.508-27.086-10.508-43.072V132.482c0-4.046,1.362-7.549,4.086-10.51    c2.821-2.761,6.422-4.144,10.8-4.144c3.697,0,7.053,1.431,10.07,4.293c2.919,2.863,4.378,6.315,4.378,10.361V248.82    c0,10.657,2.383,20.081,7.151,28.271c4.864,8.584,11.237,15.148,19.118,19.685c8.075,4.639,16.637,6.957,25.686,6.957    c9.436,0,18.291-2.317,26.561-6.957c8.173-4.637,14.74-11.149,19.702-19.538c4.864-8.485,7.297-17.958,7.297-28.418V132.482    c0-4.243,1.168-7.745,3.503-10.51c2.43-2.761,5.74-4.144,9.924-4.144C1187.619,117.829,1190.927,119.212,1193.263,121.973z"></path>		</g>		<g>			<path fill="#FFFFFF" d="M733.401,390.916c0.758,0.662,1.138,1.56,1.138,2.696c0,0.354-0.069,0.768-0.207,1.242l-14.62,43.952    c-0.161,0.663-0.551,1.183-1.172,1.56c-0.598,0.38-1.219,0.581-1.862,0.604c-0.644,0-1.276-0.189-1.897-0.567    c-0.62-0.426-1.08-0.982-1.379-1.668L702.404,412.2l-10.965,26.534c-0.276,0.71-0.724,1.266-1.344,1.668    c-0.575,0.378-1.23,0.567-1.965,0.567c-0.599-0.023-1.207-0.237-1.828-0.639c-0.598-0.425-0.977-0.934-1.138-1.525l-14.62-43.952    c-0.138-0.425-0.207-0.839-0.207-1.242c0-1.064,0.391-1.951,1.172-2.66c0.782-0.71,1.621-1.064,2.517-1.064    c0.759,0,1.448,0.213,2.069,0.638c0.597,0.402,0.988,0.947,1.172,1.633l11.93,36.397l10.241-25.861    c0.298-0.733,0.724-1.266,1.276-1.597c0.528-0.401,1.16-0.602,1.897-0.602c0.735,0,1.367,0.201,1.897,0.602    c0.551,0.332,0.976,0.864,1.275,1.597l9.965,25.861l11.861-36.397c0.16-0.686,0.552-1.254,1.172-1.703    c0.667-0.377,1.38-0.567,2.138-0.567C731.792,389.887,732.619,390.23,733.401,390.916z"></path>			<path fill="#FFFFFF" d="M797.043,435.293c0.621,0.71,0.932,1.514,0.932,2.412c0,0.993-0.311,1.774-0.932,2.341    c-0.621,0.615-1.437,0.923-2.448,0.923h-24.584c-0.896,0-1.701-0.33-2.413-0.993c-0.644-0.733-0.966-1.561-0.966-2.483v-43.881    c0-0.945,0.322-1.774,0.966-2.483c0.712-0.686,1.517-1.029,2.413-1.029h24.584c0.988,0,1.804,0.319,2.448,0.958    c0.621,0.638,0.932,1.467,0.932,2.483c0,0.947-0.311,1.738-0.932,2.377c-0.689,0.591-1.506,0.887-2.448,0.887h-20.963v14.828    h17.791c0.989,0,1.804,0.319,2.449,0.958c0.62,0.615,0.931,1.407,0.931,2.377c0,1.017-0.311,1.81-0.931,2.377    c-0.645,0.591-1.46,0.887-2.449,0.887h-17.791V434.3h20.963C795.538,434.3,796.354,434.631,797.043,435.293z"></path>			<path fill="#FFFFFF" d="M861.306,435.152c0.621,0.639,0.931,1.467,0.931,2.483c0,0.971-0.31,1.774-0.931,2.412    c-0.667,0.615-1.483,0.923-2.448,0.923h-23.894c-0.966,0-1.771-0.33-2.413-0.993c-0.644-0.686-0.966-1.512-0.966-2.483v-43.881    c0-0.945,0.322-1.774,0.966-2.483c0.712-0.686,1.563-1.029,2.552-1.029c0.918,0,1.734,0.343,2.448,1.029    c0.689,0.686,1.035,1.514,1.035,2.483v40.618h20.274C859.823,434.229,860.64,434.537,861.306,435.152z"></path>			<path fill="#FFFFFF" d="M924.845,435.152c0.621,0.639,0.931,1.467,0.931,2.483c0,0.971-0.31,1.774-0.931,2.412    c-0.667,0.615-1.483,0.923-2.448,0.923h-23.894c-0.966,0-1.771-0.33-2.413-0.993c-0.644-0.686-0.966-1.512-0.966-2.483v-43.881    c0-0.945,0.322-1.774,0.966-2.483c0.712-0.686,1.563-1.029,2.552-1.029c0.918,0,1.734,0.343,2.448,1.029    c0.689,0.686,1.035,1.514,1.035,2.483v40.618h20.274C923.363,434.229,924.179,434.537,924.845,435.152z"></path>			<path fill="#FFFFFF" d="M997.763,391.022c0.574,0.591,0.862,1.36,0.862,2.306v44.094c0,0.993-0.311,1.845-0.932,2.554    c-0.689,0.663-1.506,0.993-2.448,0.993c-0.552,0-1.069-0.082-1.551-0.248c-0.506-0.19-0.886-0.449-1.139-0.781l-27.755-37.176    v35.012c0,0.971-0.299,1.727-0.896,2.27c-0.529,0.615-1.266,0.923-2.208,0.923c-0.896,0-1.633-0.308-2.206-0.923    c-0.552-0.567-0.828-1.324-0.828-2.27v-44.165c0-1.016,0.322-1.857,0.966-2.519c0.621-0.662,1.402-0.993,2.345-0.993    c0.574,0,1.125,0.119,1.654,0.354c0.529,0.237,0.919,0.533,1.173,0.887l27.687,37.284v-35.297c0-0.899,0.287-1.668,0.862-2.306    c0.644-0.615,1.39-0.923,2.242-0.923C996.488,390.099,997.211,390.407,997.763,391.022z"></path>			<path fill="#FFFFFF" d="M1065.473,435.293c0.621,0.71,0.932,1.514,0.932,2.412c0,0.993-0.311,1.774-0.932,2.341    c-0.621,0.615-1.437,0.923-2.448,0.923h-24.584c-0.896,0-1.701-0.33-2.413-0.993c-0.644-0.733-0.966-1.561-0.966-2.483v-43.881    c0-0.945,0.322-1.774,0.966-2.483c0.712-0.686,1.517-1.029,2.413-1.029h24.584c0.988,0,1.804,0.319,2.448,0.958    c0.621,0.638,0.932,1.467,0.932,2.483c0,0.947-0.311,1.738-0.932,2.377c-0.689,0.591-1.506,0.887-2.448,0.887h-20.963v14.828    h17.791c0.989,0,1.804,0.319,2.449,0.958c0.62,0.615,0.931,1.407,0.931,2.377c0,1.017-0.311,1.81-0.931,2.377    c-0.645,0.591-1.46,0.887-2.449,0.887h-17.791V434.3h20.963C1063.968,434.3,1064.784,434.631,1065.473,435.293z"></path>			<path fill="#FFFFFF" d="M1105.877,440.189c-2.62-0.945-5.136-2.554-7.551-4.824c-0.988-0.875-1.483-1.868-1.483-2.979    c0-0.852,0.322-1.633,0.966-2.341c0.689-0.71,1.47-1.064,2.345-1.064c0.781,0,1.459,0.272,2.034,0.816    c1.908,1.821,3.85,3.134,5.827,3.937c2.001,0.852,4.276,1.277,6.827,1.277c2.988,0,5.493-0.71,7.517-2.129    c2.045-1.395,3.068-3.158,3.068-5.285c-0.023-2.483-1.046-4.435-3.068-5.853c-2.069-1.396-5.115-2.543-9.138-3.441    c-4.85-1.016-8.584-2.684-11.206-5.002c-2.597-2.341-3.896-5.57-3.896-9.685c0-2.86,0.725-5.367,2.172-7.52    c1.448-2.129,3.471-3.783,6.069-4.966c2.597-1.158,5.516-1.739,8.757-1.739c2.897,0,5.656,0.486,8.276,1.455    c2.597,0.969,4.688,2.246,6.275,3.831c1.08,0.969,1.62,2.01,1.62,3.121c0,0.876-0.31,1.657-0.931,2.341    c-0.667,0.687-1.437,1.029-2.31,1.029c-0.644,0-1.184-0.2-1.62-0.602c-1.219-1.253-2.92-2.317-5.103-3.193    c-2.115-0.875-4.184-1.312-6.207-1.312c-3.126,0-5.631,0.662-7.517,1.987c-1.861,1.348-2.793,3.11-2.793,5.285    c0,2.389,0.932,4.198,2.793,5.428c1.839,1.253,4.608,2.33,8.31,3.227c3.586,0.805,6.586,1.774,9,2.909    c2.345,1.112,4.137,2.66,5.379,4.647c1.286,1.963,1.931,4.552,1.931,7.768c0,2.815-0.759,5.31-2.276,7.486    c-1.586,2.2-3.678,3.89-6.275,5.072c-2.667,1.206-5.563,1.81-8.688,1.81C1111.578,441.679,1108.544,441.182,1105.877,440.189z"></path>			<path fill="#FFFFFF" d="M1171.657,440.189c-2.62-0.945-5.136-2.554-7.551-4.824c-0.988-0.875-1.483-1.868-1.483-2.979    c0-0.852,0.322-1.633,0.966-2.341c0.689-0.71,1.47-1.064,2.345-1.064c0.781,0,1.459,0.272,2.034,0.816    c1.908,1.821,3.85,3.134,5.827,3.937c2.001,0.852,4.276,1.277,6.827,1.277c2.988,0,5.493-0.71,7.517-2.129    c2.045-1.395,3.068-3.158,3.068-5.285c-0.023-2.483-1.046-4.435-3.068-5.853c-2.069-1.396-5.115-2.543-9.138-3.441    c-4.849-1.016-8.584-2.684-11.206-5.002c-2.597-2.341-3.896-5.57-3.896-9.685c0-2.86,0.725-5.367,2.172-7.52    c1.448-2.129,3.471-3.783,6.069-4.966c2.597-1.158,5.516-1.739,8.757-1.739c2.897,0,5.656,0.486,8.276,1.455    c2.597,0.969,4.688,2.246,6.275,3.831c1.08,0.969,1.62,2.01,1.62,3.121c0,0.876-0.31,1.657-0.931,2.341    c-0.667,0.687-1.437,1.029-2.31,1.029c-0.644,0-1.184-0.2-1.62-0.602c-1.219-1.253-2.92-2.317-5.103-3.193    c-2.115-0.875-4.184-1.312-6.207-1.312c-3.125,0-5.631,0.662-7.517,1.987c-1.861,1.348-2.793,3.11-2.793,5.285    c0,2.389,0.932,4.198,2.793,5.428c1.839,1.253,4.608,2.33,8.31,3.227c3.586,0.805,6.586,1.774,8.999,2.909    c2.345,1.112,4.137,2.66,5.379,4.647c1.286,1.963,1.931,4.552,1.931,7.768c0,2.815-0.759,5.31-2.276,7.486    c-1.586,2.2-3.678,3.89-6.275,5.072c-2.667,1.206-5.563,1.81-8.688,1.81C1177.358,441.679,1174.324,441.182,1171.657,440.189z"></path>		</g>		<path fill="#FFFFFF" d="M281.008,0C125.812,0,0,125.812,0,281.008s125.812,281.008,281.008,281.008   s281.008-125.812,281.008-281.008S436.205,0,281.008,0z M132.939,104.109c3.388-2.496,7.783-3.179,11.769-1.83   c48.444,16.401,91.912,39.021,129.757,67.397c1.621,1.215,3.25,2.422,4.85,3.658c7.011,5.418,13.808,11.053,20.414,16.874   c1.496,1.319,2.984,2.645,4.46,3.985c0.613,0.556,1.243,1.095,1.853,1.655c19.738,18.138,37.571,38.138,53.379,59.801   c-4.622,8.099-9.51,16.003-14.69,23.688c-17.561-25.625-37.876-48.68-60.898-69.105c-1.476-1.309-2.967-2.603-4.465-3.89   c-6.586-5.662-13.384-11.116-20.397-16.36c-1.596-1.193-3.187-2.392-4.805-3.564c-29.35-21.25-62.321-38.919-98.818-52.926   c3.255,23.798,11.984,66.836,35.165,113.799c1.082,2.192,2.196,4.354,3.313,6.514c-3.097,4.412-6.121,8.88-9.037,13.431   c-2.361,3.683-4.654,7.416-6.895,11.189c-3.849-6.797-7.53-13.719-10.996-20.793c-37.051-75.629-39.123-140.114-39.193-142.823   C127.597,110.601,129.551,106.606,132.939,104.109z M273.89,397.848c-67.46,49.88-128.621,64.617-131.192,65.22   c-0.975,0.229-1.961,0.341-2.94,0.341c-3.159,0-6.248-1.164-8.642-3.329c-3.135-2.839-4.677-7.034-4.126-11.228   c7.737-58.829,24.845-112.122,50.93-158.767c1.095-1.958,2.209-3.901,3.335-5.835c2.73-4.688,5.548-9.309,8.463-13.857   c2.333-3.64,4.746-7.219,7.197-10.769c1.241-1.798,2.486-3.592,3.757-5.367c15.72-21.951,33.706-42.113,53.813-60.306   c7.01,5.208,13.807,10.625,20.386,16.254c-23.139,20.35-43.153,43.198-60.028,68.461c-1.187,1.778-2.376,3.555-3.532,5.356   c-5.114,7.969-9.911,16.18-14.413,24.615c-1.034,1.938-2.055,3.886-3.057,5.848c-18.029,35.318-30.82,74.591-38.273,117.691   c21.352-7.506,58.426-23.1,97.941-51.362c6.635,5.843,13.49,11.475,20.563,16.894C274.011,397.756,273.951,397.803,273.89,397.848   z M431.949,462.298c-2.308,1.837-5.143,2.802-8.021,2.802c-1.247,0-2.502-0.181-3.726-0.551   c-51.466-15.562-97.173-38.006-136.404-66.856c-1.638-1.205-3.272-2.414-4.888-3.642c-7.071-5.371-13.913-10.967-20.542-16.764   c-1.363-1.192-2.748-2.363-4.092-3.573c-0.139-0.125-0.273-0.255-0.412-0.38c-19.815-17.888-37.576-37.722-53.163-59.312   c4.411-8.432,9.136-16.625,14.161-24.588c16.918,25.271,36.746,47.908,59.42,67.869c1.482,1.305,2.963,2.61,4.469,3.892   c6.626,5.638,13.481,11.061,20.576,16.255c1.616,1.183,3.263,2.338,4.904,3.498c30.555,21.605,65.296,39.211,104.151,52.699   c-4.141-23.403-14.263-65.353-38.109-111.546c-1.42-2.75-2.866-5.476-4.338-8.177c4.345-5.912,8.554-11.93,12.586-18.079   c1.211-1.846,2.403-3.707,3.584-5.574c4.04,6.887,7.917,13.897,11.587,21.054c38.281,74.656,42.906,137.397,43.085,140.031   C437.062,455.574,435.257,459.664,431.949,462.298z M439.796,118.263c-9.799,59.368-29.169,113.362-57.632,160.756   c-1.128,1.879-2.273,3.745-3.43,5.603c-1.675,2.691-3.374,5.365-5.109,8.012c-3.487,5.319-7.101,10.543-10.827,15.682   c-1.257,1.734-2.532,3.454-3.816,5.167c-16.276,21.723-34.701,41.774-55.11,59.981c-7.098-5.158-13.958-10.543-20.583-16.149   c23.375-20.279,43.841-42.824,61.364-67.566c1.216-1.717,2.424-3.44,3.612-5.178c5.25-7.683,10.218-15.577,14.912-23.671   c1.079-1.86,2.156-3.72,3.205-5.602c20.349-36.494,35.166-77.039,44.339-121.475c-22.879,7.047-63.733,22.563-106.162,52.849   c-6.606-5.858-13.394-11.536-20.4-16.992c1.967-1.455,3.939-2.907,5.938-4.33c68.621-48.824,131.916-61.325,134.577-61.833   c4.138-0.788,8.394,0.49,11.406,3.43C439.095,109.885,440.482,114.111,439.796,118.263z"></path>	</g></g><g id="_x33_"></g><g id="_x32_"></g><g id="_x31_"></g></svg>