<svg xmlns="http://www.w3.org/2000/svg" xmlns:xlink="http://www.w3.org/1999/xlink" xmlns:serif="http://www.serif.com/" width="100%" height="100%" viewBox="0 0 546 132" xml:space="preserve" style="fill-rule:evenodd;clip-rule:evenodd;stroke-linejoin:round;stroke-miterlimit:2;"><g><path d="M469.583,0c-28.333,0 -51.666,22.917 -51.666,51.667c-0,28.333 22.916,51.666 51.666,51.666c28.334,0 51.667,-22.916 51.667,-51.666c0,-28.75 -23.333,-51.667 -51.667,-51.667m40,22.917c-2.5,1.666 -5.416,3.333 -8.333,5c-1.667,-3.334 -3.75,-6.667 -6.25,-9.584c2.083,-1.25 4.167,-2.916 5.833,-4.166c3.75,2.083 6.667,5.416 8.75,8.75m-21.666,-17.084c4.166,1.667 7.916,3.75 11.666,6.667c-1.666,1.667 -3.75,2.917 -5.833,4.167c-2.5,-2.917 -5.417,-5.417 -8.333,-7.917c0.833,-1.25 1.666,-2.083 2.5,-2.917m4.166,11.667c-2.916,1.667 -5.833,2.5 -8.75,3.75c-1.25,-2.917 -2.5,-5.833 -4.166,-8.333c1.666,-0.834 3.333,-1.667 4.583,-2.917c2.917,2.083 5.833,4.583 8.333,7.5m-6.25,-12.5c-0.833,0.833 -1.666,1.667 -2.083,2.5c-2.917,-1.667 -5.417,-3.333 -8.75,-4.583c3.75,-0 7.5,0.833 10.833,2.083m-3.75,3.75c-1.25,0.833 -2.5,1.667 -3.75,2.083c-1.666,-2.5 -3.333,-4.583 -5,-7.083c2.917,1.25 5.834,2.917 8.75,5m-11.666,-4.583c2.083,2.083 3.75,4.583 5.416,7.5c-1.666,0.416 -3.333,0.833 -5.416,0.833l-0,-8.333Zm-0,10.416c2.083,0 4.583,-0.416 6.666,-1.25c1.667,2.5 2.917,5.417 4.167,8.334c-3.333,0.833 -7.083,1.25 -10.833,1.666l-0,-8.75Zm-2.084,-10.416l0,8.333c-1.666,0 -3.333,-0.417 -5.416,-0.833c2.083,-2.5 3.75,-5 5.416,-7.5m-7.083,6.666c-1.25,-0.416 -2.917,-1.25 -3.75,-2.083c2.917,-1.667 5.833,-3.333 8.75,-4.583c-2.083,2.083 -3.75,4.166 -5,6.666m2.917,-8.333c-2.917,1.25 -5.834,2.917 -8.75,4.583c-0.834,-0.833 -1.667,-1.666 -2.084,-2.5c3.334,-0.833 7.084,-1.666 10.834,-2.083m35.416,88.333c-6.666,-3.75 -7.083,-9.166 -6.666,-10.833c0.416,-2.083 1.666,-1.25 2.5,-1.25c4.583,0 9.166,-1.25 15,-7.5c6.666,-6.667 8.75,-21.667 -1.667,-31.25c-10.833,-10.417 -22.5,-8.75 -30,0.833c-1.667,2.084 -5.417,3.334 -8.333,3.334c-5,-0 -1.667,3.75 -1.667,4.583c0,0.833 -0.833,1.25 -1.25,1.25c-1.667,-0.417 -0.833,2.083 -0.833,2.5c-0,0.417 -0.834,1.25 -0.834,1.25c-2.083,0 -1.666,1.667 -1.25,2.5c0,0.417 0,1.25 -0.833,1.667c-0.833,0.416 -1.25,2.083 -1.25,3.333c0,2.083 2.083,3.75 5.417,6.25c3.333,2.5 3.75,5 3.75,6.667c-0,1.666 0.416,4.583 0.833,6.25c0.833,2.083 0.833,6.25 -3.75,6.25c-5.833,0.416 -15.833,4.583 -16.667,5c-3.333,1.25 -7.5,1.666 -10.833,0.833c-1.667,-1.25 -3.333,-2.5 -5,-4.167c-0.833,-2.083 0.417,-4.583 1.667,-6.25c2.083,2.084 4.583,1.667 6.25,1.667c1.666,0 9.166,-1.25 10.416,-1.667c1.25,-0.416 1.667,-0.416 2.084,0c2.916,1.25 7.083,1.25 8.75,-4.166c1.666,-5.834 -2.084,-4.167 -2.917,-3.75c-0.417,0.416 -1.25,-0 -0.833,-0.417c0.833,-1.25 -0.417,-1.25 -0.834,-1.25c-1.666,0 -3.75,1.667 -4.166,2.083c-0.834,0.417 -1.25,0.417 -1.667,0.417c-2.083,-1.25 -8.333,0.417 -10.417,-2.917c0,-0.833 -1.666,-14.583 -2.5,-17.083c0,-0.417 -0.416,-1.25 0.417,-2.083c1.667,-2.5 5.833,-0 8.333,-0c2.917,-0 3.334,-1.25 4.167,-2.084c0.833,-0.833 1.25,-0.416 1.667,-0.833c0.416,-0.417 -0,-0.833 -0,-1.25c-0,-0.417 0.416,0 0.833,-0.417c0.417,-0.416 0,-1.25 0,-1.666c0.833,-1.25 2.5,-0.417 1.667,-2.917c-0.417,-1.667 0.416,-3.333 1.25,-4.167c1.25,-1.666 6.666,-9.166 -2.5,-17.083c-8.75,-7.5 -17.917,-6.667 -23.75,-0.417c-5.834,6.25 -2.917,15.417 -2.5,17.917c0.416,2.5 -1.25,4.583 -3.334,5.417c-1.666,0.833 -5.416,3.333 -7.916,5.416c0.416,-20 12.5,-37.5 30.833,-44.583c0.833,0.833 1.667,2.083 2.5,2.917c-2.083,1.666 -6.667,5.416 -6.667,5.416c0,0 0.417,0 1.25,0.417c0.417,0 1.25,0.417 1.25,0.417c0,-0 3.75,-3.334 5.834,-4.584c1.25,1.25 2.916,2.084 4.583,2.917c-0.833,1.667 -3.333,5.833 -3.333,5.833c-0,0 0.416,0.417 0.833,0.417c0.417,0.417 0.833,0.417 0.833,0.417c0,-0 2.5,-4.584 3.334,-6.25c2.083,0.833 4.166,1.25 6.25,1.25l-0,8.333c-1.25,0 -4.167,0 -5.417,-0.417l-0.833,0l0.416,0.834c0.417,0.416 0.417,0.833 0.834,1.25l5,-0l-0,15.416l2.083,0l0,-3.75c3.333,0 5.833,-0.416 8.75,-0.833l2.917,-2.5l-1.667,0c-3.333,0.417 -6.25,0.833 -8.75,0.833l-1.25,0l0,-9.583c3.75,0 7.917,-0.417 11.667,-1.667c0.833,2.5 2.916,8.75 2.916,8.75l2.084,-0.833c-0,0 -2.084,-6.25 -2.917,-8.75c3.333,-0.833 6.25,-2.5 9.167,-3.75c2.5,2.917 4.583,6.25 6.25,9.583c-1.667,0.834 -4.167,1.667 -4.167,1.667c2.083,0.417 3.75,0.833 3.75,0.833c0,0 0.833,-0.416 1.25,-0.416c0,0.416 0.417,1.25 0.417,1.25l2.916,1.25l-0.416,-0.834c-0,0 -0.834,-2.083 -1.25,-2.5c2.916,-1.25 5.833,-2.916 8.75,-5c5.416,7.917 7.916,17.5 7.916,27.084c0.834,15.833 -7.083,30 -18.75,39.166" style="fill:#fefffe;fill-rule:nonzero;"></path><path d="M413.333,13.75l-0.833,0.833c-2.917,2.5 -10,9.584 -8.75,17.5l0,0.417l0.417,1.667l0.833,-0.834c4.167,-3.75 7.5,-10.416 8.75,-17.916l0.417,-2.084l-0.834,0.417Z" style="fill:#fefffe;fill-rule:nonzero;"></path><path d="M399.167,27.083l-0.417,0.834c-0.417,1.25 -1.25,4.166 -1.667,7.5c-0.833,5 -0.416,12.5 3.75,17.916l0.834,1.667l0.833,-3.333c0.833,-5.834 -0.417,-17.917 -2.5,-23.334l-0.833,-1.666l-0,0.416Z" style="fill:#fefffe;fill-rule:nonzero;"></path><path d="M394.167,47.917l-0,0.833c-0.417,5 -0,17.917 10.416,25l1.25,0.833l0,-1.666c0,-5 -5.833,-19.584 -10,-24.584l-1.25,-1.666l-0.416,1.25Z" style="fill:#fefffe;fill-rule:nonzero;"></path><path d="M395.833,70l0,1.667c1.667,7.5 8.334,19.166 19.167,22.916l1.667,0.417l-0.417,-1.667c-2.083,-5.416 -12.5,-18.333 -19.167,-22.5l-1.25,-0.833Z" style="fill:#fefffe;fill-rule:nonzero;"></path><path d="M417.917,25l-1.25,0.417c-7.917,5 -11.667,10.833 -11.667,18.333l0,1.667l1.25,-0.834c4.167,-3.75 10,-12.916 11.25,-17.916l0.417,-2.084l-0,0.417Z" style="fill:#fefffe;fill-rule:nonzero;"></path><path d="M412.917,40.833l-0.417,0.834c-2.083,2.083 -8.75,9.166 -8.333,17.916c-0,1.25 0.416,2.917 0.833,4.167l0.417,1.25l0.833,-1.25c3.333,-4.583 7.5,-16.25 7.083,-21.667l0,-1.666l-0.416,0.416Z" style="fill:#fefffe;fill-rule:nonzero;"></path><path d="M413.333,56.25l-0.416,0.833c-3.334,5 -5,10 -5,15c-0,3.334 1.25,6.667 3.333,10l0.833,1.25l0.417,-1.25c1.25,-2.916 2.5,-11.666 2.5,-18.75c-0,-2.5 -0.417,-4.583 -0.833,-5.833l-0.417,-1.667l-0.417,0.417Z" style="fill:#fefffe;fill-rule:nonzero;"></path><path d="M417.5,71.667l-0.833,1.666c-0.834,3.334 -1.667,6.25 -1.25,9.584c-0,6.666 3.333,12.083 9.166,15.833l0.834,0.417l0.416,-1.25l0,-1.25c0,-5.417 -4.166,-19.584 -7.5,-23.75l-0.833,-1.25Z" style="fill:#fefffe;fill-rule:nonzero;"></path><path d="M405.833,94.167l0.417,0.833c4.167,7.083 11.667,16.667 25.417,14.167l1.25,-0l-0.834,-0.834c-2.5,-3.75 -19.166,-13.333 -25,-14.166l-1.666,-0.417l0.416,0.417Z" style="fill:#fefffe;fill-rule:nonzero;"></path><path d="M426.25,112.5l-2.083,0.417l2.083,0.833c8.75,3.75 19.583,4.583 26.25,2.5c2.5,-0.833 3.75,-2.083 5.417,-3.75c11.25,1.25 21.666,10.417 27.916,17.917l0.417,0.416l0.417,0c0.833,-0.416 1.666,-1.25 2.083,-1.666l0.417,-0.417l-0.417,-0.417c-6.25,-8.333 -16.25,-13.333 -16.667,-13.75c-9.166,-4.166 -25,-7.5 -45.833,-2.083" style="fill:#fefffe;fill-rule:nonzero;"></path><path d="M426.667,89.167l-0,0.833c1.25,8.333 4.583,19.167 18.75,17.917l0.833,-0l-0.417,-0.834c-0.833,-3.75 -13.75,-14.583 -18.333,-17.5l-1.25,-0.833l0.417,0.417Z" style="fill:#fefffe;fill-rule:nonzero;"></path><path d="M525,12.917l0.417,2.083c1.25,7.5 4.583,14.167 8.75,17.917l0.833,0.833l0.417,-1.667l-0,-0.416c1.25,-7.917 -5.834,-15 -8.75,-17.5l-0.834,-0.834l-0.833,-0.416Z" style="fill:#fefffe;fill-rule:nonzero;"></path><path d="M539.583,26.25l-0.833,1.667c-2.083,5.416 -2.917,17.5 -2.5,23.333l0.833,3.333l0.417,-0.416l0.417,-0.834c4.583,-5.416 4.583,-12.5 3.75,-17.916c-0.417,-3.75 -1.25,-6.25 -1.667,-7.5l-0.417,-0.834l0,-0.833Z" style="fill:#fefffe;fill-rule:nonzero;"></path><path d="M545,47.083l-1.25,1.667c-4.167,5.417 -10,19.583 -10,24.583l0,1.667l1.25,-0.833c10.417,-6.667 10.833,-19.584 10.417,-25l-0,-0.834l-0.417,-1.25Z" style="fill:#fefffe;fill-rule:nonzero;"></path><path d="M543.333,70l-1.666,0.833c-6.667,4.167 -17.084,17.084 -19.167,22.5l-0.417,1.667l1.667,-0.417c10.833,-3.333 17.917,-15.416 19.167,-22.916l-0,-0.834l0.416,-0.833Z" style="fill:#fefffe;fill-rule:nonzero;"></path><path d="M521.25,24.167l0.417,2.083c1.666,5.417 6.666,14.583 11.25,18.333l1.25,0.834l-0,-1.667c0.416,-7.5 -3.334,-13.333 -11.25,-18.333l-0.834,-0.417l-0.833,-0.833Z" style="fill:#fefffe;fill-rule:nonzero;"></path><path d="M525.833,40.417l0,1.666c-0.416,5.417 4.167,17.5 7.084,21.667l0.833,1.25l0.417,-1.25c0.416,-1.667 0.833,-2.917 0.833,-4.167c0.417,-8.75 -6.25,-15.833 -8.333,-17.916l-0.417,-0.417l-0.417,-0.833Z" style="fill:#fefffe;fill-rule:nonzero;"></path><path d="M525.417,55.417l-0.417,1.666c-0.417,1.25 -0.833,3.334 -0.833,5.834c-0,7.083 0.833,15.833 2.5,18.75l0.416,1.25l0.834,-1.25c2.083,-2.917 3.333,-6.25 3.333,-10c0,-4.584 -1.667,-10 -5,-15l-0.417,-0.834l-0.416,-0.416Z" style="fill:#fefffe;fill-rule:nonzero;"></path><path d="M521.667,71.667l-0.834,1.25c-3.333,4.166 -7.5,18.333 -7.5,23.75l0,1.25l0.417,1.25l0.833,-0.417c5.834,-3.75 8.75,-9.167 9.167,-15.833c-0,-2.917 -0.417,-6.25 -1.25,-9.584l-0.833,-1.666Z" style="fill:#fefffe;fill-rule:nonzero;"></path><path d="M533.75,93.333l-1.667,0.417c-5.833,0.833 -22.5,10.417 -25,14.167l-0.833,0.833l1.25,0c13.75,2.5 21.25,-7.083 25.417,-14.167l0.416,-0.833l0.417,-0.417Z" style="fill:#fefffe;fill-rule:nonzero;"></path><path d="M467.5,114.583c-0.417,0 -10.417,5.417 -16.667,13.75l-0.416,0.417l0.416,0.417c0.417,0.416 1.667,1.25 2.084,1.666l0.416,0l0.417,-0.416c6.25,-7.5 16.667,-17.084 27.917,-17.917c1.666,1.667 3.333,2.917 5.416,3.75c6.25,2.083 17.5,1.25 26.25,-2.5l2.084,-0.833l-2.084,-0.417c-21.25,-5.417 -37.083,-2.083 -45.833,2.083" style="fill:#fefffe;fill-rule:nonzero;"></path><path d="M512.5,88.333l-1.25,0.834c-4.583,2.916 -17.083,13.75 -18.333,17.5l-0.417,0.833l0.833,0c13.75,1.25 17.084,-9.583 18.75,-17.917l0,-0.833l0.417,-0.417Z" style="fill:#fefffe;fill-rule:nonzero;"></path><path d="M160.833,5l17.5,0l0,15.833l-17.5,0l0,-15.833Zm1.667,34.167l14.583,-0l0,77.5l-14.583,-0l0,-77.5Z" style="fill:#fefffe;fill-rule:nonzero;"></path><path d="M51.667,39.167l15,-0l-0,77.5l-14.167,-0l0,-11.25l-0.417,-0c-5.833,9.583 -15.833,13.75 -26.666,13.75c-16.25,-0 -25.417,-12.5 -25.417,-27.917l0,-52.083l14.583,-0l0,45.833c0,13.333 2.917,23.333 17.084,23.333c5.833,0 14.166,-2.916 17.083,-11.25c2.917,-7.083 2.917,-16.25 2.917,-18.333l-0,-39.583Z" style="fill:#fefffe;fill-rule:nonzero;"></path><path d="M95.833,50.417c5.417,-9.584 15.834,-13.75 23.75,-13.75c5.417,-0 29.167,1.25 29.167,26.25l0,53.333l-14.583,0l-0,-48.75c-0,-12.917 -5.417,-19.583 -17.917,-19.583c0,-0 -7.917,-0.417 -14.167,5.833c-2.083,2.083 -6.25,5.417 -6.25,20.833l0,42.084l-14.583,-0l0,-77.5l14.583,-0l0,11.25Z" style="fill:#fefffe;fill-rule:nonzero;"></path><path d="M238.333,63.75c-0.833,-9.583 -5.416,-16.25 -15.833,-16.25c-13.75,0 -19.167,12.083 -19.167,30c0,17.917 5.417,30 19.167,30c9.583,0 15.417,-6.25 16.25,-17.5l14.583,0c-1.25,17.5 -14.166,27.917 -31.25,27.917c-24.583,-0 -34.583,-17.5 -34.583,-40c0,-22.5 11.25,-41.25 35.833,-41.25c16.25,-0 28.334,10.416 29.167,27.083l-14.167,0Z" style="fill:#fefffe;fill-rule:nonzero;"></path><path d="M275,80.417c-1.25,13.333 4.583,27.5 19.167,27.5c11.25,-0 17.083,-4.584 18.75,-15.834l15.416,0c-2.5,17.5 -15.833,26.25 -34.166,26.25c-24.584,0 -34.584,-17.5 -34.584,-40c0,-22.5 11.25,-41.25 35.834,-41.25c22.916,0.417 33.75,15 33.75,36.25l-0,7.084l-54.167,-0Zm39.167,-10c0.416,-12.917 -5.417,-22.917 -19.584,-22.917c-12.083,0 -19.166,10.417 -19.166,22.917l38.75,-0Z" style="fill:#fefffe;fill-rule:nonzero;"></path><path d="M345.833,115.833l0,-66.666l-13.333,-0l0,-10l13.333,-0l0,-16.667c0.417,-16.667 13.334,-21.25 24.167,-21.25c3.333,0 7.083,0.833 10.417,1.667l-0,12.083c-2.5,0 -5,-0.417 -7.5,-0.417c-8.334,0 -12.917,2.084 -12.5,10.417l-0,14.167l17.916,-0l0,10l-17.916,-0l-0,66.666l-14.584,0Z" style="fill:#fefffe;fill-rule:nonzero;"></path></g></svg>