<svg xmlns="http://www.w3.org/2000/svg" xmlns:xlink="http://www.w3.org/1999/xlink" x="0px" y="0px" width="1198px" height="834.262px" viewBox="0 0 1198 834.262" xml:space="preserve"><g id="BACKGROUND" display="none">	<rect x="-2670.684" y="-323.976" display="inline" width="4056.511" height="2505.596"></rect></g><g id="_x35_"></g><g id="_x34_"></g><g id="_x33_">	<g>		<g>			<path fill="#FFFFFF" d="M135.219,620.354l-0.673-0.057v4.442h2.286c2.845,0,4.688,0.511,5.343,1.477    c0.217,0.896,0.327,1.621,0.327,2.157c0,1.778-0.302,3.644-0.896,5.547l-26.239,81.979l-27.549-84.995    c-0.336-0.781-0.506-1.757-0.506-2.901c0-0.808,0-3.264,6.41-3.264h0.621v-4.387H69.234v4.387h0.621    c2.76,0,4.596,0.49,5.481,1.483c0.104,0.108,0.537,0.754,1.695,4.552l1.794,5.915l-26.717,79.43l-27.547-85.901l-0.059-0.131    c-0.213-0.354-0.467-1.099-0.467-2.64c0-0.126,0.057-0.543,0.589-1.681c0.113-0.241,0.838-1.028,5.451-1.028h0.621v-4.436    l-0.668,0.05c-12.928,0.977-22.822,1.663-29.407,2.035L0,622.423l0.256,4.351h0.586c3.511,0,5.49,1.469,6.072,4.569    l39.735,120.506h4.224l30.434-90.024l28.428,90.024h4.416l39.74-118.104c1.523-4.691,4.174-6.972,8.105-6.972h0.621v-4.351    l-0.583-0.035C155.952,622.016,146.93,621.332,135.219,620.354z"></path>			<path fill="#FFFFFF" d="M292.012,720.011c-1.567,7.111-4.115,12.227-7.573,15.208c-3.814,3.335-9.838,5.026-17.908,5.026h-31.824    c-4.373,0-6.41-1.684-6.41-5.299v-45.45h25.651c4.889,0,8.309,0.734,10.163,2.182c1.832,1.435,3.062,4.256,3.654,8.388    l0.076,0.532h3.75v-32.51h-3.75l-0.076,0.532c-0.592,4.134-1.821,6.956-3.653,8.388c-1.85,1.447-5.27,2.18-10.164,2.18h-25.651    v-41.194c0-3.94,3.368-5.855,10.295-5.855h29.418c10.756,0,17.58,6.262,20.861,19.144l0.119,0.468h3.934l-0.057-0.673    c-0.86-10.309-1.42-19.884-1.663-28.46l-0.017-0.603h-87.815v4.387h3.766c3.237,0,4.744,1.743,4.744,5.485v108.607    c0,3.742-1.507,5.485-4.744,5.485h-3.766v4.387h91.137l0.025-0.594c0.612-14.494,1.173-24.442,1.663-29.57l0.064-0.68h-4.141    L292.012,720.011z"></path>			<path fill="#FFFFFF" d="M419.942,690.272c-6.109-5.718-16.311-10.436-30.32-14.024c-20.003-5.196-30.145-13.584-30.145-24.931    c0-6.807,2.291-12.187,6.81-15.992c4.55-3.832,10.765-5.775,18.472-5.775c7.451,0,14.218,2.747,20.12,8.166    c5.075,4.594,8.752,10.293,10.927,16.938l0.252,0.769l0.678-0.441c2.833-1.848,4.927-3.203,6.285-4.066l0.287-0.183v-22.424    h-4.028l-0.314,0.946c-1.013,2.527-1.722,3.13-2.038,3.269c-11.212-8.691-22.346-13.097-33.094-13.097    c-11.333,0-20.813,3.449-28.175,10.249c-7.377,6.814-11.116,15.527-11.116,25.896c0,9.508,2.929,17.129,8.703,22.651    c5.72,5.475,15.459,10.07,28.947,13.658c11.451,3.046,19.589,6.493,24.185,10.237c5.008,4.176,7.548,10.116,7.548,17.656    c0,6.568-2.513,12.139-7.47,16.559c-4.978,4.437-11.281,6.688-18.737,6.688c-8.934,0-16.95-3.061-23.821-9.091    c-6.291-5.684-10.462-12.613-12.395-20.593l-0.187-0.77l-0.703,0.366c-3.047,1.585-5.462,2.761-7.174,3.495l-0.376,0.161v25.084    h3.562l0.182-0.291c1.955-3.124,3.022-3.91,3.497-4.096c3.364,3.885,8.153,7.392,14.238,10.426    c7.104,3.605,14.059,5.433,20.677,5.433c13.323,0,24.101-3.666,32.033-10.894c7.948-7.241,11.977-17.231,11.977-29.692    C429.23,703.543,426.105,696.046,419.942,690.272z"></path>			<path fill="#FFFFFF" d="M471.521,622.017l-0.05,0.568c-0.981,11.261-1.666,20.544-2.036,27.589l-0.035,0.654h3.959l0.084-0.524    c1.934-12.222,7.785-18.163,17.889-18.163h17.881v108.912c0,3.742-1.507,5.485-4.744,5.485h-4.322v4.408l34.73-1.152v-4.367    h-4.321c-3.238,0-4.745-1.743-4.745-5.485V632.14h16.956c9.859,0,15.711,5.946,17.891,18.175l0.091,0.512h3.928l-0.58-28.81    H471.521z"></path>			<path fill="#FFFFFF" d="M672.733,683.248c7.069-1.732,12.786-4.885,17.024-9.397c4.9-5.212,7.385-11.673,7.385-19.205    c0-10.397-3.882-18.533-11.538-24.183c-7.6-5.605-18.369-8.447-32.008-8.447h-45.211v4.387h3.952c3.11,0,4.56,1.743,4.56,5.485    v108.607c0,3.742-1.449,5.485-4.56,5.485h-3.952v4.387h53.167c11.941,0,21.759-3.289,29.18-9.775    c7.446-6.507,11.221-15.13,11.221-25.629c0-8.765-2.895-16.073-8.603-21.72C688.3,688.251,681.374,684.896,672.733,683.248z     M650.266,679.004H633.31v-42.831c2.173-2.676,7.565-4.033,16.031-4.033c10.169,0,17.759,1.916,22.558,5.695    c4.755,3.745,7.166,9.9,7.166,18.293C679.064,671.521,669.644,679.004,650.266,679.004z M633.31,689.312h23.062    c18.256,0,27.132,8.633,27.132,26.392c0,8.634-2.562,14.942-7.615,18.746c-5.108,3.845-13.293,5.795-24.327,5.795    c-9.941,0-16.08-1.717-18.252-5.107V689.312z"></path>			<path fill="#FFFFFF" d="M811.973,619.427c-17.855,0-33.164,6.539-45.501,19.434c-12.33,12.888-18.581,28.844-18.581,47.424    c0,18.584,6.251,34.54,18.581,47.426c12.335,12.895,27.644,19.434,45.501,19.434c17.978,0,33.349-6.539,45.687-19.434    c12.33-12.889,18.583-28.845,18.583-47.426c0-18.578-6.252-34.533-18.583-47.424C845.32,625.965,829.949,619.427,811.973,619.427    z M811.973,743.021c-13.924,0-25.184-5.213-33.467-15.495c-8.32-10.318-12.538-24.195-12.538-41.241    c0-17.043,4.218-30.918,12.538-41.24c8.285-10.282,19.544-15.495,33.467-15.495c14.044,0,25.367,5.183,33.655,15.404    c8.318,10.264,12.535,24.169,12.535,41.331c0,17.164-4.218,31.071-12.535,41.332    C837.342,737.838,826.019,743.021,811.973,743.021z"></path>			<path fill="#FFFFFF" d="M1018.492,717.172l-0.694-2.081l-0.5,2.135c-1.81,7.721-5.63,14.018-11.354,18.72    c-5.718,4.694-12.962,7.075-21.531,7.075c-12.938,0-23.698-5.398-31.981-16.043c-8.324-10.687-12.544-24.441-12.544-40.877    c0-17.169,3.971-31.016,11.804-41.157c7.797-10.092,18.682-15.209,32.351-15.209c13.246,0,23.889,8.037,31.636,23.89l0.806,1.65    l0.36-1.802c1.113-5.566,1.677-15.193,1.677-28.615v-0.621h-3.274l-0.149,0.406c-0.747,2.026-1.727,3.044-2.993,3.106    l-9.901-4.398c-6.701-2.481-12.937-3.739-18.533-3.739c-16.878,0-31.597,6.634-43.749,19.719    c-12.142,13.07-18.299,28.93-18.299,47.139c0,18.823,5.907,34.807,17.556,47.508c11.66,12.717,26.256,19.166,43.383,19.166    c10.081,0,18.516-2.469,25.07-7.339c6.573-4.882,10.856-12.043,12.728-21.282l0.027-0.136l-0.032-0.133    C1019.478,720.616,1018.867,718.3,1018.492,717.172z"></path>			<path fill="#FFFFFF" d="M1189.233,745.987c-2.674,0-4.623-0.509-5.794-1.513c-1.219-1.042-2.44-2.955-3.631-5.693    l-52.917-118.061l-0.164-0.367h-4.138l-51.441,117.023c-1.775,5.795-5.273,8.612-10.692,8.612h-0.621v4.355l31.4,1.539v-4.419    h-0.621c-6.217,0-9.37-1.285-9.37-3.82c0-1.382,0.354-2.851,1.057-4.373l15.563-34.97h48.97l17.199,37.135    c0.593,1.783,0.894,3.086,0.894,3.873c0,0.565-0.126,0.979-0.374,1.226c-0.279,0.279-1.481,0.929-6.592,0.929h-0.621v4.418    l32.51-1.538v-4.355H1189.233z M1141.828,693.25h-39.152l19.399-43.385L1141.828,693.25z"></path>		</g>		<g>			<path fill="#FFFFFF" d="M39.138,820.687c-0.603,2.736-1.57,4.693-2.88,5.821c-1.439,1.259-3.742,1.898-6.844,1.898H16.813    c-1.906,0-2.163-0.871-2.163-1.723V809.06h9.782c2.305,0,3.336,0.427,3.793,0.783c0.646,0.507,1.085,1.542,1.306,3.08    l0.076,0.532h2.185v-13.623h-2.185l-0.076,0.532c-0.219,1.538-0.66,2.573-1.305,3.08c-0.458,0.357-1.488,0.783-3.794,0.783H14.65    v-15.937c0-0.48,0-1.944,3.701-1.944h11.65c4.061,0,6.644,2.388,7.897,7.298l0.119,0.468h2.256l-0.056-0.673    c-0.338-4.065-0.56-7.849-0.657-11.249l-0.017-0.603H4.031v2.487h1.866c0.781,0,1.504,0.218,1.504,1.797v43.005    c0,1.579-0.723,1.797-1.504,1.797H4.031v2.487h36.822l0.025-0.594c0.243-5.735,0.463-9.667,0.657-11.69l0.064-0.68h-2.354    L39.138,820.687z"></path>			<path fill="#FFFFFF" d="M109.418,828.083l-15.878-23.17l11.923-17.58c1.158-1.698,2.596-2.523,4.396-2.523h0.621v-2.437    l-3.201-0.267c-3.659-0.34-6.392-0.609-8.196-0.804l-0.688-0.074v2.557h0.621c1.424,0,1.889,0.211,2.021,0.3    c0.036,0.11,0.061,0.179,0.068,0.179c0,0,0.001,0,0.001-0.001c0,0.318-0.109,0.635-0.336,0.973    c-5.307,7.939-8.721,13.003-10.179,15.095l-10.654-15.1c-0.326-0.651-0.375-0.977-0.387-0.992l0.038-0.187    c0.144-0.082,0.627-0.267,2.065-0.267h0.621v-2.487h-0.621c-0.367,0-0.893,0.036-1.606,0.113    c-0.688,0.074-1.227,0.137-1.589,0.181l-3.158,0.221c-2.975,0.244-5.195,0.415-6.657,0.512l-0.58,0.039v2.447h0.621    c2.03,0,3.297,0.477,3.809,1.485l13.68,20.162c-5.736,8.2-10.778,15.35-14.987,21.253c-1.061,1.46-2.484,2.191-4.347,2.235    l-0.606,0.015v2.428l0.575,0.044c1.327,0.098,2.296,0.193,3.012,0.293c1.596,0.097,2.594,0.17,2.987,0.218    c1.247,0.109,2.218,0.221,2.935,0.335c1.365,0.112,2.366,0.195,3,0.251l0.675,0.059v-2.548h-0.621    c-2.031,0-2.475-0.371-2.559-0.473l-0.045-0.229c0-0.172,0.092-0.739,0.908-2.208c1.404-1.944,3.514-4.939,6.271-8.903    c2.425-3.489,4.352-6.231,5.742-8.167l11.956,17.44c0.463,0.673,0.697,1.27,0.697,1.773c0,0.011-0.002,0.104-0.085,0.371    c-0.105,0.101-0.571,0.4-2.372,0.4h-0.621v2.526l0.658-0.04c1.489-0.09,2.659-0.183,3.444-0.275    c1.556-0.095,2.67-0.186,3.41-0.279c0.728-0.092,1.843-0.206,3.348-0.343c1.506-0.137,2.624-0.229,3.353-0.275l0.582-0.036    v-2.376h-0.621C111.234,829.944,110.118,829.352,109.418,828.083z"></path>			<path fill="#FFFFFF" d="M173.65,820.687c-0.603,2.736-1.57,4.693-2.88,5.821c-1.439,1.259-3.742,1.898-6.844,1.898h-12.601    c-1.906,0-2.163-0.871-2.163-1.723V809.06h9.782c2.305,0,3.336,0.427,3.793,0.783c0.646,0.507,1.085,1.542,1.306,3.08    l0.076,0.532h2.185v-13.623h-2.185l-0.076,0.532c-0.219,1.538-0.66,2.573-1.305,3.08c-0.458,0.357-1.488,0.783-3.794,0.783    h-9.782v-15.937c0-0.48,0-1.944,3.701-1.944h11.65c4.061,0,6.644,2.388,7.897,7.298l0.119,0.468h2.256l-0.056-0.673    c-0.338-4.065-0.56-7.849-0.657-11.249l-0.017-0.603h-35.511v2.487h1.866c0.781,0,1.504,0.218,1.504,1.797v43.005    c0,1.579-0.723,1.797-1.504,1.797h-1.866v2.487h36.822l0.025-0.594c0.243-5.735,0.463-9.667,0.657-11.69l0.064-0.68h-2.354    L173.65,820.687z"></path>			<path fill="#FFFFFF" d="M242.615,819.526l-0.691-2.089l-0.502,2.143c-0.698,2.975-2.168,5.4-4.369,7.208    c-2.196,1.802-4.984,2.716-8.288,2.716c-5,0-9.162-2.088-12.368-6.208c-3.243-4.164-4.887-9.534-4.887-15.956    c0-6.714,1.546-12.119,4.596-16.068c3.012-3.9,7.223-5.877,12.513-5.877c5.161,0,9.148,3.026,12.19,9.249l0.806,1.65l0.36-1.802    c0.446-2.231,0.672-6.068,0.672-11.404v-0.621h-1.933l-0.149,0.406c-0.289,0.781-0.594,0.943-0.772,0.977l-3.851-1.711    c-2.696-0.998-5.208-1.504-7.469-1.504c-6.792,0-12.712,2.668-17.599,7.928c-4.874,5.247-7.345,11.614-7.345,18.921    c0,7.55,2.372,13.965,7.05,19.065c4.689,5.116,10.562,7.71,17.454,7.71c4.074,0,7.489-1.003,10.151-2.979    c2.68-1.991,4.424-4.903,5.184-8.654l0.027-0.136l-0.032-0.133C243.02,820.944,242.769,819.991,242.615,819.526z"></path>			<path fill="#FFFFFF" d="M304.721,781.39l-0.604,0.017v2.523h1.866c1.033,0,2.089,0.292,2.089,2.457v28.792    c0,4.651-1.163,8.241-3.457,10.674c-2.283,2.423-5.669,3.651-10.061,3.651c-3.711,0-6.602-1.079-8.594-3.21    c-2.003-2.142-3.02-5.265-3.02-9.283v-31.723c0-1.579,0.723-1.797,1.504-1.797h2.013V780.9l-0.65,0.032    c-4.307,0.204-8.666,0.358-12.954,0.458l-0.574,0.013l-0.141,2.527h2.048c0.781,0,1.504,0.218,1.504,1.797v31.503    c0,5.531,1.609,9.802,4.781,12.694c3.155,2.879,7.745,4.338,13.642,4.338c5.855,0,10.486-1.612,13.765-4.79    c3.285-3.184,4.951-7.721,4.951-13.487v-30.039c0-2.177,0.96-2.456,1.797-2.456h1.72v-2.596l-0.655,0.036    C312.025,781.135,308.334,781.289,304.721,781.39z"></path>			<path fill="#FFFFFF" d="M343,781.59l-0.05,0.568c-0.388,4.458-0.661,8.137-0.808,10.937l-0.035,0.654h2.285l0.084-0.524    c0.731-4.626,2.926-6.876,6.712-6.876h6.706v42.751c0,1.579-0.723,1.797-1.504,1.797h-2.087v2.508l14.503-0.48v-2.466h-2.087    c-0.781,0-1.504-0.218-1.504-1.797v-42.312h6.34c3.693,0,5.889,2.253,6.714,6.888l0.091,0.512h2.253l-0.245-12.158H343z"></path>			<path fill="#FFFFFF" d="M407.345,783.93h0.621c1.912,0,2.287,0.089,2.303,0.09c0.49,0.227,0.593,1.054,0.593,1.707v43.372    c0,0.655-0.103,1.482-0.557,1.693c-0.076,0.024-0.472,0.104-2.339,0.104h-0.621v2.487h14.283v-2.926h-0.621    c-1.914,0-2.287-0.087-2.304-0.09c-0.489-0.226-0.592-1.053-0.592-1.707v-43.372c0-0.655,0.102-1.483,0.552-1.692    c0.056-0.017,0.432-0.106,2.344-0.106h0.621v-2.048h-14.283V783.93z"></path>			<path fill="#FFFFFF" d="M483.027,783.491h0.621c1.878,0,2.275,0.454,2.327,0.557c0.112,0.444,0.129,0.646,0.129,0.728    c0,0.644-0.131,1.277-0.39,1.884l-14.22,34l-14.158-34.716c-0.326-0.814-0.394-1.242-0.394-1.456c0-0.354,0.074-0.48,0.101-0.517    c0.095-0.13,0.557-0.552,2.574-0.552h0.621v-2.524l-13.77,0.726v2.384h0.621c1.666,0,2.639,0.805,3.086,2.617l18.766,47.126    h2.519l19.674-47.198c0.464-1.689,1.368-2.475,2.844-2.475h0.621v-2.448l-11.571-0.74V783.491z"></path>			<path fill="#FFFFFF" d="M554.619,820.687c-0.603,2.736-1.57,4.693-2.88,5.821c-1.439,1.259-3.742,1.898-6.844,1.898h-12.601    c-1.906,0-2.163-0.871-2.163-1.723V809.06h9.782c2.305,0,3.336,0.427,3.793,0.783c0.646,0.507,1.085,1.542,1.306,3.08    l0.076,0.532h2.185v-13.623h-2.185l-0.076,0.532c-0.219,1.538-0.66,2.573-1.305,3.08c-0.458,0.357-1.488,0.783-3.794,0.783    h-9.782v-15.937c0-0.48,0-1.944,3.701-1.944h11.65c4.061,0,6.644,2.388,7.897,7.298l0.119,0.468h2.256l-0.056-0.673    c-0.338-4.065-0.56-7.849-0.657-11.249l-0.017-0.603h-35.511v2.487h1.866c0.781,0,1.504,0.218,1.504,1.797v43.005    c0,1.579-0.723,1.797-1.504,1.797h-1.866v2.487h36.822l0.025-0.594c0.242-5.735,0.463-9.667,0.657-11.69l0.064-0.68h-2.354    L554.619,820.687z"></path>			<path fill="#FFFFFF" d="M603.621,803.075c-7.734-2.008-11.656-5.207-11.656-9.508c0-2.616,0.838-4.594,2.564-6.045    c1.732-1.46,4.111-2.2,7.072-2.2c2.852,0,5.447,1.054,7.715,3.137c1.961,1.774,3.382,3.976,4.222,6.546l0.252,0.769l0.678-0.441    c1.12-0.731,1.949-1.267,2.485-1.608l0.287-0.183v-9.461h-2.239l-0.204,0.611c-0.215,0.536-0.381,0.814-0.469,0.952    c-4.426-3.371-8.831-5.08-13.094-5.08c-4.585,0-8.424,1.399-11.41,4.158c-3.001,2.772-4.523,6.315-4.523,10.529    c0,3.872,1.198,6.98,3.562,9.24c2.311,2.212,6.222,4.064,11.626,5.501c4.482,1.192,7.658,2.532,9.433,3.979    c1.92,1.601,2.853,3.794,2.853,6.704c0,2.523-0.926,4.577-2.833,6.277c-1.9,1.694-4.312,2.553-7.169,2.553    c-3.444,0-6.535-1.181-9.182-3.503c-2.434-2.199-4.047-4.879-4.794-7.965l-0.187-0.77l-0.703,0.366    c-1.203,0.626-2.15,1.087-2.815,1.372l-0.377,0.161v10.555h1.992l0.183-0.291c0.497-0.794,0.823-1.163,1-1.33    c1.35,1.478,3.21,2.813,5.533,3.973c2.866,1.454,5.678,2.191,8.358,2.191c5.373,0,9.727-1.484,12.938-4.412    c3.228-2.941,4.865-6.99,4.865-12.034c0-3.677-1.277-6.737-3.797-9.099C613.324,806.411,609.23,804.512,603.621,803.075z"></path>			<path fill="#FFFFFF" d="M679.537,781.39l-0.604,0.017v2.523h1.866c1.033,0,2.089,0.292,2.089,2.457v28.792    c0,4.651-1.163,8.241-3.457,10.674c-2.283,2.423-5.669,3.651-10.061,3.651c-3.711,0-6.602-1.079-8.594-3.21    c-2.003-2.142-3.02-5.265-3.02-9.283v-31.723c0-1.579,0.723-1.797,1.504-1.797h2.013V780.9l-0.65,0.032    c-4.307,0.204-8.666,0.358-12.954,0.458l-0.574,0.013l-0.141,2.527h2.048c0.781,0,1.504,0.218,1.504,1.797v31.503    c0,5.531,1.609,9.802,4.781,12.694c3.155,2.879,7.745,4.338,13.642,4.338c5.855,0,10.486-1.612,13.765-4.79    c3.285-3.184,4.951-7.721,4.951-13.487v-30.039c0-2.177,0.96-2.456,1.797-2.456h1.72v-2.596l-0.655,0.036    C686.841,781.135,683.15,781.289,679.537,781.39z"></path>			<path fill="#FFFFFF" d="M720.034,783.93h0.621c1.912,0,2.287,0.089,2.303,0.09c0.49,0.227,0.593,1.054,0.593,1.707v43.372    c0,0.655-0.103,1.482-0.557,1.693c-0.076,0.024-0.472,0.104-2.339,0.104h-0.621v2.487h14.283v-2.926h-0.621    c-1.914,0-2.287-0.087-2.304-0.09c-0.489-0.226-0.592-1.053-0.592-1.707v-43.372c0-0.655,0.102-1.483,0.552-1.692    c0.056-0.017,0.432-0.106,2.344-0.106h0.621v-2.048h-14.283V783.93z"></path>			<path fill="#FFFFFF" d="M761.626,781.59l-0.05,0.568c-0.388,4.458-0.661,8.137-0.808,10.937l-0.035,0.654h2.285l0.084-0.524    c0.731-4.626,2.926-6.876,6.712-6.876h6.706v42.751c0,1.579-0.723,1.797-1.504,1.797h-2.087v2.508l14.503-0.48v-2.466h-2.087    c-0.781,0-1.504-0.218-1.504-1.797v-42.312h6.34c3.693,0,5.889,2.253,6.714,6.888l0.091,0.512h2.253l-0.245-12.158H761.626z"></path>			<path fill="#FFFFFF" d="M861.226,820.687c-0.603,2.736-1.57,4.693-2.88,5.821c-1.439,1.259-3.742,1.898-6.844,1.898h-12.601    c-1.906,0-2.163-0.871-2.163-1.723V809.06h9.782c2.305,0,3.336,0.427,3.793,0.783c0.646,0.507,1.085,1.542,1.306,3.08    l0.076,0.532h2.185v-13.623h-2.185l-0.076,0.532c-0.219,1.538-0.66,2.573-1.305,3.08c-0.458,0.357-1.488,0.783-3.794,0.783    h-9.782v-15.937c0-0.48,0-1.944,3.701-1.944h11.65c4.061,0,6.644,2.388,7.897,7.298l0.119,0.468h2.256l-0.056-0.673    c-0.338-4.065-0.56-7.849-0.657-11.249l-0.017-0.603h-35.511v2.487h1.866c0.781,0,1.504,0.218,1.504,1.797v43.005    c0,1.579-0.723,1.797-1.504,1.797h-1.866v2.487h36.822l0.026-0.594c0.242-5.735,0.463-9.667,0.657-11.69l0.064-0.68h-2.354    L861.226,820.687z"></path>			<path fill="#FFFFFF" d="M910.228,803.075c-7.734-2.008-11.656-5.207-11.656-9.508c0-2.616,0.838-4.594,2.564-6.045    c1.732-1.46,4.111-2.2,7.072-2.2c2.852,0,5.447,1.054,7.715,3.137c1.961,1.774,3.382,3.976,4.222,6.546l0.252,0.769l0.678-0.441    c1.12-0.731,1.949-1.267,2.485-1.608l0.287-0.183v-9.461h-2.239l-0.204,0.611c-0.215,0.536-0.381,0.814-0.469,0.952    c-4.426-3.371-8.831-5.08-13.094-5.08c-4.585,0-8.424,1.399-11.41,4.158c-3.001,2.772-4.523,6.315-4.523,10.529    c0,3.872,1.198,6.98,3.562,9.24c2.311,2.212,6.222,4.064,11.626,5.501c4.482,1.192,7.658,2.532,9.433,3.979    c1.92,1.601,2.853,3.794,2.853,6.704c0,2.523-0.926,4.577-2.833,6.277c-1.9,1.694-4.312,2.553-7.169,2.553    c-3.444,0-6.535-1.181-9.182-3.503c-2.434-2.199-4.047-4.879-4.794-7.965l-0.187-0.77l-0.703,0.366    c-1.203,0.626-2.15,1.087-2.815,1.372l-0.377,0.161v10.555h1.992l0.183-0.291c0.497-0.794,0.823-1.163,1-1.33    c1.35,1.478,3.21,2.813,5.533,3.973c2.866,1.454,5.678,2.191,8.358,2.191c5.373,0,9.727-1.484,12.938-4.412    c3.228-2.941,4.865-6.99,4.865-12.034c0-3.677-1.277-6.737-3.797-9.099C919.931,806.411,915.837,804.512,910.228,803.075z"></path>			<path fill="#FFFFFF" d="M960.006,823.937c-0.78,0-1.7,0.571-2.898,1.798c-1.196,1.221-1.752,2.174-1.752,2.998    c0,0.825,0.557,1.778,1.752,2.999c1.198,1.227,2.119,1.798,2.898,1.798c0.777,0,1.698-0.571,2.897-1.798    c1.196-1.224,1.752-2.175,1.752-2.999c0-0.822-0.557-1.774-1.752-2.998C961.704,824.508,960.784,823.937,960.006,823.937z"></path>			<path fill="#FFFFFF" d="M1034.079,819.526l-0.691-2.089l-0.502,2.143c-0.698,2.975-2.168,5.4-4.369,7.208    c-2.196,1.802-4.984,2.716-8.289,2.716c-5,0-9.162-2.088-12.368-6.208c-3.243-4.164-4.887-9.534-4.887-15.956    c0-6.714,1.546-12.119,4.596-16.068c3.012-3.9,7.223-5.877,12.513-5.877c5.161,0,9.148,3.026,12.19,9.249l0.806,1.65l0.36-1.802    c0.446-2.231,0.672-6.068,0.672-11.404v-0.621h-1.933l-0.149,0.406c-0.289,0.781-0.594,0.943-0.772,0.977l-3.851-1.711    c-2.696-0.998-5.208-1.504-7.469-1.504c-6.792,0-12.712,2.668-17.599,7.928c-4.874,5.247-7.345,11.614-7.345,18.921    c0,7.55,2.372,13.965,7.05,19.065c4.689,5.116,10.562,7.71,17.454,7.71c4.075,0,7.489-1.003,10.151-2.979    c2.68-1.991,4.424-4.903,5.184-8.654l0.027-0.136l-0.031-0.133C1034.484,820.944,1034.233,819.991,1034.079,819.526z"></path>			<path fill="#FFFFFF" d="M1088.73,780.564c-7.177,0-13.329,2.628-18.289,7.812c-4.951,5.174-7.461,11.58-7.461,19.037    c0,7.458,2.51,13.864,7.461,19.039c4.959,5.183,11.113,7.811,18.289,7.811c7.225,0,13.402-2.628,18.361-7.811    c4.951-5.176,7.463-11.581,7.463-19.039c0-7.457-2.511-13.862-7.463-19.037C1102.131,783.192,1095.954,780.564,1088.73,780.564z     M1088.73,829.504c-5.395,0-9.756-2.017-12.961-5.995c-3.239-4.019-4.881-9.433-4.881-16.096c0-6.66,1.642-12.074,4.881-16.094    c3.207-3.979,7.568-5.997,12.961-5.997c5.442,0,9.827,2.006,13.034,5.961c3.239,3.996,4.881,9.422,4.881,16.13    c0,6.708-1.642,12.136-4.881,16.131C1098.559,827.498,1094.173,829.504,1088.73,829.504z"></path>			<path fill="#FFFFFF" d="M1195.914,830.383c-0.781,0-1.504-0.217-1.507-1.865l-5.052-43.307c0-1.575,0.617-1.792,1.284-1.792h1.94    v-2.488h-9.334l-13.999,38.161l-13.999-38.161h-9.7v2.488h2.013c0.781,0,1.504,0.217,1.509,1.722l-5.06,42.274    c0,2.969-1.306,2.969-1.797,2.969h-1.866v2.407l12.305,0.626v-2.446h-1.866c-0.491,0-1.797,0-1.8-2.915l3.123-35.09    l14.799,40.785h2.19l14.665-40.934l3.4,36.284c0,1.579-0.652,1.797-1.357,1.797h-1.871l-0.3,2.537l3.929-0.269l6.475-0.001    l3.962-0.189v-2.59H1195.914z"></path>		</g>		<polygon fill="#FFFFFF" points="1044.789,530.009 967.171,531.333 889.553,532.38 811.935,533.233 734.316,533.948    730.403,533.984 730.377,530.009 729.491,394.315 728.949,258.62 734.316,263.987 621.651,264.146 565.318,264.189    508.986,264.109 514.475,258.62 514.368,333.601 514.114,408.582 513.792,483.562 513.319,558.543 513.291,562.91    508.986,562.877 417.994,562.177 327.002,561.263 236.011,560.078 190.515,559.379 145.019,558.543 190.515,557.708    236.011,557.009 327.002,555.823 417.994,554.909 508.986,554.21 504.652,558.543 504.179,483.562 503.857,408.582    503.603,333.601 503.496,258.62 503.489,253.139 508.986,253.131 565.318,253.05 621.651,253.093 734.316,253.253    739.704,253.261 739.683,258.62 739.142,394.315 738.255,530.009 734.316,526.07 811.935,526.786 889.553,527.638    967.171,528.686   "></polygon>		<linearGradient id="SVGID_1_" gradientUnits="userSpaceOnUse" x1="376.2588" y1="558.5433" x2="376.2588" y2="150.1842">			<stop offset="0" style="stop-color:#FFFFFF;stop-opacity:0.6"></stop>			<stop offset="0.5606" style="stop-color:#FFFFFF;stop-opacity:0"></stop>			<stop offset="1" style="stop-color:#FFFFFF;stop-opacity:0.6"></stop>		</linearGradient>		<path fill="url(#SVGID_1_)" d="M272.14,540.789c0,0-3.019-460.513,0-457.494c3.019,3.019,209.58,169.756,209.58,169.756v287.738   H272.14z"></path>		<linearGradient id="SVGID_2_" gradientUnits="userSpaceOnUse" x1="818.662" y1="498.939" x2="818.662" y2="93.757">			<stop offset="0" style="stop-color:#FFFFFF;stop-opacity:0.6"></stop>			<stop offset="0.5606" style="stop-color:#FFFFFF;stop-opacity:0"></stop>			<stop offset="1" style="stop-color:#FFFFFF;stop-opacity:0.6"></stop>		</linearGradient>		<polygon fill="url(#SVGID_2_)" points="715.698,153.678 715.698,498.939 921.626,498.939 921.626,93.757   "></polygon>		<linearGradient id="SVGID_3_" gradientUnits="userSpaceOnUse" x1="647.3828" y1="557.5921" x2="647.3828" y2="278.2766">			<stop offset="0" style="stop-color:#FFFFFF;stop-opacity:0.6"></stop>			<stop offset="0.5606" style="stop-color:#FFFFFF;stop-opacity:0"></stop>			<stop offset="1" style="stop-color:#FFFFFF;stop-opacity:0.6"></stop>		</linearGradient>		<path fill="url(#SVGID_3_)" d="M534.032,278.277v276.779c0,0,226.702,5.707,226.702,0s0-276.779,0-276.779H534.032z"></path>		<polygon fill="#FFFFFF" points="99.365,514.157 243.303,512.868 242.013,514.157 240.328,261.79 239.158,9.424 239.114,0    246.106,6.37 358.402,108.678 470.55,211.147 472.182,212.638 472.186,214.868 472.521,398.436 472.657,582.004 467.136,576.483    695.407,576.52 689.923,582.004 690.15,359.123 690.651,136.241 690.659,132.699 694.025,131.69 886.363,74.044 891.597,72.475    891.571,77.905 890.596,282.715 889.32,487.525 887.536,485.742 990.258,486.557 1092.98,487.525 990.258,488.494    887.536,489.309 885.763,489.323 885.752,487.525 884.476,282.715 883.5,77.905 888.708,81.766 696.789,140.792 700.163,136.241    700.665,359.123 700.891,582.004 700.897,587.488 695.407,587.489 467.136,587.526 461.61,587.527 461.614,582.004    461.751,398.436 462.086,214.868 463.721,218.588 352.036,115.614 240.5,12.477 247.448,9.424 246.277,261.79 244.592,514.157    244.584,515.458 243.303,515.447   "></polygon>	</g></g><g id="_x32_"></g><g id="_x31_"></g></svg>