<svg xmlns="http://www.w3.org/2000/svg" xmlns:xlink="http://www.w3.org/1999/xlink" xmlns:serif="http://www.serif.com/" width="100%" height="100%" viewBox="0 0 6110 1058" xml:space="preserve" style="fill-rule:evenodd;clip-rule:evenodd;stroke-linejoin:round;stroke-miterlimit:2;"><g><path d="M812.5,1054.17c-22.5,-7.084 -38.333,-17.917 -50,-34.584c-7.083,-9.166 -12.5,-19.166 -12.5,-21.666c0,-2.5 10.833,-8.75 24.583,-14.167l24.167,-9.583l14.583,14.583c16.667,16.667 30.417,21.25 51.25,17.5c18.334,-3.75 27.084,-12.5 27.084,-27.5c-0,-16.667 -12.5,-23.75 -53.75,-31.25c-39.167,-6.667 -58.75,-17.083 -71.25,-37.083c-27.917,-45.834 -3.75,-106.25 49.166,-121.667c31.667,-9.167 72.917,-6.25 97.084,7.083c17.083,9.584 37.083,32.917 37.083,43.334c0,2.916 -10.833,9.166 -23.75,14.166l-23.75,9.167l-8.333,-11.25c-17.5,-23.75 -58.334,-27.917 -71.667,-7.5c-14.167,21.25 2.083,36.25 50,45.417c61.667,12.083 82.5,30.833 85,77.916c1.667,24.584 0.417,30.417 -9.167,46.667c-15.833,26.667 -46.25,41.25 -91.666,42.917c-18.75,0.416 -38.334,-0.417 -44.167,-2.5Z" style="fill:#fff;fill-rule:nonzero;"></path><path d="M1067.5,1051.67c-25.417,-7.917 -44.167,-23.75 -55.417,-46.667c-9.583,-19.167 -10,-25 -11.25,-118.75l-1.666,-99.167l71.666,0l0,97.084c0,96.666 0,97.5 10,106.666c19.167,18.334 57.5,14.167 69.167,-7.5c2.5,-5 4.167,-45.833 4.167,-102.083l-0,-94.167l66.666,0l0,92.917c0,107.917 -3.75,127.083 -27.916,150.833c-25.834,25 -82.084,34.584 -125.417,20.834Z" style="fill:#fff;fill-rule:nonzero;"></path><path d="M2242.5,1050.42c-58.75,-21.25 -96.25,-79.167 -91.667,-140.417c4.167,-48.75 33.334,-91.667 77.917,-113.333c20,-10 28.333,-11.667 58.75,-11.667c29.583,0 39.167,1.667 58.75,10.833c28.333,13.334 50,34.584 65,63.334c10.417,19.166 11.667,26.25 11.667,61.25c-0,35 -1.25,42.083 -11.667,61.25c-24.167,46.25 -65,72.083 -117.083,75c-21.667,1.25 -35.417,-0.834 -51.667,-6.25Zm80,-67.084c22.917,-12.916 29.583,-26.666 29.583,-62.916c0,-36.667 -6.25,-49.584 -30.833,-64.167c-17.5,-10 -50,-10 -67.917,0.417c-29.166,16.666 -40.833,64.166 -24.583,100c15.833,34.583 58.333,46.666 93.75,26.666Z" style="fill:#fff;fill-rule:nonzero;"></path><path d="M2869.17,1052.08c-9.167,-3.333 -21.25,-9.583 -27.084,-14.166c-11.25,-8.334 -30.416,-37.917 -27.5,-42.917c1.25,-1.25 12.5,-7.083 25,-12.083l22.917,-9.167l8.75,10.833c13.333,16.667 31.667,24.584 52.5,22.084c22.917,-2.5 30.417,-8.75 30.417,-26.25c-0,-18.75 -12.5,-26.25 -52.917,-33.334c-17.083,-2.916 -39.167,-10.416 -49.167,-15.833c-27.5,-16.25 -40.416,-51.25 -31.666,-84.583c9.583,-35.834 41.666,-59.167 86.25,-62.917c38.333,-2.917 65.833,5 87.5,26.25c25,23.75 24.166,32.083 -4.584,43.75l-22.916,9.167l-9.167,-11.25c-12.083,-15.417 -33.333,-23.75 -51.25,-20.417c-17.083,2.917 -23.75,10.417 -23.75,25.417c0,15.416 12.917,25 41.667,30.416c47.5,9.167 60.416,13.75 75.833,28.75c37.917,36.667 27.5,100.834 -20.417,127.084c-18.333,10 -28.333,12.083 -58.333,13.75c-25,0.833 -40.833,-0.417 -52.083,-4.584Z" style="fill:#fff;fill-rule:nonzero;"></path><path d="M3516.25,1021.67c-23.75,-19.584 -57.917,-48.75 -75.417,-64.584l-32.083,-29.166l-1.25,62.083l-1.25,61.667l-62.5,-0l-1.25,-134.167c-0.417,-74.167 0.833,-134.583 2.5,-134.583c3.75,-0 75,58.75 122.5,101.25c15,12.916 28.333,23.75 30,23.75c1.25,-0 2.5,-27.084 2.5,-60.417l0,-60.417l62.5,0l0,135.417c0,74.583 -0.833,135.417 -1.667,135.417c-0.833,-0 -20.833,-16.25 -44.583,-36.25Z" style="fill:#fff;fill-rule:nonzero;"></path><path d="M3969.17,1045c-10.834,-26.25 -68.75,-177.5 -83.334,-217.917l-14.583,-40l69.167,0l19.583,61.667c11.25,33.75 21.25,62.5 22.917,64.167c1.666,1.666 14.166,-25.417 27.916,-60.417c13.334,-34.583 26.667,-63.333 28.75,-63.333c2.084,-0 13.75,26.25 25.834,58.333c11.666,32.083 22.916,60.833 25,64.167c2.5,4.166 10,-14.584 24.166,-59.584l20.417,-65l32.917,0c24.583,0 32.5,1.25 30.833,5.417c-48.333,124.167 -100.417,256.667 -102.917,261.25c-2.916,4.583 -5.833,1.25 -12.916,-14.583c-31.667,-71.667 -45.417,-100 -48.334,-99.584c-1.666,0.417 -14.583,26.25 -28.75,57.5c-14.166,31.25 -26.666,57.917 -28.333,59.584c-1.25,1.25 -5,-3.75 -8.333,-11.667Z" style="fill:#fff;fill-rule:nonzero;"></path><path d="M4442.92,1050c-30,-10 -52.917,-27.083 -67.917,-50c-47.5,-71.25 -23.75,-164.167 51.25,-203.333c18.75,-10 26.25,-11.667 59.167,-11.667c53.333,0 81.666,13.75 110.833,53.75c6.667,8.75 12.083,17.5 12.083,19.583c0,1.667 -13.333,8.334 -29.583,14.584l-29.583,11.666l-8.334,-11.25c-27.083,-37.083 -90.416,-32.083 -110,8.75c-11.25,22.5 -10,61.667 2.084,81.667c22.5,36.25 77.083,40.833 103.333,8.75l12.083,-14.583l28.334,8.333c15.833,4.583 29.583,9.167 30.833,10c4.583,4.583 -21.667,40.833 -39.583,54.583c-34.584,26.667 -82.5,34.167 -125,19.167Z" style="fill:#fff;fill-rule:nonzero;"></path><path d="M5203.33,1051.25c-13.75,-4.167 -24.166,-11.667 -36.25,-25c-22.916,-26.25 -22.083,-31.667 6.667,-42.917l23.75,-9.166l9.583,12.5c26.667,33.75 92.084,22.5 82.917,-14.167c-3.333,-13.333 -12.917,-17.917 -52.5,-25c-36.25,-6.25 -51.667,-12.917 -65.417,-27.917c-27.083,-29.166 -22.5,-90.416 8.75,-115c32.084,-25 97.084,-28.75 132.917,-7.916c17.083,10 36.25,32.916 36.25,43.333c0,2.5 -10.417,8.333 -23.333,13.333l-23.75,8.75l-13.334,-13.75c-15.833,-16.25 -32.5,-20.833 -52.5,-15.416c-15.416,4.583 -20.416,10.416 -20.416,24.166c-0,15.834 12.916,24.167 52.5,31.667c20.416,4.167 43.75,11.25 51.666,15.417c44.167,25 49.584,93.75 10,128.333c-26.666,23.75 -84.166,32.083 -127.5,18.75Z" style="fill:#fff;fill-rule:nonzero;"></path><path d="M1279.17,1054.17l-0,-267.084l62.916,0c34.167,0 70.834,2.084 80.834,4.584c23.75,5.833 49.166,27.916 58.333,50.416c10.833,27.084 9.583,69.167 -2.5,93.75c-16.667,33.75 -45,47.084 -100.417,47.084l-32.083,-0l-1.25,34.583l-1.25,34.167l-32.083,1.25l-32.5,1.25Zm118.75,-129.584c14.166,-5.416 24.166,-28.75 20.416,-48.333c-3.75,-21.25 -18.75,-30.833 -47.916,-30.833l-24.584,-0l0,83.333l20.417,0c11.25,0 25.417,-1.667 31.667,-4.167Z" style="fill:#fff;fill-rule:nonzero;"></path><path d="M1532.08,1051.25c-1.666,-1.667 -2.916,-61.667 -2.916,-133.75l-0,-130.417l183.333,0l-0,59.584l-58.333,-2.5l-58.334,-2.084l0,49.167l116.667,-0l0,54.167l-116.667,-0l0,50.416l60.417,-2.916l60.833,-2.917l-2.5,61.667l-90,1.25c-49.166,0.416 -90.833,-0.417 -92.5,-1.667Z" style="fill:#fff;fill-rule:nonzero;"></path><path d="M1762.5,1054.17l0,-267.084l65.833,0c76.667,0 100.417,5 120.417,25.834c17.917,18.333 26.25,40 26.25,66.666c-0,25 -11.667,54.167 -24.583,62.5c-5,2.917 -8.75,7.084 -8.75,8.75c-0,2.084 12.083,24.167 27.083,49.167c15,25.417 27.083,47.917 27.083,50c0,2.5 -15,3.75 -35.833,2.917l-36.25,-1.25l-22.917,-38.334l-23.333,-38.75l-47.917,0l-1.25,38.75l-1.25,38.334l-32.083,1.25l-32.5,1.25Zm127.917,-140.417c10.416,-6.25 16.25,-29.167 11.666,-44.167c-6.25,-20 -14.166,-24.166 -44.583,-24.166l-28.333,-0l-0,80l26.25,-2.917c14.166,-1.667 30,-5.417 35,-8.75Z" style="fill:#fff;fill-rule:nonzero;"></path><path d="M2033.33,1054.17l0,-267.084l70.834,0l-0.834,132.5l-1.25,132.084l-34.166,1.25l-34.584,1.25Z" style="fill:#fff;fill-rule:nonzero;"></path><path d="M2475,1054.17l0,-267.084l65.833,0c76.667,0 100.417,5 120.417,25.834c17.917,18.333 26.25,40 26.25,66.666c-0,25 -11.667,54.167 -24.583,62.5c-5,2.917 -8.75,7.084 -8.75,8.75c-0,2.084 12.083,24.167 27.083,48.75c15,24.584 27.083,47.084 27.083,49.584c0,3.333 -11.25,4.583 -36.25,3.75l-36.25,-1.25l-22.5,-38.334l-22.5,-38.75l-48.75,0l-1.25,38.75l-1.25,38.334l-32.083,1.25l-32.5,1.25Zm130.833,-142.084c4.167,-4.166 8.334,-15.416 9.584,-25.416c1.666,-14.584 -0,-20.834 -7.084,-29.584c-8.333,-10.833 -11.25,-11.666 -37.916,-11.666l-28.75,-0l-0,80l28.333,-2.917c17.917,-2.083 30.833,-5.417 35.833,-10.417Z" style="fill:#fff;fill-rule:nonzero;"></path><path d="M3036.25,1050.42c-2.917,-4.167 129.583,-271.667 134.583,-271.667c4.167,0 137.5,262.917 137.5,270.833c0,2.917 -12.916,4.167 -36.25,3.334l-36.666,-1.25l-9.584,-19.584l-9.166,-20l-94.584,0l-7.916,17.917c-4.167,9.583 -9.584,18.75 -12.084,20.417c-5.416,4.166 -63.333,4.166 -65.833,-0Zm159.583,-89.167c-0.416,-2.917 -6.666,-17.5 -14.166,-32.5l-14.167,-27.083l-12.917,28.75c-7.083,15.833 -12.916,30.416 -12.916,32.083c-0,2.083 12.083,3.75 27.083,3.75c19.167,0 27.083,-1.667 27.083,-5Z" style="fill:#fff;fill-rule:nonzero;"></path><path d="M3625,1055l0,-267.917l60.417,0c32.916,0 69.583,2.084 80.833,4.584c57.917,12.5 91.25,64.583 87.083,136.666c-2.5,40.834 -15.416,70.417 -39.583,92.084c-27.917,24.166 -47.5,29.583 -122.917,32.083l-65.833,2.5Zm137.5,-71.25c27.917,-27.917 27.917,-95.833 0.417,-127.083c-10.834,-11.667 -14.584,-13.334 -41.667,-14.584l-29.583,-1.666l-0,155l29.583,-0c26.667,-0 30.417,-1.25 41.25,-11.667Z" style="fill:#fff;fill-rule:nonzero;"></path><path d="M4233.33,1054.17l0,-267.084l70.834,0l-0.834,132.5l-1.25,132.084l-34.166,1.25l-34.584,1.25Z" style="fill:#fff;fill-rule:nonzero;"></path><path d="M4645.83,1053.75l0,-266.667l66.667,0l0,95.834l91.667,-0l-0,-95.834l70.833,0l-0.833,132.5l-1.25,132.084l-66.667,-0l-1.25,-52.917l-1.25,-53.333l-91.25,-0l0,108.333l-66.667,0Z" style="fill:#fff;fill-rule:nonzero;"></path><path d="M4936.25,1051.25c-1.667,-1.667 -2.917,-61.667 -2.917,-133.75l0,-130.417l183.334,0l-0,59.584l-58.334,-2.5l-58.333,-2.084l0,49.167l116.667,-0l-0,54.167l-116.667,-0l0,50.416l60.417,-2.916l60.833,-2.917l-2.5,61.667l-90,1.25c-49.167,0.416 -90.833,-0.417 -92.5,-1.667Z" style="fill:#fff;fill-rule:nonzero;"></path><path d="M150.417,801.667c-55.834,-12.5 -97.917,-43.334 -122.917,-89.584c-9.167,-16.666 -12.5,-29.583 -14.167,-51.666c-4.166,-66.667 17.084,-92.5 112.084,-139.167c32.916,-16.25 70,-32.5 82.083,-36.25c19.583,-6.25 21.667,-7.917 19.167,-15.833c-1.667,-5 -53.334,-110 -114.584,-232.917c-61.666,-123.333 -112.083,-225 -112.083,-226.25c0,-1.25 67.917,-2.083 151.25,-2.083l151.25,-0l44.167,96.666c24.583,53.334 45.833,97.5 47.916,97.917c1.667,0.833 23.75,-39.583 48.75,-89.167l45.417,-90.833l41.667,86.667c22.916,47.5 42.916,86.25 44.166,86.25c1.667,-0 19.584,-41.667 40.417,-92.5l37.5,-92.917l100.833,-1.25c55.417,-0.417 100.834,0 100.834,1.25c-0,1.25 -42.084,112.917 -93.75,247.917l-94.167,245l20.417,20.416c35,35 47.5,89.167 31.666,135.834c-8.333,25 -36.666,56.25 -63.333,70.833c-28.333,15.417 -79.167,27.917 -113.75,27.917c-66.667,-0 -135.417,8.75 -213.333,27.5c-90,21.666 -135.834,25.833 -177.5,16.25Zm9.583,-80.834c1.25,-1.666 -2.5,-7.916 -8.75,-13.333c-15.417,-14.167 -40,-48.75 -56.667,-78.75l-14.583,-25.833l-9.583,14.166c-12.917,17.917 -12.917,45.417 0.416,68.75c10.417,18.75 26.667,27.917 58.334,34.167c25.833,5 28.333,5 30.833,0.833Zm81.667,-18.75c26.25,-7.5 57.5,-16.25 69.583,-18.75l21.25,-5.416l-22.917,-31.667c-25.833,-36.25 -67.916,-105.833 -67.916,-112.917c-0,-9.583 -12.5,-4.166 -19.167,8.75c-19.583,37.5 -27.5,71.667 -29.583,123.334c-1.25,27.916 -1.667,50.833 -0.834,50.833c1.25,0 23.334,-6.25 49.584,-14.167Zm270.833,-37.916c92.083,-0.834 99.167,-1.25 120,-10.417c27.083,-11.667 48.333,-34.167 44.167,-47.083c-4.167,-14.167 -15,-36.25 -18.334,-38.334c-2.083,-1.25 -7.5,5 -12.5,13.75c-5,8.334 -19.583,30 -32.5,47.917c-21.25,30 -24.166,32.083 -37.916,32.083l-15.417,0l-7.5,-30c-7.083,-28.75 -36.25,-107.916 -43.333,-118.75c-1.667,-2.916 -14.167,-6.666 -27.084,-8.75l-24.166,-3.75l-18.75,37.5c-17.5,34.584 -47.5,100 -56.25,123.334c-3.75,9.583 -3.75,10 13.75,6.666c10,-2.083 62.083,-3.75 115.833,-4.166Zm-356.667,-90.417c2.917,-12.917 -0.416,-14.583 -11.25,-6.25c-6.25,4.167 -6.666,7.083 -2.5,19.167c5.417,15.416 7.084,13.75 13.75,-12.917Zm212.917,-27.5c10.417,-23.333 18.75,-43.333 18.75,-43.75c-0,-1.667 -49.167,3.75 -70,7.5c-10.833,2.083 -13.333,4.167 -11.25,9.583c4.167,11.667 40.417,72.084 42.083,70.417c0.834,-0.417 10,-20.417 20.417,-43.75Zm227.083,-12.083c0,-2.917 -2.916,-5.417 -6.25,-5.417c-6.666,0 -7.916,3.75 -3.75,14.583c2.084,5.417 3.334,5.834 6.25,1.25c2.084,-2.916 3.75,-7.916 3.75,-10.416Zm103.334,-265.834c41.25,-107.916 76.666,-199.166 77.916,-203.333c2.917,-6.667 0,-7.083 -42.083,-6.25l-45.417,1.25l-49.583,122.083l-49.583,121.667l-12.917,0c-12.5,0 -13.75,-1.667 -50,-77.083c-20.417,-42.5 -38.333,-77.084 -40,-77.084c-1.25,0 -20.417,34.584 -42.083,77.084l-39.167,77.5l-28.333,-2.5l-110,-241.667l-92.084,-1.25l-92.083,-0.833l193.333,392.5l22.917,-2.5c12.5,-1.25 42.083,-3.75 65.833,-5.417c23.334,-1.25 44.167,-4.583 45.834,-7.083c1.666,-2.5 16.25,-34.584 32.083,-71.25l29.167,-66.667l29.166,-2.5l29.167,79.167l29.167,78.75l29.166,8.333c15.834,4.583 30.417,7.083 32.084,5.417c1.25,-1.25 36.25,-90.417 77.5,-198.334Zm-197.084,180.417c-1.666,-5.417 -6.25,-17.083 -10.416,-26.25l-7.084,-16.667l-9.166,20c-10.834,25.417 -10.834,27.084 0.833,29.167c23.75,4.583 28.75,3.333 25.833,-6.25Z" style="fill:#fff;fill-rule:nonzero;"></path><path d="M3402.92,637.083c-32.5,-74.583 -257.917,-621.25 -256.667,-622.5c0.833,-0.833 52.5,-2.916 114.167,-4.583l112.5,-2.917l41.25,99.584c22.5,54.583 42.5,100.416 43.75,102.5c1.666,1.666 22.5,-45 46.25,-103.334l43.333,-105.833l38.333,102.083c21.25,56.25 39.167,102.917 40,104.167c0.834,0.833 19.584,-42.083 41.667,-95.417l40,-96.666l113.333,-1.25c63.75,-0.417 112.5,0.833 111.667,2.5c-13.75,36.666 -272.5,642.5 -274.167,642.5c-1.25,-0 -28.333,-48.75 -60.416,-108.334c-32.084,-59.583 -59.584,-108.333 -60.834,-108.333c-1.666,0 -25.833,41.667 -54.166,92.917c-28.334,50.833 -55.417,100 -60.834,109.166l-9.166,16.25l-10,-22.5Zm50,-166.666c15.833,-28.75 37.916,-68.334 48.75,-88.334c19.166,-35.833 20,-36.666 35,-36.666l15.416,0.416l49.584,91.667c35.416,65.833 50.416,90.417 52.916,85.833c4.167,-7.083 195.417,-457.5 195.417,-460c0,-0.833 -22.917,-0.833 -50.833,-0.416l-50.834,1.25l-109.166,262.5l-14.167,1.25l-14.583,1.25l-26.667,-72.084c-15,-39.583 -29.583,-78.75 -32.917,-86.666l-5.833,-14.584l-15.417,37.5c-8.333,20.834 -24.583,59.584 -35.416,86.667l-20.417,49.167l-28.333,-2.5l-110,-264.167l-55,-0.417c-52.084,0 -55,0.417 -52.084,7.5c32.917,85 191.25,457.917 192.917,455.834c1.667,-1.667 15.833,-26.25 31.667,-55Z" style="fill:#fff;fill-rule:nonzero;"></path><path d="M1986.67,645.417c-70,-12.084 -122.084,-38.75 -172.917,-89.584c-33.333,-33.75 -40.417,-43.75 -58.75,-81.666c-27.083,-56.25 -35.417,-90 -35.833,-145.417c-0,-49.583 5.416,-79.583 23.333,-125.833c35.833,-93.75 115.417,-166.25 210.417,-191.25c47.916,-12.917 125,-12.917 170,-0c96.666,27.083 167.916,93.333 204.166,189.166l10,27.5l-32.083,12.5c-17.5,6.667 -63.75,24.584 -102.083,39.584c-38.75,15 -70.834,27.5 -71.25,27.5c-0.834,-0 -4.584,-11.667 -9.167,-25.834c-10.417,-34.583 -30,-55 -60,-61.25c-11.667,-2.5 -25.833,-3.75 -31.667,-2.5c-5.416,1.25 -14.583,2.917 -20.416,4.167c-17.917,3.75 -42.5,30 -52.084,54.583c-16.25,44.167 -7.083,106.25 20,132.084c22.917,21.666 58.334,29.166 93.75,19.166c22.5,-6.25 42.917,-28.75 51.25,-55.833c5,-18.333 7.917,-22.917 13.334,-21.25c3.75,1.25 51.25,14.583 105,30c53.75,15.417 98.333,28.75 99.166,29.167c0.834,0.416 -5,16.666 -12.5,35.833c-56.666,142.5 -195.833,223.75 -341.666,199.167Zm129.583,-63.75c53.75,-18.75 101.667,-57.917 134.167,-109.167l16.25,-25l-28.75,-8.75c-58.334,-18.333 -72.5,-20.833 -74.584,-14.583c-4.583,13.333 -35.833,41.666 -56.25,50.833c-18.333,7.917 -28.333,9.583 -65.416,9.583c-63.75,-0.416 -94.167,-14.583 -120.417,-55.416c-27.917,-42.917 -33.75,-127.084 -12.917,-181.667c12.917,-33.333 44.167,-64.583 74.584,-75c31.25,-10.417 103.75,-7.5 127.5,5c17.083,8.75 49.166,40.417 52.916,51.25c1.25,4.583 12.084,2.083 49.584,-12.5c26.25,-10 48.333,-18.75 49.166,-19.167c4.584,-3.75 -25.833,-45.416 -51.666,-71.25c-85,-83.75 -214.167,-94.583 -316.25,-25.833c-50.834,33.75 -85,80.417 -106.25,143.75c-17.917,53.333 -20,86.25 -9.167,132.917c21.667,90.416 77.083,160 155.833,196.25c55.417,25 125.834,28.75 181.667,8.75Z" style="fill:#fff;fill-rule:nonzero;"></path><path d="M4468.75,643.75c-123.75,-24.167 -212.917,-107.917 -248.75,-233.75c-12.083,-43.333 -12.917,-118.75 -1.667,-162.5c8.75,-34.167 33.75,-89.167 52.084,-116.25c41.25,-60 113.75,-107.083 190,-123.75c35.833,-7.917 114.583,-6.667 147.916,2.083c92.5,24.584 175.417,98.334 206.667,184.584c6.667,18.333 9.583,32.5 7.5,34.583c-2.083,1.667 -45.833,19.583 -97.5,39.583c-51.667,20 -95.833,37.084 -98.333,37.917c-2.5,1.25 -6.667,-5.833 -9.584,-15.833c-14.583,-49.167 -41.666,-71.667 -85.416,-71.667c-57.917,0 -90,39.583 -90,109.583c-0,64.584 35.416,105 90.416,104.167c41.667,-0.417 66.25,-18.333 80.834,-58.333c5,-13.75 11.25,-24.167 13.75,-23.334c2.5,0.834 49.166,14.584 103.75,30.417l99.583,28.333l-2.5,12.5c-1.667,7.084 -9.167,26.667 -17.083,43.75c-40.834,85.834 -106.667,145 -191.667,171.25c-37.5,11.667 -108.75,14.584 -150,6.667Zm113.333,-54.583c60,-14.167 120,-57.5 157.917,-114.167l18.333,-27.5l-30,-9.167c-63.75,-19.583 -70.416,-20.416 -75,-12.083c-10.416,18.333 -34.166,39.583 -54.583,48.75c-18.333,8.333 -28.75,9.583 -67.5,9.583c-42.083,0 -48.333,-0.833 -69.583,-11.25c-27.917,-13.75 -46.25,-33.333 -61.25,-65.416c-10,-21.25 -10.834,-27.084 -10.834,-81.25c0,-55.417 0.417,-59.584 12.084,-84.167c15,-33.333 43.333,-60 72.916,-70c17.084,-5.417 32.084,-6.667 66.25,-5.417c39.584,1.25 46.667,2.5 63.75,12.5c18.334,10.834 40,32.084 48.75,47.5c3.334,6.25 8.334,5.417 49.167,-10.416c25,-9.584 46.667,-19.167 48.75,-20.834c4.583,-4.583 -35.417,-59.583 -58.333,-79.166c-22.5,-19.167 -63.334,-41.667 -97.084,-52.917c-16.25,-5.417 -35,-7.917 -64.583,-7.917c-71.25,0 -132.917,25 -181.667,72.917c-32.5,32.083 -58.75,74.583 -73.75,119.583c-15.416,46.667 -15.416,106.25 0.417,153.334c45,135.833 178.333,217.5 305.833,187.5Z" style="fill:#fff;fill-rule:nonzero;"></path><path d="M875,637.083l0,-629.166l225,-0l0,200l100,-0l0,-200l220.833,-0l0,629.166l-220.833,0l0,-220.833l-100,0l0,220.833l-225,0Zm170.833,-54.166l0,-220.834l204.167,0l0,220.834l120.833,-0l0,-520.834l-120.833,0l0,200l-204.167,0l0,-200l-116.666,0l-0,520.834l116.666,-0Z" style="fill:#fff;fill-rule:nonzero;"></path><path d="M1462.5,637.083l0,-629.166l225,-0l0,629.166l-225,0Zm175,-54.166l0,-520.834l-125,0l0,520.834l125,-0Z" style="fill:#fff;fill-rule:nonzero;"></path><path d="M2375,637.083l0,-629.166l225,-0l0,200l100,-0l0,-200l220.833,-0l0,629.166l-220.833,0l0,-220.833l-100,0l0,220.833l-225,0Zm170.833,-54.166l0,-220.834l204.167,0l0,220.834l116.667,-0l-0,-520.834l-116.667,0l0,200l-204.167,0l0,-200l-116.666,0l-0,520.834l116.666,-0Z" style="fill:#fff;fill-rule:nonzero;"></path><path d="M3950,637.083l0,-629.166l229.167,-0l-0,629.166l-229.167,0Zm175,-54.166l0,-520.834l-120.833,0l-0,520.834l120.833,-0Z" style="fill:#fff;fill-rule:nonzero;"></path><path d="M4866.67,637.083l-0,-629.166l220.833,-0l0,200l100,-0l0,-200l225,-0l0,629.166l-225,0l0,-220.833l-100,0l0,220.833l-220.833,0Zm170.833,-54.166l0,-220.834l204.167,0l-0,220.834l116.666,-0l0,-520.834l-116.666,0l-0,200l-204.167,0l0,-200l-116.667,0l0,520.834l116.667,-0Z" style="fill:#fff;fill-rule:nonzero;"></path><path d="M5753.75,628.75c-117.917,-18.75 -213.333,-102.917 -250.417,-220.833c-13.75,-45 -13.75,-125.834 0,-170.834c33.75,-107.5 115,-186.666 221.667,-215.416c41.667,-11.25 117.917,-10 158.333,2.5c56.667,17.5 93.75,40 135.834,81.666c31.666,31.667 40.416,43.75 57.083,77.084c24.583,50 32.917,86.25 32.917,139.583c-0,120 -64.167,222.5 -174.584,278.333c-48.333,24.584 -126.25,36.667 -180.833,27.917Zm102.5,-61.25c104.583,-25.833 190,-126.25 196.667,-232.5c2.5,-39.583 -4.584,-72.917 -25.417,-116.667c-40,-85 -135,-148.333 -223.333,-149.166c-36.25,-0.417 -65.834,7.083 -108.334,27.083c-49.583,23.75 -95.416,69.583 -120.416,120c-16.667,34.167 -29.584,80.417 -29.584,106.25c0,50 32.084,124.583 71.667,166.667c43.333,46.666 90.417,72.5 151.25,83.333c31.667,5.417 49.583,4.583 87.5,-5Z" style="fill:#fff;fill-rule:nonzero;"></path><path d="M5734.17,547.917l-15.417,-14.167l0,-72.5l15.417,-14.167l15.833,-14.166l-25,-0l0,-136.667l22.083,-7.083c33.334,-10.834 67.917,-30.834 74.167,-42.084c6.667,-13.333 2.083,-21.666 -17.5,-32.083c-12.083,-6.25 -20.417,-7.083 -55,-4.583l-40.833,2.916l2.916,-53.75c1.25,-29.583 3.75,-55 5.417,-56.666c5.417,-6.25 70,-12.5 101.667,-10c60,5 102.916,30 122.083,70.833c12.5,26.667 14.167,85 2.917,117.5c-9.167,27.5 -44.584,62.5 -81.25,80.833l-28.334,13.75l0,47.917l-30,4.167c-26.666,3.333 -27.916,3.75 -11.25,4.583c36.25,0.833 57.5,25 57.5,65c0,25.417 -8.333,44.583 -24.166,55c-11.667,7.917 -19.584,9.583 -45,9.583c-29.167,0 -31.25,-0.833 -46.25,-14.166Z" style="fill:#fff;fill-rule:nonzero;"></path><path d="M5480,95.417c-22.083,-13.75 -28.333,-41.25 -13.75,-65c8.75,-14.584 32.5,-25 47.917,-20.834c27.5,7.084 44.583,37.917 34.166,62.917c-12.5,29.167 -41.666,39.167 -68.333,22.917Zm50.417,-8.334c14.166,-11.25 18.333,-32.5 9.583,-49.166c-8.333,-15.834 -18.333,-21.667 -37.083,-21.667c-32.5,0 -49.584,45.417 -25.834,68.75c12.917,13.333 37.917,14.167 53.334,2.083Z" style="fill:#fff;fill-rule:nonzero;"></path><path d="M5487.5,55.417l0,-27.084l12.917,1.25c17.083,1.667 24.583,12.5 17.083,24.584c-4.583,7.083 -4.583,10.416 1.25,18.75c9.167,14.166 -1.25,13.333 -13.333,-1.25l-9.167,-11.667l-0.417,11.667c0,6.25 -1.666,11.25 -4.166,11.25c-2.5,-0 -4.167,-12.084 -4.167,-27.5Zm22.917,-10c-0,-3.334 -3.334,-6.667 -7.084,-7.5c-5.416,-0.834 -7.5,1.25 -7.5,7.5c0,6.25 2.084,8.333 7.5,7.5c3.75,-0.834 7.084,-4.167 7.084,-7.5Z" style="fill:#fff;fill-rule:nonzero;"></path></g><g><path d="M183.333,771.667c0,-2.5 7.5,-5.417 16.667,-7.084c9.167,-1.25 42.083,-10 72.5,-18.75c97.5,-28.75 175.833,-37.916 287.917,-34.166l45.833,1.25l-20.833,5.416c-11.25,2.917 -36.667,5.834 -56.25,5.834c-68.75,0.833 -130.834,9.166 -208.334,27.5c-79.583,19.166 -137.5,27.5 -137.5,20Z" style="fill:#fff;fill-opacity:0.59;fill-rule:nonzero;"></path><path d="M116.667,732.917c-47.917,-10 -65.834,-30 -69.584,-76.667c-2.5,-31.25 5.417,-51.667 26.667,-67.917c7.5,-5.833 14.583,-10 15.417,-9.166c0.833,0.833 5.416,10.833 10,21.666c12.083,27.084 42.916,72.917 62.916,92.084l16.25,15.833l2.084,-53.75c1.25,-42.5 3.75,-59.167 12.083,-82.917c17.083,-47.083 22.083,-54.583 39.583,-58.75l15.834,-3.75l13.75,27.5c27.083,52.5 92.5,145 97.916,137.084c0.417,-0.834 10.417,-23.334 21.25,-49.584c11.25,-26.25 30.417,-67.916 42.917,-92.5c18.333,-37.083 23.75,-45 31.667,-45c20,0 63.333,9.167 66.25,13.75c7.083,10.834 36.25,90.417 43.333,118.75c4.167,16.25 8.75,30 10.417,30c3.75,0 52.083,-68.75 65.416,-92.916l11.25,-20.417l14.584,16.667c15.833,17.5 25,40.833 25,62.5c-0,17.5 -19.584,39.166 -46.667,51.25c-20.833,9.583 -26.25,10 -92.917,9.166c-118.333,-1.666 -185.416,6.667 -296.666,38.334c-69.167,20 -107.917,25 -138.75,18.75Z" style="fill:#fff;fill-opacity:0.59;fill-rule:nonzero;"></path><path d="M145,628.333c-15.833,-26.666 -28.333,-59.583 -24.583,-65.416c2.083,-3.75 54.583,-30 60,-30c0.833,-0 -2.917,17.5 -7.917,38.75c-5.417,20.833 -11.25,46.666 -12.917,57.083l-3.333,18.75l-11.25,-19.167Z" style="fill:#fff;fill-opacity:0.59;fill-rule:nonzero;"></path><path d="M324.167,586.25c-24.584,-41.25 -46.25,-82.5 -44.167,-84.583c2.083,-2.084 103.333,-14.584 118.75,-14.584c7.917,0 13.75,1.667 12.917,3.334c-13.75,33.75 -60,134.166 -61.667,134.166c-1.25,0 -12.917,-17.5 -25.833,-38.333Z" style="fill:#fff;fill-opacity:0.59;fill-rule:nonzero;"></path><path d="M1971.67,601.667c-77.5,-17.5 -145.417,-71.667 -182.084,-145.834c-34.583,-70.833 -40,-147.916 -14.583,-222.916c39.167,-117.084 127.5,-184.584 250,-190.417c83.75,-4.167 145.417,18.75 199.583,73.333c27.5,27.5 58.75,73.75 58.75,86.667c0,2.083 -28.333,14.583 -62.916,27.917c-50.834,20 -63.75,23.333 -66.667,18.75c-2.083,-3.334 -3.75,-7.084 -3.75,-9.167c0,-7.083 -36.25,-41.667 -52.083,-49.583c-23.75,-12.5 -73.334,-15 -102.5,-5.417c-30.417,10.417 -61.667,41.667 -74.167,75c-32.083,85 0.833,178.75 71.25,205c27.5,10 75.833,8.75 102.083,-2.917c19.167,-8.333 55.417,-40 55.417,-48.75c0.417,-14.583 7.5,-14.166 69.167,3.334c34.166,9.583 63.75,19.166 65.833,20.833c6.25,5.417 -30.417,63.75 -56.667,91.25c-31.666,32.5 -61.25,51.667 -99.583,65.833c-25.833,9.167 -39.167,10.834 -80.833,12.084c-32.084,0.416 -59.584,-1.25 -76.25,-5Z" style="fill:#fff;fill-opacity:0.59;fill-rule:nonzero;"></path><path d="M4455,599.583c-89.583,-23.75 -160,-91.666 -191.25,-185.416c-10,-29.584 -11.25,-39.584 -11.25,-89.584c0,-49.583 1.25,-60 10.833,-88.75c22.5,-67.5 73.75,-132.083 126.25,-160c47.084,-24.583 81.25,-32.5 141.667,-32.5c60.417,0 77.917,4.167 129.167,30.834c35.416,18.333 77.083,58.75 99.166,96.25c8.334,15 15.417,28.75 15.417,31.25c-0,6.25 -126.25,54.166 -128.333,48.75c-3.334,-10.417 -26.25,-38.334 -40,-48.75c-21.25,-16.25 -42.084,-22.5 -74.167,-22.917c-55,0 -94.583,25.833 -118.75,77.083c-10.417,22.5 -11.667,29.167 -11.667,70.834c0,40.833 1.25,48.333 10.834,68.75c15,31.666 33.333,51.666 60.416,65c31.25,15.416 80.417,16.25 112.917,2.083c22.083,-9.583 47.5,-33.75 56.25,-52.917c2.5,-5.416 5.833,-10 7.083,-10c5,0 126.25,36.667 127.917,38.75c1.25,1.25 -0.833,8.334 -5,16.25c-37.5,73.334 -106.667,130.417 -177.917,147.084c-36.666,8.75 -102.083,7.5 -139.583,-2.084Z" style="fill:#fff;fill-opacity:0.59;fill-rule:nonzero;"></path><path d="M916.667,595.417l-0,-545.834l141.666,0l0,200l179.167,0l0,-200l145.833,0l0,545.834l-145.833,-0l0,-220.834l-179.167,0l0,220.834l-141.666,-0Z" style="fill:#fff;fill-opacity:0.59;fill-rule:nonzero;"></path><path d="M1500,595.417l0,-545.834l150,0l0,545.834l-150,-0Z" style="fill:#fff;fill-opacity:0.59;fill-rule:nonzero;"></path><path d="M2416.67,595.417l-0,-545.834l141.666,0l0,200l179.167,0l0,-200l141.667,0l-0,545.834l-141.667,-0l0,-220.834l-179.167,0l0,220.834l-141.666,-0Z" style="fill:#fff;fill-opacity:0.59;fill-rule:nonzero;"></path><path d="M3991.67,595.417l-0,-545.834l145.833,0l0,545.834l-145.833,-0Z" style="fill:#fff;fill-opacity:0.59;fill-rule:nonzero;"></path><path d="M4908.33,595.417l0,-545.834l141.667,0l0,200l179.167,0l-0,-200l141.666,0l0,545.834l-141.666,-0l-0,-220.834l-179.167,0l0,220.834l-141.667,-0Z" style="fill:#fff;fill-opacity:0.59;fill-rule:nonzero;"></path><path d="M5756.25,585.417c-62.5,-12.084 -108.333,-37.5 -151.25,-83.75c-43.75,-46.25 -71.667,-116.667 -71.667,-179.167c0,-97.917 62.5,-197.083 150,-238.75c19.584,-9.167 45.834,-19.167 58.334,-22.083c28.333,-7.084 95.833,-7.084 120.833,-0c100.417,27.916 173.333,101.666 198.333,200.416c10,39.584 6.25,109.167 -7.5,146.667c-46.666,125 -173.75,200.417 -297.083,176.667Zm56.667,-45.417c42.916,-28.75 20.416,-94.583 -32.5,-94.583c-14.584,-0 -20.834,2.5 -33.75,14.166c-14.167,13.334 -15.417,15.834 -15.417,37.917c0,22.083 1.25,24.583 15.417,37.917c19.583,17.916 44.166,19.583 66.25,4.583Zm-28.75,-124.167l36.666,-5l0,-47.5l28.334,-13.75c36.666,-18.333 72.083,-53.333 81.25,-80.833c27.5,-80.833 -21.667,-151.25 -113.75,-162.5c-22.917,-2.917 -82.917,3.333 -87.917,9.167c-1.667,1.666 -3.75,21.25 -4.583,43.333l-2.084,40.417l36.25,-2.5c41.667,-2.917 62.5,2.5 75,18.333c23.75,30.417 -4.583,64.167 -73.75,86.667l-22.083,7.083l0,55.833c0,40 1.25,55.834 5,55.834c2.5,-0 21.25,-2.084 41.667,-4.584Z" style="fill:#fff;fill-opacity:0.59;fill-rule:nonzero;"></path><path d="M570.833,547.083c-7.5,-21.666 -12.5,-40.416 -12.083,-40.833c2.917,-2.5 62.083,15.417 62.083,18.75c0,3.333 -33.333,62.083 -35.416,62.083c-0.834,0 -7.5,-17.916 -14.584,-40Z" style="fill:#fff;fill-opacity:0.59;fill-rule:nonzero;"></path><path d="M3411.25,553.333c-74.167,-177.916 -207.083,-499.583 -207.083,-501.25c-0,-1.25 32.5,-2.5 72.083,-2.5l71.667,0.417l53.75,130c29.583,71.25 55,131.667 56.666,133.333c2.917,3.334 10.834,-15.416 65,-147.916c10.834,-27.084 20.834,-49.167 22.5,-49.167c1.25,0 19.167,45 39.584,100c20.416,55 38.75,98.333 40.416,96.667c1.667,-1.667 27.084,-60.834 56.25,-132.084l53.75,-129.166l67.5,-1.25c44.584,-0.834 67.5,0.416 67.5,3.333c0,5.417 -212.083,505 -215.833,509.167c-1.667,1.666 -28.333,-43.75 -59.167,-100.834c-30.833,-57.083 -57.5,-104.166 -59.166,-104.166c-1.667,-0 -10.834,14.583 -20.417,32.5c-47.083,86.25 -89.167,162.083 -93.75,169.166c-5,7.084 -5.833,6.667 -11.25,-6.25Z" style="fill:#fff;fill-opacity:0.59;fill-rule:nonzero;"></path><path d="M583.333,475.833l-35.416,-10.416l-29.167,-78.334c-15.833,-43.333 -30.417,-77.916 -31.667,-76.666c-1.25,0.833 -15.416,30.833 -30.833,67.083c-15.417,36.25 -30,68.333 -32.5,71.25c-2.5,2.917 -13.75,5 -27.917,5c-13.333,0 -47.083,2.917 -75,6.667c-27.916,3.75 -52.5,5 -54.583,2.916c-1.667,-1.666 -49.167,-96.666 -105.417,-210.833l-102.083,-207.083l110.833,0.833l110.834,1.25l52.916,116.667c29.167,63.75 55,118.75 56.667,121.666c2.5,3.75 18.333,-22.916 49.583,-84.166c25,-49.167 47.084,-89.584 49.167,-89.584c1.667,0 6.667,7.917 10.833,17.917c4.584,9.583 23.75,50 42.917,89.583l35.417,72.084l99.166,-244.167l61.667,-1.25l62.083,-1.25l-3.333,9.583c-2.083,7.084 -142.917,376.25 -162.083,425.417c-3.75,8.75 -8.334,8.75 -52.084,-4.167Z" style="fill:#fff;fill-opacity:0.59;fill-rule:nonzero;"></path></g></svg>