<svg xmlns="http://www.w3.org/2000/svg" xmlns:xlink="http://www.w3.org/1999/xlink" xmlns:serif="http://www.serif.com/" width="100%" height="100%" viewBox="0 0 3316 1007" xml:space="preserve" style="fill-rule:evenodd;clip-rule:evenodd;stroke-linejoin:round;stroke-miterlimit:2;"><g><g><path d="M474.666,1005.21c-0.833,-0.833 -8.958,-1.875 -18.125,-2.291c-21.875,-0.834 -48.958,-5.625 -82.5,-14.167c-64.583,-16.667 -132.291,-51.042 -185.833,-94.375c-10.625,-8.542 -19.375,-16.042 -19.375,-16.458c-0,-0.417 3.333,-0.834 7.292,-0.834c6.458,0 7.291,0.625 7.291,5.209c0,4.375 1.042,5.208 6.25,5.208c4.167,0 6.25,1.042 6.25,3.125c0,1.875 1.875,3.125 4.375,3.125c2.5,0 4.792,1.667 5.417,4.167c0.625,2.291 2.917,4.166 5,4.166c2.292,0 3.958,1.042 3.958,2.084c0,1.25 1.459,2.083 3.125,2.083c1.667,0 3.125,1.042 3.125,2.083c0,1.25 1.459,2.084 3.125,2.084c1.667,-0 3.125,1.041 3.125,2.083c0,1.25 1.459,2.083 3.125,2.083c1.667,0 3.125,1.042 3.125,2.084c0,1.25 1.459,2.083 3.125,2.083c1.667,0 3.125,1.042 3.125,2.083c0,1.25 1.25,2.084 2.917,2.084c1.667,-0 4.375,1.25 5.833,2.708c3.75,3.75 10,5.833 10,3.542c0,-1.25 -1.458,-2.084 -3.125,-2.084c-1.666,0 -3.125,-1.458 -3.125,-3.125c0,-1.666 -1.875,-3.125 -4.166,-3.125c-2.292,0 -4.167,-0.833 -4.167,-2.083c-0,-1.042 -1.458,-2.083 -3.125,-2.083c-1.667,-0 -3.125,-1.459 -3.125,-3.125c-0,-1.667 -1.875,-3.125 -4.167,-3.125c-2.291,-0 -4.166,-1.459 -4.166,-3.125c-0,-1.667 -1.875,-3.125 -4.167,-3.125c-2.708,-0 -4.167,-1.459 -4.167,-4.167c0,-3.125 -1.458,-4.167 -5.208,-4.167c-4.375,0 -5.208,-1.041 -5.208,-6.25c-0,-5.625 -0.625,-6.25 -6.875,-6.25c-8.75,0 -14.584,-5.833 -13.542,-13.541c0.625,-5.625 0.833,-5.417 16.25,8.333c20.833,18.75 55,43.333 79.792,57.292c11.041,6.25 20.208,12.083 20.208,12.916c-0,0.834 -2.5,1.667 -5.625,1.667l-5.833,0.208l5.208,2.917c6.875,3.958 7.917,3.75 8.75,-1.042c0.625,-3.75 1.875,-3.541 18.333,3.959c65,29.583 136.25,43.333 213.125,41.458c21.459,-0.417 39.584,-0.208 40,0.625c2.709,4.167 -101.666,11.25 -105.625,7.083Zm-205.833,-69.583c-0,-1.042 -1.875,-2.292 -4.167,-2.917c-2.708,-0.625 -4.166,0 -4.166,1.875c-0,1.667 1.875,2.917 4.166,2.917c2.292,0 4.167,-0.833 4.167,-1.875Z" style="fill:#fff;fill-rule:nonzero;"></path><path d="M148,858.333c-17.5,-17.5 -17.709,-17.708 -11.667,-18.333c5,-0.625 8.125,1.25 18.333,11.667c10.417,10.208 12.292,13.333 11.667,18.333c-0.625,6.042 -0.833,5.833 -18.333,-11.667Z" style="fill:#fff;fill-rule:nonzero;"></path><path d="M161.958,848.542c-0.833,-0.625 -1.458,-4.375 -1.458,-8.125c-0,-6.25 -0.625,-6.875 -6.667,-7.5c-5.208,-0.417 -7.083,-1.667 -7.5,-5c-0.417,-2.5 -2.5,-5 -4.792,-5.625c-2.291,-0.625 -3.958,-2.917 -3.958,-5.417c-0,-2.5 -1.25,-4.375 -3.125,-4.375c-2.083,0 -3.125,-2.292 -3.125,-7.292c-0,-6.458 -0.625,-7.291 -5.208,-7.291c-3.334,-0 -5.209,-1.25 -5.209,-3.125c0,-1.667 -0.833,-3.125 -2.083,-3.125c-1.042,-0 -2.083,-1.459 -2.083,-3.125c-0,-1.667 -0.834,-3.125 -2.084,-3.125c-1.041,-0 -2.083,-2.292 -2.083,-5.209c-0,-3.333 -1.25,-5.208 -3.125,-5.208c-1.667,0 -3.125,-1.042 -3.125,-2.292c-0,-1.25 -1.458,-3.541 -3.125,-5.208c-1.667,-1.875 -3.125,-5.417 -3.125,-8.333c-0,-2.709 -1.25,-5 -2.708,-5c-3.75,-0 -16.042,-25.834 -16.042,-33.334c-0,-3.958 -1.042,-6.25 -2.917,-6.25c-3.333,0 -11.666,-20.833 -11.666,-29.583c-0,-10.833 4.583,-5.417 13.541,16.25c21.25,51.458 41.459,83.333 90.417,142.708l5,6.042l-6.25,0c-3.333,0 -6.875,-0.625 -7.5,-1.458Z" style="fill:#fff;fill-rule:nonzero;"></path><path d="M115.5,822.917c-6.875,-8.542 -16.667,-21.25 -21.667,-28.125c-10,-13.334 -35.417,-55 -35.417,-57.709c0,-0.833 2.292,-1.666 5,-1.666c5,-0 7.5,3.333 7.5,10.625c0,2.083 1.459,3.958 3.125,3.958c1.667,0 3.542,2.292 4.375,5.208c0.625,2.917 2.084,5.209 3.125,5.209c1.042,-0 1.875,2.291 1.875,5.208c0,3.333 1.25,5.208 3.125,5.208c1.667,0 3.125,1.459 3.125,3.125c0,1.667 1.042,3.125 2.084,3.125c1.25,0 2.083,1.875 2.083,4.167c-0,2.292 1.458,4.167 3.125,4.167c1.667,-0 3.125,1.458 3.125,3.125c-0,1.666 1.042,3.125 2.083,3.125c1.25,-0 2.084,1.875 2.084,4.166c-0,2.292 1.458,4.167 3.125,4.167c1.875,0 3.125,1.875 3.125,5.208c-0,3.75 1.041,5.209 4.166,5.209c3.125,-0 4.167,1.458 4.167,5.208c-0,3.75 1.042,5.208 4.167,5.208c5,0 6.875,3.542 5.833,11.875c-0.625,5.625 -1.25,5.209 -13.333,-9.791Z" style="fill:#fff;fill-rule:nonzero;"></path><path d="M41.541,702.708c-11.041,-24.583 -24.583,-67.916 -31.041,-100c-7.292,-36.25 -7.292,-36.041 -2.5,-36.041c2.916,-0 4.583,5.208 9.583,29.791c3.333,16.25 6.458,32.917 7.083,36.875c0.417,3.959 1.667,7.709 2.5,8.334c1.875,1.458 10.417,26.875 10.417,31.458c-0,2.083 1.042,3.958 2.292,4.375c1.25,0.417 2.708,5.208 3.333,10.625c0.625,5.833 2.292,9.792 3.75,9.792c3.333,-0 5.208,4.583 5.208,12.708c0,9.792 -3.958,6.875 -10.625,-7.917Z" style="fill:#fff;fill-rule:nonzero;"></path><path d="M60.5,669.792c-0,-3.959 -0.834,-7.292 -1.875,-7.292c-3.542,0 -18.959,-73.542 -18.959,-91.042c0,-7.5 5.834,-5.833 7.084,2.084c0.625,3.541 2.708,15.625 4.375,26.458c3.125,18.75 13.125,60 17.708,71.667c1.875,5 1.458,5.416 -3.125,5.416c-4.583,0 -5.208,-0.833 -5.208,-7.291Z" style="fill:#fff;fill-rule:nonzero;"></path><path d="M389.041,620.833c-92.708,-10.625 -167.916,-71.666 -220.208,-178.125c-13.542,-27.5 -33.333,-81.875 -36.667,-99.791l-1.458,-8.125l31.875,1.25c194.167,8.541 308.75,93.958 319.792,238.541c1.041,12.709 0.833,19.167 -0.625,19.167c-1.042,0 -8.125,-8.125 -15.417,-18.125c-47.917,-65.417 -108.125,-119.583 -156.875,-140.833c-7.917,-3.334 -8.125,-3.334 -3.125,0.208c22.917,16.25 34.167,26.042 61.458,53.333c37.084,37.292 103.125,118.75 103.125,127.292c0,1.458 -3.958,3.125 -8.75,3.958c-16.458,2.292 -56.666,3.125 -73.125,1.25Z" style="fill:#fff;fill-rule:nonzero;"></path><path d="M3.416,560c-2.291,-8.75 -1.458,-12.083 2.917,-12.083c3.542,-0 4.167,1.458 4.167,8.333c-0,9.375 -4.792,11.875 -7.084,3.75Z" style="fill:#fff;fill-rule:nonzero;"></path><path d="M37.583,551.042c-0,-10.209 4.792,-13.334 7.083,-4.584c2.5,9.167 1.459,13.959 -2.916,13.959c-3.542,-0 -4.167,-1.459 -4.167,-9.375Z" style="fill:#fff;fill-rule:nonzero;"></path><path d="M1.333,532.917c-2.5,-9.375 -1.458,-14.167 2.917,-14.167c3.541,0 4.166,1.458 4.166,9.375c0,10.208 -4.791,13.333 -7.083,4.792Z" style="fill:#fff;fill-rule:nonzero;"></path><path d="M37.583,486.458c-0,-7.916 0.625,-9.375 4.167,-9.375c4.375,0 5.416,4.792 2.916,14.167c-2.291,8.542 -7.083,5.417 -7.083,-4.792Z" style="fill:#fff;fill-rule:nonzero;"></path><path d="M0.083,479.792c-0,-7.084 2.5,-13.125 5.417,-13.125c2.083,-0 2.916,2.708 2.916,8.333c0,6.875 -0.625,8.333 -4.166,8.333c-2.5,0 -4.167,-1.458 -4.167,-3.541Z" style="fill:#fff;fill-rule:nonzero;"></path><path d="M40.708,456.875c1.875,-18.542 7.917,-50.208 13.542,-71.25c3.75,-13.542 5.416,-16.875 8.541,-16.875c5,0 5,0.417 -1.25,22.292c-4.583,15.416 -8.75,36.666 -14.791,73.125c-0.625,4.166 -2.292,6.666 -4.375,6.666c-2.709,0 -2.917,-2.083 -1.667,-13.958Z" style="fill:#fff;fill-rule:nonzero;"></path><path d="M2.166,453.75c0,-8.125 2.5,-14.167 5.417,-14.167c2.083,0 2.917,2.709 2.917,9.375c-0,7.917 -0.625,9.375 -4.167,9.375c-2.917,0 -4.167,-1.458 -4.167,-4.583Z" style="fill:#fff;fill-rule:nonzero;"></path><path d="M4.25,435.417c-0,-1.042 1.875,-11.667 4.166,-23.334c2.292,-11.875 4.167,-21.666 4.167,-21.875c-0,-0.416 1.458,-0.625 3.125,-0.625c3.958,0 3.958,2.917 -0.417,27.709c-2.916,16.875 -3.958,20.208 -7.291,20.208c-2.084,0 -3.75,-0.833 -3.75,-2.083Z" style="fill:#fff;fill-rule:nonzero;"></path><path d="M14.666,383.958c0,-7.708 11.25,-40.208 13.959,-40.208c3.958,0 3.333,6.875 -1.875,26.458c-3.75,13.334 -5.625,17.292 -8.334,17.292c-2.083,0 -3.75,-1.458 -3.75,-3.542Z" style="fill:#fff;fill-rule:nonzero;"></path><path d="M65.291,355c0.625,-5.625 2.084,-10.417 3.334,-10.833c1.25,-0.417 2.291,-3.125 2.291,-5.834c0,-2.708 1.042,-5 2.084,-5c1.25,0 2.083,-2.083 2.083,-4.583c-0,-6.875 2.917,-10.417 7.708,-9.583c3.959,0.625 3.75,1.875 -4.583,22.291c-9.792,24.584 -14.792,29.792 -12.917,13.542Z" style="fill:#fff;fill-rule:nonzero;"></path><path d="M32.166,325.625c5.625,-15.833 13.542,-31.875 15.625,-31.875c3.542,0 2.709,13.958 -0.833,17.5c-1.667,1.667 -3.125,4.167 -3.125,5.625c-0,1.458 -1.042,5.833 -2.5,9.583c-1.875,5 -3.75,6.875 -7.292,6.875c-4.375,0 -4.583,-0.208 -1.875,-7.708Z" style="fill:#fff;fill-rule:nonzero;"></path><path d="M85.5,308.542c-0,-9.375 2.083,-12.709 7.5,-12.709c6.041,0 6.041,0.209 0.833,10.417c-5,9.792 -8.333,10.625 -8.333,2.292Z" style="fill:#fff;fill-rule:nonzero;"></path><path d="M50.708,282.708c12.292,-29.375 51.042,-85.833 82.292,-120.208l8.541,-9.375l0.209,7.5c-0,8.75 -2.917,12.292 -10.834,12.292c-5.208,-0 -5.833,0.625 -5.833,7.291c-0,5.834 -0.833,7.292 -4.167,7.292c-3.125,-0 -4.166,1.458 -4.166,5.208c-0,3.75 -1.042,5.209 -4.167,5.209c-3.125,-0 -4.167,1.458 -4.167,5.208c0,3.333 -1.25,5.208 -3.125,5.208c-1.666,0 -3.125,1.875 -3.125,4.167c0,2.292 -0.833,4.167 -2.083,4.167c-1.042,-0 -2.083,1.458 -2.083,3.125c-0,1.666 -1.875,3.125 -4.167,3.125c-3.333,-0 -4.167,1.458 -4.167,6.25c0,4.791 -0.833,6.25 -4.166,6.25c-3.334,-0 -4.167,1.458 -4.167,6.25c-0,4.166 -1.042,6.25 -3.125,6.25c-1.667,-0 -3.125,1.875 -3.125,3.958c-0,6.875 -2.292,10.625 -6.458,10.625c-2.917,0 -3.959,1.458 -3.959,6.25c0,10 -6.25,20.833 -11.875,20.833c-4.583,0 -4.791,-0.208 -2.083,-6.875Z" style="fill:#fff;fill-rule:nonzero;"></path><path d="M100.083,280.208c-0,-5 1.042,-7.291 3.125,-7.291c1.875,-0 3.125,-1.875 3.125,-5.209c-0,-4.166 1.042,-5.208 5.208,-5.208c2.917,0 5.209,0.625 5.209,1.25c-0,2.5 -13.542,23.75 -15,23.75c-1.042,0 -1.667,-3.333 -1.667,-7.292Z" style="fill:#fff;fill-rule:nonzero;"></path><path d="M127.166,239.167c0,-5.625 0.834,-7.917 3.125,-7.917c1.667,0 3.125,-1.875 3.125,-4.167c0,-2.291 1.459,-4.166 3.125,-4.166c1.667,-0 3.125,-1.875 3.125,-4.167c0,-2.708 1.459,-4.167 3.959,-4.167c2.916,0 4.375,-1.666 4.791,-5.625c0.417,-4.791 1.667,-6.041 7.5,-6.458c6.042,-0.625 6.667,-1.25 6.667,-7.5c-0,-7.083 7.5,-15.833 13.542,-15.833c1.666,-0 3.125,-1.459 3.125,-3.125c-0,-1.875 2.916,-6.459 6.666,-10.417c4.792,-5.417 8.125,-7.292 13.334,-7.292c6.25,0 6.875,-0.625 7.5,-6.666c0.416,-5.834 1.666,-7.084 6.458,-7.5c3.958,-0.417 5.625,-1.875 5.625,-4.792c-0,-3.125 1.458,-3.958 7.292,-3.958c3.958,-0 7.291,0.416 7.291,0.833c0,0.417 -6.875,6.25 -15,13.125c-21.666,17.917 -53.125,49.792 -68.541,69.583c-7.292,9.375 -15.417,19.584 -17.917,22.5l-4.583,5.417l-0.209,-7.708Z" style="fill:#fff;fill-rule:nonzero;"></path><path d="M163.625,132.083c19.791,-18.125 59.375,-47.5 82.708,-61.25c11.667,-6.875 22.083,-12.5 22.917,-12.5c0.833,0 1.666,2.292 1.666,4.792c0,5.208 -6.875,9.792 -14.583,9.792c-2.292,-0 -4.167,1.458 -4.167,3.125c0,1.875 -1.875,3.125 -5.208,3.125c-3.333,-0 -5.208,1.25 -5.208,3.125c-0,1.666 -1.459,3.125 -3.125,3.125c-1.667,-0 -3.125,1.041 -3.125,2.083c-0,1.25 -1.459,2.083 -3.125,2.083c-1.667,0 -3.125,1.042 -3.125,2.084c-0,1.25 -1.459,2.083 -3.125,2.083c-1.667,0 -3.125,1.042 -3.125,2.083c-0,1.25 -1.875,2.084 -4.167,2.084c-2.292,-0 -4.167,1.458 -4.167,3.125c0,1.666 -1.875,3.125 -4.166,3.125c-2.292,-0 -4.167,1.458 -4.167,3.125c-0,1.666 -1.875,3.125 -4.167,3.125c-2.291,-0 -4.166,1.458 -4.166,3.125c-0,1.875 -1.875,3.125 -5,3.125c-3.75,-0 -5.209,1.25 -5.834,4.791c-0.416,3.75 -2.083,4.792 -8.333,5.209c-7.083,0.625 -7.917,1.25 -7.917,6.458c0,7.708 -3.541,10.625 -12.291,10.625l-7.5,-0.208l12.5,-11.459Z" style="fill:#fff;fill-rule:nonzero;"></path><path d="M803.208,128.125c-6.875,-5 -21.667,-14.583 -32.708,-21.25c-11.25,-6.667 -20.417,-12.708 -20.417,-13.542c-0,-1.875 10.833,-2.083 15.417,-0.416c1.875,0.625 3.333,2.5 3.333,4.166c-0,1.667 2.083,2.917 5.208,2.917c3.334,0 5.209,1.25 5.209,3.125c-0,1.875 1.875,3.125 5.208,3.125c2.917,0 5.208,1.042 5.208,2.083c0,1.25 1.459,2.084 3.125,2.084c1.667,-0 3.125,1.041 3.125,2.083c0,1.25 1.459,2.083 3.125,2.083c1.667,0 3.125,1.042 3.125,2.084c0,1.25 1.459,2.083 3.125,2.083c1.875,0 3.125,1.875 3.125,5.208c0,4.584 0.834,5.209 7.292,5.209c5.833,-0 7.292,0.833 7.292,4.166c-0,6.459 -5.834,4.792 -19.792,-5.208Z" style="fill:#fff;fill-rule:nonzero;"></path><path d="M235.5,128.958c-0,-4.583 1.041,-6.041 4.166,-6.041c2.292,-0 4.167,-1.459 4.167,-3.125c-0,-1.667 1.458,-3.125 3.125,-3.125c1.667,-0 3.125,-0.834 3.125,-2.084c-0,-1.041 1.458,-2.083 3.125,-2.083c1.667,0 3.125,-0.833 3.125,-2.083c-0,-1.042 1.458,-2.084 3.125,-2.084c1.667,0 3.125,-0.833 3.125,-1.875c-0,-1.041 2.083,-2.708 4.583,-3.541c2.5,-0.625 5.834,-2.709 7.5,-4.167c1.459,-1.667 5,-2.917 7.917,-2.917c2.708,0 5,-1.25 5,-2.708c-0,-3.75 30,-18.125 37.5,-18.125c4.167,-0 6.25,-1.042 6.25,-3.125c-0,-1.875 1.875,-3.125 5.208,-3.125c2.917,-0 5.209,-0.833 5.209,-2.083c-0,-1.042 3.333,-2.084 7.291,-2.084c10,0 9.167,3.75 -1.458,7.917c-20.417,7.708 -66.875,32.5 -88.75,47.083l-23.333,15.417l-0,-6.042Z" style="fill:#fff;fill-rule:nonzero;"></path><path d="M831.333,129.375c-0,-3.125 -1.667,-4.375 -6.667,-4.792c-6.041,-0.625 -6.875,-1.458 -7.5,-7.708c-0.625,-6.458 -0.416,-6.667 3.334,-4.167c9.791,7.084 19.166,16.667 18.125,18.542c-2.292,3.542 -7.292,2.292 -7.292,-1.875Z" style="fill:#fff;fill-rule:nonzero;"></path><path d="M798,103.125c-0,-4.583 -0.834,-5.208 -7.292,-5.208c-3.958,-0 -7.292,-0.834 -7.292,-2.084c0,-1.041 -1.458,-2.083 -3.125,-2.083c-1.666,0 -3.125,-0.833 -3.125,-2.083c0,-1.042 -1.458,-2.084 -3.125,-2.084c-1.666,0 -3.125,-0.833 -3.125,-2.083c0,-1.042 -1.458,-2.083 -3.125,-2.083c-1.666,-0 -3.125,-1.459 -3.125,-3.125c0,-1.875 -1.875,-3.125 -5.208,-3.125c-3.333,-0 -5.208,-1.25 -5.208,-3.125c-0,-1.875 -1.875,-3.125 -5.209,-3.125c-4.166,-0 -5.208,-1.042 -5.208,-5.209c-0,-2.916 0.625,-5.208 1.25,-5.208c3.958,0 63.75,39.375 66.458,43.75c0.834,1.25 -1.875,2.083 -6.041,2.083c-6.667,0 -7.5,-0.625 -7.5,-5.208Z" style="fill:#fff;fill-rule:nonzero;"></path><path d="M707.583,75.208c-20.625,-8.541 -24.792,-12.708 -12.917,-12.708c4.167,0 7.5,1.042 7.5,2.083c0,1.25 2.292,2.084 5.209,2.084c2.916,-0 5.208,1.041 5.208,2.083c-0,1.25 2.083,2.083 4.792,2.083c6.666,0 10.208,2.917 9.375,7.917c-0.625,3.958 -1.459,3.958 -19.167,-3.542Z" style="fill:#fff;fill-rule:nonzero;"></path><path d="M358.416,63.75c0,-3.75 2.084,-5.208 11.042,-8.125c6.25,-1.875 13.75,-3.542 16.667,-3.542c3.125,0 5.625,-0.833 5.625,-1.666c-0,-2.084 18.541,-6.667 26.25,-6.667c2.916,-0 5,1.25 5,2.917c-0,1.875 -5.417,4.166 -15,6.666c-8.334,1.875 -22.917,6.25 -32.292,9.375l-17.292,5.834l0,-4.792Z" style="fill:#fff;fill-rule:nonzero;"></path><path d="M665.708,60c-16.25,-5.208 -54.167,-13.333 -78.542,-17.292c-5.416,-0.833 -7.916,-2.291 -7.916,-4.583c-0,-2.708 1.875,-3.125 12.291,-2.083c18.542,2.083 57.292,10 58.125,12.083c0.417,1.042 3.959,1.875 7.917,1.875c3.958,-0 7.083,0.833 7.083,1.875c0,0.833 4.167,2.292 9.375,2.917c11.042,1.041 12.084,1.875 11.042,7.083c-0.625,3.75 -1.458,3.75 -19.375,-1.875Z" style="fill:#fff;fill-rule:nonzero;"></path><path d="M285.5,51.875c-0,-4.792 54.166,-25.833 90.208,-35c21.875,-5.625 48.75,-10.625 73.958,-13.75c9.792,-1.25 10.834,-1.042 10.834,2.708c-0,3.334 -1.875,4.167 -13.959,5.417c-22.291,2.292 -62.083,10.833 -87.083,18.75c-12.5,4.167 -24.583,7.5 -26.458,7.5c-2.084,-0 -3.75,1.042 -3.75,2.083c-0,1.25 -2.292,2.084 -5.209,2.084c-2.916,-0 -5.208,1.041 -5.208,2.083c-0,1.25 -2.292,2.083 -5.208,2.083c-2.917,0 -5.209,0.834 -5.209,1.667c0,2.708 -10,6.667 -16.666,6.667c-3.542,-0 -6.25,-1.042 -6.25,-2.292Z" style="fill:#fff;fill-rule:nonzero;"></path><path d="M700.708,50.625c-1.458,-0.417 -2.708,-2.083 -2.708,-3.75c-0,-1.458 -3.75,-2.917 -9.792,-3.75c-5.417,-0.625 -10.208,-2.083 -10.625,-3.333c-0.417,-1.25 -2.292,-2.292 -4.167,-2.292c-1.875,0 -13.75,-3.333 -26.458,-7.5c-25,-7.917 -64.792,-16.458 -86.875,-18.75c-11.875,-1.25 -14.167,-2.083 -14.167,-5.208c0,-2.292 1.25,-3.959 2.709,-3.959c6.875,0.209 46.458,6.459 65,10.417c36.875,7.917 103.125,32.083 103.125,37.5c-0,2.083 -11.25,2.708 -16.042,0.625Z" style="fill:#fff;fill-rule:nonzero;"></path><path d="M429.25,44.167c-0,-3.542 2.291,-4.375 15.625,-6.459c8.541,-1.25 22.083,-2.916 30.208,-3.541c12.708,-1.25 14.583,-1.042 14.583,2.083c0,1.875 -0.208,3.333 -0.416,3.333c-4.375,0.417 -47.084,6.459 -52.5,7.5c-6.667,1.042 -7.5,0.834 -7.5,-2.916Z" style="fill:#fff;fill-rule:nonzero;"></path><path d="M564.25,40.208c-7.5,-1.875 -4.167,-6.875 4.583,-6.875c6.875,0 8.333,0.625 8.333,4.167c0,4.167 -4.166,5 -12.916,2.708Z" style="fill:#fff;fill-rule:nonzero;"></path><path d="M508.416,35.417c0,-3.75 1.459,-4.167 14.584,-4.167c13.125,0 14.583,0.417 14.583,4.167c-0,3.75 -1.458,4.166 -14.583,4.166c-13.125,0 -14.584,-0.416 -14.584,-4.166Z" style="fill:#fff;fill-rule:nonzero;"></path><path d="M473,5.417c-0,-4.167 6.666,-5.417 29.166,-5.417c22.5,0 29.167,1.25 29.167,5.417c-0,2.291 -5.625,2.916 -29.167,2.916c-23.541,0 -29.166,-0.625 -29.166,-2.916Z" style="fill:#fff;fill-rule:nonzero;"></path></g><g><path d="M469.875,962.292c-64.792,-8.125 -137.084,-34.584 -190.209,-69.375c-36.041,-23.542 -82.708,-66.459 -106.875,-98.125c-48.75,-63.75 -79.375,-136.459 -90.625,-215.625c-4.166,-30 -4.583,-82.5 -0.833,-107.292l2.917,-18.75l1.458,34.792c1.667,39.375 5.833,69.166 14.375,102.708c31.25,123.958 117.917,230 234.375,286.458c62.5,30.417 121.667,43.75 193.75,43.75c72.917,0 133.958,-14.375 198.958,-46.875c40.209,-20.208 74.792,-44.791 108.125,-77.083c53.125,-51.458 88.334,-107.292 111.875,-176.667c15.625,-46.875 17.709,-39.375 3.959,14.792c-23.542,92.292 -79.584,176.875 -157.292,237.292c-68.75,53.541 -158.125,87.5 -241.042,91.666l-25.625,1.25l0,-5.208c0,-5.417 0.209,-5.417 22.5,-6.667c44.375,-2.708 95.834,-13.541 131.667,-27.708c24.583,-9.792 73.75,-35.625 82.292,-43.333c2.708,-2.5 7.5,-5.625 10.833,-7.292c3.125,-1.667 6.667,-4.375 7.5,-5.625c0.833,-1.458 2.917,-2.708 4.375,-2.708c1.667,-0 3.333,-1.459 4.167,-3.125c0.625,-1.667 3.125,-3.125 5.416,-3.125c2.292,-0 4.167,-1.25 4.167,-2.709c-0,-4.166 6.875,-9.791 12.083,-9.791c2.917,-0 4.584,-1.25 4.584,-3.75c-0,-4.792 22.916,-27.5 27.708,-27.5c2.292,-0 3.542,-1.667 3.542,-4.792c-0,-5.625 5.833,-11.875 11.041,-11.875c2.5,-0 3.542,-1.667 3.542,-5.208c-0,-2.917 1.458,-5.834 3.125,-6.459c1.667,-0.833 3.125,-2.5 3.125,-4.166c-0,-1.459 1.25,-3.542 2.708,-4.375c1.25,-0.834 3.959,-4.375 5.625,-7.5c1.667,-3.334 5,-8.125 7.5,-10.834c6.667,-7.291 7.709,-11.458 2.917,-11.458c-3.125,-0 -4.167,1.458 -4.167,5.208c0,3.334 -1.25,5.209 -3.125,5.209c-1.666,-0 -3.125,1.666 -3.125,3.75c0,5.208 -3.958,8.75 -9.791,8.75c-3.75,-0 -4.792,1.041 -4.792,5.833c-0,8.125 -25.625,33.75 -33.958,33.75c-4.584,-0 -5.625,1.042 -5.625,4.792c-0,5 -5.625,11.875 -9.792,11.875c-1.25,-0 -2.708,1.458 -3.542,3.125c-0.625,1.666 -2.5,3.125 -4.375,3.125c-1.666,-0 -3.125,0.833 -3.125,2.083c0,3.333 -42.5,30.625 -66.25,42.708c-52.5,26.25 -93.541,38.959 -151.875,47.084c-84.583,11.458 -178.958,-4.167 -257.708,-42.917c-12.708,-6.25 -25.417,-11.458 -27.917,-11.458c-2.5,-0 -4.583,-0.834 -4.583,-2.084c-0,-1.041 -1.458,-2.083 -3.125,-2.083c-1.667,-0 -3.125,-0.833 -3.125,-2.083c-0,-1.042 -1.458,-2.084 -3.125,-2.084c-1.667,0 -3.125,-0.833 -3.125,-1.875c-0,-2.083 -12.083,-5.416 -13.75,-3.75c-1.458,1.459 16.042,18.125 22.708,21.459c3.125,1.666 5.625,3.75 5.625,4.583c0,0.833 2.917,2.708 6.25,4.167c3.542,1.666 7.5,3.958 8.959,5.416c6.875,6.875 54.583,29.584 78.75,37.5c8.541,2.709 37.708,10.209 61.25,15.625c15.208,3.334 39.791,6.25 54.791,6.459c12.292,-0 12.917,0.208 12.917,5.208c-0,5.208 -0.208,5.208 -17.083,5c-9.584,-0.208 -23.75,-1.042 -31.875,-2.083Z" style="fill:#fff;fill-rule:nonzero;"></path><path d="M1392.79,792.917c-51.666,-12.5 -83.333,-71.042 -68.75,-127.292c15.417,-58.75 78.542,-90 131.042,-65c50.833,24.167 71.042,88.75 44.583,141.875c-20,40 -64.166,60.833 -106.875,50.417Zm48.334,-17.084c6.041,-2.916 13.75,-8.75 17.291,-12.916c14.167,-17.292 21.042,-52.084 16.875,-86.875c-5.625,-47.709 -24.375,-69.792 -59.375,-69.792c-18.125,0 -28.541,4.375 -39.166,16.25c-9.792,11.042 -13.542,17.917 -17.292,34.167c-3.958,17.083 -3.958,55 -0,72.083c10.833,45.833 44.375,65.208 81.667,47.083Z" style="fill:#fff;fill-rule:nonzero;"></path><path d="M1598.21,792.708c-16.875,-4.791 -30.208,-12.916 -43.125,-26.25c-37.292,-39.166 -36.875,-106.875 0.833,-145.416c34.375,-35 87.5,-38.959 124.375,-9.167c58.125,47.292 47.709,143.333 -19.166,175c-13.125,6.25 -17.917,7.5 -33.542,8.125c-12.083,0.625 -21.875,-0.208 -29.375,-2.292Zm48.958,-16.041c22.292,-10.417 33.75,-33.542 35.625,-71.667c1.875,-39.375 -5.416,-67.5 -22.083,-84.167c-5.833,-5.625 -12.917,-10.416 -18.125,-12.083c-11.458,-3.333 -32.708,-3.125 -41.25,0.417c-26.667,11.25 -40.625,45 -38.125,92.916c1.667,33.75 12.083,59.167 28.958,71.042c14.792,10.625 37.084,12.083 55,3.542Z" style="fill:#fff;fill-rule:nonzero;"></path><path d="M2022.38,794.375c-0.834,-0.625 -1.459,-16.25 -1.459,-34.375c0,-29.583 0.417,-33.125 3.334,-32.5c2.083,0.417 4.791,5.417 7.083,12.708c6.042,19.167 12.917,27.917 27.708,35c30.625,14.375 61.875,2.292 61.875,-24.166c0,-14.792 -7.708,-22.5 -42.083,-42.5c-48.75,-27.917 -58.75,-39.167 -58.75,-64.792c-0,-21.042 11.875,-38.75 31.875,-47.5c12.5,-5.417 40,-4.375 57.083,2.292l14.167,5.625l3.542,-6.25c1.875,-3.542 5,-6.042 6.666,-5.834c2.5,0.625 3.334,5.834 3.75,29.792c0.209,16.042 0,31.25 -0.625,33.958c-2.083,8.75 -6.25,4.584 -11.041,-10.833c-7.5,-23.75 -22.292,-36.25 -45.417,-38.333c-23.75,-2.084 -42.708,18.541 -33.333,36.458c5,9.792 15.208,17.5 47.916,36.25c16.875,9.375 33.959,20.625 38.125,24.583c25.834,25.209 19.375,66.25 -13.541,84.167c-15.417,8.333 -34.167,9.583 -56.667,3.542c-27.5,-7.5 -30,-7.5 -32.917,-1.25c-2.5,5.416 -4.791,6.666 -7.291,3.958Z" style="fill:#fff;fill-rule:nonzero;"></path><path d="M2605.08,789.167c-1.875,-3.542 -19.792,-44.167 -39.583,-90c-20,-45.834 -37.917,-85 -39.792,-87.084c-2.083,-1.875 -7.5,-4.791 -12.083,-6.25c-4.792,-1.666 -8.334,-3.958 -8.334,-5.833c0,-4.792 78.75,-4.583 79.792,0.208c0.417,2.292 -2.292,4.167 -9.375,6.25l-10,2.917l0.417,9.375c0.208,6.875 6.875,24.375 25.208,66.667c13.75,31.458 25.833,57.291 26.667,57.708c1.041,0.208 4.583,-6.25 7.916,-14.583c3.334,-8.125 13.959,-34.167 23.542,-57.709c10.625,-25.625 17.708,-46.041 17.917,-51.041c0.416,-8.125 -0,-8.542 -9.584,-13.125c-8.541,-3.959 -9.791,-5.209 -7.5,-7.917c2.084,-2.5 7.917,-2.917 30.834,-2.5c24.375,0.625 28.333,1.042 28.958,4.167c0.417,2.291 -1.667,4.166 -6.875,5.833c-10.417,3.333 -15.625,11.458 -29.792,45.833c-6.875,16.667 -22.5,54.584 -34.791,84.375c-12.292,29.792 -23.334,55.417 -24.375,56.875c-3.334,3.959 -5.417,3.125 -9.167,-4.166Z" style="fill:#fff;fill-rule:nonzero;"></path><path d="M2879.88,792.708c-17.709,-5 -30,-12.291 -42.5,-25.208c-19.167,-20.208 -26.875,-41.042 -26.875,-72.5c-0,-71.042 66.458,-120.625 130.208,-97.083c20.208,7.5 22.292,7.5 26.667,-0c7.916,-13.334 11.041,-5 12.083,33.958c0.625,15.625 -0,25.625 -1.25,26.25c-1.042,0.417 -5.417,-5.833 -9.583,-14.167c-8.542,-17.291 -16.042,-25.833 -27.917,-32.083c-6.875,-3.75 -11.875,-4.583 -29.375,-4.583c-19.583,-0 -21.667,0.416 -31.042,6.25c-12.5,7.708 -22.083,19.791 -28.333,35.833c-4.167,10.625 -4.792,15.833 -4.792,43.333c-0.208,27.917 0.417,32.709 4.584,44.167c8.958,23.542 25,36.875 50.833,42.083c13.333,2.917 30,0.834 41.667,-5.208c3.75,-1.875 13.75,-10 21.875,-18.125c11.458,-11.25 15.833,-14.167 17.5,-12.5c1.875,1.875 0.833,5 -4.375,13.125c-9.167,14.375 -25.625,28.333 -39.584,33.542c-15.208,5.625 -45,7.291 -59.791,2.916Z" style="fill:#fff;fill-rule:nonzero;"></path><path d="M3186.96,794.583c-0.833,-0.833 -1.458,-16.458 -1.458,-34.583c-0,-29.583 0.416,-33.125 3.333,-32.5c2.083,0.417 4.792,5.417 7.083,12.708c6.042,19.167 12.917,27.917 27.709,35c23.75,11.25 48.75,6.667 57.916,-10.625c9.792,-18.125 -0.416,-35.208 -29.791,-51.041c-25.834,-13.959 -47.709,-28.75 -55.625,-37.709c-18.959,-21.666 -16.667,-50 5.625,-69.583c17.083,-15 38.125,-18.125 64.166,-9.375c8.542,2.917 17.292,5.208 19.375,5.208c1.875,0 5,-2.291 6.459,-5.208c5.833,-11.042 7.708,-6.042 8.958,24.792c0.625,16.458 0.625,32.083 -0,34.375c-2.083,8.333 -6.458,4.375 -10.833,-10.209c-5.417,-17.5 -13.959,-27.916 -28.334,-34.583c-18.958,-8.958 -38.333,-5.208 -48.333,9.583c-2.708,3.959 -4.792,10 -4.792,14.167c0,11.042 14.375,23.75 49.167,43.333c45,25.209 55,36.875 55,63.334c-0,16.666 -7.083,30.833 -20.417,41.041c-18.333,13.75 -40.833,16.459 -70,7.917c-22.291,-6.458 -23.333,-6.458 -28.958,0.208c-2.5,2.917 -5.417,4.584 -6.25,3.75Z" style="fill:#fff;fill-rule:nonzero;"></path><path d="M1157.38,789.375c-2.292,-3.542 0.833,-5.625 10.416,-6.875c16.042,-2.5 15.625,0 15.625,-88.75c0,-61.458 -0.625,-79.167 -2.708,-82.083c-1.458,-2.084 -7.5,-5 -13.125,-6.459c-6.042,-1.458 -10.208,-3.75 -10.208,-5.416c-0,-2.5 12.083,-2.917 70.625,-3.542c38.958,-0.208 71.458,0.208 72.291,1.042c0.834,1.041 1.875,11.041 2.292,22.5c0.833,24.791 -1.875,27.083 -10.417,9.583c-8.541,-17.292 -13.541,-19.167 -49.375,-18.542l-29.166,0.625l-0,70.834l22.5,-0c25.416,-0.209 28.125,-1.667 33.333,-16.667c1.667,-4.583 4.167,-8.333 5.833,-8.333c3.959,-0 4.375,63.75 0.417,65c-2.708,1.041 -3.542,-0.417 -5.625,-10.417c-2.708,-12.083 -7.083,-13.958 -33.75,-13.958l-24.167,-0l0.834,37.291c1.041,42.917 1.666,44.792 17.5,47.292c9.791,1.458 13.541,4.375 9.166,7.083c-3.75,2.292 -80.833,2.292 -82.291,-0.208Z" style="fill:#fff;fill-rule:nonzero;"></path><path d="M1730.29,789.583c-2.291,-3.75 0.625,-5.625 10.417,-7.083c16.042,-2.5 15.625,0 15.625,-88.75c-0,-61.458 -0.625,-79.167 -2.708,-82.083c-1.459,-2.084 -7.5,-5 -13.125,-6.459c-6.042,-1.458 -10.209,-3.75 -10.209,-5.416c0,-2.5 9.584,-2.917 56.25,-2.709c61.667,0 75.209,1.875 95.417,12.709c26.042,14.375 43.125,47.5 43.125,83.958c-0,45.625 -26.042,80.625 -69.375,93.125c-13.333,3.958 -123.125,6.25 -125.417,2.708Zm116.875,-18.541c16.042,-7.5 26.875,-18.334 34.375,-34.375c20.625,-44.584 5.625,-100.417 -32.291,-118.959c-12.292,-6.041 -32.292,-8.541 -50,-6.458l-11.667,1.458l-0,162.292l4.792,1.042c19.375,4.166 38.541,2.5 54.791,-5Z" style="fill:#fff;fill-rule:nonzero;"></path><path d="M2168,790.208c-3.542,-3.541 -0.417,-6.458 7.916,-7.708c17.5,-2.708 16.875,0.833 16.875,-90.208c0,-76.667 -0.208,-80.209 -3.958,-83.125c-2.292,-1.459 -7.5,-3.334 -11.458,-4.167c-12.5,-2.083 -13.542,-2.5 -10.625,-6.042c2.291,-2.708 13.541,-3.125 75.208,-3.125c39.792,0 72.917,0.625 73.333,1.667c0.625,0.833 1.25,10.833 1.667,22.292c0.625,16.875 0.208,20.833 -2.083,20.833c-1.667,0 -4.375,-4.375 -6.25,-9.792c-6.25,-18.75 -7.5,-19.375 -49.167,-20l-36.458,-0.625l-0,73.542l27.708,-0.833c15,-0.625 28.958,-1.667 30.833,-2.5c3.542,-1.459 5.834,-5.417 11.042,-18.542c5.625,-13.958 7.5,-7.083 7.5,27.708c-0,33.125 -1.875,41.459 -6.458,29.792c-7.292,-18.125 -7.917,-19.167 -15.834,-21.25c-4.375,-1.25 -18.541,-2.292 -31.25,-2.292l-23.541,0l-0,37.084c-0,27.083 0.833,38.125 2.708,40.833c2.292,3.333 6.042,3.542 35.833,2.917c38.959,-0.834 40.625,-1.459 55.625,-22.917c16.459,-23.542 18.542,-16.875 5.625,18.125l-7.083,18.75l-73.333,0.417c-40.209,0.208 -73.75,-0.209 -74.375,-0.834Z" style="fill:#fff;fill-rule:nonzero;"></path><path d="M2341.12,790.208c-2.709,-2.708 -1.459,-6.875 2.291,-6.875c8.959,0 18.542,-4.375 20.834,-9.583c3.125,-6.458 3.541,-152.083 0.625,-159.792c-2.084,-5.208 -11.459,-9.791 -20.417,-9.791c-3.75,-0 -5,-1.042 -4.375,-3.542c0.625,-3.542 4.792,-3.75 51.667,-3.75c57.291,0 67.5,1.875 82.083,13.75c10,8.542 17.917,24.792 17.917,37.5c-0,19.375 -16.042,40 -35.834,46.042c-4.375,1.25 -7.916,3.333 -7.916,4.375c-0,2.916 38.958,57.083 48.333,67.291c7.292,7.917 15.208,12.292 29.792,16.667c3.541,1.042 6.25,3.333 6.25,5c-0,2.5 -4.375,3.125 -25.625,3.125c-30.417,0 -24.375,4.583 -59.792,-44.792c-32.292,-45 -31.042,-43.75 -42.083,-43.75l-8.959,0l0,30.834c0,37.291 1.667,45 10.834,48.125c3.541,1.25 8.75,2.291 11.458,2.291c3.75,0 5,1.042 4.375,3.75c-0.625,3.125 -4.375,3.542 -40.417,3.959c-21.875,0.416 -40.416,-0 -41.041,-0.834Zm92.291,-105.833c16.459,-8.125 23.542,-19.167 23.334,-35.833c-0.209,-23.542 -15.834,-38.125 -40.625,-38.125c-20.834,-0 -20.209,-1.459 -20.209,42.083l0,37.708l15.209,-1.041c8.333,-0.625 18.125,-2.709 22.291,-4.792Z" style="fill:#fff;fill-rule:nonzero;"></path><path d="M2718,790.208c-3.542,-3.541 -0.417,-6.458 7.916,-7.708c17.5,-2.708 16.875,0.833 16.875,-90.208c0,-90.625 1.25,-84.584 -17.083,-87.292c-6.875,-1.042 -8.958,-2.083 -8.542,-4.792c0.625,-2.916 5.834,-3.333 41.875,-3.958c40,-0.417 41.042,-0.417 41.042,3.75c-0,2.5 -1.458,4.167 -3.542,4.167c-2.083,-0 -7.291,1.041 -11.458,2.083c-11.875,3.333 -12.5,6.875 -11.667,91.875c0.625,84.375 0.209,81.667 17.709,84.375c6.875,1.042 8.958,2.083 8.541,4.792c-0.625,2.916 -5.625,3.333 -40.416,3.75c-21.875,0.208 -40.417,-0 -41.25,-0.834Z" style="fill:#fff;fill-rule:nonzero;"></path><path d="M2999.46,790.208c-6.458,-1.666 -2.708,-5.625 7.083,-7.5c18.125,-3.541 17.5,-0.625 18.125,-79.166c0.834,-72.709 0,-89.167 -5,-93.959c-1.666,-1.666 -7.083,-3.75 -12.291,-4.583c-10.209,-1.458 -13.75,-4.375 -9.167,-7.292c3.542,-2.083 143.542,-2.5 146.875,-0.208c2.917,1.875 5.417,37.917 3.125,41.875c-2.708,4.375 -5.833,1.25 -9.583,-10c-5.834,-17.5 -6.667,-17.917 -48.125,-18.542l-36.25,-0.625l0.416,36.042l0.625,36.042l27.292,-0c31.667,-0 33.75,-1.042 39.583,-18.125c6.042,-18.334 8.125,-11.667 8.125,25.625c0,28.333 -0.416,34.166 -2.916,34.166c-1.875,0 -3.959,-3.75 -5.417,-9.583c-1.458,-5.417 -3.125,-10.625 -3.958,-11.875c-2.709,-4.375 -16.875,-6.667 -40.209,-6.667l-23.541,0l-0,38.125c-0,26.875 0.833,38.959 2.5,40.625c1.666,1.667 12.083,2.5 33.333,2.5c38.333,0 42.292,-1.666 57.708,-22.916c16.875,-23.125 19.167,-18.75 7.5,13.958c-4.166,11.042 -8.541,21.042 -10,21.875c-2.708,1.667 -139.375,1.875 -145.833,0.208Z" style="fill:#fff;fill-rule:nonzero;"></path><path d="M347.166,752.083c-30.416,-4.791 -65.833,-18.125 -96.666,-36.25c-21.875,-12.916 -23.334,-14.375 -16.875,-21.25c10,-10.833 43.125,-32.708 67.5,-44.791c26.25,-12.709 52.708,-20.625 70.416,-20.625c8.125,-0 9.792,0.625 9.792,3.958c-0,3.125 -2.083,4.167 -11.875,5.417c-17.917,2.083 -30,5.416 -31.25,8.541c-0.625,1.667 -2.292,2.917 -3.958,2.917c-3.959,0 -26.459,15.417 -23.75,16.25c1.25,0.417 2.083,12.083 2.083,31.25l-0,30.625l5.833,2.5c3.125,1.458 17.084,5.417 31.042,8.958l25.417,6.25l20.208,-3.125c21.25,-3.541 39.792,-10.625 55.833,-21.666c5,-3.542 11.25,-6.459 13.542,-6.459c2.917,0 4.375,-1.25 4.375,-3.75c-0,-2.291 1.875,-5.625 4.167,-7.708c2.291,-2.083 3.541,-4.583 2.708,-5.417c-1.042,-0.833 -15.625,-3.958 -32.917,-7.083c-33.75,-6.25 -75,-7.917 -101.458,-4.375l-14.167,1.875l0,-7.5c0,-8.125 1.875,-9.792 16.667,-15.625c15.208,-6.042 93.75,-5.417 115.208,0.833c1.875,0.625 3.542,0.209 3.542,-1.041c-0,-1.25 -1.458,-2.292 -3.125,-2.292c-1.875,0 -3.75,-1.25 -4.375,-2.917c-0.625,-1.666 -3.333,-3.541 -6.042,-4.166c-2.708,-0.625 -6.25,-2.5 -7.708,-3.959c-4.167,-3.958 -28.542,-11.666 -41.667,-13.125c-10,-1.25 -12.083,-2.083 -12.083,-5.208c-0,-3.125 1.667,-3.958 7.917,-3.958c22.708,-0 60,16.458 79.583,35c12.292,11.875 16.042,18.333 8.958,16.25c-34.166,-10.209 -87.5,-14.375 -110,-8.542l-10.416,2.708l10.625,0.209c27.5,0.625 112.916,13.75 117.083,17.916c2.5,2.5 -5.625,12.917 -19.375,24.375c-15.417,13.125 -45,28.75 -61.667,32.709c-13.958,3.333 -48.75,4.375 -63.125,2.291Z" style="fill:#fff;fill-rule:nonzero;"></path><path d="M535.5,689.375c-0,-3.333 42.083,-86.875 61.041,-120.625c55.209,-99.167 115,-181.875 159.167,-219.792c19.583,-16.875 19.375,-16.666 9.375,-11.25c-12.708,7.084 -40.417,28.125 -59.792,45.625l-16.666,15l-0.625,-5.833c-0.625,-5.208 1.25,-7.917 12.083,-17.917c30.208,-27.916 75.208,-57.916 86.875,-57.916c6.667,-0 6.875,0.416 6.875,7.916c-0.208,6.875 -1.25,8.542 -11.667,15.834c-17.291,12.5 -44.583,38.75 -44.583,42.916c-0,2.084 -3.333,6.667 -7.292,10.209c-3.958,3.541 -7.291,6.875 -7.291,7.5c-0,2.083 -7.084,8.75 -10.834,10c-2.083,0.833 -3.75,3.333 -3.75,5.625c0,2.708 -1.458,4.166 -4.166,4.166c-3.125,0 -4.167,1.459 -4.167,5.209c-0,2.916 -0.833,5.208 -2.083,5.208c-1.042,-0 -2.084,1.042 -2.084,2.083c0,1.25 -7.083,12.917 -15.833,26.25c-15.625,23.959 -19.792,31.875 -22.5,43.125c-1.25,5 -0.833,5.625 3.958,5.625c6.25,0 6.042,-5.833 2.709,72.5c-1.25,32.292 -3.125,58.75 -4.167,58.75c-0.833,0 -1.667,1.25 -1.667,2.917c0,1.667 -1.041,3.333 -2.291,3.75c-1.042,0.417 -2.709,4.583 -3.334,9.375l-1.25,8.75l19.584,-5.208c10.833,-2.917 30,-9.792 42.916,-15.417c12.709,-5.833 24.375,-10.417 25.834,-10.417c3.125,0 31.25,-17.083 45,-27.291c6.041,-4.375 11.666,-8.125 12.5,-8.125c1.041,-0 2.916,-1.875 4.375,-4.167c1.458,-2.292 4.375,-4.167 6.666,-4.167c2.292,0 4.167,-1.25 4.167,-2.708c-0,-4.375 15.417,-18.125 20.417,-18.125c3.333,0 4.583,-1.25 4.583,-4.792c-0,-5.625 12.083,-18.125 17.292,-18.125c2.291,0 3.541,-1.666 3.541,-5c0,-2.916 1.667,-6.458 3.75,-7.916c2.084,-1.459 4.375,-4.375 5.209,-6.25c0.625,-2.084 2.708,-3.75 4.583,-3.75c1.667,-0 3.125,-1.875 3.125,-4.167c-0,-2.292 1.042,-4.167 2.083,-4.167c1.25,0 2.084,-1.458 2.084,-3.125c-0,-1.875 1.458,-3.75 3.125,-4.375c1.666,-0.833 3.125,-2.5 3.125,-4.166c-0,-1.667 1.041,-2.917 2.083,-2.917c1.25,0 2.083,-1.458 2.083,-3.125c0,-1.667 1.042,-3.125 2.084,-3.125c1.25,0 2.083,-1.458 2.083,-3.125c-0,-1.667 1.042,-3.125 2.083,-3.125c1.25,0 2.084,-1.25 2.084,-2.917c-0,-1.666 1.25,-4.375 2.916,-5.833c1.459,-1.667 3.542,-5 4.167,-7.5c0.833,-2.5 2.917,-4.583 4.583,-4.583c1.667,-0 2.917,-1.875 2.917,-4.167c-0,-4.792 20.417,-46.458 23.125,-47.5c1.042,-0.417 1.875,-2.917 1.875,-5.625c-0,-2.708 1.458,-6.25 3.125,-8.125c1.667,-1.667 3.125,-5 3.125,-7.292c-0,-2.5 1.042,-4.375 2.083,-4.375c1.25,0 2.084,-2.291 2.084,-5.208c-0,-2.917 1.041,-5.208 2.083,-5.208c1.25,-0 2.083,-1.667 2.083,-3.542c0,-1.875 4.167,-16.042 9.167,-31.667c16.25,-49.583 27.917,-100.416 34.167,-149.583c2.916,-24.375 3.958,-27.708 7.291,-27.708c4.375,-0 4.167,3.958 -3.125,51.041c-13.333,86.459 -39.375,168.75 -74.791,236.25c-75.209,143.334 -197.5,226.042 -348.75,235.834c-37.709,2.291 -40.625,2.291 -40.625,-0.417Z" style="fill:#fff;fill-rule:nonzero;"></path><path d="M510.916,645c-5.416,-26.875 -7.291,-64.583 -4.791,-94.375c4.375,-50.208 15.833,-92.292 36.458,-133.958c20,-39.792 35.208,-61.25 68.75,-95.417c42.083,-43.125 81.042,-70.625 143.958,-101.458c46.667,-22.917 83.125,-36.875 136.25,-52.084c37.5,-10.625 103.542,-26.041 112.5,-26.041c4.584,-0 5.417,3.333 3.125,11.875c-1.666,6.041 -7.083,6.25 -7.083,0.625c-0,-5.209 -0.208,-5.209 -45.833,5.625c-16.667,3.958 -34.167,7.708 -38.959,8.333c-5,0.625 -8.958,2.083 -8.958,2.917c-0,1.041 -3.333,1.875 -7.292,1.875c-3.958,-0 -7.291,1.041 -7.291,2.083c-0,1.25 -3.125,2.083 -7.084,2.083c-3.958,0 -7.5,0.834 -7.916,1.875c-0.834,2.084 -38.542,14.792 -43.959,14.792c-1.875,0 -3.541,1.042 -3.541,2.083c-0,1.25 -2.292,2.084 -5,2.084c-2.709,-0 -5.417,0.625 -5.834,1.666c-0.208,0.834 -8.125,4.584 -17.291,8.542c-30.209,12.917 -82.292,40.208 -82.292,43.125c-0,1.667 -2.083,2.917 -5.208,2.917c-3.125,-0 -7.917,2.916 -12.292,7.291c-4.167,3.959 -7.708,7.292 -8.125,7.292c-2.5,0 -25.833,22.292 -35.417,33.542c-5.208,6.041 -5.625,7.291 -2.708,9.375c1.875,1.25 3.333,4.375 3.333,6.875c0,2.291 1.042,4.375 2.084,4.375c1.25,-0 2.083,8.958 2.083,22.916c-0,13.959 0.833,22.917 2.083,22.917c1.25,0 2.084,5.208 2.084,11.458c-0,6.25 1.041,11.459 2.083,11.459c1.25,-0 2.083,3.125 2.083,7.083c0,5.625 -1.041,7.5 -4.583,8.75c-4.375,1.458 -4.167,1.875 2.292,2.917l6.875,1.041l-13.959,15.625c-48.125,53.542 -90.208,117.084 -127.5,192.709c-9.583,19.583 -18.125,35.625 -19.166,36.041c-0.834,0.209 -2.709,-4.583 -3.959,-10.833Z" style="fill:#fff;fill-rule:nonzero;"></path><path d="M958.625,584.375c-0,-2.292 0.833,-6.042 1.875,-8.333l1.875,-4.167l-0,4.167c-0,2.291 -0.834,6.041 -1.875,8.333l-1.875,4.167l-0,-4.167Z" style="fill:#fff;fill-rule:nonzero;"></path><path d="M1185.92,505.833c-1.041,-1.458 -19.166,-50.416 -40,-108.958c-20.833,-58.333 -39.583,-108.958 -41.458,-112.5c-2.5,-4.375 -6.458,-7.292 -13.75,-9.792c-5.833,-1.875 -10.625,-4.791 -11.042,-6.666c-0.625,-2.709 4.584,-3.334 40.834,-3.75c22.708,-0.417 43.125,-0.209 45,-0c6.041,1.25 2.708,7.5 -4.584,8.958c-8.75,1.875 -15,7.5 -15,13.542c0,5 49.375,148.333 52.084,151.458c0.833,0.833 4.375,-6.667 7.916,-16.667c3.542,-10 11.667,-33.125 18.125,-51.041c6.25,-18.125 11.459,-34.584 11.459,-36.667c-0,-2.083 -2.292,-10.417 -5,-18.333c-9.584,-28.125 -17.084,-38.542 -30.417,-41.875c-4.167,-1.042 -7.5,-3.334 -7.917,-5.417c-0.625,-3.333 3.334,-3.542 46.25,-3.542c44.584,0 47.084,0.209 47.084,3.959c-0,3.125 -2.084,3.958 -9.792,5c-10.833,1.25 -15.208,5.208 -15.208,13.958c-0,7.083 49.583,152.083 52.083,152.083c1.25,0 49.375,-140.208 51.042,-148.958c1.666,-8.75 -2.5,-13.542 -14.792,-16.667c-13.125,-3.333 -15.417,-9.375 -3.542,-9.375c8.334,-0.208 59.167,0.209 66.25,0.417c2.292,0 26.25,-0.208 53.334,-0.417c27.083,-0.416 50.416,0 51.458,0.834c5,2.916 -0,7.5 -8.333,7.5c-10.417,-0 -18.959,4.375 -22.084,11.458c-1.666,3.542 -2.5,19.167 -2.5,46.875l0,41.667l105.625,-0l1.459,-10.834c1.666,-14.375 1.458,-60.833 -0.417,-71.25c-1.875,-10.208 -9.167,-15.833 -22.083,-17.291c-9.792,-1.25 -13.542,-3.75 -10.417,-6.875c2.292,-2.084 97.917,-3.959 101.25,-1.875c4.792,2.916 -0.208,8.125 -7.708,8.125c-9.792,-0 -19.375,5.208 -21.875,11.666c-3.125,7.917 -2.709,190.834 0.208,197.5c2.708,5.834 15.208,11.667 24.792,11.667c4.791,-0 6.25,0.833 6.25,4.167c-0,4.166 -1.042,4.166 -51.459,3.75c-42.916,-0.625 -51.666,-1.042 -51.666,-3.542c-0,-2.083 4.166,-3.75 12.291,-5.417c8.125,-1.666 13.75,-4.166 16.042,-7.083c4.792,-5.833 6.458,-26.042 5.625,-64.792l-0.625,-30.208l-53.542,-0.625l-53.75,-0.417l0,42.5c0,23.542 0.834,45 2.084,47.917c2.708,7.083 10.208,11.667 22.291,13.333c6.875,1.042 10,2.5 10,4.584c0,2.708 -7.5,3.125 -51.458,3.75c-49.375,0.416 -51.667,0.416 -51.667,-3.542c0,-3.125 1.875,-3.958 9.584,-5c11.666,-1.25 20.208,-7.083 21.875,-15.208c0.833,-3.334 1.458,-46.667 1.666,-96.25c0.209,-100.209 0,-102.084 -12.291,-106.459c-3.75,-1.25 -9.792,-2.291 -13.334,-2.291c-3.75,-0 -7.708,-1.042 -9.166,-2.5c-1.875,-1.875 -2.5,-1.875 -2.5,-0c-0,1.458 -1.875,2.5 -4.167,2.5c-7.5,-0 -15.417,5.625 -20.208,14.166c-2.709,4.375 -20.209,52.709 -38.959,107.084c-18.75,54.166 -35.625,102.291 -37.5,106.666c-6.666,15.834 -8.541,12.084 -36.458,-66.041c-14.167,-39.792 -26.25,-72.292 -27.083,-72.292c-0.625,0 -11.875,30.208 -25,67.292c-29.167,82.083 -29.375,82.916 -35.209,76.041Z" style="fill:#fff;fill-rule:nonzero;"></path><path d="M1769.88,506.25c-17.084,-2.708 -43.542,-16.042 -56.667,-28.75c-25.208,-24.375 -36.042,-49.583 -37.5,-88.958c-1.875,-42.292 7.708,-68.125 34.583,-94.792c18.334,-18.125 30.834,-25.417 53.542,-31.25c40.833,-10.417 78.125,-0.208 108.125,30.208c22.917,22.917 33.333,46.459 35.833,80.209c3.334,47.083 -18.541,92.5 -56.458,117.083c-22.083,14.167 -53.333,20.417 -81.458,16.25Zm32.708,-14.792c42.917,-9.166 62.917,-43.125 62.708,-106.041c-0.208,-56.875 -16.041,-92.709 -47.083,-106.459c-16.25,-7.083 -40.417,-6.875 -56.25,0.834c-19.375,9.583 -32.5,27.708 -40.208,55.833c-5.417,18.958 -5.417,72.292 -0.209,91.458c10.209,37.292 29.375,59.167 56.25,64.584c12.292,2.291 12.5,2.291 24.792,-0.209Z" style="fill:#fff;fill-rule:nonzero;"></path><path d="M2370.08,505c-1.875,-5.208 -1.458,-76.458 0.625,-79.792c3.125,-5 6.042,-0.625 11.667,17.917c4.791,15.625 6.875,19.167 16.458,28.958c8.958,8.75 13.75,11.667 25.208,15.209c24.792,7.708 42.084,5 56.667,-8.75c10.833,-10.209 14.167,-20.834 10.833,-33.542c-3.541,-12.917 -18.125,-25.208 -57.916,-48.125c-42.5,-24.375 -55.625,-36.042 -62.709,-54.583c-13.125,-34.584 7.917,-71.25 46.25,-81.042c17.917,-4.583 36.042,-2.917 57.917,5.625l17.5,6.667l6.25,-7.709c11.458,-13.333 11.875,-11.875 11.25,34.792c-0.625,35.625 -1.042,42.083 -3.75,42.083c-2.083,0 -4.375,-4.583 -6.667,-13.125c-9.375,-34.583 -27.083,-51.25 -58.125,-53.958c-27.291,-2.5 -49.583,19.167 -43.333,42.083c2.5,8.959 17.917,22.917 38.958,35c8.75,5 25.625,14.792 37.5,21.459c25.417,14.375 38.542,26.458 45.209,41.041c7.5,16.667 8.333,27.292 3.125,43.959c-5.834,18.958 -21.875,35.625 -40.625,42.916c-19.167,7.292 -45.625,6.667 -72.709,-1.875c-11.25,-3.541 -21.666,-6.458 -23.125,-6.458c-1.458,0 -4.583,3.333 -7.083,7.292c-4.583,7.916 -7.292,9.166 -9.375,3.958Z" style="fill:#fff;fill-rule:nonzero;"></path><path d="M2650.92,506.25c-32.083,-4.792 -63.333,-25.417 -80.833,-53.542c-14.583,-23.75 -21.25,-64.166 -15.833,-96.25c7.708,-45.416 44.375,-84.166 89.791,-95c39.167,-9.166 74.584,1.042 104.167,30.209c27.708,27.291 38.542,55.833 36.667,96.875c-1.875,37.291 -12.292,61.458 -37.917,87.083c-15.417,15.208 -39.792,27.708 -60.417,30.625c-16.25,2.292 -20.416,2.292 -35.625,0Zm41.459,-18.125c12.291,-3.75 29.791,-19.583 37.291,-33.333c10,-18.334 12.917,-33.959 12.917,-69.375c-0,-42.709 -6.875,-68.125 -23.75,-89.792c-7.708,-9.583 -27.708,-19.792 -43.125,-21.667c-13.958,-1.875 -33.333,3.125 -45.833,11.667c-26.042,18.125 -40.209,66.458 -34.167,118.542c7.708,68.125 44.583,100.416 96.667,83.958Z" style="fill:#fff;fill-rule:nonzero;"></path><path d="M1923.42,498.542c0.417,-2.5 3.542,-4.167 10,-5.209c12.292,-2.083 17.709,-5.208 20.625,-11.458c3.125,-6.667 3.125,-192.917 0.209,-198.75c-3.125,-5.417 -12.917,-10.208 -21.875,-10.208c-6.875,-0 -11.875,-4.375 -8.75,-7.709c2.5,-2.291 105.625,-1.458 108.125,1.042c3.75,3.75 -0.209,6.667 -8.959,6.667c-11.041,-0 -21.666,4.583 -26.041,11.666c-3.542,5.209 -3.75,12.292 -3.75,96.875c0.208,104.167 -0.209,100.417 16.666,103.125c13.75,2.084 62.917,-0.416 72.709,-3.75c10.833,-3.541 23.125,-16.041 32.291,-32.708c7.292,-13.333 10.834,-16.458 12.084,-10c0.416,1.875 -3.75,16.875 -9.167,33.542l-9.792,30.416l-92.5,0c-86.458,0 -92.5,-0.208 -91.875,-3.541Z" style="fill:#fff;fill-rule:nonzero;"></path><path d="M2138,498.542c0.416,-2.5 3.541,-4.167 9.375,-5.209c13.958,-2.291 21.041,-7.083 22.5,-14.791c0.625,-3.542 1.041,-49.167 0.625,-100.834c-0.625,-92.916 -0.625,-94.375 -5,-98.75c-2.917,-2.708 -8.334,-4.791 -15.625,-5.625c-8.334,-1.041 -11.459,-2.291 -11.875,-5c-0.625,-3.333 1.041,-3.75 13.541,-3.75c91.667,-0.416 168.542,0.417 169.584,1.667c2.291,2.5 3.75,47.292 1.875,50.625c-2.917,4.375 -7.084,-0.833 -11.459,-14.167c-3.958,-12.291 -12.291,-20.625 -22.5,-22.5c-3.75,-0.625 -23.541,-1.041 -44.166,-0.625l-37.5,0.625l-0.625,43.542c-0.209,25.417 0.208,44.167 1.458,44.792c1.667,1.041 38.958,1.458 61.042,0.416c11.041,-0.416 19.791,-8.75 23.125,-22.083c1.666,-7.083 3.75,-10.625 6.25,-11.042c3.333,-0.625 3.541,2.084 3.125,41.667c-0.625,35.833 -1.042,42.292 -3.75,42.292c-2.084,-0 -4.167,-4.167 -6.25,-12.292c-5,-20 -7.709,-21.042 -49.584,-21.042l-34.791,0l-0,46.25c-0,41.667 0.416,46.667 3.75,50c3.333,3.334 7.916,3.75 41.666,3.75c35.209,0 38.542,-0.416 46.667,-4.791c8.333,-4.375 16.875,-13.959 30.208,-33.542c6.042,-8.75 9.375,-10.625 11.042,-5.833c0.625,1.458 -3.333,15.208 -8.75,30.625l-10,28.125l-92.292,0.625c-86.666,0.416 -92.291,0.208 -91.666,-3.125Z" style="fill:#fff;fill-rule:nonzero;"></path><path d="M2799.67,500.833c-2.5,-2.291 0.834,-7.083 4.792,-7.083c8.125,0 20.208,-6.458 22.5,-12.292c1.667,-3.958 2.292,-33.958 1.875,-101.041l-0.625,-95.417l-5.833,-4.792c-3.125,-2.708 -9.167,-5.625 -13.542,-6.458c-7.708,-1.458 -11.458,-4.375 -9.583,-7.5c1.875,-2.917 64.583,-2.083 67.083,1.042c1.667,2.083 33.125,69.166 70.208,150c6.875,14.583 12.917,26.458 13.75,26.458c0.625,0 5.209,-8.75 9.792,-19.167c4.792,-10.625 22.917,-50.833 40.625,-89.166l31.875,-69.792l30.208,-1.458c34.167,-1.459 39.375,-0.834 39.375,4.791c0,3.334 -1.666,3.959 -9.375,3.959c-7.291,-0 -10.833,1.25 -16.041,6.041l-6.875,6.042l-0.625,85.208c-0.417,46.667 -0.209,91.042 0.625,98.334c1.875,16.666 6.666,22.083 21.041,24.375c9.792,1.458 14.167,4.166 12.084,7.5c-0.625,0.833 -23.959,1.666 -52.084,1.666c-47.291,0 -51.041,-0.208 -50.416,-3.541c0.416,-2.5 3.541,-4.167 9.791,-5.209c11.25,-1.875 18.542,-6.458 21.042,-13.333c2.5,-6.667 2.708,-169.167 0.208,-166.25c-0.833,1.042 -8.541,16.875 -16.875,35.208c-43.125,95.417 -70,151.667 -72.5,152.709c-1.666,0.625 -4.375,-0.625 -5.833,-2.5c-1.458,-2.084 -21.667,-45 -45,-95.625l-42.292,-91.875l-0.625,81.666c-0.625,93.125 -0.416,94.375 13.542,98.125c4.375,1.25 10.625,2.292 13.75,2.292c4.583,0 5.833,0.833 5.208,3.75c-0.625,3.125 -4.583,3.542 -40.416,4.167c-21.875,0.208 -40.209,-0 -40.834,-0.834Z" style="fill:#fff;fill-rule:nonzero;"></path><path d="M3111.54,500c-2.083,-3.542 1.042,-6.25 6.875,-6.25c10,-0.208 22.917,-7.5 24.792,-13.958c2.083,-7.709 2.083,-187.292 -0,-195c-1.875,-6.875 -11.875,-11.875 -23.125,-11.875c-7.083,-0 -11.667,-4.792 -7.083,-7.5c2.708,-1.667 180.416,-1.875 182.083,-0.209c0.625,0.625 1.25,12.709 1.458,26.875c0.417,21.25 0,25.625 -2.708,25.625c-1.875,0 -5,-5.416 -8.333,-14.583c-4.792,-13.333 -6.042,-15 -14.584,-19.167c-8.541,-4.583 -11.875,-4.791 -49.375,-4.791l-40.208,-0l-0,44.583c-0,33.75 0.625,44.792 2.708,45.417c1.25,0.625 16.875,0.833 34.375,0.416c40.625,-0.833 42.292,-1.666 48.334,-25.416c1.666,-6.667 3.125,-8.75 5.833,-8.334c3.125,0.625 3.542,4.792 3.542,42.292c-0,37.5 -0.417,41.667 -3.542,42.292c-2.708,0.416 -4.167,-1.667 -5.833,-8.334c-3.542,-14.375 -5.834,-18.125 -12.917,-22.5c-6.042,-3.75 -10.625,-4.166 -39.792,-4.166l-32.916,-0l0.625,47.916c0.416,35.625 1.25,48.334 3.333,50.417c3.125,3.125 66.458,3.958 79.792,1.042c10.208,-2.084 24.583,-15.209 35,-31.667c12.916,-20.417 19.791,-17.917 11.666,4.167c-2.5,6.875 -7.083,19.791 -10.208,28.75l-5.833,16.041l-91.25,0c-58.75,0 -91.875,-0.833 -92.709,-2.083Z" style="fill:#fff;fill-rule:nonzero;"></path></g><g><path d="M468.833,1004.17c-87.5,-6.875 -168.125,-34.167 -240.417,-81.25c-32.083,-21.042 -56.875,-41.459 -85.625,-71.042c-83.958,-86.458 -132.291,-195 -140.833,-316.875c-4.167,-58.125 1.875,-113.125 18.958,-172.5c52.5,-182.708 206.25,-320.208 395.834,-354.167c32.083,-5.833 111.458,-8.125 143.541,-4.166c80,9.583 156.25,37.708 221.042,80.833c30,20 59.167,43.333 57.292,46.042c-0.417,1.041 -5.209,2.916 -10.209,4.375l-9.375,2.5l-25.208,-16.667c-65.417,-43.75 -135.833,-70 -213.542,-79.583c-24.791,-3.125 -88.958,-3.125 -112.5,-0c-87.083,11.458 -163.541,42.291 -231.666,93.541c-181.042,135.834 -242.5,377.084 -148.75,583.959c22.5,49.583 54.791,95.416 96.041,137.083c83.334,84.167 184.375,131.042 304.167,141.667c49.583,4.375 61.875,6.25 39.167,6.25c-6.25,-0 -17.084,0.416 -23.75,0.833c-6.667,0.417 -22.084,0.208 -34.167,-0.833Z" style="fill:#fff;fill-rule:nonzero;"></path></g><g><path d="M509.458,962.5c2.917,-1.25 0.208,-1.875 -9.375,-2.083c-24.792,-0.209 -42.292,-3.125 -86.458,-13.959c-32.084,-7.916 -66.042,-20.416 -81.875,-30.208c-3.75,-2.292 -8.125,-3.542 -10,-2.917c-1.667,0.625 -2.5,0.417 -1.875,-0.833c1.458,-2.292 -10.625,-8.958 -13.334,-7.5c-0.833,0.625 -3.541,-0.208 -5.625,-2.083c-3.75,-2.917 -3.75,-3.125 0.834,-0.834c6.666,3.334 5.625,-0.416 -1.459,-4.375c-4.583,-2.708 -6.666,-2.916 -8.541,-1.041c-1.25,1.25 -2.292,1.458 -2.084,0.208c1.042,-5 -0.416,-7.292 -5.625,-10.208c-5.625,-2.917 -29.791,-25.417 -29.791,-27.709c-0,-0.625 1.458,0 3.125,1.459c2.708,2.291 3.125,1.458 3.125,-5.417c-0,-6.042 0.625,-7.292 2.083,-5c1.458,2.292 2.083,2.5 2.083,0.417c0,-1.459 -1.458,-4.167 -3.125,-5.834c-4.166,-4.166 -4.166,-8.333 0,-5c2.709,2.292 2.917,2.084 1.667,-1.25c-1.042,-2.916 0.417,-2.5 6.667,2.5c4.583,3.542 17.708,12.084 29.166,18.959c67.084,40 136.25,60.416 217.709,64.375c51.666,2.291 117.708,-9.792 172.291,-31.667c87.084,-35 156.667,-91.25 208.334,-168.542c24.791,-37.083 41.041,-72.083 53.958,-115.833c10.417,-36.042 11.25,-38.125 10,-26.875c-6.25,53.125 -29.167,118.75 -58.542,167.5c-24.375,40.208 -73.125,95.625 -105.833,120.417c-34.167,25.625 -75.417,49.375 -109.375,62.708c-34.792,13.75 -86.042,24.792 -127.083,27.292c-10.834,0.625 -20,2.291 -20.417,3.333c-0.417,1.25 -8.125,2.083 -17.708,1.875c-11.459,0 -15.625,-0.625 -12.917,-1.875Z" style="fill:#fff;fill-rule:nonzero;"></path><path d="M252.166,828.958l-7.291,-6.25l7.916,5.417c6.875,5 8.959,7.292 7.084,7.292c-0.209,-0 -3.75,-2.917 -7.709,-6.459Z" style="fill:#fff;fill-rule:nonzero;"></path><path d="M226.125,807.292c-4.584,-3.959 -7.5,-7.292 -6.667,-7.292c1.042,0 5.208,3.333 9.375,7.292c9.792,9.375 8.125,9.375 -2.708,-0Z" style="fill:#fff;fill-rule:nonzero;"></path><path d="M200.291,780.625c-6.041,-7.292 -6.25,-7.917 -1.458,-3.542c5,4.584 10.833,12.5 9.167,12.5c-0.417,0 -3.75,-3.958 -7.709,-8.958Z" style="fill:#fff;fill-rule:nonzero;"></path><path d="M340.708,745c-13.75,-3.75 -27.083,-7.708 -29.583,-8.542c-4.584,-1.458 -4.792,-2.291 -4.792,-32.708c-0,-20.208 -0.833,-30.625 -2.083,-29.792c-1.25,0.834 -2.084,-1.875 -2.084,-6.875c0,-7.291 0.834,-8.541 10.417,-14.791c5.833,-3.75 10,-7.5 9.375,-8.334c-0.417,-1.041 1.458,-1.25 4.167,-0.625c3.125,0.417 5.208,0 5.208,-1.458c-0,-3.542 7.917,-6.042 31.458,-9.792c39.167,-6.25 73.959,2.5 104.375,26.25c5.417,4.167 12.292,10.834 15.625,14.584l5.834,6.875l-6.25,-1.25c-3.542,-0.625 -15.625,-3.334 -27.084,-5.834c-17.083,-3.958 -27.291,-4.791 -57.291,-4.791c-38.334,-0.209 -51.042,1.875 -60.834,9.791l-4.791,3.959l5.208,-1.459c10.208,-2.708 51.458,-3.541 73.125,-1.25c25.833,2.5 77.083,12.084 80,15c2.5,2.5 -15,20.625 -30.208,31.042c-27.084,18.333 -43.125,23.75 -79.167,26.042c-13.125,0.833 -19.583,-0.209 -40.625,-6.042Z" style="fill:#fff;fill-rule:nonzero;"></path><path d="M1274.46,720.417c-3.958,-10.417 -3.958,-11.25 -0.417,-7.709c1.875,1.875 3.125,5.209 2.709,7.292c-1.042,3.75 -1.042,3.75 -2.292,0.417Z" style="fill:#fff;fill-rule:nonzero;"></path><path d="M639.666,671.042c0,-1.042 1.459,-2.5 3.125,-3.125c2.5,-0.834 2.917,-2.917 1.875,-8.334c-1.25,-7.083 2.5,-20 5.834,-20c1.041,0 1.875,-10.625 2.083,-23.333l0.417,-23.542l2.5,41.667l0.625,-21.875c1.041,-38.333 1.875,-59.167 3.333,-70.625c1.042,-8.333 0.625,-11.667 -1.458,-12.917c-2.292,-1.458 -2.292,-2.5 -0,-6.25c1.666,-2.291 1.875,-3.75 0.625,-2.916c-1.25,0.625 -2.292,0.208 -2.292,-0.834c-0,-4.375 -6.042,-2.291 -6.875,2.5c-0.625,3.75 -1.042,3.334 -1.25,-1.666c-0.417,-3.334 -0.833,-7.917 -1.25,-9.792c-0.417,-2.083 0.208,-3.75 1.25,-3.75c1.25,0 1.458,-1.042 0.833,-2.083c-0.833,-1.25 -0.208,-3.75 1.459,-5.625c2.291,-3.125 2.291,-3.334 -1.042,-2.084c-3.125,1.25 -3.333,0.834 -1.458,-2.708c1.25,-2.292 3.125,-4.167 3.958,-4.167c1.042,0 2.292,-2.083 3.125,-4.583c0.625,-2.708 4.583,-10 8.75,-16.25c20.208,-30.417 26.042,-40.208 22.5,-37.5c-3.333,2.708 -3.333,2.5 0.208,-2.292c2.292,-3.125 5,-5 6.042,-4.375c1.042,0.625 1.25,0.209 0.625,-1.041c-1.875,-2.917 4.583,-11.459 7.292,-9.792c1.25,0.833 1.666,0.625 1.041,-0.625c-1.666,-2.708 3.542,-10 7.292,-10c1.458,0 2.5,-1.458 2.292,-3.333c-0.417,-1.667 2.916,-6.459 7.083,-10.417c4.375,-3.75 6.042,-5 3.958,-2.292c-6.041,7.084 -2.916,5.417 4.167,-2.083c3.333,-3.75 4.375,-5.417 2.5,-3.958c-2.083,1.666 -3.75,1.875 -3.75,0.625c-0,-2.917 36.875,-37.292 50.625,-47.292c14.375,-10.208 15.417,-13.958 2.083,-6.042c-35.833,20.834 -66.041,45.417 -105.625,86.25c-25.625,26.667 -34.583,34.167 -34.583,29.375c-0,-2.083 10.833,-17.708 13.333,-19.375c1.25,-0.833 2.5,-2.5 2.5,-3.75c0.209,-1.041 0.625,-2.291 0.834,-2.5c0.208,-0.416 0.625,-3.958 1.041,-7.916c0.834,-10.834 0.834,-10.834 3.125,-9.375c1.25,0.833 2.084,-1.042 2.084,-3.959c-0,-2.916 -1.25,-5.416 -2.5,-5.416c-1.875,-0 -1.667,-0.834 0.416,-2.084c2.084,-1.25 2.292,-2.083 0.625,-2.083c-2.083,0 -2.708,-7.292 -2.708,-29.167c-0,-18.125 -0.833,-29.166 -2.083,-29.166c-1.042,-0 -2.084,-2.5 -2.084,-5.625c0,-2.917 -0.625,-5 -1.25,-4.167c-2.291,2.083 -6.458,-3.542 -5.416,-7.292c0.416,-2.291 -0.209,-3.75 -1.875,-3.75c-1.875,0 -2.084,-0.625 -0.625,-1.666c1.25,-0.834 3.541,-4.167 5.208,-7.5c1.667,-3.334 3.542,-5.625 4.583,-5.209c0.834,0.417 3.334,-2.083 5.417,-5.833c2.292,-3.542 8.333,-9.375 13.542,-12.917c8.541,-5.833 13.333,-10.625 11.041,-10.625c-0.416,0 -8.958,6.042 -18.958,13.542c-10,7.292 -17.5,12.292 -16.667,11.25c1.459,-2.708 39.584,-31.042 41.459,-31.042c0.625,0 0.625,1.042 -0.209,2.5c-1.041,1.459 -0.625,1.667 1.042,0.834c1.458,-1.042 2.083,-2.292 1.458,-2.917c-1.875,-1.667 16.042,-13.125 18.959,-11.875c1.458,0.417 2.5,-0.208 2.083,-1.458c-0.625,-2.917 49.375,-29.167 82.917,-43.334c48.75,-21.041 108.333,-39.166 173.333,-53.125c18.542,-3.958 34.583,-7.291 35.833,-7.291c3.542,-0 2.709,20.833 -1.875,55.833c-23.958,179.375 -95.208,324.375 -199.375,406.042c-20,15.625 -56.666,38.541 -59.375,36.875c-0.833,-0.625 -1.666,-0 -1.666,1.25c-0,1.25 -0.834,1.875 -1.875,1.25c-2.917,-1.875 -8.75,1.041 -7.084,3.541c0.625,1.042 0.209,1.459 -1.041,0.834c-1.042,-0.834 -8.334,1.25 -15.834,4.791c-12.708,5.625 -36.25,13.75 -46.041,15.834c-9.167,1.875 -26.875,5 -28.542,5c-0.833,-0 -1.667,-0.834 -1.667,-1.875Z" style="fill:#fff;fill-rule:nonzero;"></path><path d="M85.916,531.25c0,-3.958 0.417,-5.625 1.042,-3.542c0.417,1.875 0.417,5.209 -0,7.292c-0.625,1.875 -1.042,0.208 -1.042,-3.75Z" style="fill:#fff;fill-rule:nonzero;"></path><path d="M655.291,473.542c3.125,-5 6.25,-8.959 6.667,-8.959c1.458,0 -6.458,12.709 -9.583,15.209c-1.667,1.458 -0.417,-1.459 2.916,-6.25Z" style="fill:#fff;fill-rule:nonzero;"></path><path d="M677.166,441.667c2.5,-3.334 5,-6.25 5.417,-6.25c0.625,-0 -0.833,2.916 -3.333,6.25c-2.5,3.541 -5,6.25 -5.417,6.25c-0.625,-0 0.833,-2.709 3.333,-6.25Z" style="fill:#fff;fill-rule:nonzero;"></path><path d="M615.708,316.667c5.625,-5.625 10.625,-10.417 11.25,-10.417c0.625,-0 -3.542,4.792 -9.167,10.417c-5.625,5.833 -10.625,10.416 -11.25,10.416c-0.625,0 3.542,-4.583 9.167,-10.416Z" style="fill:#fff;fill-rule:nonzero;"></path><path d="M631.333,303.542c-0,-0.417 3.125,-3.334 6.875,-6.875l6.667,-6.042l-6.042,6.875c-5.833,6.25 -7.5,7.708 -7.5,6.042Z" style="fill:#fff;fill-rule:nonzero;"></path></g></g></svg>